/* XPM */
static char *_62a8eb7a22b4a80af41af7fa157101bRBuZqAeMj0SpSKfa[] = {
/* columns rows colors chars-per-pixel */
"64 64 5 1 ",
"  c #A8A65E",
". c #AEAC5F",
"X c #AFAE60",
"o c #A7A691",
"O c #ABAA92",
/* pixels */
"X  .X  .X  .X  .X  .X  .X  .X  .X  .X  .X  .X  .X  .X  .X  .X  o",
"  .X  .X  .X  .X  .X  .X  .X  .X  .X  .X  .X  .X  .X  .X  .X  .O",
".X  .X  .X  .X  .X  .X  .X  .X  .X  .X  .X  .X  .X  .X  .X  .X o",
" .X  .X  .X  .X  .X  .X  .X  .X  .X  .X  .X  .X  .X  .X  .X  .Xo",
"X  .X  .X  .X  .X  .X  .X  .X  .X  .X  .X  .X  .X  .X  .X  .X  o",
"  .X  .X  .X  .X  .X  .X  .X  .X  .X  .X  .X  .X  .X  .X  .X  .O",
".X  .X  .X  .X  .X  .X  .X  .X  .X  .X  .X  .X  .X  .X  .X  .X o",
" .X  .X  .X  .X  .X  .X  .X  .X  .X  .X  .X  .X  .X  .X  .X  .Xo",
"X  .X  .X  .X  .X  .X  .X  .X  .X  .X  .X  .X  .X  .X  .X  .X  o",
"  .X  .X  .X  .X  .X  .X  .X  .X  .X  .X  .X  .X  .X  .X  .X  .O",
".X  .X  .X  .X  .X  .X  .X  .X  .X  .X  .X  .X  .X  .X  .X  .X o",
" .X  .X  .X  .X  .X  .X  .X  .X  .X  .X  .X  .X  .X  .X  .X  .Xo",
"X  .X  .X  .X  .X  .X  .X  .X  .X  .X  .X  .X  .X  .X  .X  .X  o",
"  .X  .X  .X  .X  .X  .X  .X  .X  .X  .X  .X  .X  .X  .X  .X  .O",
".X  .X  .X  .X  .X  .X  .X  .X  .X  .X  .X  .X  .X  .X  .X  .X o",
" .X  .X  .X  .X  .X  .X  .X  .X  .X  .X  .X  .X  .X  .X  .X  .Xo",
"X  .X  .X  .X  .X  .X  .X  .X  .X  .X  .X  .X  .X  .X  .X  .X  o",
"  .X  .X  .X  .X  .X  .X  .X  .X  .X  .X  .X  .X  .X  .X  .X  .O",
".X  .X  .X  .X  .X  .X  .X  .X  .X  .X  .X  .X  .X  .X  .X  .X o",
" .X  .X  .X  .X  .X  .X  .X  .X  .X  .X  .X  .X  .X  .X  .X  .Xo",
"X  .X  .X  .X  .X  .X  .X  .X  .X  .X  .X  .X  .X  .X  .X  .X  o",
"  .X  .X  .X  .X  .X  .X  .X  .X  .X  .X  .X  .X  .X  .X  .X  .O",
".X  .X  .X  .X  .X  .X  .X  .X  .X  .X  .X  .X  .X  .X  .X  .X o",
" .X  .X  .X  .X  .X  .X  .X  .X  .X  .X  .X  .X  .X  .X  .X  .Xo",
"X  .X  .X  .X  .X  .X  .X  .X  .X  .X  .X  .X  .X  .X  .X  .X  o",
"  .X  .X  .X  .X  .X  .X  .X  .X  .X  .X  .X  .X  .X  .X  .X  .O",
".X  .X  .X  .X  .X  .X  .X  .X  .X  .X  .X  .X  .X  .X  .X  .X o",
" .X  .X  .X  .X  .X  .X  .X  .X  .X  .X  .X  .X  .X  .X  .X  .Xo",
"X  .X  .X  .X  .X  .X  .X  .X  .X  .X  .X  .X  .X  .X  .X  .X  o",
"  .X  .X  .X  .X  .X  .X  .X  .X  .X  .X  .X  .X  .X  .X  .X  .O",
".X  .X  .X  .X  .X  .X  .X  .X  .X  .X  .X  .X  .X  .X  .X  .X o",
" .X  .X  .X  .X  .X  .X  .X  .X  .X  .X  .X  .X  .X  .X  .X  .Xo",
"X  .X  .X  .X  .X  .X  .X  .X  .X  .X  .X  .X  .X  .X  .X  .X  o",
"  .X  .X  .X  .X  .X  .X  .X  .X  .X  .X  .X  .X  .X  .X  .X  .O",
".X  .X  .X  .X  .X  .X  .X  .X  .X  .X  .X  .X  .X  .X  .X  .X o",
" .X  .X  .X  .X  .X  .X  .X  .X  .X  .X  .X  .X  .X  .X  .X  .Xo",
"X  .X  .X  .X  .X  .X  .X  .X  .X  .X  .X  .X  .X  .X  .X  .X  o",
"  .X  .X  .X  .X  .X  .X  .X  .X  .X  .X  .X  .X  .X  .X  .X  .O",
".X  .X  .X  .X  .X  .X  .X  .X  .X  .X  .X  .X  .X  .X  .X  .X o",
" .X  .X  .X  .X  .X  .X  .X  .X  .X  .X  .X  .X  .X  .X  .X  .Xo",
"X  .X  .X  .X  .X  .X  .X  .X  .X  .X  .X  .X  .X  .X  .X  .X  o",
"  .X  .X  .X  .X  .X  .X  .X  .X  .X  .X  .X  .X  .X  .X  .X  .O",
".X  .X  .X  .X  .X  .X  .X  .X  .X  .X  .X  .X  .X  .X  .X  .X o",
" .X  .X  .X  .X  .X  .X  .X  .X  .X  .X  .X  .X  .X  .X  .X  .Xo",
"X  .X  .X  .X  .X  .X  .X  .X  .X  .X  .X  .X  .X  .X  .X  .X  o",
"  .X  .X  .X  .X  .X  .X  .X  .X  .X  .X  .X  .X  .X  .X  .X  .O",
".X  .X  .X  .X  .X  .X  .X  .X  .X  .X  .X  .X  .X  .X  .X  .X o",
" .X  .X  .X  .X  .X  .X  .X  .X  .X  .X  .X  .X  .X  .X  .X  .Xo",
"X  .X  .X  .X  .X  .X  .X  .X  .X  .X  .X  .X  .X  .X  .X  .X  o",
"  .X  .X  .X  .X  .X  .X  .X  .X  .X  .X  .X  .X  .X  .X  .X  .O",
".X  .X  .X  .X  .X  .X  .X  .X  .X  .X  .X  .X  .X  .X  .X  .X o",
" .X  .X  .X  .X  .X  .X  .X  .X  .X  .X  .X  .X  .X  .X  .X  .Xo",
"X  .X  .X  .X  .X  .X  .X  .X  .X  .X  .X  .X  .X  .X  .X  .X  o",
"  .X  .X  .X  .X  .X  .X  .X  .X  .X  .X  .X  .X  .X  .X  .X  .O",
".X  .X  .X  .X  .X  .X  .X  .X  .X  .X  .X  .X  .X  .X  .X  .X o",
" .X  .X  .X  .X  .X  .X  .X  .X  .X  .X  .X  .X  .X  .X  .X  .Xo",
"X  .X  .X  .X  .X  .X  .X  .X  .X  .X  .X  .X  .X  .X  .X  .X  o",
"  .X  .X  .X  .X  .X  .X  .X  .X  .X  .X  .X  .X  .X  .X  .X  .O",
".X  .X  .X  .X  .X  .X  .X  .X  .X  .X  .X  .X  .X  .X  .X  .X o",
" .X  .X  .X  .X  .X  .X  .X  .X  .X  .X  .X  .X  .X  .X  .X  .Xo",
"X  .X  .X  .X  .X  .X  .X  .X  .X  .X  .X  .X  .X  .X  .X  .X  o",
"  .X  .X  .X  .X  .X  .X  .X  .X  .X  .X  .X  .X  .X  .X  .X  .O",
".X  .X  .X  .X  .X  .X  .X  .X  .X  .X  .X  .X  .X  .X  .X  .X o",
" .X  .X  .X  .X  .X  .X  .X  .X  .X  .X  .X  .X  .X  .X  .X  .Xo"
};
