/* XPM */
static char * frame1_xpm[] = {
"64 64 60 1",
" 	c #450200",
".	c #440200",
"+	c #000000",
"@	c #460400",
"#	c #791002",
"$	c #780702",
"%	c #790701",
"&	c #B85800",
"*	c #860802",
"=	c #820702",
"-	c #F8D400",
";	c #8B0802",
">	c #F7D300",
",	c #F3CF00",
"'	c #F4D000",
")	c #880802",
"!	c #890802",
"~	c #8C0802",
"{	c #F6D200",
"]	c #8E0802",
"^	c #8C0702",
"/	c #F9D500",
"(	c #8E0702",
"_	c #8F0802",
":	c #8F0702",
"<	c #910802",
"[	c #910902",
"}	c #FAD600",
"|	c #940902",
"1	c #FBD700",
"2	c #950903",
"3	c #F4CF00",
"4	c #980A03",
"5	c #9A0A03",
"6	c #F7D200",
"7	c #F5D100",
"8	c #FBD600",
"9	c #F9D400",
"0	c #FDD900",
"a	c #F3CE00",
"b	c #FCD800",
"c	c #FFDB00",
"d	c #9A0B03",
"e	c #800802",
"f	c #F5CF00",
"g	c #BE6800",
"h	c #3B1801",
"i	c #3C1801",
"j	c #A75B00",
"k	c #B85700",
"l	c #FFCA00",
"m	c #BD5800",
"n	c #C75A00",
"o	c #E48E00",
"p	c #E49000",
"q	c #C86400",
"r	c #250D04",
"s	c #401100",
"t	c #502002",
"u	c #030307",
" .++++++++++++++++++++++++++++++++++++++++++++++++++++++++++++ @",
"#$++++++++++++++++++++++++++++++++++++++++++++++++++++++++++++%#",
"&*++++++++++++++++++++++++++++++++++++++++++++++++++++++++++++=&",
"-*++++++++++++++++++++++++++++++++++++++++++++++++++++++++++++;>",
"-*++++++++++++++++++++++++++++++++++++++++++++++++++++++++++++;,",
"-*++++++++++++++++++++++++++++++++++++++++++++++++++++++++++++;'",
"-)++++++++++++++++++++++++++++++++++++++++++++++++++++++++++++;'",
"-!++++++++++++++++++++++++++++++++++++++++++++++++++++++++++++;'",
"-!++++++++++++++++++++++++++++++++++++++++++++++++++++++++++++;'",
"-;++++++++++++++++++++++++++++++++++++++++++++++++++++++++++++~{",
"-]++++++++++++++++++++++++++++++++++++++++++++++++++++++++++++^/",
"-]++++++++++++++++++++++++++++++++++++++++++++++++++++++++++++('",
"-]++++++++++++++++++++++++++++++++++++++++++++++++++++++++++++('",
"-_++++++++++++++++++++++++++++++++++++++++++++++++++++++++++++:>",
"-<++++++++++++++++++++++++++++++++++++++++++++++++++++++++++++:-",
"-<++++++++++++++++++++++++++++++++++++++++++++++++++++++++++++:/",
"-[++++++++++++++++++++++++++++++++++++++++++++++++++++++++++++:}",
"-|++++++++++++++++++++++++++++++++++++++++++++++++++++++++++++(/",
"-|++++++++++++++++++++++++++++++++++++++++++++++++++++++++++++:1",
"-2++++++++++++++++++++++++++++++++++++++++++++++++++++++++++++:}",
"-2++++++++++++++++++++++++++++++++++++++++++++++++++++++++++++:3",
"-4++++++++++++++++++++++++++++++++++++++++++++++++++++++++++++:,",
"-5++++++++++++++++++++++++++++++++++++++++++++++++++++++++++++:,",
"-5++++++++++++++++++++++++++++++++++++++++++++++++++++++++++++:,",
"-5++++++++++++++++++++++++++++++++++++++++++++++++++++++++++++:'",
"-5++++++++++++++++++++++++++++++++++++++++++++++++++++++++++++:'",
"-5++++++++++++++++++++++++++++++++++++++++++++++++++++++++++++:6",
"-5++++++++++++++++++++++++++++++++++++++++++++++++++++++++++++:}",
"-5++++++++++++++++++++++++++++++++++++++++++++++++++++++++++++:3",
"-5++++++++++++++++++++++++++++++++++++++++++++++++++++++++++++:'",
"-5++++++++++++++++++++++++++++++++++++++++++++++++++++++++++++:7",
"-5++++++++++++++++++++++++++++++++++++++++++++++++++++++++++++:7",
"-5++++++++++++++++++++++++++++++++++++++++++++++++++++++++++++:/",
"-5++++++++++++++++++++++++++++++++++++++++++++++++++++++++++++:}",
"-5++++++++++++++++++++++++++++++++++++++++++++++++++++++++++++:-",
"-5++++++++++++++++++++++++++++++++++++++++++++++++++++++++++++:/",
"-5++++++++++++++++++++++++++++++++++++++++++++++++++++++++++++:/",
"-5++++++++++++++++++++++++++++++++++++++++++++++++++++++++++++:-",
"-5++++++++++++++++++++++++++++++++++++++++++++++++++++++++++++:}",
"-5++++++++++++++++++++++++++++++++++++++++++++++++++++++++++++:8",
"-5++++++++++++++++++++++++++++++++++++++++++++++++++++++++++++:9",
"-5++++++++++++++++++++++++++++++++++++++++++++++++++++++++++++:9",
"-5++++++++++++++++++++++++++++++++++++++++++++++++++++++++++++:}",
"-5++++++++++++++++++++++++++++++++++++++++++++++++++++++++++++:}",
"15++++++++++++++++++++++++++++++++++++++++++++++++++++++++++++:>",
"/5++++++++++++++++++++++++++++++++++++++++++++++++++++++++++++:,",
"-5++++++++++++++++++++++++++++++++++++++++++++++++++++++++++++:'",
"05++++++++++++++++++++++++++++++++++++++++++++++++++++++++++++:/",
"05++++++++++++++++++++++++++++++++++++++++++++++++++++++++++++:}",
"15++++++++++++++++++++++++++++++++++++++++++++++++++++++++++++:a",
"15++++++++++++++++++++++++++++++++++++++++++++++++++++++++++++:,",
"05++++++++++++++++++++++++++++++++++++++++++++++++++++++++++++:>",
"}5++++++++++++++++++++++++++++++++++++++++++++++++++++++++++++:}",
"b5++++++++++++++++++++++++++++++++++++++++++++++++++++++++++++:/",
"b5++++++++++++++++++++++++++++++++++++++++++++++++++++++++++++:'",
"15++++++++++++++++++++++++++++++++++++++++++++++++++++++++++++:,",
"c5++++++++++++++++++++++++++++++++++++++++++++++++++++++++++++:7",
"c5++++++++++++++++++++++++++++++++++++++++++++++++++++++++++++:/",
"cd++++++++++++++++++++++++++++++++++++++++++++++++++++++++++++:>",
"c5++++++++++++++++++++++++++++++++++++++++++++++++++++++++++++ef",
"gh++++++++++++++++++++++++++++++++++++++++++++++++++++++++++++ij",
"kl++++++++++++++++++++++++++++++++++++++++++++++++++++++++++++lm",
"no++++++++++++++++++++++++++++++++++++++++++++++++++++++++++++pq",
"rs++++++++++++++++++++++++++++++++++++++++++++++++++++++++++++tu"};
