/* XPM */
static char * frame8_xpm[] = {
"64 64 253 2",
"  	c #450200",
". 	c #440200",
"+ 	c #550401",
"@ 	c #3D0100",
"# 	c #380100",
"$ 	c #3A0100",
"% 	c #520401",
"& 	c #460200",
"* 	c #390100",
"= 	c #4F0300",
"- 	c #3B0100",
"; 	c #3E0200",
"> 	c #000000",
", 	c #3F0200",
"' 	c #4F0400",
") 	c #3D0200",
"! 	c #370100",
"~ 	c #460400",
"{ 	c #791002",
"] 	c #780702",
"^ 	c #A20C04",
"/ 	c #690501",
"( 	c #5B0300",
"_ 	c #620401",
": 	c #700702",
"< 	c #790601",
"[ 	c #5F0400",
"} 	c #6B0702",
"| 	c #640501",
"1 	c #820702",
"2 	c #8F0A03",
"3 	c #690601",
"4 	c #680501",
"5 	c #5E0300",
"6 	c #670400",
"7 	c #9E0D05",
"8 	c #730702",
"9 	c #750802",
"0 	c #950B03",
"a 	c #620501",
"b 	c #910A03",
"c 	c #7E0701",
"d 	c #5F0300",
"e 	c #9B0C04",
"f 	c #6F0702",
"g 	c #590200",
"h 	c #A30C04",
"i 	c #790701",
"j 	c #B85800",
"k 	c #860802",
"l 	c #A60C04",
"m 	c #740501",
"n 	c #630300",
"o 	c #6F0501",
"p 	c #7C0902",
"q 	c #830702",
"r 	c #680400",
"s 	c #770802",
"t 	c #6D0501",
"u 	c #940903",
"v 	c #9A0B03",
"w 	c #750702",
"x 	c #740702",
"y 	c #780601",
"z 	c #A20D05",
"A 	c #7E0802",
"B 	c #820902",
"C 	c #950A03",
"D 	c #770400",
"E 	c #750601",
"F 	c #8C0902",
"G 	c #880802",
"H 	c #790702",
"I 	c #620300",
"J 	c #740601",
"K 	c #F8D400",
"L 	c #A80C04",
"M 	c #7E0902",
"N 	c #890802",
"O 	c #690400",
"P 	c #920A03",
"Q 	c #800601",
"R 	c #A60D04",
"S 	c #830902",
"T 	c #7B0501",
"U 	c #730601",
"V 	c #970B03",
"W 	c #8F0802",
"X 	c #7B0601",
"Y 	c #A80D04",
"Z 	c #8B0802",
"` 	c #F7D300",
" .	c #730501",
"..	c #800802",
"+.	c #6B0400",
"@.	c #940A03",
"#.	c #9B0B03",
"$.	c #770702",
"%.	c #830601",
"&.	c #830701",
"*.	c #830802",
"=.	c #820601",
"-.	c #7C0702",
";.	c #7C0601",
">.	c #F3CF00",
",.	c #780501",
"'.	c #820802",
").	c #8E0802",
"!.	c #6C0401",
"~.	c #950903",
"{.	c #7B0701",
"].	c #860601",
"^.	c #AA0D04",
"/.	c #850601",
"(.	c #920802",
"_.	c #F4D000",
":.	c #790501",
"<.	c #9A0A03",
"[.	c #910802",
"}.	c #8C0802",
"|.	c #6D0401",
"1.	c #7E0501",
"2.	c #A30D04",
"3.	c #7C0501",
"4.	c #6F0401",
"5.	c #9D0B03",
"6.	c #7F0501",
"7.	c #880601",
"8.	c #8E0701",
"9.	c #6C0400",
"0.	c #6D0400",
"a.	c #910902",
"b.	c #700400",
"c.	c #800501",
"d.	c #890501",
"e.	c #6F0400",
"f.	c #A00C04",
"g.	c #F6D200",
"h.	c #630200",
"i.	c #880702",
"j.	c #A20D04",
"k.	c #850501",
"l.	c #8C0702",
"m.	c #F9D500",
"n.	c #830500",
"o.	c #820501",
"p.	c #8E0702",
"q.	c #8F0702",
"r.	c #710400",
"s.	c #820500",
"t.	c #8B0702",
"u.	c #940802",
"v.	c #920902",
"w.	c #780802",
"x.	c #860501",
"y.	c #830501",
"z.	c #940902",
"A.	c #670300",
"B.	c #8B0501",
"C.	c #910701",
"D.	c #890601",
"E.	c #980B04",
"F.	c #830400",
"G.	c #880501",
"H.	c #730400",
"I.	c #8B0601",
"J.	c #FAD600",
"K.	c #780500",
"L.	c #950902",
"M.	c #A50C04",
"N.	c #880500",
"O.	c #FBD700",
"P.	c #700501",
"Q.	c #9B0B04",
"R.	c #750400",
"S.	c #9E0C04",
"T.	c #860500",
"U.	c #970A03",
"V.	c #9E0D04",
"W.	c #F4CF00",
"X.	c #980A03",
"Y.	c #AF0C04",
"Z.	c #770501",
"`.	c #800500",
" +	c #9E0B03",
".+	c #AF0D04",
"++	c #B00C04",
"@+	c #800400",
"#+	c #A00B03",
"$+	c #8C0601",
"%+	c #B20D04",
"&+	c #B00D04",
"*+	c #850500",
"=+	c #F7D200",
"-+	c #F5D100",
";+	c #710500",
">+	c #700401",
",+	c #FBD600",
"'+	c #F9D400",
")+	c #780400",
"!+	c #FDD900",
"~+	c #F3CE00",
"{+	c #FCD800",
"]+	c #FFDB00",
"^+	c #3A0801",
"/+	c #3D0801",
"(+	c #520601",
"_+	c #380B01",
":+	c #740500",
"<+	c #750500",
"[+	c #510600",
"}+	c #370B01",
"|+	c #510801",
"1+	c #410801",
"2+	c #3E0801",
"3+	c #580701",
"4+	c #350A01",
"5+	c #5E0400",
"6+	c #F5CF00",
"7+	c #BE6800",
"8+	c #3B1801",
"9+	c #3C1801",
"0+	c #221101",
"a+	c #2C1301",
"b+	c #1E0F01",
"c+	c #A75B00",
"d+	c #B85700",
"e+	c #FFCA00",
"f+	c #FFD900",
"g+	c #301702",
"h+	c #FFC700",
"i+	c #231101",
"j+	c #FFD500",
"k+	c #FCD500",
"l+	c #BD5800",
"m+	c #C75A00",
"n+	c #E48E00",
"o+	c #FFBC00",
"p+	c #2E1202",
"q+	c #FFB200",
"r+	c #C96200",
"s+	c #1E0E02",
"t+	c #FFB800",
"u+	c #FFDD00",
"v+	c #DD9800",
"w+	c #E49000",
"x+	c #C86400",
"y+	c #250D04",
"z+	c #401100",
"A+	c #582100",
"B+	c #0A0306",
"C+	c #030307",
"D+	c #502002",
"  . + @ # # $ % & # * * . = * * # - + ; > > > > > > > > > > > > > > > > > > > > > > > > , + - # * # '   * * #   + ) # ! - +   ~ ",
"{ ] ^ / ( _ : ^ < [ } | 1 2 3 4 5 6 7 8 > > > > > > > > > > > > > > > > > > > > > > > > 9 0 6 [ } a b c 4 4 d < e f [ g / h i { ",
"j k l m n o p l q r s t u v w x r y z A > > > > > > > > > > > > > > > > > > > > > > > > B C D r s E 0 F 8 8 6 G l H r I J l 1 j ",
"K k L E n o M L N O s t P v x 8 r Q R 1 > > > > > > > > > > > > > > > > > > > > > > > > S C T r s U V W 8 8 r N l H r I X Y Z ` ",
"K k L  .n o ..L N +.s E @.#.$.8 O %.L &.> > > > > > > > > > > > > > > > > > > > > > > > *.C =.r s E V W x 8 r N L -.r I ;.L Z >.",
"K k L ,.n o '.L ).!.s E ~.#.{.8 +.].^./.> > > > > > > > > > > > > > > > > > > > > > > > q C /.r s X V (.x 8 O Z L i r I ;.^.Z _.",
"K G L :.n o '.L Z !.s E <.v ;.8 +.].^./.> > > > > > > > > > > > > > > > > > > > > > > > Z C ].O s X V [.8 8 +.Z L < r I ;.^.Z _.",
"K N L :.n o '.L }.|.s E <.v 1.8 r &.2.].> > > > > > > > > > > > > > > > > > > > > > > > Z C ].+.s 3.V [.J 8 +.Z L ;.r I =.L Z _.",
"K N L T n o '.L ).4.s E <.5.6.8 r q z 7.> > > > > > > > > > > > > > > > > > > > > > > > 8.C ].9.s 3.V (.E 8 0.a.l %.r I %.L Z _.",
"K Z L 6.n o %.L ).b.s E <.5.c.8 r q z d.> > > > > > > > > > > > > > > > > > > > > > > > 8.C ].e.s 3.V W X 8 0.a.f.%.r I %.L }.g.",
"K ).L 6.h.o %.L W b.s 3.<.5.6.8 r i.j.d.> > > > > > > > > > > > > > > > > > > > > > > > 8.C ].0.s 1.V ).;.8 e.[.f.k.r I %.L l.m.",
"K ).L n.h.o %.L ).b.s 3.<.v o.8 +.Z j.d.> > > > > > > > > > > > > > > > > > > > > > > > 8.C ].!.s /.V ).;.8 e.[.f.k.r I %.L p._.",
"K ).L n.h.o %.L q.r.s 3.<.v s.J +.t.L d.> > > > > > > > > > > > > > > > > > > > > > > > u.V /.!.s ].V (.6.8 e.v.f.n.r I /.L p._.",
"K W L n.h.o k.L q.r.s 3.<.#.o.U +.Z L d.> > > > > > > > > > > > > > > > > > > > > > > > [.V /.!.w.].V (.6.8 e.v.f.n.r I x.L q.` ",
"K [.L n.h.o x.L q.r.s 1.<.v o.U +.Z L d.> > > > > > > > > > > > > > > > > > > > > > > > u.V ].|.w.y.V (.1.8 b.z.L n.r A.x.L q.K ",
"K [.L n.n o B.L q.r.s 1.v v s.J 9.}.L d.> > > > > > > > > > > > > > > > > > > > > > > > C.V D.4.w.y.E.(.1.8 b.z.l F.r A.d.L q.m.",
"K a.l n.n o G.L q.H.s 1.v v s.J 9.}.L k.> > > > > > > > > > > > > > > > > > > > > > > > C.V I.b.s s.E.[.1.8 b.z.l F.r A.B.L q.J.",
"K z.f.n.n o d.L q.K.s 1.v v s.J 9.}.L G.> > > > > > > > > > > > > > > > > > > > > > > > C.V D.4.w.n.E.).1.x b.L.l F.r A.B.L p.m.",
"K z.f.F.n o d.L q.K.s 6.v v s.J 0.l.L d.> > > > > > > > > > > > > > > > > > > > > > > > q.0 D.o w.n.E.).1.8 b.z.M.N.r A.B.L q.O.",
"K ~.f.F.n o d.L q.K.s o.#.#.s.J 0.p.L d.> > > > > > > > > > > > > > > > > > > > > > > > u.V D.P.w.n.Q.).1.8 R.z.S.T.r A.B.L q.J.",
"K ~.f.F.n o d.L q.K.s 1.#.#.s.J e.p.L d.> > > > > > > > > > > > > > > > > > > > > > > > [.U.D.P.w.n.V.).1.8 D z.S.T.r 6 I.^.q.W.",
"K X.l n.n P.B.Y.q.Z.s `. +5.s.J b.q.Y.d.> > > > > > > > > > > > > > > > > > > > > > > > u.U.I.P.w.x.V.).1.8 D U.M.T.r A.I..+q.>.",
"K <.L n.n o B.++q.Z.s @+#+5.s.J b.q.++d.> > > > > > > > > > > > > > > > > > > > > > > > u.V I.b.w.G.V.(.c.8 D X.L T.r A.$+%+q.>.",
"K <.L n.n o B.++q.Z.s @+#+5.s.J b.q.++d.> > > > > > > > > > > > > > > > > > > > > > > > u.V D.4.w.7.V.W 1.8 D X.L T.r A.I.&+q.>.",
"K <.L n.n o B.++q.Z.s @+#+5.s.J b.q.++d.> > > > > > > > > > > > > > > > > > > > > > > > C.V D.P.w.7.V.).1.8 D X.L T.r A.I.&+q._.",
"K <.L n.n o B.++q.Z.s @+#+5.s.J b.q.++d.> > > > > > > > > > > > > > > > > > > > > > > > u.V I.P.w.7.V.).1.U D X.L T.r A.I.&+q._.",
"K <.L *+n o B.++q.K.s @+#+5.s.J b.q.++d.> > > > > > > > > > > > > > > > > > > > > > > > u.V I.P.w.7.S.).1.U D X.L T.r A.I.&+q.=+",
"K <.L N.n o B.++q.Z.s @+#+5.s.J b.q.++d.> > > > > > > > > > > > > > > > > > > > > > > > u.V I.b.w.G.V.[.c.x D X.L T.r A.I.&+q.J.",
"K <.L N.n o B.++q.Z.s @+#+5.s.J b.q.++d.> > > > > > > > > > > > > > > > > > > > > > > > [.V I.4.w.G.V.).1.x D X.L T.r A.I.&+q.W.",
"K <.L *+n o B.++q.Z.s @+#+5.s.J b.q.++d.> > > > > > > > > > > > > > > > > > > > > > > > [.V I.4.w.7.V.).1.8 D X.L T.r A.I.&+q._.",
"K <.L *+n o B.++q.Z.s @+#+5.s.J b.q.++d.> > > > > > > > > > > > > > > > > > > > > > > > [.V I.4.w.7.V.).6.8 D X.L T.r A.I.&+q.-+",
"K <.L N.n o B.++q.Z.s @+#+5.s.J b.q.++d.> > > > > > > > > > > > > > > > > > > > > > > > u.V I.P.w.7.S.).6.8 D X.L T.r A.I.&+q.-+",
"K <.L n.n P.B.++q.Z.s @+#+5.s.J b.q.++d.> > > > > > > > > > > > > > > > > > > > > > > > u.U.I.b.w.G.V.W 6.8 D X.L T.r A.I.&+q.m.",
"K <.L n.n ;+B.++q.Z.s @+#+5.s.J b.q.++d.> > > > > > > > > > > > > > > > > > > > > > > > [.V I.4.w.7.V.(.6.8 D X.L T.r A.I.&+q.J.",
"K <.L N.n P.B.++q.Z.s @+#+5.s.J b.q.++d.> > > > > > > > > > > > > > > > > > > > > > > > u.V D.o w.7.V.).1.8 D X.L T.r A.I.&+q.K ",
"K <.L N.n o B.++q.Z.s @+#+5.s.J b.q.++d.> > > > > > > > > > > > > > > > > > > > > > > > C.V D.P.w.7.V.).1.U D X.L T.r A.I.&+q.m.",
"K <.L N.n o B.++q.Z.s @+#+5.s.J b.q.++d.> > > > > > > > > > > > > > > > > > > > > > > > u.V I.>+w.7.V.).1.U D X.L T.r A.I.&+q.m.",
"K <.L *+n o B.++q.Z.s @+#+5.s.J b.q.++d.> > > > > > > > > > > > > > > > > > > > > > > > u.V I.>+w.G.V.).1.U D X.L T.r A.I.&+q.K ",
"K <.L n.n o B.++q.Z.s @+#+5.s.J b.q.++d.> > > > > > > > > > > > > > > > > > > > > > > > u.V I.b.w.G.V.).1.U D X.L T.r A.$+%+q.J.",
"K <.L n.n o B.++q.Z.s @+#+5.s.J b.q.++d.> > > > > > > > > > > > > > > > > > > > > > > > u.V I.b.w.G.V.).6.8 D X.L T.r A.I.&+q.,+",
"K <.L n.n o B.++q.Z.s @+#+5.s.J b.q.++d.> > > > > > > > > > > > > > > > > > > > > > > > C.V D.4.w.7.V.).1.8 D X.L T.r A.I.&+q.'+",
"K <.L n.n o B.++q.Z.s @+#+5.s.J b.q.++d.> > > > > > > > > > > > > > > > > > > > > > > > u.V I.b.w.7.V.).1.8 D X.L T.r A.I.&+q.'+",
"K <.L n.n o B.++q.Z.s @+#+5.s.J b.q.++d.> > > > > > > > > > > > > > > > > > > > > > > > u.V I.P.w.7.V.).1.8 D X.L T.r A.I.&+q.J.",
"K <.L N.n o B.++q.Z.s @+#+5.s.J b.q.++d.> > > > > > > > > > > > > > > > > > > > > > > > [.V D.P.w.7.V.).1.U )+<.L T.r A.I.&+q.J.",
"O.<.L N.n o B.++q.Z.s @+#+5.s.J b.q.++d.> > > > > > > > > > > > > > > > > > > > > > > > C.U.I.4.w.7.V.).1.U D X.L T.r A.I.&+q.` ",
"m.<.L *+n P.B.++q.Z.s @+#+5.s.J b.q.++d.> > > > > > > > > > > > > > > > > > > > > > > > C.U.I.P.w.G.V.).1.U D X.L T.r A.I.&+q.>.",
"K <.L *+n P.B.++q.Z.s @+#+5.s.J b.q.++d.> > > > > > > > > > > > > > > > > > > > > > > > C.U.D.P.w.G.V.).1.U D X.L T.r A.I.&+q._.",
"!+<.L N.n o B.++q.Z.s @+#+5.s.J b.q.++d.> > > > > > > > > > > > > > > > > > > > > > > > u.V D.P.w.7.V.).6.8 D X.L T.r A.I.&+q.m.",
"!+<.L n.n o B.++q.Z.s @+#+5.s.J b.q.++d.> > > > > > > > > > > > > > > > > > > > > > > > u.V D.P.w.G.V.W o.8 D X.L T.r A.I.&+q.J.",
"O.<.L n.n o B.++q.Z.s @+#+5.s.J b.q.++d.> > > > > > > > > > > > > > > > > > > > > > > > u.V I.P.w.7.V.(.1.U D X.L T.r A.I.&+q.~+",
"O.<.L *+n o I.++q.K.s @+#+5.s.J b.q.++d.> > > > > > > > > > > > > > > > > > > > > > > > u.V I.b.w.7.V.).1.U D X.L T.r A.I.&+q.>.",
"!+<.L *+n o I.++q.Z.s @+#+5.s.J b.q.++d.> > > > > > > > > > > > > > > > > > > > > > > > u.V I.b.w.7.V.).1.U D X.L T.r A.I.&+q.` ",
"J.<.L N.n o B.++q.Z.s @+#+5.s.J b.q.++d.> > > > > > > > > > > > > > > > > > > > > > > > C.V I.4.w.G.V.).1.U D X.L T.r A.I.&+q.J.",
"{+<.L *+n P.B.++q.Z.s @+#+5.s.J b.q.++d.> > > > > > > > > > > > > > > > > > > > > > > > u.U.I.P.w.G.V.).1.U D X.L T.r A.I.&+q.m.",
"{+<.L n.n o B.++q.Z.s @+#+5.s.J b.q.++d.> > > > > > > > > > > > > > > > > > > > > > > > u.U.I.b.w.G.V.).1.U D X.L T.r A.I.&+q._.",
"O.<.L n.n o B.++q.Z.s @+#+5.s.J b.q.++d.> > > > > > > > > > > > > > > > > > > > > > > > u.V I.P.w.G.V.).o.8 D X.L T.r A.I.&+q.>.",
"]+<.L n.n o B.++q.Z.s @+#+5.s.J b.q.++d.> > > > > > > > > > > > > > > > > > > > > > > > [.V D.P.w.7.V.).1.8 D X.L T.r A.I.&+q.-+",
"]+<.L n.n o B.++q.Z.s @+#+5.s.J b.q.++d.> > > > > > > > > > > > > > > > > > > > > > > > u.V I.P.w.7.V.).1.8 D X.L T.r A.I.&+q.m.",
"]+v L n.n o B.++q.Z.s @+#+5.s.J b.q.++d.> > > > > > > > > > > > > > > > > > > > > > > > u.U.I.P.w.7.V.).1.8 D X.L T.r A.I.&+q.` ",
"]+<.L n.^+/+B.++q.(+_+:+#+5.<+_+[+q.++d.> > > > > > > > > > > > > > > > > > > > > > > > u.V ;.}+|+7.V.).1+2+D X.L 3+4+5+I.&+..6+",
"7+8+9+9+0+0+9+9+a+a+b+9+a+a+9+b+a+a+9+9+> > > > > > > > > > > > > > > > > > > > > > > > a+a+9+b+a+a+9+9+0+0+9+9+a+a+b+9+a+a+9+c+",
"d+e+f+f+g+g+h+h+d+d+i+h+d+d+h+i+d+d+h+h+> > > > > > > > > > > > > > > > > > > > > > > > d+d+h+i+d+d+h+h+g+g+h+h+d+d+i+j+k+f+e+l+",
"m+n+o+o+p+p+q+q+r+m+s+t+r+r+]+s+m+r+u+u+> > > > > > > > > > > > > > > > > > > > > > > > r+r+]+s+m+r+u+u+p+p+u+u+r+m+s+]+v+r+w+x+",
"y+z+A+A+B+B+A+A+z+y+C+D+z+z+D+C+y+z+A+A+> > > > > > > > > > > > > > > > > > > > > > > > z+z+D+C+y+z+A+A+B+B+A+A+z+y+C+D+z+z+D+C+"};
