/* XPM */
static char * frame5_xpm[] = {
"64 64 184 2",
"  	c #450200",
". 	c #440200",
"+ 	c #550401",
"@ 	c #3D0100",
"# 	c #380100",
"$ 	c #3A0100",
"% 	c #520401",
"& 	c #460200",
"* 	c #390100",
"= 	c #000000",
"- 	c #3D0200",
"; 	c #370100",
"> 	c #3B0100",
", 	c #460400",
"' 	c #791002",
") 	c #780702",
"! 	c #A20C04",
"~ 	c #690501",
"{ 	c #5B0300",
"] 	c #620401",
"^ 	c #700702",
"/ 	c #790601",
"( 	c #5F0400",
"_ 	c #6B0702",
": 	c #680501",
"< 	c #5F0300",
"[ 	c #9B0C04",
"} 	c #6F0702",
"| 	c #590200",
"1 	c #A30C04",
"2 	c #790701",
"3 	c #B85800",
"4 	c #860802",
"5 	c #A60C04",
"6 	c #740501",
"7 	c #630300",
"8 	c #6F0501",
"9 	c #7C0902",
"0 	c #830702",
"a 	c #680400",
"b 	c #770802",
"c 	c #730702",
"d 	c #670400",
"e 	c #880802",
"f 	c #790702",
"g 	c #620300",
"h 	c #740601",
"i 	c #820702",
"j 	c #F8D400",
"k 	c #A80C04",
"l 	c #750601",
"m 	c #7E0902",
"n 	c #890802",
"o 	c #690400",
"p 	c #7B0601",
"q 	c #A80D04",
"r 	c #8B0802",
"s 	c #F7D300",
"t 	c #730501",
"u 	c #800802",
"v 	c #6B0400",
"w 	c #7C0702",
"x 	c #7C0601",
"y 	c #F3CF00",
"z 	c #780501",
"A 	c #820802",
"B 	c #8E0802",
"C 	c #6C0401",
"D 	c #AA0D04",
"E 	c #F4D000",
"F 	c #790501",
"G 	c #8C0802",
"H 	c #6D0401",
"I 	c #820601",
"J 	c #7B0501",
"K 	c #6F0401",
"L 	c #6D0400",
"M 	c #910902",
"N 	c #830601",
"O 	c #7F0501",
"P 	c #700400",
"Q 	c #A00C04",
"R 	c #F6D200",
"S 	c #630200",
"T 	c #8F0802",
"U 	c #6F0400",
"V 	c #910802",
"W 	c #850501",
"X 	c #8C0702",
"Y 	c #F9D500",
"Z 	c #830500",
"` 	c #8E0702",
" .	c #8F0702",
"..	c #710400",
"+.	c #920902",
"@.	c #850601",
"#.	c #860501",
"$.	c #940902",
"%.	c #670300",
"&.	c #8B0501",
"*.	c #830400",
"=.	c #890501",
"-.	c #880501",
";.	c #730400",
">.	c #FAD600",
",.	c #780500",
"'.	c #740702",
").	c #950902",
"!.	c #A50C04",
"~.	c #880500",
"{.	c #FBD700",
"].	c #950903",
"^.	c #750400",
"/.	c #9E0C04",
"(.	c #860500",
"_.	c #770400",
":.	c #8B0601",
"<.	c #F4CF00",
"[.	c #980A03",
"}.	c #700501",
"|.	c #AF0C04",
"1.	c #770501",
"2.	c #970A03",
"3.	c #AF0D04",
"4.	c #9A0A03",
"5.	c #B00C04",
"6.	c #8C0601",
"7.	c #B20D04",
"8.	c #B00D04",
"9.	c #730601",
"0.	c #850500",
"a.	c #F7D200",
"b.	c #F5D100",
"c.	c #710500",
"d.	c #FBD600",
"e.	c #F9D400",
"f.	c #780400",
"g.	c #FDD900",
"h.	c #F3CE00",
"i.	c #FCD800",
"j.	c #FFDB00",
"k.	c #9A0B03",
"l.	c #3A0801",
"m.	c #3D0801",
"n.	c #520601",
"o.	c #380B01",
"p.	c #3E0801",
"q.	c #580701",
"r.	c #350A01",
"s.	c #5E0400",
"t.	c #F5CF00",
"u.	c #BE6800",
"v.	c #3B1801",
"w.	c #3C1801",
"x.	c #221101",
"y.	c #2C1301",
"z.	c #1E0F01",
"A.	c #A75B00",
"B.	c #B85700",
"C.	c #FFCA00",
"D.	c #FFD900",
"E.	c #301702",
"F.	c #FFC700",
"G.	c #231101",
"H.	c #FFD500",
"I.	c #FCD500",
"J.	c #BD5800",
"K.	c #C75A00",
"L.	c #E48E00",
"M.	c #FFBC00",
"N.	c #2E1202",
"O.	c #FFB200",
"P.	c #C96200",
"Q.	c #1E0E02",
"R.	c #FFDD00",
"S.	c #DD9800",
"T.	c #E49000",
"U.	c #C86400",
"V.	c #250D04",
"W.	c #401100",
"X.	c #582100",
"Y.	c #0A0306",
"Z.	c #030307",
"`.	c #502002",
"  . + @ # # $ % & # * = = = = = = = = = = = = = = = = = = = = = = = = = = = = = = = = = = = = = = = = = = * #   + - # ; > +   , ",
"' ) ! ~ { ] ^ ! / ( _ = = = = = = = = = = = = = = = = = = = = = = = = = = = = = = = = = = = = = = = = = = : < / [ } ( | ~ 1 2 ' ",
"3 4 5 6 7 8 9 5 0 a b = = = = = = = = = = = = = = = = = = = = = = = = = = = = = = = = = = = = = = = = = = c d e 5 f a g h 5 i 3 ",
"j 4 k l 7 8 m k n o b = = = = = = = = = = = = = = = = = = = = = = = = = = = = = = = = = = = = = = = = = = c a n 5 f a g p q r s ",
"j 4 k t 7 8 u k n v b = = = = = = = = = = = = = = = = = = = = = = = = = = = = = = = = = = = = = = = = = = c a n k w a g x k r y ",
"j 4 k z 7 8 A k B C b = = = = = = = = = = = = = = = = = = = = = = = = = = = = = = = = = = = = = = = = = = c o r k 2 a g x D r E ",
"j e k F 7 8 A k r C b = = = = = = = = = = = = = = = = = = = = = = = = = = = = = = = = = = = = = = = = = = c v r k / a g x D r E ",
"j n k F 7 8 A k G H b = = = = = = = = = = = = = = = = = = = = = = = = = = = = = = = = = = = = = = = = = = c v r k x a g I k r E ",
"j n k J 7 8 A k B K b = = = = = = = = = = = = = = = = = = = = = = = = = = = = = = = = = = = = = = = = = = c L M 5 N a g N k r E ",
"j r k O 7 8 N k B P b = = = = = = = = = = = = = = = = = = = = = = = = = = = = = = = = = = = = = = = = = = c L M Q N a g N k G R ",
"j B k O S 8 N k T P b = = = = = = = = = = = = = = = = = = = = = = = = = = = = = = = = = = = = = = = = = = c U V Q W a g N k X Y ",
"j B k Z S 8 N k B P b = = = = = = = = = = = = = = = = = = = = = = = = = = = = = = = = = = = = = = = = = = c U V Q W a g N k ` E ",
"j B k Z S 8 N k  ...b = = = = = = = = = = = = = = = = = = = = = = = = = = = = = = = = = = = = = = = = = = c U +.Q Z a g @.k ` E ",
"j T k Z S 8 W k  ...b = = = = = = = = = = = = = = = = = = = = = = = = = = = = = = = = = = = = = = = = = = c U +.Q Z a g #.k  .s ",
"j V k Z S 8 #.k  ...b = = = = = = = = = = = = = = = = = = = = = = = = = = = = = = = = = = = = = = = = = = c P $.k Z a %.#.k  .j ",
"j V k Z 7 8 &.k  ...b = = = = = = = = = = = = = = = = = = = = = = = = = = = = = = = = = = = = = = = = = = c P $.5 *.a %.=.k  .Y ",
"j M 5 Z 7 8 -.k  .;.b = = = = = = = = = = = = = = = = = = = = = = = = = = = = = = = = = = = = = = = = = = c P $.5 *.a %.&.k  .>.",
"j $.Q Z 7 8 =.k  .,.b = = = = = = = = = = = = = = = = = = = = = = = = = = = = = = = = = = = = = = = = = = '.P ).5 *.a %.&.k ` Y ",
"j $.Q *.7 8 =.k  .,.b = = = = = = = = = = = = = = = = = = = = = = = = = = = = = = = = = = = = = = = = = = c P $.!.~.a %.&.k  .{.",
"j ].Q *.7 8 =.k  .,.b = = = = = = = = = = = = = = = = = = = = = = = = = = = = = = = = = = = = = = = = = = c ^.$./.(.a %.&.k  .>.",
"j ].Q *.7 8 =.k  .,.b = = = = = = = = = = = = = = = = = = = = = = = = = = = = = = = = = = = = = = = = = = c _.$./.(.a d :.D  .<.",
"j [.5 Z 7 }.&.|. .1.b = = = = = = = = = = = = = = = = = = = = = = = = = = = = = = = = = = = = = = = = = = c _.2.!.(.a %.:.3. .y ",
"j 4.k Z 7 8 &.5. .1.b = = = = = = = = = = = = = = = = = = = = = = = = = = = = = = = = = = = = = = = = = = c _.[.k (.a %.6.7. .y ",
"j 4.k Z 7 8 &.5. .1.b = = = = = = = = = = = = = = = = = = = = = = = = = = = = = = = = = = = = = = = = = = c _.[.k (.a %.:.8. .y ",
"j 4.k Z 7 8 &.5. .1.b = = = = = = = = = = = = = = = = = = = = = = = = = = = = = = = = = = = = = = = = = = c _.[.k (.a %.:.8. .E ",
"j 4.k Z 7 8 &.5. .1.b = = = = = = = = = = = = = = = = = = = = = = = = = = = = = = = = = = = = = = = = = = 9._.[.k (.a %.:.8. .E ",
"j 4.k 0.7 8 &.5. .,.b = = = = = = = = = = = = = = = = = = = = = = = = = = = = = = = = = = = = = = = = = = 9._.[.k (.a %.:.8. .a.",
"j 4.k ~.7 8 &.5. .1.b = = = = = = = = = = = = = = = = = = = = = = = = = = = = = = = = = = = = = = = = = = '._.[.k (.a %.:.8. .>.",
"j 4.k ~.7 8 &.5. .1.b = = = = = = = = = = = = = = = = = = = = = = = = = = = = = = = = = = = = = = = = = = '._.[.k (.a %.:.8. .<.",
"j 4.k 0.7 8 &.5. .1.b = = = = = = = = = = = = = = = = = = = = = = = = = = = = = = = = = = = = = = = = = = c _.[.k (.a %.:.8. .E ",
"j 4.k 0.7 8 &.5. .1.b = = = = = = = = = = = = = = = = = = = = = = = = = = = = = = = = = = = = = = = = = = c _.[.k (.a %.:.8. .b.",
"j 4.k ~.7 8 &.5. .1.b = = = = = = = = = = = = = = = = = = = = = = = = = = = = = = = = = = = = = = = = = = c _.[.k (.a %.:.8. .b.",
"j 4.k Z 7 }.&.5. .1.b = = = = = = = = = = = = = = = = = = = = = = = = = = = = = = = = = = = = = = = = = = c _.[.k (.a %.:.8. .Y ",
"j 4.k Z 7 c.&.5. .1.b = = = = = = = = = = = = = = = = = = = = = = = = = = = = = = = = = = = = = = = = = = c _.[.k (.a %.:.8. .>.",
"j 4.k ~.7 }.&.5. .1.b = = = = = = = = = = = = = = = = = = = = = = = = = = = = = = = = = = = = = = = = = = c _.[.k (.a %.:.8. .j ",
"j 4.k ~.7 8 &.5. .1.b = = = = = = = = = = = = = = = = = = = = = = = = = = = = = = = = = = = = = = = = = = 9._.[.k (.a %.:.8. .Y ",
"j 4.k ~.7 8 &.5. .1.b = = = = = = = = = = = = = = = = = = = = = = = = = = = = = = = = = = = = = = = = = = 9._.[.k (.a %.:.8. .Y ",
"j 4.k 0.7 8 &.5. .1.b = = = = = = = = = = = = = = = = = = = = = = = = = = = = = = = = = = = = = = = = = = 9._.[.k (.a %.:.8. .j ",
"j 4.k Z 7 8 &.5. .1.b = = = = = = = = = = = = = = = = = = = = = = = = = = = = = = = = = = = = = = = = = = 9._.[.k (.a %.6.7. .>.",
"j 4.k Z 7 8 &.5. .1.b = = = = = = = = = = = = = = = = = = = = = = = = = = = = = = = = = = = = = = = = = = c _.[.k (.a %.:.8. .d.",
"j 4.k Z 7 8 &.5. .1.b = = = = = = = = = = = = = = = = = = = = = = = = = = = = = = = = = = = = = = = = = = c _.[.k (.a %.:.8. .e.",
"j 4.k Z 7 8 &.5. .1.b = = = = = = = = = = = = = = = = = = = = = = = = = = = = = = = = = = = = = = = = = = c _.[.k (.a %.:.8. .e.",
"j 4.k Z 7 8 &.5. .1.b = = = = = = = = = = = = = = = = = = = = = = = = = = = = = = = = = = = = = = = = = = c _.[.k (.a %.:.8. .>.",
"j 4.k ~.7 8 &.5. .1.b = = = = = = = = = = = = = = = = = = = = = = = = = = = = = = = = = = = = = = = = = = 9.f.4.k (.a %.:.8. .>.",
"{.4.k ~.7 8 &.5. .1.b = = = = = = = = = = = = = = = = = = = = = = = = = = = = = = = = = = = = = = = = = = 9._.[.k (.a %.:.8. .s ",
"Y 4.k 0.7 }.&.5. .1.b = = = = = = = = = = = = = = = = = = = = = = = = = = = = = = = = = = = = = = = = = = 9._.[.k (.a %.:.8. .y ",
"j 4.k 0.7 }.&.5. .1.b = = = = = = = = = = = = = = = = = = = = = = = = = = = = = = = = = = = = = = = = = = 9._.[.k (.a %.:.8. .E ",
"g.4.k ~.7 8 &.5. .1.b = = = = = = = = = = = = = = = = = = = = = = = = = = = = = = = = = = = = = = = = = = c _.[.k (.a %.:.8. .Y ",
"g.4.k Z 7 8 &.5. .1.b = = = = = = = = = = = = = = = = = = = = = = = = = = = = = = = = = = = = = = = = = = c _.[.k (.a %.:.8. .>.",
"{.4.k Z 7 8 &.5. .1.b = = = = = = = = = = = = = = = = = = = = = = = = = = = = = = = = = = = = = = = = = = 9._.[.k (.a %.:.8. .h.",
"{.4.k 0.7 8 :.5. .,.b = = = = = = = = = = = = = = = = = = = = = = = = = = = = = = = = = = = = = = = = = = 9._.[.k (.a %.:.8. .y ",
"g.4.k 0.7 8 :.5. .1.b = = = = = = = = = = = = = = = = = = = = = = = = = = = = = = = = = = = = = = = = = = 9._.[.k (.a %.:.8. .s ",
">.4.k ~.7 8 &.5. .1.b = = = = = = = = = = = = = = = = = = = = = = = = = = = = = = = = = = = = = = = = = = 9._.[.k (.a %.:.8. .>.",
"i.4.k 0.7 }.&.5. .1.b = = = = = = = = = = = = = = = = = = = = = = = = = = = = = = = = = = = = = = = = = = 9._.[.k (.a %.:.8. .Y ",
"i.4.k Z 7 8 &.5. .1.b = = = = = = = = = = = = = = = = = = = = = = = = = = = = = = = = = = = = = = = = = = 9._.[.k (.a %.:.8. .E ",
"{.4.k Z 7 8 &.5. .1.b = = = = = = = = = = = = = = = = = = = = = = = = = = = = = = = = = = = = = = = = = = c _.[.k (.a %.:.8. .y ",
"j.4.k Z 7 8 &.5. .1.b = = = = = = = = = = = = = = = = = = = = = = = = = = = = = = = = = = = = = = = = = = c _.[.k (.a %.:.8. .b.",
"j.4.k Z 7 8 &.5. .1.b = = = = = = = = = = = = = = = = = = = = = = = = = = = = = = = = = = = = = = = = = = c _.[.k (.a %.:.8. .Y ",
"j.k.k Z 7 8 &.5. .1.b = = = = = = = = = = = = = = = = = = = = = = = = = = = = = = = = = = = = = = = = = = c _.[.k (.a %.:.8. .s ",
"j.4.k Z l.m.&.5. .n.o.= = = = = = = = = = = = = = = = = = = = = = = = = = = = = = = = = = = = = = = = = = p._.[.k q.r.s.:.8.u t.",
"u.v.w.w.x.x.w.w.y.y.z.= = = = = = = = = = = = = = = = = = = = = = = = = = = = = = = = = = = = = = = = = = x.w.w.y.y.z.w.y.y.w.A.",
"B.C.D.D.E.E.F.F.B.B.G.= = = = = = = = = = = = = = = = = = = = = = = = = = = = = = = = = = = = = = = = = = E.F.F.B.B.G.H.I.D.C.J.",
"K.L.M.M.N.N.O.O.P.K.Q.= = = = = = = = = = = = = = = = = = = = = = = = = = = = = = = = = = = = = = = = = = N.R.R.P.K.Q.j.S.P.T.U.",
"V.W.X.X.Y.Y.X.X.W.V.= = = = = = = = = = = = = = = = = = = = = = = = = = = = = = = = = = = = = = = = = = = = X.X.W.V.Z.`.W.W.`.Z."};
