/* XPM */
static char * frame6_xpm[] = {
"64 64 214 2",
"  	c #450200",
". 	c #440200",
"+ 	c #550401",
"@ 	c #3D0100",
"# 	c #380100",
"$ 	c #3A0100",
"% 	c #520401",
"& 	c #460200",
"* 	c #390100",
"= 	c #4F0300",
"- 	c #000000",
"; 	c #4F0400",
"> 	c #3D0200",
", 	c #370100",
"' 	c #3B0100",
") 	c #460400",
"! 	c #791002",
"~ 	c #780702",
"{ 	c #A20C04",
"] 	c #690501",
"^ 	c #5B0300",
"/ 	c #620401",
"( 	c #700702",
"_ 	c #790601",
": 	c #5F0400",
"< 	c #6B0702",
"[ 	c #640501",
"} 	c #820702",
"| 	c #8F0A03",
"1 	c #910A03",
"2 	c #7E0701",
"3 	c #680501",
"4 	c #5F0300",
"5 	c #9B0C04",
"6 	c #6F0702",
"7 	c #590200",
"8 	c #A30C04",
"9 	c #790701",
"0 	c #B85800",
"a 	c #860802",
"b 	c #A60C04",
"c 	c #740501",
"d 	c #630300",
"e 	c #6F0501",
"f 	c #7C0902",
"g 	c #830702",
"h 	c #680400",
"i 	c #770802",
"j 	c #6D0501",
"k 	c #940903",
"l 	c #9A0B03",
"m 	c #950B03",
"n 	c #8C0902",
"o 	c #730702",
"p 	c #670400",
"q 	c #880802",
"r 	c #790702",
"s 	c #620300",
"t 	c #740601",
"u 	c #F8D400",
"v 	c #A80C04",
"w 	c #750601",
"x 	c #7E0902",
"y 	c #890802",
"z 	c #690400",
"A 	c #920A03",
"B 	c #970B03",
"C 	c #8F0802",
"D 	c #7B0601",
"E 	c #A80D04",
"F 	c #8B0802",
"G 	c #F7D300",
"H 	c #730501",
"I 	c #800802",
"J 	c #6B0400",
"K 	c #940A03",
"L 	c #9B0B03",
"M 	c #740702",
"N 	c #7C0702",
"O 	c #7C0601",
"P 	c #F3CF00",
"Q 	c #780501",
"R 	c #820802",
"S 	c #8E0802",
"T 	c #6C0401",
"U 	c #950903",
"V 	c #920802",
"W 	c #AA0D04",
"X 	c #F4D000",
"Y 	c #790501",
"Z 	c #9A0A03",
"` 	c #910802",
" .	c #8C0802",
"..	c #6D0401",
"+.	c #820601",
"@.	c #7B0501",
"#.	c #6F0401",
"$.	c #9D0B03",
"%.	c #6D0400",
"&.	c #910902",
"*.	c #830601",
"=.	c #7F0501",
"-.	c #700400",
";.	c #A00C04",
">.	c #F6D200",
",.	c #630200",
"'.	c #7C0501",
").	c #6F0400",
"!.	c #850501",
"~.	c #8C0702",
"{.	c #F9D500",
"].	c #830500",
"^.	c #8E0702",
"/.	c #8F0702",
"(.	c #710400",
"_.	c #920902",
":.	c #850601",
"<.	c #860501",
"[.	c #7E0501",
"}.	c #940902",
"|.	c #670300",
"1.	c #8B0501",
"2.	c #980B04",
"3.	c #830400",
"4.	c #890501",
"5.	c #880501",
"6.	c #730400",
"7.	c #FAD600",
"8.	c #780500",
"9.	c #950902",
"0.	c #A50C04",
"a.	c #880500",
"b.	c #FBD700",
"c.	c #820501",
"d.	c #9B0B04",
"e.	c #750400",
"f.	c #9E0C04",
"g.	c #860500",
"h.	c #9E0D04",
"i.	c #770400",
"j.	c #8B0601",
"k.	c #F4CF00",
"l.	c #980A03",
"m.	c #700501",
"n.	c #AF0C04",
"o.	c #770501",
"p.	c #800500",
"q.	c #9E0B03",
"r.	c #970A03",
"s.	c #AF0D04",
"t.	c #B00C04",
"u.	c #800400",
"v.	c #A00B03",
"w.	c #800501",
"x.	c #8C0601",
"y.	c #B20D04",
"z.	c #B00D04",
"A.	c #730601",
"B.	c #850500",
"C.	c #F7D200",
"D.	c #F5D100",
"E.	c #710500",
"F.	c #FBD600",
"G.	c #F9D400",
"H.	c #780400",
"I.	c #FDD900",
"J.	c #F3CE00",
"K.	c #FCD800",
"L.	c #FFDB00",
"M.	c #3A0801",
"N.	c #3D0801",
"O.	c #520601",
"P.	c #380B01",
"Q.	c #740500",
"R.	c #410801",
"S.	c #3E0801",
"T.	c #580701",
"U.	c #350A01",
"V.	c #5E0400",
"W.	c #F5CF00",
"X.	c #BE6800",
"Y.	c #3B1801",
"Z.	c #3C1801",
"`.	c #221101",
" +	c #2C1301",
".+	c #1E0F01",
"++	c #A75B00",
"@+	c #B85700",
"#+	c #FFCA00",
"$+	c #FFD900",
"%+	c #301702",
"&+	c #FFC700",
"*+	c #231101",
"=+	c #FFD500",
"-+	c #FCD500",
";+	c #BD5800",
">+	c #C75A00",
",+	c #E48E00",
"'+	c #FFBC00",
")+	c #2E1202",
"!+	c #FFB200",
"~+	c #C96200",
"{+	c #1E0E02",
"]+	c #FFB800",
"^+	c #FFDD00",
"/+	c #DD9800",
"(+	c #E49000",
"_+	c #C86400",
":+	c #250D04",
"<+	c #401100",
"[+	c #582100",
"}+	c #0A0306",
"|+	c #030307",
"1+	c #502002",
"  . + @ # # $ % & # * * . = - - - - - - - - - - - - - - - - - - - - - - - - - - - - - - - - - - - - ;   * * #   + > # , ' +   ) ",
"! ~ { ] ^ / ( { _ : < [ } | - - - - - - - - - - - - - - - - - - - - - - - - - - - - - - - - - - - - 1 2 3 3 4 _ 5 6 : 7 ] 8 9 ! ",
"0 a b c d e f b g h i j k l - - - - - - - - - - - - - - - - - - - - - - - - - - - - - - - - - - - - m n o o p q b r h s t b } 0 ",
"u a v w d e x v y z i j A l - - - - - - - - - - - - - - - - - - - - - - - - - - - - - - - - - - - - B C o o h y b r h s D E F G ",
"u a v H d e I v y J i w K L - - - - - - - - - - - - - - - - - - - - - - - - - - - - - - - - - - - - B C M o h y v N h s O v F P ",
"u a v Q d e R v S T i w U L - - - - - - - - - - - - - - - - - - - - - - - - - - - - - - - - - - - - B V M o z F v 9 h s O W F X ",
"u q v Y d e R v F T i w Z l - - - - - - - - - - - - - - - - - - - - - - - - - - - - - - - - - - - - B ` o o J F v _ h s O W F X ",
"u y v Y d e R v  ...i w Z l - - - - - - - - - - - - - - - - - - - - - - - - - - - - - - - - - - - - B ` t o J F v O h s +.v F X ",
"u y v @.d e R v S #.i w Z $.- - - - - - - - - - - - - - - - - - - - - - - - - - - - - - - - - - - - B V w o %.&.b *.h s *.v F X ",
"u F v =.d e *.v S -.i w Z $.- - - - - - - - - - - - - - - - - - - - - - - - - - - - - - - - - - - - B C D o %.&.;.*.h s *.v  .>.",
"u S v =.,.e *.v C -.i '.Z $.- - - - - - - - - - - - - - - - - - - - - - - - - - - - - - - - - - - - B S O o ).` ;.!.h s *.v ~.{.",
"u S v ].,.e *.v S -.i '.Z l - - - - - - - - - - - - - - - - - - - - - - - - - - - - - - - - - - - - B S O o ).` ;.!.h s *.v ^.X ",
"u S v ].,.e *.v /.(.i '.Z l - - - - - - - - - - - - - - - - - - - - - - - - - - - - - - - - - - - - B V =.o )._.;.].h s :.v ^.X ",
"u C v ].,.e !.v /.(.i '.Z L - - - - - - - - - - - - - - - - - - - - - - - - - - - - - - - - - - - - B V =.o )._.;.].h s <.v /.G ",
"u ` v ].,.e <.v /.(.i [.Z l - - - - - - - - - - - - - - - - - - - - - - - - - - - - - - - - - - - - B V [.o -.}.v ].h |.<.v /.u ",
"u ` v ].d e 1.v /.(.i [.l l - - - - - - - - - - - - - - - - - - - - - - - - - - - - - - - - - - - - 2.V [.o -.}.b 3.h |.4.v /.{.",
"u &.b ].d e 5.v /.6.i [.l l - - - - - - - - - - - - - - - - - - - - - - - - - - - - - - - - - - - - 2.` [.o -.}.b 3.h |.1.v /.7.",
"u }.;.].d e 4.v /.8.i [.l l - - - - - - - - - - - - - - - - - - - - - - - - - - - - - - - - - - - - 2.S [.M -.9.b 3.h |.1.v ^.{.",
"u }.;.3.d e 4.v /.8.i =.l l - - - - - - - - - - - - - - - - - - - - - - - - - - - - - - - - - - - - 2.S [.o -.}.0.a.h |.1.v /.b.",
"u U ;.3.d e 4.v /.8.i c.L L - - - - - - - - - - - - - - - - - - - - - - - - - - - - - - - - - - - - d.S [.o e.}.f.g.h |.1.v /.7.",
"u U ;.3.d e 4.v /.8.i [.L L - - - - - - - - - - - - - - - - - - - - - - - - - - - - - - - - - - - - h.S [.o i.}.f.g.h p j.W /.k.",
"u l.b ].d m.1.n./.o.i p.q.$.- - - - - - - - - - - - - - - - - - - - - - - - - - - - - - - - - - - - h.S [.o i.r.0.g.h |.j.s./.P ",
"u Z v ].d e 1.t./.o.i u.v.$.- - - - - - - - - - - - - - - - - - - - - - - - - - - - - - - - - - - - h.V w.o i.l.v g.h |.x.y./.P ",
"u Z v ].d e 1.t./.o.i u.v.$.- - - - - - - - - - - - - - - - - - - - - - - - - - - - - - - - - - - - h.C [.o i.l.v g.h |.j.z./.P ",
"u Z v ].d e 1.t./.o.i u.v.$.- - - - - - - - - - - - - - - - - - - - - - - - - - - - - - - - - - - - h.S [.o i.l.v g.h |.j.z./.X ",
"u Z v ].d e 1.t./.o.i u.v.$.- - - - - - - - - - - - - - - - - - - - - - - - - - - - - - - - - - - - h.S [.A.i.l.v g.h |.j.z./.X ",
"u Z v B.d e 1.t./.8.i u.v.$.- - - - - - - - - - - - - - - - - - - - - - - - - - - - - - - - - - - - f.S [.A.i.l.v g.h |.j.z./.C.",
"u Z v a.d e 1.t./.o.i u.v.$.- - - - - - - - - - - - - - - - - - - - - - - - - - - - - - - - - - - - h.` w.M i.l.v g.h |.j.z./.7.",
"u Z v a.d e 1.t./.o.i u.v.$.- - - - - - - - - - - - - - - - - - - - - - - - - - - - - - - - - - - - h.S [.M i.l.v g.h |.j.z./.k.",
"u Z v B.d e 1.t./.o.i u.v.$.- - - - - - - - - - - - - - - - - - - - - - - - - - - - - - - - - - - - h.S [.o i.l.v g.h |.j.z./.X ",
"u Z v B.d e 1.t./.o.i u.v.$.- - - - - - - - - - - - - - - - - - - - - - - - - - - - - - - - - - - - h.S =.o i.l.v g.h |.j.z./.D.",
"u Z v a.d e 1.t./.o.i u.v.$.- - - - - - - - - - - - - - - - - - - - - - - - - - - - - - - - - - - - f.S =.o i.l.v g.h |.j.z./.D.",
"u Z v ].d m.1.t./.o.i u.v.$.- - - - - - - - - - - - - - - - - - - - - - - - - - - - - - - - - - - - h.C =.o i.l.v g.h |.j.z./.{.",
"u Z v ].d E.1.t./.o.i u.v.$.- - - - - - - - - - - - - - - - - - - - - - - - - - - - - - - - - - - - h.V =.o i.l.v g.h |.j.z./.7.",
"u Z v a.d m.1.t./.o.i u.v.$.- - - - - - - - - - - - - - - - - - - - - - - - - - - - - - - - - - - - h.S [.o i.l.v g.h |.j.z./.u ",
"u Z v a.d e 1.t./.o.i u.v.$.- - - - - - - - - - - - - - - - - - - - - - - - - - - - - - - - - - - - h.S [.A.i.l.v g.h |.j.z./.{.",
"u Z v a.d e 1.t./.o.i u.v.$.- - - - - - - - - - - - - - - - - - - - - - - - - - - - - - - - - - - - h.S [.A.i.l.v g.h |.j.z./.{.",
"u Z v B.d e 1.t./.o.i u.v.$.- - - - - - - - - - - - - - - - - - - - - - - - - - - - - - - - - - - - h.S [.A.i.l.v g.h |.j.z./.u ",
"u Z v ].d e 1.t./.o.i u.v.$.- - - - - - - - - - - - - - - - - - - - - - - - - - - - - - - - - - - - h.S [.A.i.l.v g.h |.x.y./.7.",
"u Z v ].d e 1.t./.o.i u.v.$.- - - - - - - - - - - - - - - - - - - - - - - - - - - - - - - - - - - - h.S =.o i.l.v g.h |.j.z./.F.",
"u Z v ].d e 1.t./.o.i u.v.$.- - - - - - - - - - - - - - - - - - - - - - - - - - - - - - - - - - - - h.S [.o i.l.v g.h |.j.z./.G.",
"u Z v ].d e 1.t./.o.i u.v.$.- - - - - - - - - - - - - - - - - - - - - - - - - - - - - - - - - - - - h.S [.o i.l.v g.h |.j.z./.G.",
"u Z v ].d e 1.t./.o.i u.v.$.- - - - - - - - - - - - - - - - - - - - - - - - - - - - - - - - - - - - h.S [.o i.l.v g.h |.j.z./.7.",
"u Z v a.d e 1.t./.o.i u.v.$.- - - - - - - - - - - - - - - - - - - - - - - - - - - - - - - - - - - - h.S [.A.H.Z v g.h |.j.z./.7.",
"b.Z v a.d e 1.t./.o.i u.v.$.- - - - - - - - - - - - - - - - - - - - - - - - - - - - - - - - - - - - h.S [.A.i.l.v g.h |.j.z./.G ",
"{.Z v B.d m.1.t./.o.i u.v.$.- - - - - - - - - - - - - - - - - - - - - - - - - - - - - - - - - - - - h.S [.A.i.l.v g.h |.j.z./.P ",
"u Z v B.d m.1.t./.o.i u.v.$.- - - - - - - - - - - - - - - - - - - - - - - - - - - - - - - - - - - - h.S [.A.i.l.v g.h |.j.z./.X ",
"I.Z v a.d e 1.t./.o.i u.v.$.- - - - - - - - - - - - - - - - - - - - - - - - - - - - - - - - - - - - h.S =.o i.l.v g.h |.j.z./.{.",
"I.Z v ].d e 1.t./.o.i u.v.$.- - - - - - - - - - - - - - - - - - - - - - - - - - - - - - - - - - - - h.C c.o i.l.v g.h |.j.z./.7.",
"b.Z v ].d e 1.t./.o.i u.v.$.- - - - - - - - - - - - - - - - - - - - - - - - - - - - - - - - - - - - h.V [.A.i.l.v g.h |.j.z./.J.",
"b.Z v B.d e j.t./.8.i u.v.$.- - - - - - - - - - - - - - - - - - - - - - - - - - - - - - - - - - - - h.S [.A.i.l.v g.h |.j.z./.P ",
"I.Z v B.d e j.t./.o.i u.v.$.- - - - - - - - - - - - - - - - - - - - - - - - - - - - - - - - - - - - h.S [.A.i.l.v g.h |.j.z./.G ",
"7.Z v a.d e 1.t./.o.i u.v.$.- - - - - - - - - - - - - - - - - - - - - - - - - - - - - - - - - - - - h.S [.A.i.l.v g.h |.j.z./.7.",
"K.Z v B.d m.1.t./.o.i u.v.$.- - - - - - - - - - - - - - - - - - - - - - - - - - - - - - - - - - - - h.S [.A.i.l.v g.h |.j.z./.{.",
"K.Z v ].d e 1.t./.o.i u.v.$.- - - - - - - - - - - - - - - - - - - - - - - - - - - - - - - - - - - - h.S [.A.i.l.v g.h |.j.z./.X ",
"b.Z v ].d e 1.t./.o.i u.v.$.- - - - - - - - - - - - - - - - - - - - - - - - - - - - - - - - - - - - h.S c.o i.l.v g.h |.j.z./.P ",
"L.Z v ].d e 1.t./.o.i u.v.$.- - - - - - - - - - - - - - - - - - - - - - - - - - - - - - - - - - - - h.S [.o i.l.v g.h |.j.z./.D.",
"L.Z v ].d e 1.t./.o.i u.v.$.- - - - - - - - - - - - - - - - - - - - - - - - - - - - - - - - - - - - h.S [.o i.l.v g.h |.j.z./.{.",
"L.l v ].d e 1.t./.o.i u.v.$.- - - - - - - - - - - - - - - - - - - - - - - - - - - - - - - - - - - - h.S [.o i.l.v g.h |.j.z./.G ",
"L.Z v ].M.N.1.t./.O.P.Q.v.$.- - - - - - - - - - - - - - - - - - - - - - - - - - - - - - - - - - - - h.S R.S.i.l.v T.U.V.j.z.I W.",
"X.Y.Z.Z.`.`.Z.Z. + +.+Z. + +- - - - - - - - - - - - - - - - - - - - - - - - - - - - - - - - - - - - Z.Z.`.`.Z.Z. + +.+Z. + +Z.++",
"@+#+$+$+%+%+&+&+@+@+*+&+@+@+- - - - - - - - - - - - - - - - - - - - - - - - - - - - - - - - - - - - &+&+%+%+&+&+@+@+*+=+-+$+#+;+",
">+,+'+'+)+)+!+!+~+>+{+]+~+~+- - - - - - - - - - - - - - - - - - - - - - - - - - - - - - - - - - - - ^+^+)+)+^+^+~+>+{+L./+~+(+_+",
":+<+[+[+}+}+[+[+<+:+|+1+<+<+- - - - - - - - - - - - - - - - - - - - - - - - - - - - - - - - - - - - [+[+}+}+[+[+<+:+|+1+<+<+1+|+"};
