/* XPM */
static char * frame11_xpm[] = {
"64 64 330 2",
"  	c #450200",
". 	c #440200",
"+ 	c #550401",
"@ 	c #3D0100",
"# 	c #380100",
"$ 	c #3A0100",
"% 	c #520401",
"& 	c #460200",
"* 	c #390100",
"= 	c #4F0300",
"- 	c #3B0100",
"; 	c #3E0200",
"> 	c #4F0401",
", 	c #4B0300",
"' 	c #1B0000",
") 	c #000000",
"! 	c #1C0000",
"~ 	c #370100",
"{ 	c #4C0300",
"] 	c #3F0200",
"^ 	c #4F0400",
"/ 	c #3D0200",
"( 	c #460400",
"_ 	c #791002",
": 	c #780702",
"< 	c #A20C04",
"[ 	c #690501",
"} 	c #5B0300",
"| 	c #620401",
"1 	c #700702",
"2 	c #790601",
"3 	c #5F0400",
"4 	c #6B0702",
"5 	c #640501",
"6 	c #820702",
"7 	c #8F0A03",
"8 	c #690601",
"9 	c #680501",
"0 	c #5E0300",
"a 	c #670400",
"b 	c #9E0D05",
"c 	c #730702",
"d 	c #5B0200",
"e 	c #660501",
"f 	c #970C04",
"g 	c #8C0A03",
"h 	c #630401",
"i 	c #320100",
"j 	c #3E0201",
"k 	c #690602",
"l 	c #8E0B04",
"m 	c #8C0903",
"n 	c #630400",
"o 	c #750802",
"p 	c #950B03",
"q 	c #620501",
"r 	c #910A03",
"s 	c #7E0701",
"t 	c #5F0300",
"u 	c #9B0C04",
"v 	c #6F0702",
"w 	c #590200",
"x 	c #A30C04",
"y 	c #790701",
"z 	c #B85800",
"A 	c #860802",
"B 	c #A60C04",
"C 	c #740501",
"D 	c #630300",
"E 	c #6F0501",
"F 	c #7C0902",
"G 	c #830702",
"H 	c #680400",
"I 	c #770802",
"J 	c #6D0501",
"K 	c #940903",
"L 	c #9A0B03",
"M 	c #750702",
"N 	c #740702",
"O 	c #780601",
"P 	c #A20D05",
"Q 	c #7E0802",
"R 	c #620300",
"S 	c #700501",
"T 	c #940B03",
"U 	c #640300",
"V 	c #510301",
"W 	c #4F0301",
"X 	c #670300",
"Y 	c #970B04",
"Z 	c #8E0902",
"` 	c #6D0400",
" .	c #820902",
"..	c #950A03",
"+.	c #770400",
"@.	c #750601",
"#.	c #8C0902",
"$.	c #880802",
"%.	c #790702",
"&.	c #740601",
"*.	c #F8D400",
"=.	c #A80C04",
"-.	c #7E0902",
";.	c #890802",
">.	c #690400",
",.	c #920A03",
"'.	c #800601",
").	c #A60D04",
"!.	c #730501",
"~.	c #9E0C04",
"{.	c #940A03",
"].	c #660300",
"^.	c #550301",
"/.	c #530301",
"(.	c #680300",
"_.	c #980B04",
":.	c #8F0902",
"<.	c #6F0500",
"[.	c #830902",
"}.	c #7B0501",
"|.	c #730601",
"1.	c #970B03",
"2.	c #8F0802",
"3.	c #7B0601",
"4.	c #A80D04",
"5.	c #8B0802",
"6.	c #F7D300",
"7.	c #800802",
"8.	c #6B0400",
"9.	c #9B0B03",
"0.	c #770702",
"a.	c #830601",
"b.	c #830701",
"c.	c #6C0501",
"d.	c #540301",
"e.	c #510201",
"f.	c #910902",
"g.	c #700500",
"h.	c #830802",
"i.	c #820601",
"j.	c #7C0702",
"k.	c #7C0601",
"l.	c #F3CF00",
"m.	c #780501",
"n.	c #820802",
"o.	c #8E0802",
"p.	c #6C0401",
"q.	c #950903",
"r.	c #7B0701",
"s.	c #860601",
"t.	c #AA0D04",
"u.	c #850601",
"v.	c #9D0C04",
"w.	c #920903",
"x.	c #690300",
"y.	c #560301",
"z.	c #530200",
"A.	c #920902",
"B.	c #710500",
"C.	c #920802",
"D.	c #F4D000",
"E.	c #790501",
"F.	c #9A0A03",
"G.	c #780802",
"H.	c #570301",
"I.	c #550200",
"J.	c #730400",
"K.	c #910802",
"L.	c #8C0802",
"M.	c #6D0401",
"N.	c #7E0501",
"O.	c #A30D04",
"P.	c #A00C04",
"Q.	c #6B0300",
"R.	c #540200",
"S.	c #6C0300",
"T.	c #9B0B04",
"U.	c #7C0501",
"V.	c #6F0401",
"W.	c #9D0B03",
"X.	c #7F0501",
"Y.	c #880601",
"Z.	c #940902",
"`.	c #560200",
" +	c #710300",
".+	c #8E0701",
"++	c #6C0400",
"@+	c #700400",
"#+	c #800501",
"$+	c #890501",
"%+	c #6D0300",
"&+	c #6F0400",
"*+	c #F6D200",
"=+	c #630200",
"-+	c #880702",
";+	c #A20D04",
">+	c #710601",
",+	c #790400",
"'+	c #850501",
")+	c #8C0702",
"!+	c #F9D500",
"~+	c #830500",
"{+	c #820501",
"]+	c #6F0300",
"^+	c #740400",
"/+	c #8E0702",
"(+	c #8F0702",
"_+	c #710400",
":+	c #820500",
"<+	c #8B0702",
"[+	c #700300",
"}+	c #7B0702",
"|+	c #940802",
"1+	c #860501",
"2+	c #830501",
"3+	c #8B0501",
"4+	c #910701",
"5+	c #890601",
"6+	c #830400",
"7+	c #880501",
"8+	c #8B0601",
"9+	c #FAD600",
"0+	c #780500",
"a+	c #580301",
"b+	c #950902",
"c+	c #7E0500",
"d+	c #A50C04",
"e+	c #880500",
"f+	c #FBD700",
"g+	c #780400",
"h+	c #750400",
"i+	c #860500",
"j+	c #590301",
"k+	c #970A03",
"l+	c #9E0D04",
"m+	c #F4CF00",
"n+	c #980A03",
"o+	c #AF0C04",
"p+	c #770501",
"q+	c #800500",
"r+	c #9E0B03",
"s+	c #AD0C04",
"t+	c #5A0301",
"u+	c #7E0400",
"v+	c #AF0D04",
"w+	c #B00C04",
"x+	c #800400",
"y+	c #A00B03",
"z+	c #5B0301",
"A+	c #510200",
"B+	c #7F0400",
"C+	c #8C0601",
"D+	c #B20D04",
"E+	c #B00D04",
"F+	c #770300",
"G+	c #850500",
"H+	c #F7D200",
"I+	c #F5D100",
"J+	c #610300",
"K+	c #700401",
"L+	c #FBD600",
"M+	c #F9D400",
"N+	c #FDD900",
"O+	c #F3CE00",
"P+	c #A50B04",
"Q+	c #FCD800",
"R+	c #FFDB00",
"S+	c #3A0801",
"T+	c #3D0801",
"U+	c #520601",
"V+	c #380B01",
"W+	c #740500",
"X+	c #750500",
"Y+	c #510600",
"Z+	c #390701",
"`+	c #520600",
" @	c #360B01",
".@	c #400801",
"+@	c #570601",
"@@	c #330A01",
"#@	c #370B01",
"$@	c #510801",
"%@	c #410801",
"&@	c #3E0801",
"*@	c #580701",
"=@	c #350A01",
"-@	c #5E0400",
";@	c #F5CF00",
">@	c #BE6800",
",@	c #3B1801",
"'@	c #3C1801",
")@	c #221101",
"!@	c #2C1301",
"~@	c #1E0F01",
"{@	c #170700",
"]@	c #210A00",
"^@	c #A75B00",
"/@	c #B85700",
"(@	c #FFCA00",
"_@	c #FFD900",
":@	c #301702",
"<@	c #FFC700",
"[@	c #231101",
"}@	c #6F3200",
"|@	c #9C7800",
"1@	c #FFD500",
"2@	c #FCD500",
"3@	c #BD5800",
"4@	c #C75A00",
"5@	c #E48E00",
"6@	c #FFBC00",
"7@	c #2E1202",
"8@	c #FFB200",
"9@	c #C96200",
"0@	c #1E0E02",
"a@	c #FFB800",
"b@	c #FFDD00",
"c@	c #7A3900",
"d@	c #9C8600",
"e@	c #DD9800",
"f@	c #E49000",
"g@	c #C86400",
"h@	c #250D04",
"i@	c #401100",
"j@	c #582100",
"k@	c #0A0306",
"l@	c #030307",
"m@	c #502002",
"n@	c #280800",
"o@	c #391300",
"  . + @ # # $ % & # * * . = * * # - + ; # # * > , # # * ' ) ) ) ) ) ) ! * # ~ { > * # # ] + - # * # ^   * * #   + / # ~ - +   ( ",
"_ : < [ } | 1 < 2 3 4 5 6 7 8 9 0 a b c 3 d e f g } h 4 i ) ) ) ) ) ) j k 0 } l m n } 5 o p a 3 4 q r s 9 9 t 2 u v 3 w [ x y _ ",
"z A B C D E F B G H I J K L M N H O P Q H R S u T U J I V ) ) ) ) ) ) W o X X Y Z ` D E  ...+.H I @.p #.c c a $.B %.H R &.B 6 z ",
"*.A =.@.D E -.=.;.>.I J ,.L N c H '.).6 H R !.~.{.].J I ^.) ) ) ) ) ) /.o ].(._.:.<.D E [...}.H I |.1.2.c c H ;.B %.H R 3.4.5.6.",
"*.A =.!.D E 7.=.;.8.I @.{.9.0.c >.a.=.b.H R !.~.{.X c.I d.) ) ) ) ) ) e.o ].X Y f.g.D E h...i.H I @.1.2.N c H ;.=.j.H R k.=.5.l.",
"*.A =.m.D E n.=.o.p.I @.q.9.r.c 8.s.t.u.H R O v.w.x.J I y.) ) ) ) ) ) z.o X x._.A.B.D E G ..u.H I 3.1.C.N c >.5.=.y H R k.t.5.D.",
"*.$.=.E.D E n.=.5.p.I @.F.L k.c 8.s.t.u.H R }.v.w.x.J G.H.) ) ) ) ) ) I.N U x._.A.J.D E 5...s.>.I 3.1.K.c c 8.5.=.2 H R k.t.5.D.",
"*.;.=.E.D E n.=.L.M.I @.F.L N.c H b.O.s.H R }.P.K Q.J G.H.) ) ) ) ) ) R.N U S.T.A.J.D E 5...s.8.I U.1.K.&.c 8.5.=.k.H R i.=.5.D.",
"*.;.=.}.D E n.=.o.V.I @.F.W.X.c H G P Y.H R }.P.Z.Q.J G.H.) ) ) ) ) ) `.N ]. +T.A.J.D E .+..s.++I U.1.C.@.c ` f.B a.H R a.=.5.D.",
"*.5.=.X.D E a.=.o.@+I @.F.W.#+c H G P $+H R E.~.Z.Q.J G.H.) ) ) ) ) ) `.c U %+T.A.J.D S .+..s.&+I U.1.2.3.c ` f.P.a.H R a.=.L.*+",
"*.o.=.X.=+E a.=.2.@+I U.F.W.X.c H -+;+$+H R }.P.Z.Q.J %.H.) ) ) ) ) ) R.>+U  +T.A.,+D S .+..s.` I N.1.o.k.c &+K.P.'+H R a.=.)+!+",
"*.o.=.~+=+E a.=.o.@+I U.F.L {+c 8.5.;+$+H R }.P.Z.]+J %.H.) ) ) ) ) ) R.>+]. +T.A.^+D B..+..s.p.I u.1.o.k.c &+K.P.'+H R a.=./+D.",
"*.o.=.~+=+E a.=.(+_+I U.F.L :+&.8.<+=.$+H R }.P.Z.[+J }+H.) ) ) ) ) ) R.!.U J.v.A.,+D E |+1.u.p.I s.1.C.X.c &+A.P.~+H R u.=./+D.",
"*.2.=.~+=+E '+=.(+_+I U.F.9.{+|.8.5.=.$+H R #+P.Z.[+J }+H.) ) ) ) ) ) R.!.U J.v.A.,+D S K.1.u.p.G.s.1.C.X.c &+A.P.~+H R 1+=.(+6.",
"*.K.=.~+=+E 1+=.(+_+I N.F.L {+|.8.5.=.$+8.R X.P.Z.[+J }+H.) ) ) ) ) ) z.C U J.v.A.,+D B.|+1.s.M.G.2+1.C.N.c @+Z.=.~+H X 1+=.(+*.",
"*.K.=.~+D E 3+=.(+_+I N.L L :+&.++L.=.$+@+R X.P.Z.[+J }.H.) ) ) ) ) ) z.E.U J.v.C.,+D B.4+1.5+V.G.2+_.C.N.c @+Z.B 6+H X $+=.(+!+",
"*.f.B ~+D E 7+=.(+J.I N.L L :+&.++L.=.'+H R X.=.Z.[+J }.H.) ) ) ) ) ) R.E.U J.v.A.,+D B.4+1.8+@+I :+_.K.N.c @+Z.B 6+H X 3+=.(+9+",
"*.Z.P.~+D E $+=.(+0+I N.L L :+&.++L.=.7+` R X.< Z.[+J }.a+) ) ) ) ) ) R.E.U J.v.C.,+D B.4+1.5+V.G.~+_.o.N.N @+b+B 6+H X 3+=./+!+",
"*.Z.P.6+D E $+=.(+0+I X.L L :+&.` )+=.$+@+].#+P.Z.[+J c+H.) ) ) ) ) ) R.E.U ,+v.C.,+D B.(+p 5+E G.~+_.o.N.c @+Z.d+e+H X 3+=.(+f+",
"*.q.P.6+D E $+=.(+0+I {+9.9.:+&.` /+=.$+@+R ~+B Z.[+J c+H.) ) ) ) ) ) R.E.U ,+v.K.g+D B.|+1.5+S G.~+T.o.N.c h+Z.~.i+H X 3+=.(+9+",
"*.q.P.6+D E $+=.(+0+I N.9.9.:+&.&+/+=.$+@+R ~+=.Z. +J c+j+) ) ) ) ) ) R.E.U ,+v.A.,+D g+K.k+5+S G.~+l+o.N.c +.Z.~.i+H a 8+t.(+m+",
"*.n+B ~+D S 3+o+(+p+I q+r+W.:+&.@+(+o+$+@+R ~+s+K.+.J c+t+) ) ) ) ) ) z.E.U ,+~.A.u+D g+|+k+8+S G.1+l+o.N.c +.k+d+i+H X 8+v+(+l.",
"*.F.=.~+D E 3+w+(+p+I x+y+W.:+&.@+(+w+$+@+R ~+o+K.+.J c+z+) ) ) ) ) ) A+E.U ,+P.A.B+D g+|+1.8+@+G.7+l+C.#+c +.n+=.i+H X C+D+(+l.",
"*.F.=.~+D E 3+w+(+p+I x+y+W.:+&.@+(+w+$+@+R ~+o+K.+.J c+j+) ) ) ) ) ) A+E.U ,+P.K.u+D g+|+1.5+V.G.Y.l+2.N.c +.n+=.i+H X 8+E+(+l.",
"*.F.=.~+D E 3+w+(+p+I x+y+W.:+&.@+(+w+$+@+R ~+o+K.F+J c+j+) ) ) ) ) ) A+E.U ,+P.K.u+=+g+4+1.5+S G.Y.l+o.N.c +.n+=.i+H X 8+E+(+D.",
"*.F.=.~+D E 3+w+(+p+I x+y+W.:+&.@+(+w+$+@+R ~+o+K.+.J c+j+) ) ) ) ) ) A+E.U ,+P.A.B+D g+|+1.8+S G.Y.l+o.N.|.+.n+=.i+H X 8+E+(+D.",
"*.F.=.G+D E 3+w+(+0+I x+y+W.:+&.@+(+w+$+@+R ~+o+K.+.J c+j+) ) ) ) ) ) A+E.U ,+P.A.B+D g+|+1.8+S G.Y.~.o.N.|.+.n+=.i+H X 8+E+(+H+",
"*.F.=.e+D E 3+w+(+p+I x+y+W.:+&.@+(+w+$+@+R ~+o+2.F+J c+j+) ) ) ) ) ) A+E.U ,+P.A.B+D g+|+1.8+@+G.7+l+K.#+N +.n+=.i+H X 8+E+(+9+",
"*.F.=.e+D E 3+w+(+p+I x+y+W.:+&.@+(+w+$+@+R ~+o+K.+.J c+j+) ) ) ) ) ) A+E.U ,+P.K.u+D g+K.1.8+V.G.7+l+o.N.N +.n+=.i+H X 8+E+(+m+",
"*.F.=.G+D E 3+w+(+p+I x+y+W.:+&.@+(+w+$+@+R ~+o+K.+.J c+j+) ) ) ) ) ) A+E.U ,+P.K.u+D g+K.1.8+V.G.Y.l+o.N.c +.n+=.i+H X 8+E+(+D.",
"*.F.=.G+D E 3+w+(+p+I x+y+W.:+&.@+(+w+$+@+R ~+o+K.+.J c+j+) ) ) ) ) ) A+E.U ,+P.K.u+D g+K.1.8+V.G.Y.l+o.X.c +.n+=.i+H X 8+E+(+I+",
"*.F.=.e+D E 3+w+(+p+I x+y+W.:+&.@+(+w+$+@+R ~+o+K.+.J c+j+) ) ) ) ) ) A+E.U ,+P.A.B+D g+|+1.8+S G.Y.~.o.X.c +.n+=.i+H X 8+E+(+I+",
"*.F.=.~+D S 3+w+(+p+I x+y+W.:+&.@+(+w+$+@+R ~+o+2.+.J c+z+) ) ) ) ) ) A+E.U ,+P.A.B+D g+|+k+8+@+G.7+l+2.X.c +.n+=.i+H X 8+E+(+!+",
"*.F.=.~+D B.3+w+(+p+I x+y+W.:+&.@+(+w+$+@+R ~+o+2.+.J c+j+) ) ) ) ) ) A+E.U ,+P.C.B+D g+K.1.8+V.G.Y.l+C.X.c +.n+=.i+H X 8+E+(+9+",
"*.F.=.e+D S 3+w+(+p+I x+y+W.:+&.@+(+w+$+@+R ~+o+K.+.J c+z+) ) ) ) ) ) A+E.U ,+P.K.u+D g+|+1.5+E G.Y.l+o.N.c +.n+=.i+H X 8+E+(+*.",
"*.F.=.e+D E 3+w+(+p+I x+y+W.:+&.@+(+w+$+@+R ~+o+K.+.J c+j+) ) ) ) ) ) A+E.U ,+P.K.u+=+g+4+1.5+S G.Y.l+o.N.|.+.n+=.i+H X 8+E+(+!+",
"*.F.=.e+D E 3+w+(+p+I x+y+W.:+&.@+(+w+$+@+J+~+o+K.+.J c+j+) ) ) ) ) ) A+E.U ,+P.A.B+D g+|+1.8+K+G.Y.l+o.N.|.+.n+=.i+H X 8+E+(+!+",
"*.F.=.G+D E 3+w+(+p+I x+y+W.:+&.@+(+w+$+@+J+~+o+K.+.J c+z+) ) ) ) ) ) A+E.U ,+P.A.B+D g+|+1.8+K+G.7+l+o.N.|.+.n+=.i+H X 8+E+(+*.",
"*.F.=.~+D E 3+w+(+p+I x+y+W.:+&.@+(+w+$+@+R ~+o+K.+.J c+z+) ) ) ) ) ) A+E.U ,+P.A.B+D g+|+1.8+@+G.7+l+o.N.|.+.n+=.i+H X C+D+(+9+",
"*.F.=.~+D E 3+w+(+p+I x+y+W.:+&.@+(+w+$+@+R ~+o+K.+.J c+j+) ) ) ) ) ) A+E.U ,+P.K.u+D g+|+1.8+@+G.7+l+o.X.c +.n+=.i+H X 8+E+(+L+",
"*.F.=.~+D E 3+w+(+p+I x+y+W.:+&.@+(+w+$+@+R ~+o+K.F+J c+j+) ) ) ) ) ) A+E.U ,+P.K.u+D g+4+1.5+V.G.Y.l+o.N.c +.n+=.i+H X 8+E+(+M+",
"*.F.=.~+D E 3+w+(+p+I x+y+W.:+&.@+(+w+$+@+R ~+o+K.+.J c+j+) ) ) ) ) ) A+E.U ,+P.A.B+D g+|+1.8+@+G.Y.l+o.N.c +.n+=.i+H X 8+E+(+M+",
"*.F.=.~+D E 3+w+(+p+I x+y+W.:+&.@+(+w+$+@+R ~+o+K.+.J c+j+) ) ) ) ) ) A+E.U ,+P.A.B+D g+|+1.8+S G.Y.l+o.N.c +.n+=.i+H X 8+E+(+9+",
"*.F.=.e+D E 3+w+(+p+I x+y+W.:+&.@+(+w+$+@+R ~+o+K.+.J c+j+) ) ) ) ) ) A+E.U ,+P.A.B+=+g+K.1.5+S G.Y.l+o.N.|.g+F.=.i+H X 8+E+(+9+",
"f+F.=.e+D E 3+w+(+p+I x+y+W.:+&.@+(+w+$+@+J+~+o+K.+.J c+j+) ) ) ) ) ) A+E.U ,+P.A.B+D g+4+k+8+V.G.Y.l+o.N.|.+.n+=.i+H X 8+E+(+6.",
"!+F.=.G+D S 3+w+(+p+I x+y+W.:+&.@+(+w+$+@+J+~+o+2.+.J c+j+) ) ) ) ) ) A+E.U ,+P.A.u+D g+4+k+8+S G.7+l+o.N.|.+.n+=.i+H X 8+E+(+l.",
"*.F.=.G+D S 3+w+(+p+I x+y+W.:+&.@+(+w+$+@+R ~+o+(++.J c+j+) ) ) ) ) ) A+E.U ,+P.K.B+D g+4+k+5+S G.7+l+o.N.|.+.n+=.i+H X 8+E+(+D.",
"N+F.=.e+D E 3+w+(+p+I x+y+W.:+&.@+(+w+$+@+R ~+o+2.+.J c+j+) ) ) ) ) ) A+E.U ,+P.K.u+D g+|+1.5+S G.Y.l+o.X.c +.n+=.i+H X 8+E+(+!+",
"N+F.=.~+D E 3+w+(+p+I x+y+W.:+&.@+(+w+$+@+R ~+o+K.+.J c+z+) ) ) ) ) ) A+E.U ,+P.A.u+D g+|+1.5+S G.7+l+2.{+c +.n+=.i+H X 8+E+(+9+",
"f+F.=.~+D E 3+w+(+p+I x+y+W.:+&.@+(+w+$+@+R ~+o+K.+.J c+j+) ) ) ) ) ) A+E.U ,+P.K.u+D g+|+1.8+S G.Y.l+C.N.|.+.n+=.i+H X 8+E+(+O+",
"f+F.=.G+D E 8+w+(+0+I x+y+W.:+&.@+(+w+$+@+t ~+o+K.+.J c+j+) ) ) ) ) ) A+E.U ,+~.K.u+=+g+|+1.8+@+G.Y.l+o.N.|.+.n+=.i+H X 8+E+(+l.",
"N+F.=.G+D E 8+w+(+p+I x+y+W.:+&.@+(+w+$+@+R ~+o+K.+.J c+j+) ) ) ) ) ) A+E.U ,+P+A.B+=+g+|+1.8+@+G.Y.l+o.N.|.+.n+=.i+H X 8+E+(+6.",
"9+F.=.e+D E 3+w+(+p+I x+y+W.:+&.@+(+w+$+@+R ~+o+K.+.J c+j+) ) ) ) ) ) A+E.U ,+< A.B+D g+4+1.8+V.G.7+l+o.N.|.+.n+=.i+H X 8+E+(+9+",
"Q+F.=.G+D S 3+w+(+p+I x+y+W.:+&.@+(+w+$+@+R ~+o+K.+.J c+j+) ) ) ) ) ) A+E.U ,+< K.u+D g+|+k+8+S G.7+l+o.N.|.+.n+=.i+H X 8+E+(+!+",
"Q+F.=.~+D E 3+w+(+p+I x+y+W.:+&.@+(+w+$+@+R ~+o+K.+.J c+j+) ) ) ) ) ) A+E.U ,+P.K.u+=+g+|+k+8+@+G.7+l+o.N.|.+.n+=.i+H X 8+E+(+D.",
"f+F.=.~+D E 3+w+(+p+I x+y+W.:+&.@+(+w+$+@+t ~+o+K.+.J c+j+) ) ) ) ) ) A+E.U ,+P.A.B+=+g+|+1.8+S G.7+l+o.{+c +.n+=.i+H X 8+E+(+l.",
"R+F.=.~+D E 3+w+(+p+I x+y+W.:+&.@+(+w+$+@+R ~+o+K.+.J c+j+) ) ) ) ) ) A+E.U ,+P.A.B+=+g+K.1.5+S G.Y.l+o.N.c +.n+=.i+H X 8+E+(+I+",
"R+F.=.~+D E 3+w+(+p+I x+y+W.:+&.@+(+w+$+@+R ~+o+K.+.J c+j+) ) ) ) ) ) A+E.U ,+P.A.B+D g+|+1.8+S G.Y.l+o.N.c +.n+=.i+H X 8+E+(+!+",
"R+L =.~+D E 3+w+(+p+I x+y+W.:+&.@+(+w+$+@+R ~+o+K.+.J c+j+) ) ) ) ) ) A+E.U ,+P.A.B+=+g+|+k+8+S G.Y.l+o.N.c +.n+=.i+H X 8+E+(+6.",
"R+F.=.~+S+T+3+w+(+U+V+W+y+W.X+V+Y+(+w+$+T+Z+~+o+K.`+ @B.j+) ) ) ) ) ) A+.@S+,+P.A.+@@@<.|+1.k.#@$@Y.l+o.%@&@+.n+=.*@=@-@8+E+7.;@",
">@,@'@'@)@)@'@'@!@!@~@'@!@!@'@~@!@!@'@'@)@)@'@'@!@!@~@'@{@) ) ) ) ) ) ]@)@)@'@'@!@!@~@'@!@!@'@~@!@!@'@'@)@)@'@'@!@!@~@'@!@!@'@^@",
"/@(@_@_@:@:@<@<@/@/@[@<@/@/@<@[@/@/@<@<@:@:@<@<@/@/@[@<@}@) ) ) ) ) ) |@:@:@<@<@/@/@[@<@/@/@<@[@/@/@<@<@:@:@<@<@/@/@[@1@2@_@(@3@",
"4@5@6@6@7@7@8@8@9@4@0@a@9@9@R+0@4@9@b@b@7@7@b@b@9@4@0@R+c@) ) ) ) ) ) d@7@7@b@b@9@4@0@R+9@9@R+0@4@9@b@b@7@7@b@b@9@4@0@R+e@9@f@g@",
"h@i@j@j@k@k@j@j@i@h@l@m@i@i@m@l@h@i@j@j@k@k@j@j@i@h@l@m@n@) ) ) ) ) ) o@k@k@j@j@i@h@l@m@i@i@m@l@h@i@j@j@k@k@j@j@i@h@l@m@i@i@m@l@"};
