/* XPM */
static char * frame10_xpm[] = {
"64 64 303 2",
"  	c #450200",
". 	c #440200",
"+ 	c #550401",
"@ 	c #3D0100",
"# 	c #380100",
"$ 	c #3A0100",
"% 	c #520401",
"& 	c #460200",
"* 	c #390100",
"= 	c #4F0300",
"- 	c #3B0100",
"; 	c #3E0200",
"> 	c #4F0401",
", 	c #4B0300",
"' 	c #320100",
") 	c #000000",
"! 	c #370100",
"~ 	c #4C0300",
"{ 	c #3F0200",
"] 	c #4F0400",
"^ 	c #3D0200",
"/ 	c #460400",
"( 	c #791002",
"_ 	c #780702",
": 	c #A20C04",
"< 	c #690501",
"[ 	c #5B0300",
"} 	c #620401",
"| 	c #700702",
"1 	c #790601",
"2 	c #5F0400",
"3 	c #6B0702",
"4 	c #640501",
"5 	c #820702",
"6 	c #8F0A03",
"7 	c #690601",
"8 	c #680501",
"9 	c #5E0300",
"0 	c #670400",
"a 	c #9E0D05",
"b 	c #730702",
"c 	c #5B0200",
"d 	c #660501",
"e 	c #970C04",
"f 	c #8C0A03",
"g 	c #420200",
"h 	c #8E0B04",
"i 	c #8C0903",
"j 	c #630400",
"k 	c #750802",
"l 	c #950B03",
"m 	c #620501",
"n 	c #910A03",
"o 	c #7E0701",
"p 	c #5F0300",
"q 	c #9B0C04",
"r 	c #6F0702",
"s 	c #590200",
"t 	c #A30C04",
"u 	c #790701",
"v 	c #B85800",
"w 	c #860802",
"x 	c #A60C04",
"y 	c #740501",
"z 	c #630300",
"A 	c #6F0501",
"B 	c #7C0902",
"C 	c #830702",
"D 	c #680400",
"E 	c #770802",
"F 	c #6D0501",
"G 	c #940903",
"H 	c #9A0B03",
"I 	c #750702",
"J 	c #740702",
"K 	c #780601",
"L 	c #A20D05",
"M 	c #7E0802",
"N 	c #620300",
"O 	c #700501",
"P 	c #940B03",
"Q 	c #430100",
"R 	c #670300",
"S 	c #970B04",
"T 	c #8E0902",
"U 	c #6D0400",
"V 	c #820902",
"W 	c #950A03",
"X 	c #770400",
"Y 	c #750601",
"Z 	c #8C0902",
"` 	c #880802",
" .	c #790702",
"..	c #740601",
"+.	c #F8D400",
"@.	c #A80C04",
"#.	c #7E0902",
"$.	c #890802",
"%.	c #690400",
"&.	c #920A03",
"*.	c #800601",
"=.	c #A60D04",
"-.	c #730501",
";.	c #9E0C04",
">.	c #940A03",
",.	c #440100",
"'.	c #680300",
").	c #980B04",
"!.	c #8F0902",
"~.	c #6F0500",
"{.	c #830902",
"].	c #7B0501",
"^.	c #730601",
"/.	c #970B03",
"(.	c #8F0802",
"_.	c #7B0601",
":.	c #A80D04",
"<.	c #8B0802",
"[.	c #F7D300",
"}.	c #800802",
"|.	c #6B0400",
"1.	c #9B0B03",
"2.	c #770702",
"3.	c #830601",
"4.	c #830701",
"5.	c #450100",
"6.	c #910902",
"7.	c #700500",
"8.	c #830802",
"9.	c #820601",
"0.	c #7C0702",
"a.	c #7C0601",
"b.	c #F3CF00",
"c.	c #780501",
"d.	c #820802",
"e.	c #8E0802",
"f.	c #6C0401",
"g.	c #950903",
"h.	c #7B0701",
"i.	c #860601",
"j.	c #AA0D04",
"k.	c #850601",
"l.	c #9D0C04",
"m.	c #920903",
"n.	c #460100",
"o.	c #690300",
"p.	c #920902",
"q.	c #710500",
"r.	c #920802",
"s.	c #F4D000",
"t.	c #790501",
"u.	c #9A0A03",
"v.	c #730400",
"w.	c #910802",
"x.	c #8C0802",
"y.	c #6D0401",
"z.	c #7E0501",
"A.	c #A30D04",
"B.	c #A00C04",
"C.	c #480100",
"D.	c #6C0300",
"E.	c #9B0B04",
"F.	c #7C0501",
"G.	c #6F0401",
"H.	c #9D0B03",
"I.	c #7F0501",
"J.	c #880601",
"K.	c #940902",
"L.	c #710300",
"M.	c #8E0701",
"N.	c #6C0400",
"O.	c #700400",
"P.	c #800501",
"Q.	c #890501",
"R.	c #6D0300",
"S.	c #6F0400",
"T.	c #F6D200",
"U.	c #630200",
"V.	c #880702",
"W.	c #A20D04",
"X.	c #790400",
"Y.	c #850501",
"Z.	c #8C0702",
"`.	c #F9D500",
" +	c #830500",
".+	c #820501",
"++	c #4B0100",
"@+	c #740400",
"#+	c #8E0702",
"$+	c #8F0702",
"%+	c #710400",
"&+	c #820500",
"*+	c #8B0702",
"=+	c #940802",
"-+	c #780802",
";+	c #860501",
">+	c #830501",
",+	c #8B0501",
"'+	c #910701",
")+	c #890601",
"!+	c #830400",
"~+	c #880501",
"{+	c #8B0601",
"]+	c #FAD600",
"^+	c #780500",
"/+	c #950902",
"(+	c #660300",
"_+	c #A50C04",
":+	c #880500",
"<+	c #FBD700",
"[+	c #780400",
"}+	c #750400",
"|+	c #860500",
"1+	c #4C0100",
"2+	c #970A03",
"3+	c #9E0D04",
"4+	c #F4CF00",
"5+	c #980A03",
"6+	c #AF0C04",
"7+	c #770501",
"8+	c #800500",
"9+	c #9E0B03",
"0+	c #AD0C04",
"a+	c #500200",
"b+	c #7E0400",
"c+	c #AF0D04",
"d+	c #B00C04",
"e+	c #800400",
"f+	c #A00B03",
"g+	c #7F0400",
"h+	c #8C0601",
"i+	c #B20D04",
"j+	c #B00D04",
"k+	c #500100",
"l+	c #850500",
"m+	c #F7D200",
"n+	c #F5D100",
"o+	c #610300",
"p+	c #700401",
"q+	c #FBD600",
"r+	c #F9D400",
"s+	c #FDD900",
"t+	c #F3CE00",
"u+	c #A50B04",
"v+	c #FCD800",
"w+	c #FFDB00",
"x+	c #3A0801",
"y+	c #3D0801",
"z+	c #520601",
"A+	c #380B01",
"B+	c #740500",
"C+	c #750500",
"D+	c #510600",
"E+	c #390701",
"F+	c #360300",
"G+	c #570601",
"H+	c #330A01",
"I+	c #370B01",
"J+	c #510801",
"K+	c #410801",
"L+	c #3E0801",
"M+	c #580701",
"N+	c #350A01",
"O+	c #5E0400",
"P+	c #F5CF00",
"Q+	c #BE6800",
"R+	c #3B1801",
"S+	c #3C1801",
"T+	c #221101",
"U+	c #2C1301",
"V+	c #1E0F01",
"W+	c #1B0900",
"X+	c #A75B00",
"Y+	c #B85700",
"Z+	c #FFCA00",
"`+	c #FFD900",
" @	c #301702",
".@	c #FFC700",
"+@	c #231101",
"@@	c #733400",
"#@	c #FFD500",
"$@	c #FCD500",
"%@	c #BD5800",
"&@	c #C75A00",
"*@	c #E48E00",
"=@	c #FFBC00",
"-@	c #2E1202",
";@	c #FFB200",
">@	c #C96200",
",@	c #1E0E02",
"'@	c #FFB800",
")@	c #FFDD00",
"!@	c #793400",
"~@	c #DD9800",
"{@	c #E49000",
"]@	c #C86400",
"^@	c #250D04",
"/@	c #401100",
"(@	c #582100",
"_@	c #0A0306",
":@	c #030307",
"<@	c #502002",
"[@	c #1D0902",
"  . + @ # # $ % & # * * . = * * # - + ; # # * > , ' ) ) ) ) ) ) ) ) ) ) ) ) ! ~ > * # # { + - # * # ]   * * #   + ^ # ! - +   / ",
"( _ : < [ } | : 1 2 3 4 5 6 7 8 9 0 a b 2 c d e f g ) ) ) ) ) ) ) ) ) ) ) ) [ h i j [ 4 k l 0 2 3 m n o 8 8 p 1 q r 2 s < t u ( ",
"v w x y z A B x C D E F G H I J D K L M D N O q P Q ) ) ) ) ) ) ) ) ) ) ) ) R S T U z A V W X D E Y l Z b b 0 ` x  .D N ..x 5 v ",
"+.w @.Y z A #.@.$.%.E F &.H J b D *.=.5 D N -.;.>.,.) ) ) ) ) ) ) ) ) ) ) ) '.).!.~.z A {.W ].D E ^./.(.b b D $.x  .D N _.:.<.[.",
"+.w @.-.z A }.@.$.|.E Y >.1.2.b %.3.@.4.D N -.;.>.5.) ) ) ) ) ) ) ) ) ) ) ) R S 6.7.z A 8.W 9.D E Y /.(.J b D $.@.0.D N a.@.<.b.",
"+.w @.c.z A d.@.e.f.E Y g.1.h.b |.i.j.k.D N K l.m.n.) ) ) ) ) ) ) ) ) ) ) ) o.).p.q.z A C W k.D E _./.r.J b %.<.@.u D N a.j.<.s.",
"+.` @.t.z A d.@.<.f.E Y u.H a.b |.i.j.k.D N ].l.m.n.) ) ) ) ) ) ) ) ) ) ) ) o.).p.v.z A <.W i.%.E _./.w.b b |.<.@.1 D N a.j.<.s.",
"+.$.@.t.z A d.@.x.y.E Y u.H z.b D 4.A.i.D N ].B.G C.) ) ) ) ) ) ) ) ) ) ) ) D.E.p.v.z A <.W i.|.E F./.w...b |.<.@.a.D N 9.@.<.s.",
"+.$.@.].z A d.@.e.G.E Y u.H.I.b D C L J.D N ].B.K.C.) ) ) ) ) ) ) ) ) ) ) ) L.E.p.v.z A M.W i.N.E F./.r.Y b U 6.x 3.D N 3.@.<.s.",
"+.<.@.I.z A 3.@.e.O.E Y u.H.P.b D C L Q.D N t.;.K.C.) ) ) ) ) ) ) ) ) ) ) ) R.E.p.v.z O M.W i.S.E F./.(._.b U 6.B.3.D N 3.@.x.T.",
"+.e.@.I.U.A 3.@.(.O.E F.u.H.I.b D V.W.Q.D N ].B.K.C.) ) ) ) ) ) ) ) ) ) ) ) L.E.p.X.z O M.W i.U E z./.e.a.b S.w.B.Y.D N 3.@.Z.`.",
"+.e.@. +U.A 3.@.e.O.E F.u.H .+b |.<.W.Q.D N ].B.K.++) ) ) ) ) ) ) ) ) ) ) ) L.E.p.@+z q.M.W i.f.E k./.e.a.b S.w.B.Y.D N 3.@.#+s.",
"+.e.@. +U.A 3.@.$+%+E F.u.H &+..|.*+@.Q.D N ].B.K.++) ) ) ) ) ) ) ) ) ) ) ) v.l.p.X.z A =+/.k.f.E i./.r.I.b S.p.B. +D N k.@.#+s.",
"+.(.@. +U.A Y.@.$+%+E F.u.1..+^.|.<.@.Q.D N P.B.K.++) ) ) ) ) ) ) ) ) ) ) ) v.l.p.X.z O w./.k.f.-+i./.r.I.b S.p.B. +D N ;+@.$+[.",
"+.w.@. +U.A ;+@.$+%+E z.u.H .+^.|.<.@.Q.|.N I.B.K.++) ) ) ) ) ) ) ) ) ) ) ) v.l.p.X.z q.=+/.i.y.-+>+/.r.z.b O.K.@. +D R ;+@.$++.",
"+.w.@. +z A ,+@.$+%+E z.H H &+..N.x.@.Q.O.N I.B.K.++) ) ) ) ) ) ) ) ) ) ) ) v.l.r.X.z q.'+/.)+G.-+>+).r.z.b O.K.x !+D R Q.@.$+`.",
"+.6.x  +z A ~+@.$+v.E z.H H &+..N.x.@.Y.D N I.@.K.++) ) ) ) ) ) ) ) ) ) ) ) v.l.p.X.z q.'+/.{+O.E &+).w.z.b O.K.x !+D R ,+@.$+]+",
"+.K.B. +z A Q.@.$+^+E z.H H &+..N.x.@.~+U N I.: K.++) ) ) ) ) ) ) ) ) ) ) ) v.l.r.X.z q.'+/.)+G.-+ +).e.z.J O./+x !+D R ,+@.#+`.",
"+.K.B.!+z A Q.@.$+^+E I.H H &+..U Z.@.Q.O.(+P.B.K.++) ) ) ) ) ) ) ) ) ) ) ) X.l.r.X.z q.$+l )+A -+ +).e.z.b O.K._+:+D R ,+@.$+<+",
"+.g.B.!+z A Q.@.$+^+E .+1.1.&+..U #+@.Q.O.N  +x K.++) ) ) ) ) ) ) ) ) ) ) ) X.l.w.[+z q.=+/.)+O -+ +E.e.z.b }+K.;.|+D R ,+@.$+]+",
"+.g.B.!+z A Q.@.$+^+E z.1.1.&+..S.#+@.Q.O.N  +@.K.1+) ) ) ) ) ) ) ) ) ) ) ) X.l.p.X.z [+w.2+)+O -+ +3+e.z.b X K.;.|+D 0 {+j.$+4+",
"+.5+x  +z O ,+6+$+7+E 8+9+H.&+..O.$+6+Q.O.N  +0+w.a+) ) ) ) ) ) ) ) ) ) ) ) X.;.p.b+z [+=+2+{+O -+;+3+e.z.b X 2+_+|+D R {+c+$+b.",
"+.u.@. +z A ,+d+$+7+E e+f+H.&+..O.$+d+Q.O.N  +6+w.a+) ) ) ) ) ) ) ) ) ) ) ) X.B.p.g+z [+=+/.{+O.-+~+3+r.P.b X 5+@.|+D R h+i+$+b.",
"+.u.@. +z A ,+d+$+7+E e+f+H.&+..O.$+d+Q.O.N  +6+w.a+) ) ) ) ) ) ) ) ) ) ) ) X.B.w.b+z [+=+/.)+G.-+J.3+(.z.b X 5+@.|+D R {+j+$+b.",
"+.u.@. +z A ,+d+$+7+E e+f+H.&+..O.$+d+Q.O.N  +6+w.k+) ) ) ) ) ) ) ) ) ) ) ) X.B.w.b+U.[+'+/.)+O -+J.3+e.z.b X 5+@.|+D R {+j+$+s.",
"+.u.@. +z A ,+d+$+7+E e+f+H.&+..O.$+d+Q.O.N  +6+w.a+) ) ) ) ) ) ) ) ) ) ) ) X.B.p.g+z [+=+/.{+O -+J.3+e.z.^.X 5+@.|+D R {+j+$+s.",
"+.u.@.l+z A ,+d+$+^+E e+f+H.&+..O.$+d+Q.O.N  +6+w.a+) ) ) ) ) ) ) ) ) ) ) ) X.B.p.g+z [+=+/.{+O -+J.;.e.z.^.X 5+@.|+D R {+j+$+m+",
"+.u.@.:+z A ,+d+$+7+E e+f+H.&+..O.$+d+Q.O.N  +6+(.k+) ) ) ) ) ) ) ) ) ) ) ) X.B.p.g+z [+=+/.{+O.-+~+3+w.P.J X 5+@.|+D R {+j+$+]+",
"+.u.@.:+z A ,+d+$+7+E e+f+H.&+..O.$+d+Q.O.N  +6+w.a+) ) ) ) ) ) ) ) ) ) ) ) X.B.w.b+z [+w./.{+G.-+~+3+e.z.J X 5+@.|+D R {+j+$+4+",
"+.u.@.l+z A ,+d+$+7+E e+f+H.&+..O.$+d+Q.O.N  +6+w.a+) ) ) ) ) ) ) ) ) ) ) ) X.B.w.b+z [+w./.{+G.-+J.3+e.z.b X 5+@.|+D R {+j+$+s.",
"+.u.@.l+z A ,+d+$+7+E e+f+H.&+..O.$+d+Q.O.N  +6+w.a+) ) ) ) ) ) ) ) ) ) ) ) X.B.w.b+z [+w./.{+G.-+J.3+e.I.b X 5+@.|+D R {+j+$+n+",
"+.u.@.:+z A ,+d+$+7+E e+f+H.&+..O.$+d+Q.O.N  +6+w.a+) ) ) ) ) ) ) ) ) ) ) ) X.B.p.g+z [+=+/.{+O -+J.;.e.I.b X 5+@.|+D R {+j+$+n+",
"+.u.@. +z O ,+d+$+7+E e+f+H.&+..O.$+d+Q.O.N  +6+(.a+) ) ) ) ) ) ) ) ) ) ) ) X.B.p.g+z [+=+2+{+O.-+~+3+(.I.b X 5+@.|+D R {+j+$+`.",
"+.u.@. +z q.,+d+$+7+E e+f+H.&+..O.$+d+Q.O.N  +6+(.a+) ) ) ) ) ) ) ) ) ) ) ) X.B.r.g+z [+w./.{+G.-+J.3+r.I.b X 5+@.|+D R {+j+$+]+",
"+.u.@.:+z O ,+d+$+7+E e+f+H.&+..O.$+d+Q.O.N  +6+w.a+) ) ) ) ) ) ) ) ) ) ) ) X.B.w.b+z [+=+/.)+A -+J.3+e.z.b X 5+@.|+D R {+j+$++.",
"+.u.@.:+z A ,+d+$+7+E e+f+H.&+..O.$+d+Q.O.N  +6+w.a+) ) ) ) ) ) ) ) ) ) ) ) X.B.w.b+U.[+'+/.)+O -+J.3+e.z.^.X 5+@.|+D R {+j+$+`.",
"+.u.@.:+z A ,+d+$+7+E e+f+H.&+..O.$+d+Q.O.o+ +6+w.a+) ) ) ) ) ) ) ) ) ) ) ) X.B.p.g+z [+=+/.{+p+-+J.3+e.z.^.X 5+@.|+D R {+j+$+`.",
"+.u.@.l+z A ,+d+$+7+E e+f+H.&+..O.$+d+Q.O.o+ +6+w.a+) ) ) ) ) ) ) ) ) ) ) ) X.B.p.g+z [+=+/.{+p+-+~+3+e.z.^.X 5+@.|+D R {+j+$++.",
"+.u.@. +z A ,+d+$+7+E e+f+H.&+..O.$+d+Q.O.N  +6+w.a+) ) ) ) ) ) ) ) ) ) ) ) X.B.p.g+z [+=+/.{+O.-+~+3+e.z.^.X 5+@.|+D R h+i+$+]+",
"+.u.@. +z A ,+d+$+7+E e+f+H.&+..O.$+d+Q.O.N  +6+w.a+) ) ) ) ) ) ) ) ) ) ) ) X.B.w.b+z [+=+/.{+O.-+~+3+e.I.b X 5+@.|+D R {+j+$+q+",
"+.u.@. +z A ,+d+$+7+E e+f+H.&+..O.$+d+Q.O.N  +6+w.k+) ) ) ) ) ) ) ) ) ) ) ) X.B.w.b+z [+'+/.)+G.-+J.3+e.z.b X 5+@.|+D R {+j+$+r+",
"+.u.@. +z A ,+d+$+7+E e+f+H.&+..O.$+d+Q.O.N  +6+w.a+) ) ) ) ) ) ) ) ) ) ) ) X.B.p.g+z [+=+/.{+O.-+J.3+e.z.b X 5+@.|+D R {+j+$+r+",
"+.u.@. +z A ,+d+$+7+E e+f+H.&+..O.$+d+Q.O.N  +6+w.a+) ) ) ) ) ) ) ) ) ) ) ) X.B.p.g+z [+=+/.{+O -+J.3+e.z.b X 5+@.|+D R {+j+$+]+",
"+.u.@.:+z A ,+d+$+7+E e+f+H.&+..O.$+d+Q.O.N  +6+w.a+) ) ) ) ) ) ) ) ) ) ) ) X.B.p.g+U.[+w./.)+O -+J.3+e.z.^.[+u.@.|+D R {+j+$+]+",
"<+u.@.:+z A ,+d+$+7+E e+f+H.&+..O.$+d+Q.O.o+ +6+w.a+) ) ) ) ) ) ) ) ) ) ) ) X.B.p.g+z [+'+2+{+G.-+J.3+e.z.^.X 5+@.|+D R {+j+$+[.",
"`.u.@.l+z O ,+d+$+7+E e+f+H.&+..O.$+d+Q.O.o+ +6+(.a+) ) ) ) ) ) ) ) ) ) ) ) X.B.p.b+z [+'+2+{+O -+~+3+e.z.^.X 5+@.|+D R {+j+$+b.",
"+.u.@.l+z O ,+d+$+7+E e+f+H.&+..O.$+d+Q.O.N  +6+$+a+) ) ) ) ) ) ) ) ) ) ) ) X.B.w.g+z [+'+2+)+O -+~+3+e.z.^.X 5+@.|+D R {+j+$+s.",
"s+u.@.:+z A ,+d+$+7+E e+f+H.&+..O.$+d+Q.O.N  +6+(.a+) ) ) ) ) ) ) ) ) ) ) ) X.B.w.b+z [+=+/.)+O -+J.3+e.I.b X 5+@.|+D R {+j+$+`.",
"s+u.@. +z A ,+d+$+7+E e+f+H.&+..O.$+d+Q.O.N  +6+w.a+) ) ) ) ) ) ) ) ) ) ) ) X.B.p.b+z [+=+/.)+O -+~+3+(..+b X 5+@.|+D R {+j+$+]+",
"<+u.@. +z A ,+d+$+7+E e+f+H.&+..O.$+d+Q.O.N  +6+w.a+) ) ) ) ) ) ) ) ) ) ) ) X.B.w.b+z [+=+/.{+O -+J.3+r.z.^.X 5+@.|+D R {+j+$+t+",
"<+u.@.l+z A {+d+$+^+E e+f+H.&+..O.$+d+Q.O.p  +6+w.a+) ) ) ) ) ) ) ) ) ) ) ) X.;.w.b+U.[+=+/.{+O.-+J.3+e.z.^.X 5+@.|+D R {+j+$+b.",
"s+u.@.l+z A {+d+$+7+E e+f+H.&+..O.$+d+Q.O.N  +6+w.a+) ) ) ) ) ) ) ) ) ) ) ) X.u+p.g+U.[+=+/.{+O.-+J.3+e.z.^.X 5+@.|+D R {+j+$+[.",
"]+u.@.:+z A ,+d+$+7+E e+f+H.&+..O.$+d+Q.O.N  +6+w.a+) ) ) ) ) ) ) ) ) ) ) ) X.: p.g+z [+'+/.{+G.-+~+3+e.z.^.X 5+@.|+D R {+j+$+]+",
"v+u.@.l+z O ,+d+$+7+E e+f+H.&+..O.$+d+Q.O.N  +6+w.a+) ) ) ) ) ) ) ) ) ) ) ) X.: w.b+z [+=+2+{+O -+~+3+e.z.^.X 5+@.|+D R {+j+$+`.",
"v+u.@. +z A ,+d+$+7+E e+f+H.&+..O.$+d+Q.O.N  +6+w.a+) ) ) ) ) ) ) ) ) ) ) ) X.B.w.b+U.[+=+2+{+O.-+~+3+e.z.^.X 5+@.|+D R {+j+$+s.",
"<+u.@. +z A ,+d+$+7+E e+f+H.&+..O.$+d+Q.O.p  +6+w.a+) ) ) ) ) ) ) ) ) ) ) ) X.B.p.g+U.[+=+/.{+O -+~+3+e..+b X 5+@.|+D R {+j+$+b.",
"w+u.@. +z A ,+d+$+7+E e+f+H.&+..O.$+d+Q.O.N  +6+w.a+) ) ) ) ) ) ) ) ) ) ) ) X.B.p.g+U.[+w./.)+O -+J.3+e.z.b X 5+@.|+D R {+j+$+n+",
"w+u.@. +z A ,+d+$+7+E e+f+H.&+..O.$+d+Q.O.N  +6+w.a+) ) ) ) ) ) ) ) ) ) ) ) X.B.p.g+z [+=+/.{+O -+J.3+e.z.b X 5+@.|+D R {+j+$+`.",
"w+H @. +z A ,+d+$+7+E e+f+H.&+..O.$+d+Q.O.N  +6+w.a+) ) ) ) ) ) ) ) ) ) ) ) X.B.p.g+U.[+=+2+{+O -+J.3+e.z.b X 5+@.|+D R {+j+$+[.",
"w+u.@. +x+y+,+d+$+z+A+B+f+H.C+A+D+$+d+Q.y+E+ +6+w.F+) ) ) ) ) ) ) ) ) ) ) ) X.B.p.G+H+~.=+/.a.I+J+J.3+e.K+L+X 5+@.M+N+O+{+j+}.P+",
"Q+R+S+S+T+T+S+S+U+U+V+S+U+U+S+V+U+U+S+S+T+T+S+S+U+W+) ) ) ) ) ) ) ) ) ) ) ) S+S+U+U+V+S+U+U+S+V+U+U+S+S+T+T+S+S+U+U+V+S+U+U+S+X+",
"Y+Z+`+`+ @ @.@.@Y+Y++@.@Y+Y+.@+@Y+Y+.@.@ @ @.@.@Y+@@) ) ) ) ) ) ) ) ) ) ) ) .@.@Y+Y++@.@Y+Y+.@+@Y+Y+.@.@ @ @.@.@Y+Y++@#@$@`+Z+%@",
"&@*@=@=@-@-@;@;@>@&@,@'@>@>@w+,@&@>@)@)@-@-@)@)@>@!@) ) ) ) ) ) ) ) ) ) ) ) )@)@>@&@,@w+>@>@w+,@&@>@)@)@-@-@)@)@>@&@,@w+~@>@{@]@",
"^@/@(@(@_@_@(@(@/@^@:@<@/@/@<@:@^@/@(@(@_@_@(@(@/@[@) ) ) ) ) ) ) ) ) ) ) ) (@(@/@^@:@<@/@/@<@:@^@/@(@(@_@_@(@(@/@^@:@<@/@/@<@:@"};
