/* XPM */
static char * frame9_xpm[] = {
"64 64 276 2",
"  	c #450200",
". 	c #440200",
"+ 	c #550401",
"@ 	c #3D0100",
"# 	c #380100",
"$ 	c #3A0100",
"% 	c #520401",
"& 	c #460200",
"* 	c #390100",
"= 	c #4F0300",
"- 	c #3B0100",
"; 	c #3E0200",
"> 	c #000000",
", 	c #3F0200",
"' 	c #4F0400",
") 	c #3D0200",
"! 	c #370100",
"~ 	c #460400",
"{ 	c #791002",
"] 	c #780702",
"^ 	c #A20C04",
"/ 	c #690501",
"( 	c #5B0300",
"_ 	c #620401",
": 	c #700702",
"< 	c #790601",
"[ 	c #5F0400",
"} 	c #6B0702",
"| 	c #640501",
"1 	c #820702",
"2 	c #8F0A03",
"3 	c #690601",
"4 	c #680501",
"5 	c #5E0300",
"6 	c #670400",
"7 	c #9E0D05",
"8 	c #730702",
"9 	c #5B0200",
"0 	c #5E0401",
"a 	c #630400",
"b 	c #750802",
"c 	c #950B03",
"d 	c #620501",
"e 	c #910A03",
"f 	c #7E0701",
"g 	c #5F0300",
"h 	c #9B0C04",
"i 	c #6F0702",
"j 	c #590200",
"k 	c #A30C04",
"l 	c #790701",
"m 	c #B85800",
"n 	c #860802",
"o 	c #A60C04",
"p 	c #740501",
"q 	c #630300",
"r 	c #6F0501",
"s 	c #7C0902",
"t 	c #830702",
"u 	c #680400",
"v 	c #770802",
"w 	c #6D0501",
"x 	c #940903",
"y 	c #9A0B03",
"z 	c #750702",
"A 	c #740702",
"B 	c #780601",
"C 	c #A20D05",
"D 	c #7E0802",
"E 	c #620300",
"F 	c #650401",
"G 	c #6D0400",
"H 	c #820902",
"I 	c #950A03",
"J 	c #770400",
"K 	c #750601",
"L 	c #8C0902",
"M 	c #880802",
"N 	c #790702",
"O 	c #740601",
"P 	c #F8D400",
"Q 	c #A80C04",
"R 	c #7E0902",
"S 	c #890802",
"T 	c #690400",
"U 	c #920A03",
"V 	c #800601",
"W 	c #A60D04",
"X 	c #680401",
"Y 	c #6F0500",
"Z 	c #830902",
"` 	c #7B0501",
" .	c #730601",
"..	c #970B03",
"+.	c #8F0802",
"@.	c #7B0601",
"#.	c #A80D04",
"$.	c #8B0802",
"%.	c #F7D300",
"&.	c #730501",
"*.	c #800802",
"=.	c #6B0400",
"-.	c #940A03",
";.	c #9B0B03",
">.	c #770702",
",.	c #830601",
"'.	c #830701",
").	c #700500",
"!.	c #830802",
"~.	c #820601",
"{.	c #7C0702",
"].	c #7C0601",
"^.	c #F3CF00",
"/.	c #780501",
"(.	c #820802",
"_.	c #8E0802",
":.	c #6C0401",
"<.	c #950903",
"[.	c #7B0701",
"}.	c #860601",
"|.	c #AA0D04",
"1.	c #850601",
"2.	c #6C0501",
"3.	c #710500",
"4.	c #920802",
"5.	c #F4D000",
"6.	c #790501",
"7.	c #9A0A03",
"8.	c #6F0401",
"9.	c #730400",
"0.	c #910802",
"a.	c #8C0802",
"b.	c #6D0401",
"c.	c #7E0501",
"d.	c #A30D04",
"e.	c #7C0501",
"f.	c #9D0B03",
"g.	c #7F0501",
"h.	c #880601",
"i.	c #8E0701",
"j.	c #6C0400",
"k.	c #910902",
"l.	c #700400",
"m.	c #800501",
"n.	c #890501",
"o.	c #700501",
"p.	c #6F0400",
"q.	c #A00C04",
"r.	c #F6D200",
"s.	c #630200",
"t.	c #880702",
"u.	c #A20D04",
"v.	c #790400",
"w.	c #850501",
"x.	c #8C0702",
"y.	c #F9D500",
"z.	c #830500",
"A.	c #820501",
"B.	c #740400",
"C.	c #8E0702",
"D.	c #8F0702",
"E.	c #710400",
"F.	c #820500",
"G.	c #8B0702",
"H.	c #940802",
"I.	c #920902",
"J.	c #740401",
"K.	c #780802",
"L.	c #860501",
"M.	c #730401",
"N.	c #830501",
"O.	c #940902",
"P.	c #670300",
"Q.	c #8B0501",
"R.	c #910701",
"S.	c #890601",
"T.	c #980B04",
"U.	c #830400",
"V.	c #880501",
"W.	c #8B0601",
"X.	c #FAD600",
"Y.	c #780500",
"Z.	c #950902",
"`.	c #660300",
" +	c #A50C04",
".+	c #880500",
"++	c #FBD700",
"@+	c #760400",
"#+	c #780400",
"$+	c #9B0B04",
"%+	c #750400",
"&+	c #9E0C04",
"*+	c #860500",
"=+	c #970A03",
"-+	c #9E0D04",
";+	c #F4CF00",
">+	c #980A03",
",+	c #AF0C04",
"'+	c #770501",
")+	c #800500",
"!+	c #9E0B03",
"~+	c #7E0400",
"{+	c #AF0D04",
"]+	c #B00C04",
"^+	c #800400",
"/+	c #A00B03",
"(+	c #7F0400",
"_+	c #8C0601",
":+	c #B20D04",
"<+	c #B00D04",
"[+	c #850500",
"}+	c #F7D200",
"|+	c #F5D100",
"1+	c #610300",
"2+	c #700401",
"3+	c #FBD600",
"4+	c #F9D400",
"5+	c #FDD900",
"6+	c #F3CE00",
"7+	c #FCD800",
"8+	c #FFDB00",
"9+	c #3A0801",
"0+	c #3D0801",
"a+	c #520601",
"b+	c #380B01",
"c+	c #740500",
"d+	c #750500",
"e+	c #510600",
"f+	c #390701",
"g+	c #570601",
"h+	c #330A01",
"i+	c #370B01",
"j+	c #510801",
"k+	c #410801",
"l+	c #3E0801",
"m+	c #580701",
"n+	c #350A01",
"o+	c #5E0400",
"p+	c #F5CF00",
"q+	c #BE6800",
"r+	c #3B1801",
"s+	c #3C1801",
"t+	c #221101",
"u+	c #2C1301",
"v+	c #1E0F01",
"w+	c #341301",
"x+	c #A75B00",
"y+	c #B85700",
"z+	c #FFCA00",
"A+	c #FFD900",
"B+	c #301702",
"C+	c #FFC700",
"D+	c #231101",
"E+	c #D3A500",
"F+	c #FFD500",
"G+	c #FCD500",
"H+	c #BD5800",
"I+	c #C75A00",
"J+	c #E48E00",
"K+	c #FFBC00",
"L+	c #2E1202",
"M+	c #FFB200",
"N+	c #C96200",
"O+	c #1E0E02",
"P+	c #FFB800",
"Q+	c #FFDD00",
"R+	c #F0D000",
"S+	c #DD9800",
"T+	c #E49000",
"U+	c #C86400",
"V+	c #250D04",
"W+	c #401100",
"X+	c #582100",
"Y+	c #0A0306",
"Z+	c #030307",
"`+	c #502002",
"  . + @ # # $ % & # * * . = * * # - + ; # # # > > > > > > > > > > > > > > > > > > * # # , + - # * # '   * * #   + ) # ! - +   ~ ",
"{ ] ^ / ( _ : ^ < [ } | 1 2 3 4 5 6 7 8 [ 9 0 > > > > > > > > > > > > > > > > > > a ( | b c 6 [ } d e f 4 4 g < h i [ j / k l { ",
"m n o p q r s o t u v w x y z A u B C D u E F > > > > > > > > > > > > > > > > > > G q r H I J u v K c L 8 8 6 M o N u E O o 1 m ",
"P n Q K q r R Q S T v w U y A 8 u V W 1 u E X > > > > > > > > > > > > > > > > > > Y q r Z I ` u v  ...+.8 8 u S o N u E @.#.$.%.",
"P n Q &.q r *.Q S =.v K -.;.>.8 T ,.Q '.u E X > > > > > > > > > > > > > > > > > > ).q r !.I ~.u v K ..+.A 8 u S Q {.u E ].Q $.^.",
"P n Q /.q r (.Q _.:.v K <.;.[.8 =.}.|.1.u E 2.> > > > > > > > > > > > > > > > > > 3.q r t I 1.u v @...4.A 8 T $.Q l u E ].|.$.5.",
"P M Q 6.q r (.Q $.:.v K 7.y ].8 =.}.|.1.u E 8.> > > > > > > > > > > > > > > > > > 9.q r $.I }.T v @...0.8 8 =.$.Q < u E ].|.$.5.",
"P S Q 6.q r (.Q a.b.v K 7.y c.8 u '.d.}.u E 8.> > > > > > > > > > > > > > > > > > 9.q r $.I }.=.v e...0.O 8 =.$.Q ].u E ~.Q $.5.",
"P S Q ` q r (.Q _.8.v K 7.f.g.8 u t C h.u E 8.> > > > > > > > > > > > > > > > > > 9.q r i.I }.j.v e...4.K 8 G k.o ,.u E ,.Q $.5.",
"P $.Q g.q r ,.Q _.l.v K 7.f.m.8 u t C n.u E b.> > > > > > > > > > > > > > > > > > 9.q o.i.I }.p.v e...+.@.8 G k.q.,.u E ,.Q a.r.",
"P _.Q g.s.r ,.Q +.l.v e.7.f.g.8 u t.u.n.u E 8.> > > > > > > > > > > > > > > > > > v.q o.i.I }.G v c..._.].8 p.0.q.w.u E ,.Q x.y.",
"P _.Q z.s.r ,.Q _.l.v e.7.y A.8 =.$.u.n.u E 8.> > > > > > > > > > > > > > > > > > B.q 3.i.I }.:.v 1..._.].8 p.0.q.w.u E ,.Q C.5.",
"P _.Q z.s.r ,.Q D.E.v e.7.y F.O =.G.Q n.u E 8.> > > > > > > > > > > > > > > > > > v.q r H...1.:.v }...4.g.8 p.I.q.z.u E 1.Q C.5.",
"P +.Q z.s.r w.Q D.E.v e.7.;.A. .=.$.Q n.u E J.> > > > > > > > > > > > > > > > > > v.q o.0...1.:.K.}...4.g.8 p.I.q.z.u E L.Q D.%.",
"P 0.Q z.s.r L.Q D.E.v c.7.y A. .=.$.Q n.=.E M.> > > > > > > > > > > > > > > > > > v.q 3.H...}.b.K.N...4.c.8 l.O.Q z.u P.L.Q D.P ",
"P 0.Q z.q r Q.Q D.E.v c.y y F.O j.a.Q n.l.E M.> > > > > > > > > > > > > > > > > > v.q 3.R...S.8.K.N.T.4.c.8 l.O.o U.u P.n.Q D.y.",
"P k.o z.q r V.Q D.9.v c.y y F.O j.a.Q w.u E M.> > > > > > > > > > > > > > > > > > v.q 3.R...W.l.v F.T.0.c.8 l.O.o U.u P.Q.Q D.X.",
"P O.q.z.q r n.Q D.Y.v c.y y F.O j.a.Q V.G E M.> > > > > > > > > > > > > > > > > > v.q 3.R...S.8.K.z.T._.c.A l.Z.o U.u P.Q.Q C.y.",
"P O.q.U.q r n.Q D.Y.v g.y y F.O G x.Q n.l.`.J.> > > > > > > > > > > > > > > > > > v.q 3.D.c S.r K.z.T._.c.8 l.O. +.+u P.Q.Q D.++",
"P <.q.U.q r n.Q D.Y.v A.;.;.F.O G C.Q n.l.E @+> > > > > > > > > > > > > > > > > > #+q 3.H...S.o.K.z.$+_.c.8 %+O.&+*+u P.Q.Q D.X.",
"P <.q.U.q r n.Q D.Y.v c.;.;.F.O p.C.Q n.l.E @+> > > > > > > > > > > > > > > > > > v.q #+0.=+S.o.K.z.-+_.c.8 J O.&+*+u 6 W.|.D.;+",
"P >+o z.q o.Q.,+D.'+v )+!+f.F.O l.D.,+n.l.E @+> > > > > > > > > > > > > > > > > > ~+q #+H.=+W.o.K.L.-+_.c.8 J =+ +*+u P.W.{+D.^.",
"P 7.Q z.q r Q.]+D.'+v ^+/+f.F.O l.D.]+n.l.E @+> > > > > > > > > > > > > > > > > > (+q #+H...W.l.K.V.-+4.m.8 J >+Q *+u P._+:+D.^.",
"P 7.Q z.q r Q.]+D.'+v ^+/+f.F.O l.D.]+n.l.E @+> > > > > > > > > > > > > > > > > > ~+q #+H...S.8.K.h.-++.c.8 J >+Q *+u P.W.<+D.^.",
"P 7.Q z.q r Q.]+D.'+v ^+/+f.F.O l.D.]+n.l.E @+> > > > > > > > > > > > > > > > > > ~+s.#+R...S.o.K.h.-+_.c.8 J >+Q *+u P.W.<+D.5.",
"P 7.Q z.q r Q.]+D.'+v ^+/+f.F.O l.D.]+n.l.E @+> > > > > > > > > > > > > > > > > > (+q #+H...W.o.K.h.-+_.c. .J >+Q *+u P.W.<+D.5.",
"P 7.Q [+q r Q.]+D.Y.v ^+/+f.F.O l.D.]+n.l.E @+> > > > > > > > > > > > > > > > > > (+q #+H...W.o.K.h.&+_.c. .J >+Q *+u P.W.<+D.}+",
"P 7.Q .+q r Q.]+D.'+v ^+/+f.F.O l.D.]+n.l.E @+> > > > > > > > > > > > > > > > > > (+q #+H...W.l.K.V.-+0.m.A J >+Q *+u P.W.<+D.X.",
"P 7.Q .+q r Q.]+D.'+v ^+/+f.F.O l.D.]+n.l.E @+> > > > > > > > > > > > > > > > > > ~+q #+0...W.8.K.V.-+_.c.A J >+Q *+u P.W.<+D.;+",
"P 7.Q [+q r Q.]+D.'+v ^+/+f.F.O l.D.]+n.l.E @+> > > > > > > > > > > > > > > > > > ~+q #+0...W.8.K.h.-+_.c.8 J >+Q *+u P.W.<+D.5.",
"P 7.Q [+q r Q.]+D.'+v ^+/+f.F.O l.D.]+n.l.E @+> > > > > > > > > > > > > > > > > > ~+q #+0...W.8.K.h.-+_.g.8 J >+Q *+u P.W.<+D.|+",
"P 7.Q .+q r Q.]+D.'+v ^+/+f.F.O l.D.]+n.l.E @+> > > > > > > > > > > > > > > > > > (+q #+H...W.o.K.h.&+_.g.8 J >+Q *+u P.W.<+D.|+",
"P 7.Q z.q o.Q.]+D.'+v ^+/+f.F.O l.D.]+n.l.E @+> > > > > > > > > > > > > > > > > > (+q #+H.=+W.l.K.V.-++.g.8 J >+Q *+u P.W.<+D.y.",
"P 7.Q z.q 3.Q.]+D.'+v ^+/+f.F.O l.D.]+n.l.E @+> > > > > > > > > > > > > > > > > > (+q #+0...W.8.K.h.-+4.g.8 J >+Q *+u P.W.<+D.X.",
"P 7.Q .+q o.Q.]+D.'+v ^+/+f.F.O l.D.]+n.l.E @+> > > > > > > > > > > > > > > > > > ~+q #+H...S.r K.h.-+_.c.8 J >+Q *+u P.W.<+D.P ",
"P 7.Q .+q r Q.]+D.'+v ^+/+f.F.O l.D.]+n.l.E @+> > > > > > > > > > > > > > > > > > ~+s.#+R...S.o.K.h.-+_.c. .J >+Q *+u P.W.<+D.y.",
"P 7.Q .+q r Q.]+D.'+v ^+/+f.F.O l.D.]+n.l.1+@+> > > > > > > > > > > > > > > > > > (+q #+H...W.2+K.h.-+_.c. .J >+Q *+u P.W.<+D.y.",
"P 7.Q [+q r Q.]+D.'+v ^+/+f.F.O l.D.]+n.l.1+@+> > > > > > > > > > > > > > > > > > (+q #+H...W.2+K.V.-+_.c. .J >+Q *+u P.W.<+D.P ",
"P 7.Q z.q r Q.]+D.'+v ^+/+f.F.O l.D.]+n.l.E @+> > > > > > > > > > > > > > > > > > (+q #+H...W.l.K.V.-+_.c. .J >+Q *+u P._+:+D.X.",
"P 7.Q z.q r Q.]+D.'+v ^+/+f.F.O l.D.]+n.l.E @+> > > > > > > > > > > > > > > > > > ~+q #+H...W.l.K.V.-+_.g.8 J >+Q *+u P.W.<+D.3+",
"P 7.Q z.q r Q.]+D.'+v ^+/+f.F.O l.D.]+n.l.E @+> > > > > > > > > > > > > > > > > > ~+q #+R...S.8.K.h.-+_.c.8 J >+Q *+u P.W.<+D.4+",
"P 7.Q z.q r Q.]+D.'+v ^+/+f.F.O l.D.]+n.l.E @+> > > > > > > > > > > > > > > > > > (+q #+H...W.l.K.h.-+_.c.8 J >+Q *+u P.W.<+D.4+",
"P 7.Q z.q r Q.]+D.'+v ^+/+f.F.O l.D.]+n.l.E @+> > > > > > > > > > > > > > > > > > (+q #+H...W.o.K.h.-+_.c.8 J >+Q *+u P.W.<+D.X.",
"P 7.Q .+q r Q.]+D.'+v ^+/+f.F.O l.D.]+n.l.E @+> > > > > > > > > > > > > > > > > > (+s.#+0...S.o.K.h.-+_.c. .#+7.Q *+u P.W.<+D.X.",
"++7.Q .+q r Q.]+D.'+v ^+/+f.F.O l.D.]+n.l.1+@+> > > > > > > > > > > > > > > > > > (+q #+R.=+W.8.K.h.-+_.c. .J >+Q *+u P.W.<+D.%.",
"y.7.Q [+q o.Q.]+D.'+v ^+/+f.F.O l.D.]+n.l.1+@+> > > > > > > > > > > > > > > > > > ~+q #+R.=+W.o.K.V.-+_.c. .J >+Q *+u P.W.<+D.^.",
"P 7.Q [+q o.Q.]+D.'+v ^+/+f.F.O l.D.]+n.l.E @+> > > > > > > > > > > > > > > > > > (+q #+R.=+S.o.K.V.-+_.c. .J >+Q *+u P.W.<+D.5.",
"5+7.Q .+q r Q.]+D.'+v ^+/+f.F.O l.D.]+n.l.E @+> > > > > > > > > > > > > > > > > > ~+q #+H...S.o.K.h.-+_.g.8 J >+Q *+u P.W.<+D.y.",
"5+7.Q z.q r Q.]+D.'+v ^+/+f.F.O l.D.]+n.l.E @+> > > > > > > > > > > > > > > > > > ~+q #+H...S.o.K.V.-++.A.8 J >+Q *+u P.W.<+D.X.",
"++7.Q z.q r Q.]+D.'+v ^+/+f.F.O l.D.]+n.l.E @+> > > > > > > > > > > > > > > > > > ~+q #+H...W.o.K.h.-+4.c. .J >+Q *+u P.W.<+D.6+",
"++7.Q [+q r W.]+D.Y.v ^+/+f.F.O l.D.]+n.l.g @+> > > > > > > > > > > > > > > > > > ~+s.#+H...W.l.K.h.-+_.c. .J >+Q *+u P.W.<+D.^.",
"5+7.Q [+q r W.]+D.'+v ^+/+f.F.O l.D.]+n.l.E @+> > > > > > > > > > > > > > > > > > (+s.#+H...W.l.K.h.-+_.c. .J >+Q *+u P.W.<+D.%.",
"X.7.Q .+q r Q.]+D.'+v ^+/+f.F.O l.D.]+n.l.E @+> > > > > > > > > > > > > > > > > > (+q #+R...W.8.K.V.-+_.c. .J >+Q *+u P.W.<+D.X.",
"7+7.Q [+q o.Q.]+D.'+v ^+/+f.F.O l.D.]+n.l.E @+> > > > > > > > > > > > > > > > > > ~+q #+H.=+W.o.K.V.-+_.c. .J >+Q *+u P.W.<+D.y.",
"7+7.Q z.q r Q.]+D.'+v ^+/+f.F.O l.D.]+n.l.E @+> > > > > > > > > > > > > > > > > > ~+s.#+H.=+W.l.K.V.-+_.c. .J >+Q *+u P.W.<+D.5.",
"++7.Q z.q r Q.]+D.'+v ^+/+f.F.O l.D.]+n.l.g @+> > > > > > > > > > > > > > > > > > (+s.#+H...W.o.K.V.-+_.A.8 J >+Q *+u P.W.<+D.^.",
"8+7.Q z.q r Q.]+D.'+v ^+/+f.F.O l.D.]+n.l.E @+> > > > > > > > > > > > > > > > > > (+s.#+0...S.o.K.h.-+_.c.8 J >+Q *+u P.W.<+D.|+",
"8+7.Q z.q r Q.]+D.'+v ^+/+f.F.O l.D.]+n.l.E @+> > > > > > > > > > > > > > > > > > (+q #+H...W.o.K.h.-+_.c.8 J >+Q *+u P.W.<+D.y.",
"8+y Q z.q r Q.]+D.'+v ^+/+f.F.O l.D.]+n.l.E @+> > > > > > > > > > > > > > > > > > (+s.#+H.=+W.o.K.h.-+_.c.8 J >+Q *+u P.W.<+D.%.",
"8+7.Q z.9+0+Q.]+D.a+b+c+/+f.d+b+e+D.]+n.0+f+@+> > > > > > > > > > > > > > > > > > g+h+Y H...].i+j+h.-+_.k+l+J >+Q m+n+o+W.<+*.p+",
"q+r+s+s+t+t+s+s+u+u+v+s+u+u+s+v+u+u+s+s+t+t+w+> > > > > > > > > > > > > > > > > > u+v+s+u+u+s+v+u+u+s+s+t+t+s+s+u+u+v+s+u+u+s+x+",
"y+z+A+A+B+B+C+C+y+y+D+C+y+y+C+D+y+y+C+C+B+B+E+> > > > > > > > > > > > > > > > > > y+D+C+y+y+C+D+y+y+C+C+B+B+C+C+y+y+D+F+G+A+z+H+",
"I+J+K+K+L+L+M+M+N+I+O+P+N+N+8+O+I+N+Q+Q+L+L+R+> > > > > > > > > > > > > > > > > > I+O+8+N+N+8+O+I+N+Q+Q+L+L+Q+Q+N+I+O+8+S+N+T+U+",
"V+W+X+X+Y+Y+X+X+W+V+Z+`+W+W+`+Z+V+W+X+X+Y+Y+X+> > > > > > > > > > > > > > > > > > V+Z+`+W+W+`+Z+V+W+X+X+Y+Y+X+X+W+V+Z+`+W+W+`+Z+"};
