/* XPM */
static char * frame7_xpm[] = {
"64 64 231 2",
"  	c #450200",
". 	c #440200",
"+ 	c #550401",
"@ 	c #3D0100",
"# 	c #380100",
"$ 	c #3A0100",
"% 	c #520401",
"& 	c #460200",
"* 	c #390100",
"= 	c #4F0300",
"- 	c #000000",
"; 	c #4F0400",
"> 	c #3D0200",
", 	c #370100",
"' 	c #3B0100",
") 	c #460400",
"! 	c #791002",
"~ 	c #780702",
"{ 	c #A20C04",
"] 	c #690501",
"^ 	c #5B0300",
"/ 	c #620401",
"( 	c #700702",
"_ 	c #790601",
": 	c #5F0400",
"< 	c #6B0702",
"[ 	c #640501",
"} 	c #820702",
"| 	c #8F0A03",
"1 	c #690601",
"2 	c #680501",
"3 	c #5E0300",
"4 	c #620501",
"5 	c #910A03",
"6 	c #7E0701",
"7 	c #5F0300",
"8 	c #9B0C04",
"9 	c #6F0702",
"0 	c #590200",
"a 	c #A30C04",
"b 	c #790701",
"c 	c #B85800",
"d 	c #860802",
"e 	c #A60C04",
"f 	c #740501",
"g 	c #630300",
"h 	c #6F0501",
"i 	c #7C0902",
"j 	c #830702",
"k 	c #680400",
"l 	c #770802",
"m 	c #6D0501",
"n 	c #940903",
"o 	c #9A0B03",
"p 	c #750702",
"q 	c #740702",
"r 	c #750601",
"s 	c #950B03",
"t 	c #8C0902",
"u 	c #730702",
"v 	c #670400",
"w 	c #880802",
"x 	c #790702",
"y 	c #620300",
"z 	c #740601",
"A 	c #F8D400",
"B 	c #A80C04",
"C 	c #7E0902",
"D 	c #890802",
"E 	c #690400",
"F 	c #920A03",
"G 	c #730601",
"H 	c #970B03",
"I 	c #8F0802",
"J 	c #7B0601",
"K 	c #A80D04",
"L 	c #8B0802",
"M 	c #F7D300",
"N 	c #730501",
"O 	c #800802",
"P 	c #6B0400",
"Q 	c #940A03",
"R 	c #9B0B03",
"S 	c #770702",
"T 	c #7C0702",
"U 	c #7C0601",
"V 	c #F3CF00",
"W 	c #780501",
"X 	c #820802",
"Y 	c #8E0802",
"Z 	c #6C0401",
"` 	c #950903",
" .	c #7B0701",
"..	c #920802",
"+.	c #AA0D04",
"@.	c #F4D000",
"#.	c #790501",
"$.	c #9A0A03",
"%.	c #910802",
"&.	c #8C0802",
"*.	c #6D0401",
"=.	c #7E0501",
"-.	c #7C0501",
";.	c #820601",
">.	c #7B0501",
",.	c #6F0401",
"'.	c #9D0B03",
").	c #7F0501",
"!.	c #6C0400",
"~.	c #6D0400",
"{.	c #910902",
"].	c #830601",
"^.	c #700400",
"/.	c #800501",
"(.	c #6F0400",
"_.	c #A00C04",
":.	c #F6D200",
"<.	c #630200",
"[.	c #850501",
"}.	c #8C0702",
"|.	c #F9D500",
"1.	c #830500",
"2.	c #820501",
"3.	c #850601",
"4.	c #8E0702",
"5.	c #8F0702",
"6.	c #710400",
"7.	c #820500",
"8.	c #860601",
"9.	c #920902",
"0.	c #780802",
"a.	c #860501",
"b.	c #830501",
"c.	c #940902",
"d.	c #670300",
"e.	c #8B0501",
"f.	c #980B04",
"g.	c #830400",
"h.	c #890501",
"i.	c #880501",
"j.	c #730400",
"k.	c #FAD600",
"l.	c #780500",
"m.	c #950902",
"n.	c #A50C04",
"o.	c #880500",
"p.	c #FBD700",
"q.	c #700501",
"r.	c #9B0B04",
"s.	c #750400",
"t.	c #9E0C04",
"u.	c #860500",
"v.	c #9E0D04",
"w.	c #770400",
"x.	c #8B0601",
"y.	c #F4CF00",
"z.	c #980A03",
"A.	c #AF0C04",
"B.	c #770501",
"C.	c #800500",
"D.	c #9E0B03",
"E.	c #970A03",
"F.	c #AF0D04",
"G.	c #B00C04",
"H.	c #800400",
"I.	c #A00B03",
"J.	c #8C0601",
"K.	c #B20D04",
"L.	c #880601",
"M.	c #B00D04",
"N.	c #850500",
"O.	c #F7D200",
"P.	c #F5D100",
"Q.	c #710500",
"R.	c #700401",
"S.	c #FBD600",
"T.	c #F9D400",
"U.	c #780400",
"V.	c #FDD900",
"W.	c #F3CE00",
"X.	c #FCD800",
"Y.	c #FFDB00",
"Z.	c #3A0801",
"`.	c #3D0801",
" +	c #520601",
".+	c #380B01",
"++	c #740500",
"@+	c #750500",
"#+	c #510600",
"$+	c #370B01",
"%+	c #510801",
"&+	c #410801",
"*+	c #3E0801",
"=+	c #580701",
"-+	c #350A01",
";+	c #5E0400",
">+	c #F5CF00",
",+	c #BE6800",
"'+	c #3B1801",
")+	c #3C1801",
"!+	c #221101",
"~+	c #2C1301",
"{+	c #1E0F01",
"]+	c #A75B00",
"^+	c #B85700",
"/+	c #FFCA00",
"(+	c #FFD900",
"_+	c #301702",
":+	c #FFC700",
"<+	c #231101",
"[+	c #FFD500",
"}+	c #FCD500",
"|+	c #BD5800",
"1+	c #C75A00",
"2+	c #E48E00",
"3+	c #FFBC00",
"4+	c #2E1202",
"5+	c #FFB200",
"6+	c #C96200",
"7+	c #1E0E02",
"8+	c #FFB800",
"9+	c #FFDD00",
"0+	c #DD9800",
"a+	c #E49000",
"b+	c #C86400",
"c+	c #250D04",
"d+	c #401100",
"e+	c #582100",
"f+	c #0A0306",
"g+	c #030307",
"h+	c #502002",
"  . + @ # # $ % & # * * . = * * # - - - - - - - - - - - - - - - - - - - - - - - - - - - - - - # * # ;   * * #   + > # , ' +   ) ",
"! ~ { ] ^ / ( { _ : < [ } | 1 2 3 - - - - - - - - - - - - - - - - - - - - - - - - - - - - - - : < 4 5 6 2 2 7 _ 8 9 : 0 ] a b ! ",
"c d e f g h i e j k l m n o p q k - - - - - - - - - - - - - - - - - - - - - - - - - - - - - - k l r s t u u v w e x k y z e } c ",
"A d B r g h C B D E l m F o q u k - - - - - - - - - - - - - - - - - - - - - - - - - - - - - - k l G H I u u k D e x k y J K L M ",
"A d B N g h O B D P l r Q R S u E - - - - - - - - - - - - - - - - - - - - - - - - - - - - - - k l r H I q u k D B T k y U B L V ",
"A d B W g h X B Y Z l r ` R  .u P - - - - - - - - - - - - - - - - - - - - - - - - - - - - - - k l J H ..q u E L B b k y U +.L @.",
"A w B #.g h X B L Z l r $.o U u P - - - - - - - - - - - - - - - - - - - - - - - - - - - - - - E l J H %.u u P L B _ k y U +.L @.",
"A D B #.g h X B &.*.l r $.o =.u k - - - - - - - - - - - - - - - - - - - - - - - - - - - - - - P l -.H %.z u P L B U k y ;.B L @.",
"A D B >.g h X B Y ,.l r $.'.).u k - - - - - - - - - - - - - - - - - - - - - - - - - - - - - - !.l -.H ..r u ~.{.e ].k y ].B L @.",
"A L B ).g h ].B Y ^.l r $.'./.u k - - - - - - - - - - - - - - - - - - - - - - - - - - - - - - (.l -.H I J u ~.{._.].k y ].B &.:.",
"A Y B ).<.h ].B I ^.l -.$.'.).u k - - - - - - - - - - - - - - - - - - - - - - - - - - - - - - ~.l =.H Y U u (.%._.[.k y ].B }.|.",
"A Y B 1.<.h ].B Y ^.l -.$.o 2.u P - - - - - - - - - - - - - - - - - - - - - - - - - - - - - - Z l 3.H Y U u (.%._.[.k y ].B 4.@.",
"A Y B 1.<.h ].B 5.6.l -.$.o 7.z P - - - - - - - - - - - - - - - - - - - - - - - - - - - - - - Z l 8.H ..).u (.9._.1.k y 3.B 4.@.",
"A I B 1.<.h [.B 5.6.l -.$.R 2.G P - - - - - - - - - - - - - - - - - - - - - - - - - - - - - - Z 0.8.H ..).u (.9._.1.k y a.B 5.M ",
"A %.B 1.<.h a.B 5.6.l =.$.o 2.G P - - - - - - - - - - - - - - - - - - - - - - - - - - - - - - *.0.b.H ..=.u ^.c.B 1.k d.a.B 5.A ",
"A %.B 1.g h e.B 5.6.l =.o o 7.z !.- - - - - - - - - - - - - - - - - - - - - - - - - - - - - - ,.0.b.f...=.u ^.c.e g.k d.h.B 5.|.",
"A {.e 1.g h i.B 5.j.l =.o o 7.z !.- - - - - - - - - - - - - - - - - - - - - - - - - - - - - - ^.l 7.f.%.=.u ^.c.e g.k d.e.B 5.k.",
"A c._.1.g h h.B 5.l.l =.o o 7.z !.- - - - - - - - - - - - - - - - - - - - - - - - - - - - - - ,.0.1.f.Y =.q ^.m.e g.k d.e.B 4.|.",
"A c._.g.g h h.B 5.l.l ).o o 7.z ~.- - - - - - - - - - - - - - - - - - - - - - - - - - - - - - h 0.1.f.Y =.u ^.c.n.o.k d.e.B 5.p.",
"A ` _.g.g h h.B 5.l.l 2.R R 7.z ~.- - - - - - - - - - - - - - - - - - - - - - - - - - - - - - q.0.1.r.Y =.u s.c.t.u.k d.e.B 5.k.",
"A ` _.g.g h h.B 5.l.l =.R R 7.z (.- - - - - - - - - - - - - - - - - - - - - - - - - - - - - - q.0.1.v.Y =.u w.c.t.u.k v x.+.5.y.",
"A z.e 1.g q.e.A.5.B.l C.D.'.7.z ^.- - - - - - - - - - - - - - - - - - - - - - - - - - - - - - q.0.a.v.Y =.u w.E.n.u.k d.x.F.5.V ",
"A $.B 1.g h e.G.5.B.l H.I.'.7.z ^.- - - - - - - - - - - - - - - - - - - - - - - - - - - - - - ^.0.i.v.../.u w.z.B u.k d.J.K.5.V ",
"A $.B 1.g h e.G.5.B.l H.I.'.7.z ^.- - - - - - - - - - - - - - - - - - - - - - - - - - - - - - ,.0.L.v.I =.u w.z.B u.k d.x.M.5.V ",
"A $.B 1.g h e.G.5.B.l H.I.'.7.z ^.- - - - - - - - - - - - - - - - - - - - - - - - - - - - - - q.0.L.v.Y =.u w.z.B u.k d.x.M.5.@.",
"A $.B 1.g h e.G.5.B.l H.I.'.7.z ^.- - - - - - - - - - - - - - - - - - - - - - - - - - - - - - q.0.L.v.Y =.G w.z.B u.k d.x.M.5.@.",
"A $.B N.g h e.G.5.l.l H.I.'.7.z ^.- - - - - - - - - - - - - - - - - - - - - - - - - - - - - - q.0.L.t.Y =.G w.z.B u.k d.x.M.5.O.",
"A $.B o.g h e.G.5.B.l H.I.'.7.z ^.- - - - - - - - - - - - - - - - - - - - - - - - - - - - - - ^.0.i.v.%./.q w.z.B u.k d.x.M.5.k.",
"A $.B o.g h e.G.5.B.l H.I.'.7.z ^.- - - - - - - - - - - - - - - - - - - - - - - - - - - - - - ,.0.i.v.Y =.q w.z.B u.k d.x.M.5.y.",
"A $.B N.g h e.G.5.B.l H.I.'.7.z ^.- - - - - - - - - - - - - - - - - - - - - - - - - - - - - - ,.0.L.v.Y =.u w.z.B u.k d.x.M.5.@.",
"A $.B N.g h e.G.5.B.l H.I.'.7.z ^.- - - - - - - - - - - - - - - - - - - - - - - - - - - - - - ,.0.L.v.Y ).u w.z.B u.k d.x.M.5.P.",
"A $.B o.g h e.G.5.B.l H.I.'.7.z ^.- - - - - - - - - - - - - - - - - - - - - - - - - - - - - - q.0.L.t.Y ).u w.z.B u.k d.x.M.5.P.",
"A $.B 1.g q.e.G.5.B.l H.I.'.7.z ^.- - - - - - - - - - - - - - - - - - - - - - - - - - - - - - ^.0.i.v.I ).u w.z.B u.k d.x.M.5.|.",
"A $.B 1.g Q.e.G.5.B.l H.I.'.7.z ^.- - - - - - - - - - - - - - - - - - - - - - - - - - - - - - ,.0.L.v...).u w.z.B u.k d.x.M.5.k.",
"A $.B o.g q.e.G.5.B.l H.I.'.7.z ^.- - - - - - - - - - - - - - - - - - - - - - - - - - - - - - h 0.L.v.Y =.u w.z.B u.k d.x.M.5.A ",
"A $.B o.g h e.G.5.B.l H.I.'.7.z ^.- - - - - - - - - - - - - - - - - - - - - - - - - - - - - - q.0.L.v.Y =.G w.z.B u.k d.x.M.5.|.",
"A $.B o.g h e.G.5.B.l H.I.'.7.z ^.- - - - - - - - - - - - - - - - - - - - - - - - - - - - - - R.0.L.v.Y =.G w.z.B u.k d.x.M.5.|.",
"A $.B N.g h e.G.5.B.l H.I.'.7.z ^.- - - - - - - - - - - - - - - - - - - - - - - - - - - - - - R.0.i.v.Y =.G w.z.B u.k d.x.M.5.A ",
"A $.B 1.g h e.G.5.B.l H.I.'.7.z ^.- - - - - - - - - - - - - - - - - - - - - - - - - - - - - - ^.0.i.v.Y =.G w.z.B u.k d.J.K.5.k.",
"A $.B 1.g h e.G.5.B.l H.I.'.7.z ^.- - - - - - - - - - - - - - - - - - - - - - - - - - - - - - ^.0.i.v.Y ).u w.z.B u.k d.x.M.5.S.",
"A $.B 1.g h e.G.5.B.l H.I.'.7.z ^.- - - - - - - - - - - - - - - - - - - - - - - - - - - - - - ,.0.L.v.Y =.u w.z.B u.k d.x.M.5.T.",
"A $.B 1.g h e.G.5.B.l H.I.'.7.z ^.- - - - - - - - - - - - - - - - - - - - - - - - - - - - - - ^.0.L.v.Y =.u w.z.B u.k d.x.M.5.T.",
"A $.B 1.g h e.G.5.B.l H.I.'.7.z ^.- - - - - - - - - - - - - - - - - - - - - - - - - - - - - - q.0.L.v.Y =.u w.z.B u.k d.x.M.5.k.",
"A $.B o.g h e.G.5.B.l H.I.'.7.z ^.- - - - - - - - - - - - - - - - - - - - - - - - - - - - - - q.0.L.v.Y =.G U.$.B u.k d.x.M.5.k.",
"p.$.B o.g h e.G.5.B.l H.I.'.7.z ^.- - - - - - - - - - - - - - - - - - - - - - - - - - - - - - ,.0.L.v.Y =.G w.z.B u.k d.x.M.5.M ",
"|.$.B N.g q.e.G.5.B.l H.I.'.7.z ^.- - - - - - - - - - - - - - - - - - - - - - - - - - - - - - q.0.i.v.Y =.G w.z.B u.k d.x.M.5.V ",
"A $.B N.g q.e.G.5.B.l H.I.'.7.z ^.- - - - - - - - - - - - - - - - - - - - - - - - - - - - - - q.0.i.v.Y =.G w.z.B u.k d.x.M.5.@.",
"V.$.B o.g h e.G.5.B.l H.I.'.7.z ^.- - - - - - - - - - - - - - - - - - - - - - - - - - - - - - q.0.L.v.Y ).u w.z.B u.k d.x.M.5.|.",
"V.$.B 1.g h e.G.5.B.l H.I.'.7.z ^.- - - - - - - - - - - - - - - - - - - - - - - - - - - - - - q.0.i.v.I 2.u w.z.B u.k d.x.M.5.k.",
"p.$.B 1.g h e.G.5.B.l H.I.'.7.z ^.- - - - - - - - - - - - - - - - - - - - - - - - - - - - - - q.0.L.v...=.G w.z.B u.k d.x.M.5.W.",
"p.$.B N.g h x.G.5.l.l H.I.'.7.z ^.- - - - - - - - - - - - - - - - - - - - - - - - - - - - - - ^.0.L.v.Y =.G w.z.B u.k d.x.M.5.V ",
"V.$.B N.g h x.G.5.B.l H.I.'.7.z ^.- - - - - - - - - - - - - - - - - - - - - - - - - - - - - - ^.0.L.v.Y =.G w.z.B u.k d.x.M.5.M ",
"k.$.B o.g h e.G.5.B.l H.I.'.7.z ^.- - - - - - - - - - - - - - - - - - - - - - - - - - - - - - ,.0.i.v.Y =.G w.z.B u.k d.x.M.5.k.",
"X.$.B N.g q.e.G.5.B.l H.I.'.7.z ^.- - - - - - - - - - - - - - - - - - - - - - - - - - - - - - q.0.i.v.Y =.G w.z.B u.k d.x.M.5.|.",
"X.$.B 1.g h e.G.5.B.l H.I.'.7.z ^.- - - - - - - - - - - - - - - - - - - - - - - - - - - - - - ^.0.i.v.Y =.G w.z.B u.k d.x.M.5.@.",
"p.$.B 1.g h e.G.5.B.l H.I.'.7.z ^.- - - - - - - - - - - - - - - - - - - - - - - - - - - - - - q.0.i.v.Y 2.u w.z.B u.k d.x.M.5.V ",
"Y.$.B 1.g h e.G.5.B.l H.I.'.7.z ^.- - - - - - - - - - - - - - - - - - - - - - - - - - - - - - q.0.L.v.Y =.u w.z.B u.k d.x.M.5.P.",
"Y.$.B 1.g h e.G.5.B.l H.I.'.7.z ^.- - - - - - - - - - - - - - - - - - - - - - - - - - - - - - q.0.L.v.Y =.u w.z.B u.k d.x.M.5.|.",
"Y.o B 1.g h e.G.5.B.l H.I.'.7.z ^.- - - - - - - - - - - - - - - - - - - - - - - - - - - - - - q.0.L.v.Y =.u w.z.B u.k d.x.M.5.M ",
"Y.$.B 1.Z.`.e.G.5. +.+++I.'.@+.+#+- - - - - - - - - - - - - - - - - - - - - - - - - - - - - - $+%+L.v.Y &+*+w.z.B =+-+;+x.M.O >+",
",+'+)+)+!+!+)+)+~+~+{+)+~+~+)+{+~+- - - - - - - - - - - - - - - - - - - - - - - - - - - - - - {+~+~+)+)+!+!+)+)+~+~+{+)+~+~+)+]+",
"^+/+(+(+_+_+:+:+^+^+<+:+^+^+:+<+^+- - - - - - - - - - - - - - - - - - - - - - - - - - - - - - <+^+^+:+:+_+_+:+:+^+^+<+[+}+(+/+|+",
"1+2+3+3+4+4+5+5+6+1+7+8+6+6+Y.7+1+- - - - - - - - - - - - - - - - - - - - - - - - - - - - - - 7+1+6+9+9+4+4+9+9+6+1+7+Y.0+6+a+b+",
"c+d+e+e+f+f+e+e+d+c+g+h+d+d+h+g+c+- - - - - - - - - - - - - - - - - - - - - - - - - - - - - - - c+d+e+e+f+f+e+e+d+c+g+h+d+d+h+g+"};
