/* XPM */
static char * frame3_xpm[] = {
"64 64 152 2",
"  	c #450200",
". 	c #440200",
"+ 	c #550401",
"@ 	c #3D0100",
"# 	c #380100",
"$ 	c #3A0100",
"% 	c #520401",
"& 	c #000000",
"* 	c #3D0200",
"= 	c #370100",
"- 	c #3B0100",
"; 	c #460400",
"> 	c #791002",
", 	c #780702",
"' 	c #A20C04",
") 	c #690501",
"! 	c #5B0300",
"~ 	c #620401",
"{ 	c #700702",
"] 	c #9B0C04",
"^ 	c #6F0702",
"/ 	c #5F0400",
"( 	c #590200",
"_ 	c #A30C04",
": 	c #790701",
"< 	c #B85800",
"[ 	c #860802",
"} 	c #A60C04",
"| 	c #740501",
"1 	c #630300",
"2 	c #6F0501",
"3 	c #7C0902",
"4 	c #790702",
"5 	c #680400",
"6 	c #620300",
"7 	c #740601",
"8 	c #820702",
"9 	c #F8D400",
"0 	c #A80C04",
"a 	c #750601",
"b 	c #7E0902",
"c 	c #7B0601",
"d 	c #A80D04",
"e 	c #8B0802",
"f 	c #F7D300",
"g 	c #730501",
"h 	c #800802",
"i 	c #7C0702",
"j 	c #7C0601",
"k 	c #F3CF00",
"l 	c #780501",
"m 	c #820802",
"n 	c #AA0D04",
"o 	c #F4D000",
"p 	c #880802",
"q 	c #790501",
"r 	c #790601",
"s 	c #890802",
"t 	c #820601",
"u 	c #7B0501",
"v 	c #830601",
"w 	c #7F0501",
"x 	c #A00C04",
"y 	c #8C0802",
"z 	c #F6D200",
"A 	c #8E0802",
"B 	c #630200",
"C 	c #850501",
"D 	c #8C0702",
"E 	c #F9D500",
"F 	c #830500",
"G 	c #8E0702",
"H 	c #850601",
"I 	c #8F0802",
"J 	c #860501",
"K 	c #8F0702",
"L 	c #910802",
"M 	c #670300",
"N 	c #8B0501",
"O 	c #830400",
"P 	c #890501",
"Q 	c #910902",
"R 	c #880501",
"S 	c #FAD600",
"T 	c #940902",
"U 	c #A50C04",
"V 	c #880500",
"W 	c #FBD700",
"X 	c #950903",
"Y 	c #9E0C04",
"Z 	c #860500",
"` 	c #670400",
" .	c #8B0601",
"..	c #F4CF00",
"+.	c #980A03",
"@.	c #700501",
"#.	c #AF0C04",
"$.	c #AF0D04",
"%.	c #9A0A03",
"&.	c #B00C04",
"*.	c #8C0601",
"=.	c #B20D04",
"-.	c #B00D04",
";.	c #850500",
">.	c #F7D200",
",.	c #F5D100",
"'.	c #710500",
").	c #FBD600",
"!.	c #F9D400",
"~.	c #FDD900",
"{.	c #F3CE00",
"].	c #FCD800",
"^.	c #FFDB00",
"/.	c #9A0B03",
"(.	c #3A0801",
"_.	c #3D0801",
":.	c #580701",
"<.	c #350A01",
"[.	c #5E0400",
"}.	c #F5CF00",
"|.	c #BE6800",
"1.	c #3B1801",
"2.	c #3C1801",
"3.	c #221101",
"4.	c #2C1301",
"5.	c #1E0F01",
"6.	c #A75B00",
"7.	c #B85700",
"8.	c #FFCA00",
"9.	c #FFD900",
"0.	c #301702",
"a.	c #FFC700",
"b.	c #231101",
"c.	c #FFD500",
"d.	c #FCD500",
"e.	c #BD5800",
"f.	c #C75A00",
"g.	c #E48E00",
"h.	c #FFBC00",
"i.	c #2E1202",
"j.	c #FFB200",
"k.	c #C96200",
"l.	c #1E0E02",
"m.	c #DD9800",
"n.	c #E49000",
"o.	c #C86400",
"p.	c #250D04",
"q.	c #401100",
"r.	c #582100",
"s.	c #0A0306",
"t.	c #030307",
"u.	c #502002",
"  . + @ # # $ % & & & & & & & & & & & & & & & & & & & & & & & & & & & & & & & & & & & & & & & & & & & & & & & & + * # = - +   ; ",
"> , ' ) ! ~ { ' & & & & & & & & & & & & & & & & & & & & & & & & & & & & & & & & & & & & & & & & & & & & & & & & ] ^ / ( ) _ : > ",
"< [ } | 1 2 3 } & & & & & & & & & & & & & & & & & & & & & & & & & & & & & & & & & & & & & & & & & & & & & & & & } 4 5 6 7 } 8 < ",
"9 [ 0 a 1 2 b 0 & & & & & & & & & & & & & & & & & & & & & & & & & & & & & & & & & & & & & & & & & & & & & & & & } 4 5 6 c d e f ",
"9 [ 0 g 1 2 h 0 & & & & & & & & & & & & & & & & & & & & & & & & & & & & & & & & & & & & & & & & & & & & & & & & 0 i 5 6 j 0 e k ",
"9 [ 0 l 1 2 m 0 & & & & & & & & & & & & & & & & & & & & & & & & & & & & & & & & & & & & & & & & & & & & & & & & 0 : 5 6 j n e o ",
"9 p 0 q 1 2 m 0 & & & & & & & & & & & & & & & & & & & & & & & & & & & & & & & & & & & & & & & & & & & & & & & & 0 r 5 6 j n e o ",
"9 s 0 q 1 2 m 0 & & & & & & & & & & & & & & & & & & & & & & & & & & & & & & & & & & & & & & & & & & & & & & & & 0 j 5 6 t 0 e o ",
"9 s 0 u 1 2 m 0 & & & & & & & & & & & & & & & & & & & & & & & & & & & & & & & & & & & & & & & & & & & & & & & & } v 5 6 v 0 e o ",
"9 e 0 w 1 2 v 0 & & & & & & & & & & & & & & & & & & & & & & & & & & & & & & & & & & & & & & & & & & & & & & & & x v 5 6 v 0 y z ",
"9 A 0 w B 2 v 0 & & & & & & & & & & & & & & & & & & & & & & & & & & & & & & & & & & & & & & & & & & & & & & & & x C 5 6 v 0 D E ",
"9 A 0 F B 2 v 0 & & & & & & & & & & & & & & & & & & & & & & & & & & & & & & & & & & & & & & & & & & & & & & & & x C 5 6 v 0 G o ",
"9 A 0 F B 2 v 0 & & & & & & & & & & & & & & & & & & & & & & & & & & & & & & & & & & & & & & & & & & & & & & & & x F 5 6 H 0 G o ",
"9 I 0 F B 2 C 0 & & & & & & & & & & & & & & & & & & & & & & & & & & & & & & & & & & & & & & & & & & & & & & & & x F 5 6 J 0 K f ",
"9 L 0 F B 2 J 0 & & & & & & & & & & & & & & & & & & & & & & & & & & & & & & & & & & & & & & & & & & & & & & & & 0 F 5 M J 0 K 9 ",
"9 L 0 F 1 2 N 0 & & & & & & & & & & & & & & & & & & & & & & & & & & & & & & & & & & & & & & & & & & & & & & & & } O 5 M P 0 K E ",
"9 Q } F 1 2 R 0 & & & & & & & & & & & & & & & & & & & & & & & & & & & & & & & & & & & & & & & & & & & & & & & & } O 5 M N 0 K S ",
"9 T x F 1 2 P 0 & & & & & & & & & & & & & & & & & & & & & & & & & & & & & & & & & & & & & & & & & & & & & & & & } O 5 M N 0 G E ",
"9 T x O 1 2 P 0 & & & & & & & & & & & & & & & & & & & & & & & & & & & & & & & & & & & & & & & & & & & & & & & & U V 5 M N 0 K W ",
"9 X x O 1 2 P 0 & & & & & & & & & & & & & & & & & & & & & & & & & & & & & & & & & & & & & & & & & & & & & & & & Y Z 5 M N 0 K S ",
"9 X x O 1 2 P 0 & & & & & & & & & & & & & & & & & & & & & & & & & & & & & & & & & & & & & & & & & & & & & & & & Y Z 5 `  .n K ..",
"9 +.} F 1 @.N #.& & & & & & & & & & & & & & & & & & & & & & & & & & & & & & & & & & & & & & & & & & & & & & & & U Z 5 M  .$.K k ",
"9 %.0 F 1 2 N &.& & & & & & & & & & & & & & & & & & & & & & & & & & & & & & & & & & & & & & & & & & & & & & & & 0 Z 5 M *.=.K k ",
"9 %.0 F 1 2 N &.& & & & & & & & & & & & & & & & & & & & & & & & & & & & & & & & & & & & & & & & & & & & & & & & 0 Z 5 M  .-.K k ",
"9 %.0 F 1 2 N &.& & & & & & & & & & & & & & & & & & & & & & & & & & & & & & & & & & & & & & & & & & & & & & & & 0 Z 5 M  .-.K o ",
"9 %.0 F 1 2 N &.& & & & & & & & & & & & & & & & & & & & & & & & & & & & & & & & & & & & & & & & & & & & & & & & 0 Z 5 M  .-.K o ",
"9 %.0 ;.1 2 N &.& & & & & & & & & & & & & & & & & & & & & & & & & & & & & & & & & & & & & & & & & & & & & & & & 0 Z 5 M  .-.K >.",
"9 %.0 V 1 2 N &.& & & & & & & & & & & & & & & & & & & & & & & & & & & & & & & & & & & & & & & & & & & & & & & & 0 Z 5 M  .-.K S ",
"9 %.0 V 1 2 N &.& & & & & & & & & & & & & & & & & & & & & & & & & & & & & & & & & & & & & & & & & & & & & & & & 0 Z 5 M  .-.K ..",
"9 %.0 ;.1 2 N &.& & & & & & & & & & & & & & & & & & & & & & & & & & & & & & & & & & & & & & & & & & & & & & & & 0 Z 5 M  .-.K o ",
"9 %.0 ;.1 2 N &.& & & & & & & & & & & & & & & & & & & & & & & & & & & & & & & & & & & & & & & & & & & & & & & & 0 Z 5 M  .-.K ,.",
"9 %.0 V 1 2 N &.& & & & & & & & & & & & & & & & & & & & & & & & & & & & & & & & & & & & & & & & & & & & & & & & 0 Z 5 M  .-.K ,.",
"9 %.0 F 1 @.N &.& & & & & & & & & & & & & & & & & & & & & & & & & & & & & & & & & & & & & & & & & & & & & & & & 0 Z 5 M  .-.K E ",
"9 %.0 F 1 '.N &.& & & & & & & & & & & & & & & & & & & & & & & & & & & & & & & & & & & & & & & & & & & & & & & & 0 Z 5 M  .-.K S ",
"9 %.0 V 1 @.N &.& & & & & & & & & & & & & & & & & & & & & & & & & & & & & & & & & & & & & & & & & & & & & & & & 0 Z 5 M  .-.K 9 ",
"9 %.0 V 1 2 N &.& & & & & & & & & & & & & & & & & & & & & & & & & & & & & & & & & & & & & & & & & & & & & & & & 0 Z 5 M  .-.K E ",
"9 %.0 V 1 2 N &.& & & & & & & & & & & & & & & & & & & & & & & & & & & & & & & & & & & & & & & & & & & & & & & & 0 Z 5 M  .-.K E ",
"9 %.0 ;.1 2 N &.& & & & & & & & & & & & & & & & & & & & & & & & & & & & & & & & & & & & & & & & & & & & & & & & 0 Z 5 M  .-.K 9 ",
"9 %.0 F 1 2 N &.& & & & & & & & & & & & & & & & & & & & & & & & & & & & & & & & & & & & & & & & & & & & & & & & 0 Z 5 M *.=.K S ",
"9 %.0 F 1 2 N &.& & & & & & & & & & & & & & & & & & & & & & & & & & & & & & & & & & & & & & & & & & & & & & & & 0 Z 5 M  .-.K ).",
"9 %.0 F 1 2 N &.& & & & & & & & & & & & & & & & & & & & & & & & & & & & & & & & & & & & & & & & & & & & & & & & 0 Z 5 M  .-.K !.",
"9 %.0 F 1 2 N &.& & & & & & & & & & & & & & & & & & & & & & & & & & & & & & & & & & & & & & & & & & & & & & & & 0 Z 5 M  .-.K !.",
"9 %.0 F 1 2 N &.& & & & & & & & & & & & & & & & & & & & & & & & & & & & & & & & & & & & & & & & & & & & & & & & 0 Z 5 M  .-.K S ",
"9 %.0 V 1 2 N &.& & & & & & & & & & & & & & & & & & & & & & & & & & & & & & & & & & & & & & & & & & & & & & & & 0 Z 5 M  .-.K S ",
"W %.0 V 1 2 N &.& & & & & & & & & & & & & & & & & & & & & & & & & & & & & & & & & & & & & & & & & & & & & & & & 0 Z 5 M  .-.K f ",
"E %.0 ;.1 @.N &.& & & & & & & & & & & & & & & & & & & & & & & & & & & & & & & & & & & & & & & & & & & & & & & & 0 Z 5 M  .-.K k ",
"9 %.0 ;.1 @.N &.& & & & & & & & & & & & & & & & & & & & & & & & & & & & & & & & & & & & & & & & & & & & & & & & 0 Z 5 M  .-.K o ",
"~.%.0 V 1 2 N &.& & & & & & & & & & & & & & & & & & & & & & & & & & & & & & & & & & & & & & & & & & & & & & & & 0 Z 5 M  .-.K E ",
"~.%.0 F 1 2 N &.& & & & & & & & & & & & & & & & & & & & & & & & & & & & & & & & & & & & & & & & & & & & & & & & 0 Z 5 M  .-.K S ",
"W %.0 F 1 2 N &.& & & & & & & & & & & & & & & & & & & & & & & & & & & & & & & & & & & & & & & & & & & & & & & & 0 Z 5 M  .-.K {.",
"W %.0 ;.1 2  .&.& & & & & & & & & & & & & & & & & & & & & & & & & & & & & & & & & & & & & & & & & & & & & & & & 0 Z 5 M  .-.K k ",
"~.%.0 ;.1 2  .&.& & & & & & & & & & & & & & & & & & & & & & & & & & & & & & & & & & & & & & & & & & & & & & & & 0 Z 5 M  .-.K f ",
"S %.0 V 1 2 N &.& & & & & & & & & & & & & & & & & & & & & & & & & & & & & & & & & & & & & & & & & & & & & & & & 0 Z 5 M  .-.K S ",
"].%.0 ;.1 @.N &.& & & & & & & & & & & & & & & & & & & & & & & & & & & & & & & & & & & & & & & & & & & & & & & & 0 Z 5 M  .-.K E ",
"].%.0 F 1 2 N &.& & & & & & & & & & & & & & & & & & & & & & & & & & & & & & & & & & & & & & & & & & & & & & & & 0 Z 5 M  .-.K o ",
"W %.0 F 1 2 N &.& & & & & & & & & & & & & & & & & & & & & & & & & & & & & & & & & & & & & & & & & & & & & & & & 0 Z 5 M  .-.K k ",
"^.%.0 F 1 2 N &.& & & & & & & & & & & & & & & & & & & & & & & & & & & & & & & & & & & & & & & & & & & & & & & & 0 Z 5 M  .-.K ,.",
"^.%.0 F 1 2 N &.& & & & & & & & & & & & & & & & & & & & & & & & & & & & & & & & & & & & & & & & & & & & & & & & 0 Z 5 M  .-.K E ",
"^./.0 F 1 2 N &.& & & & & & & & & & & & & & & & & & & & & & & & & & & & & & & & & & & & & & & & & & & & & & & & 0 Z 5 M  .-.K f ",
"^.%.0 F (._.N &.& & & & & & & & & & & & & & & & & & & & & & & & & & & & & & & & & & & & & & & & & & & & & & & & 0 :.<.[. .-.h }.",
"|.1.2.2.3.3.2.2.& & & & & & & & & & & & & & & & & & & & & & & & & & & & & & & & & & & & & & & & & & & & & & & & 4.4.5.2.4.4.2.6.",
"7.8.9.9.0.0.a.a.& & & & & & & & & & & & & & & & & & & & & & & & & & & & & & & & & & & & & & & & & & & & & & & & 7.7.b.c.d.9.8.e.",
"f.g.h.h.i.i.j.j.& & & & & & & & & & & & & & & & & & & & & & & & & & & & & & & & & & & & & & & & & & & & & & & & k.f.l.^.m.k.n.o.",
"p.q.r.r.s.s.r.r.& & & & & & & & & & & & & & & & & & & & & & & & & & & & & & & & & & & & & & & & & & & & & & & & q.p.t.u.q.q.u.t."};
