/* XPM */
static char * door_closed_xpm[] = {
"64 64 330 2",
"  	c #450200",
". 	c #440200",
"+ 	c #550401",
"@ 	c #3D0100",
"# 	c #380100",
"$ 	c #3A0100",
"% 	c #520401",
"& 	c #460200",
"* 	c #390100",
"= 	c #4F0300",
"- 	c #3B0100",
"; 	c #3E0200",
"> 	c #4F0401",
", 	c #4B0300",
"' 	c #400200",
") 	c #540401",
"! 	c #410200",
"~ 	c #370100",
"{ 	c #4C0300",
"] 	c #3F0200",
"^ 	c #4F0400",
"/ 	c #3D0200",
"( 	c #460400",
"_ 	c #791002",
": 	c #780702",
"< 	c #A20C04",
"[ 	c #690501",
"} 	c #5B0300",
"| 	c #620401",
"1 	c #700702",
"2 	c #790601",
"3 	c #5F0400",
"4 	c #6B0702",
"5 	c #640501",
"6 	c #820702",
"7 	c #8F0A03",
"8 	c #690601",
"9 	c #680501",
"0 	c #5E0300",
"a 	c #670400",
"b 	c #9E0D05",
"c 	c #730702",
"d 	c #5B0200",
"e 	c #660501",
"f 	c #970C04",
"g 	c #8C0A03",
"h 	c #630401",
"i 	c #770802",
"j 	c #9D0D05",
"k 	c #680602",
"l 	c #670501",
"m 	c #9D0D04",
"n 	c #780802",
"o 	c #690602",
"p 	c #8E0B04",
"q 	c #8C0903",
"r 	c #630400",
"s 	c #750802",
"t 	c #950B03",
"u 	c #620501",
"v 	c #910A03",
"w 	c #7E0701",
"x 	c #5F0300",
"y 	c #9B0C04",
"z 	c #6F0702",
"A 	c #590200",
"B 	c #A30C04",
"C 	c #790701",
"D 	c #B85800",
"E 	c #860802",
"F 	c #A60C04",
"G 	c #740501",
"H 	c #630300",
"I 	c #6F0501",
"J 	c #7C0902",
"K 	c #830702",
"L 	c #680400",
"M 	c #6D0501",
"N 	c #940903",
"O 	c #9A0B03",
"P 	c #750702",
"Q 	c #740702",
"R 	c #780601",
"S 	c #A20D05",
"T 	c #7E0802",
"U 	c #620300",
"V 	c #700501",
"W 	c #940B03",
"X 	c #640300",
"Y 	c #880902",
"Z 	c #A20E05",
"` 	c #750501",
" .	c #710601",
"..	c #710501",
"+.	c #9E0D04",
"@.	c #850802",
"#.	c #670300",
"$.	c #970B04",
"%.	c #8E0902",
"&.	c #6D0400",
"*.	c #820902",
"=.	c #950A03",
"-.	c #770400",
";.	c #750601",
">.	c #8C0902",
",.	c #880802",
"'.	c #790702",
").	c #740601",
"!.	c #F8D400",
"~.	c #A80C04",
"{.	c #7E0902",
"].	c #890802",
"^.	c #690400",
"/.	c #920A03",
"(.	c #800601",
"_.	c #A60D04",
":.	c #730501",
"<.	c #9E0C04",
"[.	c #940A03",
"}.	c #660300",
"|.	c #8F0903",
"1.	c #790501",
"2.	c #770501",
"3.	c #9A0C04",
"4.	c #680300",
"5.	c #980B04",
"6.	c #8F0902",
"7.	c #6F0500",
"8.	c #830902",
"9.	c #7B0501",
"0.	c #730601",
"a.	c #970B03",
"b.	c #8F0802",
"c.	c #7B0601",
"d.	c #A80D04",
"e.	c #8B0802",
"f.	c #F7D300",
"g.	c #800802",
"h.	c #6B0400",
"i.	c #9B0B03",
"j.	c #770702",
"k.	c #830601",
"l.	c #830701",
"m.	c #6C0501",
"n.	c #740802",
"o.	c #980C04",
"p.	c #890702",
"q.	c #910902",
"r.	c #700500",
"s.	c #830802",
"t.	c #820601",
"u.	c #7C0702",
"v.	c #7C0601",
"w.	c #F3CF00",
"x.	c #780501",
"y.	c #820802",
"z.	c #8E0802",
"A.	c #6C0401",
"B.	c #950903",
"C.	c #7B0701",
"D.	c #860601",
"E.	c #AA0D04",
"F.	c #850601",
"G.	c #9D0C04",
"H.	c #920903",
"I.	c #690300",
"J.	c #7B0500",
"K.	c #8C0701",
"L.	c #920902",
"M.	c #710500",
"N.	c #920802",
"O.	c #F4D000",
"P.	c #9A0A03",
"Q.	c #830501",
"R.	c #8F0701",
"S.	c #730400",
"T.	c #910802",
"U.	c #8C0802",
"V.	c #6D0401",
"W.	c #7E0501",
"X.	c #A30D04",
"Y.	c #A00C04",
"Z.	c #6B0300",
"`.	c #850501",
" +	c #850500",
".+	c #8E0601",
"++	c #6C0300",
"@+	c #9B0B04",
"#+	c #7C0501",
"$+	c #6F0401",
"%+	c #9D0B03",
"&+	c #7F0501",
"*+	c #880601",
"=+	c #940902",
"-+	c #910701",
";+	c #710300",
">+	c #8E0701",
",+	c #6C0400",
"'+	c #700400",
")+	c #800501",
"!+	c #890501",
"~+	c #820500",
"{+	c #860701",
"]+	c #6D0300",
"^+	c #6F0400",
"/+	c #F6D200",
"(+	c #630200",
"_+	c #880702",
":+	c #A20D04",
"<+	c #790400",
"[+	c #8C0702",
"}+	c #F9D500",
"|+	c #830500",
"1+	c #820501",
"2+	c #6F0300",
"3+	c #740400",
"4+	c #8E0702",
"5+	c #8F0702",
"6+	c #710400",
"7+	c #8B0702",
"8+	c #700300",
"9+	c #7B0702",
"0+	c #940802",
"a+	c #860501",
"b+	c #830400",
"c+	c #8C0601",
"d+	c #8B0501",
"e+	c #790802",
"f+	c #890601",
"g+	c #880501",
"h+	c #820400",
"i+	c #8B0601",
"j+	c #FAD600",
"k+	c #780500",
"l+	c #770601",
"m+	c #890701",
"n+	c #950902",
"o+	c #7E0500",
"p+	c #A50C04",
"q+	c #880500",
"r+	c #FBD700",
"s+	c #780400",
"t+	c #750400",
"u+	c #860500",
"v+	c #970A03",
"w+	c #F4CF00",
"x+	c #980A03",
"y+	c #AF0C04",
"z+	c #800500",
"A+	c #9E0B03",
"B+	c #AD0C04",
"C+	c #970902",
"D+	c #7E0400",
"E+	c #AF0D04",
"F+	c #B00C04",
"G+	c #800400",
"H+	c #A00B03",
"I+	c #980902",
"J+	c #7F0400",
"K+	c #B20D04",
"L+	c #B00D04",
"M+	c #770300",
"N+	c #F7D200",
"O+	c #F5D100",
"P+	c #850400",
"Q+	c #7B0802",
"R+	c #610300",
"S+	c #700401",
"T+	c #FBD600",
"U+	c #F9D400",
"V+	c #FDD900",
"W+	c #F3CE00",
"X+	c #A50B04",
"Y+	c #FCD800",
"Z+	c #FFDB00",
"`+	c #3A0801",
" @	c #3D0801",
".@	c #520601",
"+@	c #380B01",
"@@	c #740500",
"#@	c #750500",
"$@	c #510600",
"%@	c #390701",
"&@	c #520600",
"*@	c #360B01",
"=@	c #400801",
"-@	c #570601",
";@	c #330A01",
">@	c #370B01",
",@	c #510801",
"'@	c #410801",
")@	c #3E0801",
"!@	c #580701",
"~@	c #350A01",
"{@	c #5E0400",
"]@	c #F5CF00",
"^@	c #BE6800",
"/@	c #3B1801",
"(@	c #3C1801",
"_@	c #221101",
":@	c #2C1301",
"<@	c #1E0F01",
"[@	c #A75B00",
"}@	c #B85700",
"|@	c #FFCA00",
"1@	c #FFD900",
"2@	c #301702",
"3@	c #FFC700",
"4@	c #231101",
"5@	c #FFD500",
"6@	c #FCD500",
"7@	c #BD5800",
"8@	c #C75A00",
"9@	c #E48E00",
"0@	c #FFBC00",
"a@	c #2E1202",
"b@	c #FFB200",
"c@	c #C96200",
"d@	c #1E0E02",
"e@	c #FFB800",
"f@	c #FFDD00",
"g@	c #DD9800",
"h@	c #E49000",
"i@	c #C86400",
"j@	c #250D04",
"k@	c #401100",
"l@	c #582100",
"m@	c #0A0306",
"n@	c #030307",
"o@	c #502002",
"  . + @ # # $ % & # * * . = * * # - + ; # # * > , # # * ' ) * * * # + ! * # ~ { > * # # ] + - # * # ^   * * #   + / # ~ - +   ( ",
"_ : < [ } | 1 < 2 3 4 5 6 7 8 9 0 a b c 3 d e f g } h 4 i j | k l 0 m n o 0 } p q r } 5 s t a 3 4 u v w 9 9 x 2 y z 3 A [ B C _ ",
"D E F G H I J F K L i M N O P Q L R S T L U V y W X M i Y Z ` s  ...+.@.s #.#.$.%.&.H I *.=.-.L i ;.t >.c c a ,.F '.L U ).F 6 D ",
"!.E ~.;.H I {.~.].^.i M /.O Q c L (._.6 L U :.<.[.}.M i |.Z 1.P  .2.3.>.s }.4.5.6.7.H I 8.=.9.L i 0.a.b.c c L ].F '.L U c.d.e.f.",
"!.E ~.:.H I g.~.].h.i ;.[.i.j.c ^.k.~.l.L U :.<.[.#.m.i %.Z 1.n. .1.o.p.s }.#.$.q.r.H I s.=.t.L i ;.a.b.Q c L ].~.u.L U v.~.e.w.",
"!.E ~.x.H I y.~.z.A.i ;.B.i.C.c h.D.E.F.L U R G.H.I.M i q.Z J.j. .1.o.K.s #.I.5.L.M.H I K =.F.L i c.a.N.Q c ^.e.~.C L U v.E.e.O.",
"!.,.~.1.H I y.~.e.A.i ;.P.O v.c h.D.E.F.L U 9.G.H.I.M n L.Z Q.P  .Q.o.R.Q X I.5.L.S.H I e.=.D.^.i c.a.T.c c h.e.~.2 L U v.E.e.O.",
"!.].~.1.H I y.~.U.V.i ;.P.O W.c L l.X.D.L U 9.Y.N Z.M n L.Z `.s ). +m .+Q X ++@+L.S.H I e.=.D.h.i #+a.T.).c h.e.~.v.L U t.~.e.O.",
"!.].~.9.H I y.~.z.$+i ;.P.%+&+c L K S *+L U 9.Y.=+Z.M n L.Z `.s ).`.+.-+Q }.;+@+L.S.H I >+=.D.,+i #+a.N.;.c &.q.F k.L U k.~.e.O.",
"!.e.~.&+H I k.~.z.'+i ;.P.%+)+c L K S !+L U 1.<.=+Z.M n L.Z ~+s ).{++.-+c X ]+@+L.S.H V >+=.D.^+i #+a.b.c.c &.q.Y.k.L U k.~.U./+",
"!.z.~.&+(+I k.~.b.'+i #+P.%+&+c L _+:+!+L U 9.Y.=+Z.M '.L.Z  +i ).{+m .+ .X ;+@+L.<+H V >+=.D.&.i W.a.z.v.c ^+T.Y.`.L U k.~.[+}+",
"!.z.~.|+(+I k.~.z.'+i #+P.O 1+c h.e.:+!+L U 9.Y.=+2+M '.L.Z  +i ).*+o..+ .}.;+@+L.3+H M.>+=.D.A.i F.a.z.v.c ^+T.Y.`.L U k.~.4+O.",
"!.z.~.|+(+I k.~.5+6+i #+P.O ~+).h.7+~.!+L U 9.Y.=+8+M 9+L.Z  +i ).*+3..+:.X S.G.L.<+H I 0+a.F.A.i D.a.N.&+c ^+L.Y.|+L U F.~.4+O.",
"!.b.~.|+(+I `.~.5+6+i #+P.i.1+0.h.e.~.!+L U )+Y.=+8+M 9+L.Z ~+i ).*++..+:.X S.G.L.<+H V T.a.F.A.n D.a.N.&+c ^+L.Y.|+L U a+~.5+f.",
"!.T.~.|+(+I a+~.5+6+i W.P.O 1+0.h.e.~.!+h.U &+Y.=+8+M 9+L.G.b+n ).*++.c+G X S.G.L.<+H M.0+a.D.V.n Q.a.N.W.c '+=+~.|+L #.a+~.5+!.",
"!.T.~.|+H I d+~.5+6+i W.O O ~+).,+U.~.!+'+U &+Y.=+8+M 9.L.y b+e+).{+<.c+1.X S.G.N.<+H M.-+a.f+$+n Q.5.N.W.c '+=+F b+L #.!+~.5+}+",
"!.q.F |+H I g+~.5+S.i W.O O ~+).,+U.~.`.L U &+~.=+8+M 9.L.y h+n ).D.+..+1.X S.G.L.<+H M.-+a.i+'+i ~+5.T.W.c '+=+F b+L #.d+~.5+j+",
"!.=+Y.|+H I !+~.5+k+i W.O O ~+).,+U.~.g+&.U &+< =+8+M 9.=+j h+i l+m++..+1.X S.G.N.<+H M.-+a.f+$+n |+5.z.W.Q '+n+F b+L #.d+~.4+}+",
"!.=+Y.b+H I !+~.5+k+i &+O O ~+).&.[+~.!+'+}.)+Y.=+8+M o+L.G.h+i ;.*++..+1.X <+G.N.<+H M.5+t f+I n |+5.z.W.c '+=+p+q+L #.d+~.5+r+",
"!.B.Y.b+H I !+~.5+k+i 1+i.i.~+).&.4+~.!+'+U |+F =+8+M o+L.y h+i ;.*++..+1.X <+G.T.s+H M.0+a.f+V n |+@+z.W.c t+=+<.u+L #.d+~.5+j+",
"!.B.Y.b+H I !+~.5+k+i W.i.i.~+).^+4+~.!+'+U |+~.=+;+M o+n+y h+i ;.*++..+1.X <+G.L.<+H s+T.v+f+V n |++.z.W.c -.=+<.u+L a i+E.5+w+",
"!.x+F |+H V d+y+5+2.i z+A+%+~+).'+5+y+!+'+U |+B+T.-.M o+C+i.h+i l+f+p+i+1.X <+<.L.D+H s+0+v+i+V n a++.z.W.c -.v+p+u+L #.i+E+5+w.",
"!.P.~.|+H I d+F+5+2.i G+H+%+~+).'+5+F+!+'+U |+y+T.-.M o+I+i.h+i l+m+~.!+1.X <+Y.L.J+H s+0+a.i+'+n g++.N.)+c -.x+~.u+L #.c+K+5+w.",
"!.P.~.|+H I d+F+5+2.i G+H+%+~+).'+5+F+!+'+U |+y+T.-.M o+n+i.h+i l+m+~.!+1.X <+Y.T.D+H s+0+a.f+$+n *++.b.W.c -.x+~.u+L #.i+L+5+w.",
"!.P.~.|+H I d+F+5+2.i G+H+%+~+).'+5+F+!+'+U |+y+T.M+M o+n+i.h+i l+m+~.!+1.X <+Y.T.D+(+s+-+a.f+V n *++.z.W.c -.x+~.u+L #.i+L+5+O.",
"!.P.~.|+H I d+F+5+2.i G+H+%+~+).'+5+F+!+'+U |+y+T.-.M o+n+i.h+i l+m+~.!+1.X <+Y.L.J+H s+0+a.i+V n *++.z.W.0.-.x+~.u+L #.i+L+5+O.",
"!.P.~. +H I d+F+5+k+i G+H+%+~+).'+5+F+!+'+U |+y+T.-.M o+n+i.h+i l+m+~.!+1.X <+Y.L.J+H s+0+a.i+V n *+<.z.W.0.-.x+~.u+L #.i+L+5+N+",
"!.P.~.q+H I d+F+5+2.i G+H+%+~+).'+5+F+!+'+U |+y+b.M+M o+n+i.b+e+l+m+~.!+1.X <+Y.L.J+H s+0+a.i+'+n g++.T.)+Q -.x+~.u+L #.i+L+5+j+",
"!.P.~.q+H I d+F+5+2.i G+H+%+~+).'+5+F+!+'+U |+y+T.-.M o+n+i.h+i l+m+~.!+1.X <+Y.T.D+H s+T.a.i+$+n g++.z.W.Q -.x+~.u+L #.i+L+5+w+",
"!.P.~. +H I d+F+5+2.i G+H+%+~+).'+5+F+!+'+U |+y+T.-.M o+n+i.h+i l+m+~.!+1.X <+Y.T.D+H s+T.a.i+$+n *++.z.W.c -.x+~.u+L #.i+L+5+O.",
"!.P.~. +H I d+F+5+2.i G+H+%+~+).'+5+F+!+'+U |+y+T.-.M o+n+i.h+n l+m+~.!+1.X <+Y.T.D+H s+T.a.i+$+n *++.z.&+c -.x+~.u+L #.i+L+5+O+",
"!.P.~.q+H I d+F+5+2.i G+H+%+~+).'+5+F+!+'+U |+y+T.-.M o+n+i.P+Q+l+m+~.!+1.X <+Y.L.J+H s+0+a.i+V n *+<.z.&+c -.x+~.u+L #.i+L+5+O+",
"!.P.~.|+H V d+F+5+2.i G+H+%+~+).'+5+F+!+'+U |+y+b.-.M o+I+i.h+i l+m+~.!+1.X <+Y.L.J+H s+0+v+i+'+n g++.b.&+c -.x+~.u+L #.i+L+5+}+",
"!.P.~.|+H M.d+F+5+2.i G+H+%+~+).'+5+F+!+'+U |+y+b.-.M o+n+i.h+i l+m+~.!+1.X <+Y.N.J+H s+T.a.i+$+n *++.N.&+c -.x+~.u+L #.i+L+5+j+",
"!.P.~.q+H V d+F+5+2.i G+H+%+~+).'+5+F+!+'+U |+y+T.-.M o+I+i.h+n l+m+~.!+1.X <+Y.T.D+H s+0+a.f+I n *++.z.W.c -.x+~.u+L #.i+L+5+!.",
"!.P.~.q+H I d+F+5+2.i G+H+%+~+).'+5+F+!+'+U |+y+T.-.M o+n+i.P+e+l+m+~.!+1.X <+Y.T.D+(+s+-+a.f+V n *++.z.W.0.-.x+~.u+L #.i+L+5+}+",
"!.P.~.q+H I d+F+5+2.i G+H+%+~+).'+5+F+!+'+R+|+y+T.-.M o+n+i.h+i l+m+~.!+1.X <+Y.L.J+H s+0+a.i+S+n *++.z.W.0.-.x+~.u+L #.i+L+5+}+",
"!.P.~. +H I d+F+5+2.i G+H+%+~+).'+5+F+!+'+R+|+y+T.-.M o+I+i.h+i l+m+~.!+1.X <+Y.L.J+H s+0+a.i+S+n g++.z.W.0.-.x+~.u+L #.i+L+5+!.",
"!.P.~.|+H I d+F+5+2.i G+H+%+~+).'+5+F+!+'+U |+y+T.-.M o+I+i.h+i l+m+~.!+1.X <+Y.L.J+H s+0+a.i+'+n g++.z.W.0.-.x+~.u+L #.c+K+5+j+",
"!.P.~.|+H I d+F+5+2.i G+H+%+~+).'+5+F+!+'+U |+y+T.-.M o+n+i.h+i l+m+~.!+1.X <+Y.T.D+H s+0+a.i+'+n g++.z.&+c -.x+~.u+L #.i+L+5+T+",
"!.P.~.|+H I d+F+5+2.i G+H+%+~+).'+5+F+!+'+U |+y+T.M+M o+n+i.h+i l+m+~.!+1.X <+Y.T.D+H s+-+a.f+$+n *++.z.W.c -.x+~.u+L #.i+L+5+U+",
"!.P.~.|+H I d+F+5+2.i G+H+%+~+).'+5+F+!+'+U |+y+T.-.M o+n+i.h+i l+m+~.!+1.X <+Y.L.J+H s+0+a.i+'+n *++.z.W.c -.x+~.u+L #.i+L+5+U+",
"!.P.~.|+H I d+F+5+2.i G+H+%+~+).'+5+F+!+'+U |+y+T.-.M o+n+i.h+i l+m+~.!+1.X <+Y.L.J+H s+0+a.i+V n *++.z.W.c -.x+~.u+L #.i+L+5+j+",
"!.P.~.q+H I d+F+5+2.i G+H+%+~+).'+5+F+!+'+U |+y+T.-.M o+n+i.b+e+l+m+~.!+1.X <+Y.L.J+(+s+T.a.f+V n *++.z.W.0.s+P.~.u+L #.i+L+5+j+",
"r+P.~.q+H I d+F+5+2.i G+H+%+~+).'+5+F+!+'+R+|+y+T.-.M o+n+O h+i l+m+~.!+1.X <+Y.L.J+H s+-+v+i+$+n *++.z.W.0.-.x+~.u+L #.i+L+5+f.",
"}+P.~. +H V d+F+5+2.i G+H+%+~+).'+5+F+!+'+R+|+y+b.-.M o+n+i.h+i l+m+~.!+1.X <+Y.L.D+H s+-+v+i+V n g++.z.W.0.-.x+~.u+L #.i+L+5+w.",
"!.P.~. +H V d+F+5+2.i G+H+%+~+).'+5+F+!+'+U |+y+5+-.M o+n+i.h+n l+m+~.!+1.X <+Y.T.J+H s+-+v+f+V n g++.z.W.0.-.x+~.u+L #.i+L+5+O.",
"V+P.~.q+H I d+F+5+2.i G+H+%+~+).'+5+F+!+'+U |+y+b.-.M o+n+i.P+Q+l+m+~.!+1.X <+Y.T.D+H s+0+a.f+V n *++.z.&+c -.x+~.u+L #.i+L+5+}+",
"V+P.~.|+H I d+F+5+2.i G+H+%+~+).'+5+F+!+'+U |+y+T.-.M o+I+i.h+i l+m+~.!+1.X <+Y.L.D+H s+0+a.f+V n g++.b.1+c -.x+~.u+L #.i+L+5+j+",
"r+P.~.|+H I d+F+5+2.i G+H+%+~+).'+5+F+!+'+U |+y+T.-.M o+n+i.b+e+l+m+~.!+1.X <+Y.T.D+H s+0+a.i+V n *++.N.W.0.-.x+~.u+L #.i+L+5+W+",
"r+P.~. +H I i+F+5+k+i G+H+%+~+).'+5+F+!+'+x |+y+T.-.M o+n+i.h+i l+m+~.!+1.X <+<.T.D+(+s+0+a.i+'+n *++.z.W.0.-.x+~.u+L #.i+L+5+w.",
"V+P.~. +H I i+F+5+2.i G+H+%+~+).'+5+F+!+'+U |+y+T.-.M o+n+i.h+i l+m+~.!+1.X <+X+L.J+(+s+0+a.i+'+n *++.z.W.0.-.x+~.u+L #.i+L+5+f.",
"j+P.~.q+H I d+F+5+2.i G+H+%+~+).'+5+F+!+'+U |+y+T.-.M o+n+i.h+i l+m+~.!+1.X <+< L.J+H s+-+a.i+$+n g++.z.W.0.-.x+~.u+L #.i+L+5+j+",
"Y+P.~. +H V d+F+5+2.i G+H+%+~+).'+5+F+!+'+U |+y+T.-.M o+n+i.h+i l+m+~.!+1.X <+< T.D+H s+0+v+i+V n g++.z.W.0.-.x+~.u+L #.i+L+5+}+",
"Y+P.~.|+H I d+F+5+2.i G+H+%+~+).'+5+F+!+'+U |+y+T.-.M o+n+i.b+e+l+m+~.!+1.X <+Y.T.D+(+s+0+v+i+'+n g++.z.W.0.-.x+~.u+L #.i+L+5+O.",
"r+P.~.|+H I d+F+5+2.i G+H+%+~+).'+5+F+!+'+x |+y+T.-.M o+n+i.h+i l+m+~.!+1.X <+Y.L.J+(+s+0+a.i+V n g++.z.1+c -.x+~.u+L #.i+L+5+w.",
"Z+P.~.|+H I d+F+5+2.i G+H+%+~+).'+5+F+!+'+U |+y+T.-.M o+n+i.h+i l+m+~.!+1.X <+Y.L.J+(+s+T.a.f+V n *++.z.W.c -.x+~.u+L #.i+L+5+O+",
"Z+P.~.|+H I d+F+5+2.i G+H+%+~+).'+5+F+!+'+U |+y+T.-.M o+n+i.b+e+l+m+~.!+1.X <+Y.L.J+H s+0+a.i+V n *++.z.W.c -.x+~.u+L #.i+L+5+}+",
"Z+O ~.|+H I d+F+5+2.i G+H+%+~+).'+5+F+!+'+U |+y+T.-.M o+n+i.b+Q+l+m+~.!+1.X <+Y.L.J+(+s+0+v+i+V n *++.z.W.c -.x+~.u+L #.i+L+5+f.",
"Z+P.~.|+`+ @d+F+5+.@+@@@H+%+#@+@$@5+F+!+ @%@|+y+T.&@*@M.n+i.#@+@.@m+~.!+=@`+<+Y.L.-@;@7.0+a.v.>@,@*++.z.'@)@-.x+~.!@~@{@i+L+g.]@",
"^@/@(@(@_@_@(@(@:@:@<@(@:@:@(@<@:@:@(@(@_@_@(@(@:@:@<@(@:@:@(@<@:@:@(@(@_@_@(@(@:@:@<@(@:@:@(@<@:@:@(@(@_@_@(@(@:@:@<@(@:@:@(@[@",
"}@|@1@1@2@2@3@3@}@}@4@3@}@}@3@4@}@}@3@3@2@2@3@3@}@}@4@3@}@}@3@4@}@}@3@3@2@2@3@3@}@}@4@3@}@}@3@4@}@}@3@3@2@2@3@3@}@}@4@5@6@1@|@7@",
"8@9@0@0@a@a@b@b@c@8@d@e@c@c@Z+d@8@c@f@f@a@a@f@f@c@8@d@Z+c@c@Z+d@8@c@f@f@a@a@f@f@c@8@d@Z+c@c@Z+d@8@c@f@f@a@a@f@f@c@8@d@Z+g@c@h@i@",
"j@k@l@l@m@m@l@l@k@j@n@o@k@k@o@n@j@k@l@l@m@m@l@l@k@j@n@o@k@k@o@n@j@k@l@l@m@m@l@l@k@j@n@o@k@k@o@n@j@k@l@l@m@m@l@l@k@j@n@o@k@k@o@n@"};
