/* XPM */
static char * damier_xpm[] = {
"64 64 5 1",
" 	c #FFFFFF",
".	c #FDFDFD",
"+	c #FEFEFE",
"@	c #040404",
"#	c #FCFCFC",
"     ................+  ++.. ++ @@@@@@@@@@@@@@@@@@@@@@@@@@@@@@@@",
"                                @@@@@@@@@@@@@@@@@@@@@@@@@@@@@@@@",
"     +++++++++++++++++++        @@@@@@@@@@@@@@@@@@@@@@@@@@@@@@@@",
" ++   +++++++++++++++++      +  @@@@@@@@@@@@@@@@@@@@@@@@@@@@@@@@",
" ++                          +  @@@@@@@@@@@@@@@@@@@@@@@@@@@@@@@@",
" .                           +  @@@@@@@@@@@@@@@@@@@@@@@@@@@@@@@@",
" .+                          + +@@@@@@@@@@@@@@@@@@@@@@@@@@@@@@@@",
" .+                          + +@@@@@@@@@@@@@@@@@@@@@@@@@@@@@@@@",
" .+                      +   + +@@@@@@@@@@@@@@@@@@@@@@@@@@@@@@@@",
" +                           + +@@@@@@@@@@@@@@@@@@@@@@@@@@@@@@@@",
"                             + +@@@@@@@@@@@@@@@@@@@@@@@@@@@@@@@@",
" +                       +   + +@@@@@@@@@@@@@@@@@@@@@@@@@@@@@@@@",
" ++                     ++   + +@@@@@@@@@@@@@@@@@@@@@@@@@@@@@@@@",
" ++   +++               +++    +@@@@@@@@@@@@@@@@@@@@@@@@@@@@@@@@",
" ++                   + ++     +@@@@@@@@@@@@@@@@@@@@@@@@@@@@@@@@",
" ++       +             ++     +@@@@@@@@@@@@@@@@@@@@@@@@@@@@@@@@",
" ++      ++             ++     +@@@@@@@@@@@@@@@@@@@@@@@@@@@@@@@@",
" +       ++              +     +@@@@@@@@@@@@@@@@@@@@@@@@@@@@@@@@",
"++       +               +     +@@@@@@@@@@@@@@@@@@@@@@@@@@@@@@@@",
"+                        +     +@@@@@@@@@@@@@@@@@@@@@@@@@@@@@@@@",
"+                        +     +@@@@@@@@@@@@@@@@@@@@@@@@@@@@@@@@",
"    ++                   +     +@@@@@@@@@@@@@@@@@@@@@@@@@@@@@@@@",
"    +++++                +     +@@@@@@@@@@@@@@@@@@@@@@@@@@@@@@@@",
"       +++                     +@@@@@@@@@@@@@@@@@@@@@@@@@@@@@@@@",
"+                            + +@@@@@@@@@@@@@@@@@@@@@@@@@@@@@@@@",
"+                              +@@@@@@@@@@@@@@@@@@@@@@@@@@@@@@@@",
"                             + +@@@@@@@@@@@@@@@@@@@@@@@@@@@@@@@@",
"       +++++             +   . +@@@@@@@@@@@@@@@@@@@@@@@@@@@@@@@@",
"                        +    . +@@@@@@@@@@@@@@@@@@@@@@@@@@@@@@@@",
"                               +@@@@@@@@@@@@@@@@@@@@@@@@@@@@@@@@",
"                                @@@@@@@@@@@@@@@@@@@@@@@@@@@@@@@@",
"  ++++++++++++++++++++ +     +  @@@@@@@@@@@@@@@@@@@@@@@@@@@@@@@@",
"@@@@@@@@@@@@@@@@@@@@@@@@@@@@@@@@ ++      ++++++++++  +  +       ",
"@@@@@@@@@@@@@@@@@@@@@@@@@@@@@@@@+.++++++++++++++++              ",
"@@@@@@@@@@@@@@@@@@@@@@@@@@@@@@@@++++++++++++++++++              ",
"@@@@@@@@@@@@@@@@@@@@@@@@@@@@@@@@+   +++++      +++              ",
"@@@@@@@@@@@@@@@@@@@@@@@@@@@@@@@@                   +            ",
"@@@@@@@@@@@@@@@@@@@@@@@@@@@@@@@@           +++++++ +            ",
"@@@@@@@@@@@@@@@@@@@@@@@@@@@@@@@@              ++++ +            ",
"@@@@@@@@@@@@@@@@@@@@@@@@@@@@@@@@                                ",
"@@@@@@@@@@@@@@@@@@@@@@@@@@@@@@@@                                ",
"@@@@@@@@@@@@@@@@@@@@@@@@@@@@@@@@+    +++++                      ",
"@@@@@@@@@@@@@@@@@@@@@@@@@@@@@@@@+++  +++++ ++++                 ",
"@@@@@@@@@@@@@@@@@@@@@@@@@@@@@@@@+++  +++++  ++++++              ",
"@@@@@@@@@@@@@@@@@@@@@@@@@@@@@@@@++++ +++++  ++++++ +      + ++  ",
"@@@@@@@@@@@@@@@@@@@@@@@@@@@@@@@@++++ +++++  ++++++ +            ",
"@@@@@@@@@@@@@@@@@@@@@@@@@@@@@@@@++++ +++++  ++++++ +            ",
"@@@@@@@@@@@@@@@@@@@@@@@@@@@@@@@@++++ +++++  ++++++ +            ",
"@@@@@@@@@@@@@@@@@@@@@@@@@@@@@@@@++++.+++++  ++++++ +            ",
"@@@@@@@@@@@@@@@@@@@@@@@@@@@@@@@@++++.+++++  ++++++ +            ",
"@@@@@@@@@@@@@@@@@@@@@@@@@@@@@@@@ +++ +++++   +++++ +            ",
"@@@@@@@@@@@@@@@@@@@@@@@@@@@@@@@@ +++.+++++   +++++ +      + ++  ",
"@@@@@@@@@@@@@@@@@@@@@@@@@@@@@@@@ +++#+++++     +++ +            ",
"@@@@@@@@@@@@@@@@@@@@@@@@@@@@@@@@ +++++++++      ++ +            ",
"@@@@@@@@@@@@@@@@@@@@@@@@@@@@@@@@ ++  +++++     +++ +            ",
"@@@@@@@@@@@@@@@@@@@@@@@@@@@@@@@@ ++  +++++    ++++              ",
"@@@@@@@@@@@@@@@@@@@@@@@@@@@@@@@@ ++  +++++++++++++              ",
"@@@@@@@@@@@@@@@@@@@@@@@@@@@@@@@@++++ +++++  ++++++              ",
"@@@@@@@@@@@@@@@@@@@@@@@@@@@@@@@@++++ +++++  ++++++              ",
"@@@@@@@@@@@@@@@@@@@@@@@@@@@@@@@@+++  +++++  ++++++           +  ",
"@@@@@@@@@@@@@@@@@@@@@@@@@@@@@@@@++++ +++++   +++++              ",
"@@@@@@@@@@@@@@@@@@@@@@@@@@@@@@@@+++  +++++       +              ",
"@@@@@@@@@@@@@@@@@@@@@@@@@@@@@@@@++   +++++       +              ",
"@@@@@@@@@@@@@@@@@@@@@@@@@@@@@@@@+.   +++++       +++       +   +"};
