/* XPM */
static char * door_closed_xpm[] = {
"64 64 544 2",
"  	c #741000",
". 	c #841704",
"+ 	c #94200D",
"@ 	c #7C1302",
"# 	c #771101",
"$ 	c #781201",
"% 	c #7A1302",
"& 	c #92200D",
"* 	c #861805",
"= 	c #781202",
"- 	c #851806",
"; 	c #8E1E0A",
"> 	c #7B1301",
", 	c #94210E",
"' 	c #7E1504",
") 	c #781101",
"! 	c #8E1F0D",
"~ 	c #8A1C08",
"{ 	c #761100",
"] 	c #801705",
"^ 	c #92210D",
"/ 	c #811806",
"( 	c #8B1D09",
"_ 	c #8E1F0C",
": 	c #7F1604",
"< 	c #94220F",
"[ 	c #761101",
"} 	c #8F1E0B",
"| 	c #861A07",
"1 	c #851805",
"2 	c #93210D",
"3 	c #7D1403",
"4 	c #7B1302",
"5 	c #93210E",
"6 	c #851704",
"7 	c #583D11",
"8 	c #AF2914",
"9 	c #CB371F",
"0 	c #A4220E",
"a 	c #981A04",
"b 	c #9E210D",
"c 	c #A92A15",
"d 	c #B02812",
"e 	c #9C1E09",
"f 	c #A52A16",
"g 	c #9F230F",
"h 	c #B72C15",
"i 	c #C0321B",
"j 	c #A42713",
"k 	c #A32511",
"l 	c #9A1C06",
"m 	c #A21F09",
"n 	c #CA3A22",
"o 	c #AC2A15",
"p 	c #9C1E0A",
"q 	c #971904",
"r 	c #A0220D",
"s 	c #C43720",
"t 	c #BD331D",
"u 	c #9F210D",
"v 	c #A42915",
"w 	c #AE2D18",
"x 	c #C93A22",
"y 	c #9E200C",
"z 	c #A32814",
"A 	c #A22511",
"B 	c #9B1B06",
"C 	c #C93921",
"D 	c #AF2C17",
"E 	c #A42814",
"F 	c #9A1C07",
"G 	c #971A05",
"H 	c #BE341D",
"I 	c #BD311A",
"J 	c #9F200A",
"K 	c #A0210D",
"L 	c #AD2D18",
"M 	c #C4351D",
"N 	c #9E220E",
"O 	c #C1331C",
"P 	c #B42A14",
"Q 	c #9B1D08",
"R 	c #C73821",
"S 	c #A82914",
"T 	c #961903",
"U 	c #A3230E",
"V 	c #CC3820",
"W 	c #B02913",
"X 	c #916E15",
"Y 	c #B82D16",
"Z 	c #CE371F",
"` 	c #AC2510",
" .	c #9F1B05",
"..	c #A8240F",
"+.	c #B22F19",
"@.	c #CE381F",
"#.	c #B72B14",
"$.	c #A3200B",
"%.	c #AE2E19",
"&.	c #A72611",
"*.	c #C3321A",
"=.	c #C7341C",
"-.	c #AD2B16",
";.	c #AC2914",
">.	c #AE2710",
",.	c #CB3A22",
"'.	c #B32D17",
").	c #9E1A04",
"!.	c #A9250F",
"~.	c #C73820",
"{.	c #C2341D",
"].	c #9F1A04",
"^.	c #A7240F",
"/.	c #BA3019",
"(.	c #CB3B23",
"_.	c #AD240D",
":.	c #AD2C17",
"<.	c #AA2813",
"[.	c #AA230C",
"}.	c #A21D06",
"|.	c #A11C06",
"1.	c #C4361F",
"2.	c #BE2F18",
"3.	c #A7210B",
"4.	c #B62F19",
"5.	c #C3331B",
"6.	c #AE2009",
"7.	c #AD2610",
"8.	c #C3341C",
"9.	c #BD2E17",
"0.	c #AB2914",
"a.	c #A21E07",
"b.	c #BA2D16",
"c.	c #B02B16",
"d.	c #AC2611",
"e.	c #B62B15",
"f.	c #DFAC1D",
"g.	c #CF371F",
"h.	c #B32F19",
"i.	c #CF381F",
"j.	c #A4200B",
"k.	c #C1321B",
"l.	c #C7351D",
"m.	c #AC2B16",
"n.	c #B5270F",
"o.	c #CE3920",
"p.	c #B62C15",
"q.	c #AB250F",
"r.	c #C93820",
"s.	c #C2321B",
"t.	c #A11A04",
"u.	c #BF311A",
"v.	c #B0230C",
"w.	c #AE220C",
"x.	c #C63820",
"y.	c #BD2F18",
"z.	c #A11D08",
"A.	c #A31C05",
"B.	c #C5361F",
"C.	c #BF3018",
"D.	c #A8220B",
"E.	c #B72F18",
"F.	c #C3331C",
"G.	c #B1230C",
"H.	c #AB2813",
"I.	c #C4341C",
"J.	c #BF2D15",
"K.	c #A31E08",
"L.	c #BB2D16",
"M.	c #B02B15",
"N.	c #B12711",
"O.	c #D03920",
"P.	c #BC2E16",
"Q.	c #B92E16",
"R.	c #AB240D",
"S.	c #B52E18",
"T.	c #A5200B",
"U.	c #AE2B16",
"V.	c #B62710",
"W.	c #CF3820",
"X.	c #B72912",
"Y.	c #A21B05",
"Z.	c #A6230D",
"`.	c #BE2F17",
" +	c #AC2C17",
".+	c #AF220B",
"++	c #C53720",
"@+	c #BB2B14",
"#+	c #A21C06",
"$+	c #C03018",
"%+	c #A9220B",
"&+	c #B72D16",
"*+	c #AD2812",
"=+	c #B22B15",
"-+	c #B22710",
";+	c #AF240D",
">+	c #B62D16",
",+	c #BD2E16",
"'+	c #A6210C",
")+	c #B12A13",
"!+	c #B82810",
"~+	c #B82811",
"{+	c #AF260F",
"]+	c #C83820",
"^+	c #C2311A",
"/+	c #A41C06",
"(+	c #C03019",
"_+	c #B1220A",
":+	c #BD2911",
"<+	c #A41C05",
"[+	c #C5361E",
"}+	c #C13018",
"|+	c #AB220B",
"1+	c #B8270F",
"2+	c #B12812",
"3+	c #C12D14",
"4+	c #A41E08",
"5+	c #B12913",
"6+	c #B0240D",
"7+	c #C6321A",
"8+	c #B22611",
"9+	c #B82711",
"0+	c #B1250E",
"a+	c #C1311A",
"b+	c #A41B04",
"c+	c #B7240C",
"d+	c #B6230B",
"e+	c #BF2A12",
"f+	c #A01C06",
"g+	c #AB210B",
"h+	c #BC2D15",
"i+	c #C02D14",
"j+	c #A51F08",
"k+	c #BC2D16",
"l+	c #BB2E17",
"m+	c #A7210C",
"n+	c #B3250F",
"o+	c #A31E09",
"p+	c #B72913",
"q+	c #CC3921",
"r+	c #B9270F",
"s+	c #CA3820",
"t+	c #A51B04",
"u+	c #B8240D",
"v+	c #B8240B",
"w+	c #C83921",
"x+	c #BD2810",
"y+	c #A61C05",
"z+	c #C7361E",
"A+	c #AB1F08",
"B+	c #BC2C15",
"C+	c #B22510",
"D+	c #AC2712",
"E+	c #B2260F",
"F+	c #B1240D",
"G+	c #BE2E16",
"H+	c #A8210C",
"I+	c #C8341C",
"J+	c #B3250E",
"K+	c #B72A13",
"L+	c #BA260F",
"M+	c #C23119",
"N+	c #AC2813",
"O+	c #B8250D",
"P+	c #C02B12",
"Q+	c #A11E08",
"R+	c #AA1D06",
"S+	c #BE2911",
"T+	c #B92810",
"U+	c #A6210B",
"V+	c #B22610",
"W+	c #AD2711",
"X+	c #A72009",
"Y+	c #C02E17",
"Z+	c #CD381F",
"`+	c #B7260F",
" @	c #B72710",
".@	c #BC2E17",
"+@	c #B4240D",
"@@	c #B72811",
"#@	c #BE2C14",
"$@	c #A9210B",
"%@	c #B5240D",
"&@	c #BB250E",
"*@	c #B0250E",
"=@	c #C93720",
"-@	c #B6220B",
";@	c #B92911",
">@	c #A01D07",
",@	c #A71B04",
"'@	c #A9230C",
")@	c #A8210B",
"!@	c #B12611",
"~@	c #BD2B14",
"{@	c #9F1903",
"]@	c #BF2D16",
"^@	c #B4230D",
"/@	c #BA2B14",
"(@	c #CB3922",
"_@	c #BB250D",
":@	c #B02B14",
"<@	c #B92811",
"[@	c #BE2810",
"}@	c #B02109",
"|@	c #A9240E",
"1@	c #A6200B",
"2@	c #B3260F",
"3@	c #BE2D15",
"4@	c #A81F08",
"5@	c #C02E16",
"6@	c #B8240C",
"7@	c #B7230B",
"8@	c #B6240D",
"9@	c #A51F09",
"0@	c #CB3921",
"a@	c #BB240C",
"b@	c #C23019",
"c@	c #A81C05",
"d@	c #BA270E",
"e@	c #AA2611",
"f@	c #AC1F07",
"g@	c #AA220B",
"h@	c #B8260E",
"i@	c #BE2B13",
"j@	c #B7220B",
"k@	c #BF2B13",
"l@	c #AA210B",
"m@	c #B2250F",
"n@	c #B6230C",
"o@	c #A51E08",
"p@	c #BC2B13",
"q@	c #A91C05",
"r@	c #B12A14",
"s@	c #AB1F07",
"t@	c #C8371F",
"u@	c #B01F07",
"v@	c #C22E16",
"w@	c #C5351D",
"x@	c #B4250E",
"y@	c #C12F17",
"z@	c #B8260F",
"A@	c #BF2E16",
"B@	c #C7351C",
"C@	c #B5250D",
"D@	c #B62109",
"E@	c #AE2D17",
"F@	c #C12C14",
"G@	c #C13019",
"H@	c #B9250D",
"I@	c #B9250E",
"J@	c #B3240D",
"K@	c #C6331B",
"L@	c #BC2B14",
"M@	c #B4230C",
"N@	c #C83821",
"O@	c #B72109",
"P@	c #AF2D18",
"Q@	c #BA270F",
"R@	c #BD270F",
"S@	c #AC230D",
"T@	c #B0210A",
"U@	c #C22D15",
"V@	c #B7240D",
"W@	c #B3230D",
"X@	c #A91F08",
"Y@	c #B7220A",
"Z@	c #C12E16",
"`@	c #BC250E",
" #	c #A61F09",
".#	c #A9210A",
"+#	c #B1250F",
"@#	c #B02D18",
"##	c #C93821",
"$#	c #BD270E",
"%#	c #B0230D",
"&#	c #C12D15",
"*#	c #B02008",
"=#	c #C02B14",
"-#	c #BB260D",
";#	c #C5351E",
">#	c #CE371E",
",#	c #BA250E",
"'#	c #B1240E",
")#	c #C23018",
"!#	c #C7371F",
"~#	c #B62108",
"{#	c #BC260D",
"]#	c #AF220A",
"^#	c #BA240C",
"/#	c #A7210A",
"(#	c #CB3820",
"_#	c #C83922",
":#	c #AE2813",
"<#	c #BB2911",
"[#	c #B0220C",
"}#	c #AA2009",
"|#	c #C33119",
"1#	c #A71F08",
"2#	c #A8210A",
"3#	c #B5230C",
"4#	c #A72410",
"5#	c #B3230C",
"6#	c #AD2712",
"7#	c #BA2710",
"8#	c #C02C14",
"9#	c #C4341D",
"0#	c #A8220C",
"a#	c #CD371E",
"b#	c #BA2209",
"c#	c #A71E08",
"d#	c #A91B05",
"e#	c #C02D15",
"f#	c #AF2109",
"g#	c #A9230E",
"h#	c #AD1F08",
"i#	c #B92209",
"j#	c #B3220C",
"k#	c #A81E08",
"l#	c #AA1C05",
"m#	c #C33018",
"n#	c #BA2811",
"o#	c #AF210B",
"p#	c #C4331B",
"q#	c #A8230E",
"r#	c #AE1F07",
"s#	c #A21E08",
"t#	c #BC270F",
"u#	c #C5321B",
"v#	c #CE3820",
"w#	c #D3381F",
"x#	c #AE240E",
"y#	c #B5220B",
"z#	c #C9341C",
"A#	c #D2371E",
"B#	c #AE1E07",
"C#	c #C53017",
"D#	c #AE2712",
"E#	c #BB2810",
"F#	c #CD3820",
"G#	c #BC260E",
"H#	c #C9371F",
"I#	c #B3210A",
"J#	c #A9210C",
"K#	c #AF2D17",
"L#	c #B9240C",
"M#	c #C4321A",
"N#	c #CD371F",
"O#	c #D33920",
"P#	c #D4381F",
"Q#	c #B5210A",
"R#	c #CA341C",
"S#	c #D3371E",
"T#	c #AE2812",
"U#	c #CA371F",
"V#	c #B4210A",
"W#	c #BA250D",
"X#	c #BD2710",
"Y#	c #D53920",
"Z#	c #C43018",
"`#	c #B32109",
" $	c #BA260E",
".$	c #D4391F",
"+$	c #AE1C04",
"@$	c #B32009",
"#$	c #9E1903",
"$$	c #AE1E06",
"%$	c #B2220C",
"&$	c #AB2814",
"*$	c #B8230B",
"=$	c #BC250D",
"-$	c #A9220D",
";$	c #BA260D",
">$	c #BA230B",
",$	c #BF2C14",
"'$	c #B72008",
")$	c #BA250C",
"!$	c #B82008",
"~$	c #B12D18",
"{$	c #9D1B05",
"]$	c #B9230B",
"^$	c #AF2008",
"/$	c #9C1C06",
"($	c #CD361E",
"_$	c #A9230D",
":$	c #A01B05",
"<$	c #A9240F",
"[$	c #A91E08",
"}$	c #AF2812",
"|$	c #AA230E",
"1$	c #B9260E",
"2$	c #7A2C0C",
"3$	c #7D2D0F",
"4$	c #92270C",
"5$	c #783612",
"6$	c #AC2208",
"7$	c #AC2209",
"8$	c #773511",
"9$	c #91260B",
"0$	c #7E2D0D",
"a$	c #92260A",
"b$	c #753410",
"c$	c #AA230A",
"d$	c #AD2209",
"e$	c #92280E",
"f$	c #802D0E",
"g$	c #7A2C0D",
"h$	c #96280D",
"i$	c #72320D",
"j$	c #A8240B",
"k$	c #B2280E",
"l$	c #76340F",
"m$	c #912C12",
"n$	c #812D0E",
"o$	c #7E2E10",
"p$	c #97290E",
"q$	c #74330E",
"r$	c #9A1E07",
"s$	c #B42D15",
"t$	c #DDAB1C",
"u$	c #6B4711",
"v$	c #7B4D11",
"w$	c #5D4111",
"x$	c #583E10",
"y$	c #7C4E11",
"z$	c #765713",
"A$	c #9F7618",
"B$	c #CE9F1B",
"C$	c #6F4D15",
"D$	c #5D4012",
"E$	c #D0A01B",
"F$	c #A57C19",
"G$	c #DBA91C",
"H$	c #6C4414",
"I$	c #A57815",
"J$	c #553818",
"K$	c #DCA91B",
"L$	c #57330F",
"M$	c #824507",
"N$	c #975D0A",
"O$	c #321926",
"P$	c #643B1F",
"Q$	c #15172A",
"R$	c #8F5B14",
"S$	c #824508",
"  . + @ # $ % & * $ = = - ; = = # > , ' $ ) = ! ~ { ) = ] ^ = = = # , / = $ { ( _ $ # $ : < > $ = [ } | = = # 1 2 3 $ { 4 5 6   ",
"7 8 9 0 a b c 9 d e f g h i j k l m n o p q r s t q u v w x y z A B C D E F G H I J a K L M m e f N O P A A Q d R S p T U V W 7 ",
"X Y Z `  ...+.@.#.$.%.&.*.=.-.;.$.>.,.'.$.).!.~.{.].^.w /.(._.:.<.[.C Y :.}.|.1.2.3. ...4.5.6.$.%.7.8.9.0.0.a.b.@.c.$.).d.@.e.X ",
"f.Y g.7. ...h.i.b.j.%.&.k.l.m.0.$.n.o.p.$.).q.r.s.t.^.w u.(.v.-.<.w.x.y.:.z.A.B.C.D. ...E.F.G.$.%.H.I.J.0.0.K.L.Z M.$.).N.O.P.f.",
"f.Q.g.R. ...S.i.L.T.%.7.s.l.U.0.$.V.W.X.$.).q.r.s.Y.Z.w `.(.v. +<..+++@+:.z.#+1.$+%+ ...&+5.V.$.%.*+I.J.-.0.K.L.g.=+$.).-+W.P.f.",
"f.Q.g.;+]...>+i.,+'+%.7.*.=.)+0.j.!+O.~+$.).{+]+^+/+^.w (+(._+-.<..+++:+:.}.<+[+}+|+ ...#.5.1+$.%.2+I.3+-.0.4+P.g.5+$.).-+O.P.f.",
"f.b.g.6+]...p.i.P.'+%.7.7+=.8+0.j.!+O.9+$.).0+r.a+b+^.D }+(.c+-.<.d+++e+m.f+A.[+}+g+ ...h+5.1+$.%.2+I.i+0.0.j+P.g.2+$.).-+O.k+f.",
"f.l+g.6+ ...p.i.,+m+%.7.7+=.n+0.o+p+q+r+$.).0+s+^+t+^.D }+(.u+:.H.v+w+x+m.f+y+z+}+A+ ...B+F.r+j.%.C+I.i+D+0.j+P.g.E+$.).V.W.@+f.",
"f.L.g.F+ ...p.i.G+H+%.7.7+I+J+0.K.K+,.L+$.).0+s+M+t+^.D }+(.u+:.N+O+C P+;.Q+R+z+}+A+ ...S+5.T+U+%.V+I.3+W+0.X+Y+Z+`+$.). @i.@+f.",
"f..@g.+@ ...@@i.#@$@%.7.7+I+%@0.K.K+,.&@$.).*@=@M+t+^.D }+(.-@:.N+;@C P+0.>@,@z+}+A+ .'@S+5.!+)@%.V+I.J.!@0.X+Y+s+`+$.). @i.~@f.",
"f.G+g.+@{@.. @i.]@$@%.V+7+I+^@0.K./@(@_@$.).0+s+M+t+^.:@}+(.v+-.N+<@w+[@<.>@R+z+}+}@ .|@S+*.T+1@%.2@I.3@V+0.4@5@s+6@$.). @i.~@f.",
"f.G+g.7@{@.. @i.#@$@%.V+7+=.8@0.9@@+0@a@$.).0+s+b@c@^.:@}+(.v+-.N+d@++[@e@Q+R+z+}+f@ .g@S+*.!+U+L h@I.3@V+0.4@5@s+6@$.). @i.i@f.",
"f.G+g.j@{@..`+i.k@l@%.m@7+=.n@N+o@p@i.a@$.).0+s+b@q@^.r@}+(.v+-.N+d@x.[@R.>@s@t@}+u@ ...v@w@~+'+%.r+I.i+x@0.4@y@s+j@$.).z@i.i@f.",
"f.A@g.j@{@..O+i.k@l@%.m@7+B@n@H.9@@+i.a@$.).C@s+b@q@^.r@}+(.D@E@N+d@C x+R.>@s@t@}+}@ .'@F@w@~+'+%.r+I.i+x@0.4@G@s+j@$.).H@i.k@f.",
"f.5@g.j@{@..I@i.k@l@%.J@K@=.n@H.9@L@i.a@T.).M@s+b@q@^.r@}+N@O@P@N+Q@C R@S@>@s@t@y@T@ .g@U@w@T+m+%.V@I.i+W@0.X@b@Z Y@$.Y.I@i.k@f.",
"f.Z@g.j@ ...`@i.k@l@%.J@=.=.n@N+ #~@i.a@.#).+@s+b@q@^.+#}+t@O@@#N+;@##$#%#>@s@t@&#*# .g@=#w@-#H+%.V@;#i+W@0.X@b@>#O@$.Y.,#i.k@f.",
"f.G@Z+j@ ...,#i.k@g+%.J@=.=.n@N+ #~@i.6@$.).+@g.b@q@^.'#)#!#~#P@D+<@C x+v.>@s@t@}+}@ .g@=#w@{#$@L d+B.i+W@0.X@b@>#O@$.Y.`@i.k@f.",
"f.M+s+j@ ...&@i.k@]#%.J@=.=.n@N+ #~@i.^#/#).+@(#b@q@^.'#)#_#~#w :#<#C x+[#f+s@t@Z@}@ .g@=#w@-#H+P@7@B.3@W@;.}#|#>#O@$.Y.`@i.i@f.",
"f.|#s+O@ ...&@i.k@]#%.+@=.=.n@N+1#~@i.^#2#t.3#s+b@q@4#5#}+]+~#E@6#7#C x+[#f+u@t@&#T@ .g@8#9#-#0#P@7@B.3@W@0.X@b@a#b#$.Y.`@i.k@f.",
"f.|#s+O@ ...&@i.k@]#%.3#B@B@n@N+c#i@i.^#2#).j@Z+b@d#4#5#}+!#~#E@6#7#C x+[#f+u@t@e#f# .g@v@w@-#g#P@7@z+3@W@0.h#b@=@i#$.Y.`@i.k@f.",
"f.|#s+O@ ...&@i.k@.+%.j#B@B@n@N+k#i@W.^#2#).j@g.b@l#4#5#m#!#~#w 6#n#C [@[#f+u@t@}+T@ .o#F@p#-#q#P@7@C 3@W@0.r#b@=@i#$.s#t#O.k@f.",
"f.u#v#Y@ .'@`@w#k@x#L y#z#I+n@N+X@k@w#a@2#).j@A#Y+B#4#5#C#l.~#w D#E#F#G#[#f+u@H#}+I# .o#v@p#{#J#K#L#C 3@W@0.r#M#N#i#$.Y.t#O#k@f.",
"f.K@W.j@ ...`@P#k@x#L Q#R#z#n@N+X@k@P#a@2#).j@S#5@B#4#5#C#B@~#w T#E#i.&@[#f+u@U#y@V# .o#U@w@{#$@K#W#C i+%@0.r#u#Z i#$.Y.X#Y#k@f.",
"f.K@W.j@ ...`@P#k@x#L Q#R#z#n@N+X@k@P#a@2#).j@S#5@B#4#5#Z#B@~#w T#E#i.&@[#f+u@U#e#`# .o#U@w@-#H+P@ $C J.W@0.r#u#Z i#$.Y.t#.$k@f.",
"f.K@W.j@ ...`@P#k@x#L Q#R#z#n@N+X@k@P#a@2#).j@S#5@+$4#5#Z#B@~#w T#E#i.&@[#f+u@U#8#@$#$o#=#w@-#q#P@ $C 3@W@0.r#u#Z i#$.Y.t#.$k@f.",
"f.K@W.j@ ...`@P#k@x#L Q#R#z#n@N+X@k@P#a@2#).j@S#5@$$4#5#Z#B@~#w T#E#i.&@[#f+u@U#y@V# .o#U@w@{#J#P@ $C 3@%$&$r#u#Z i#$.Y.t#.$k@f.",
"f.K@W.*$ ...`@P#k@.+L Q#R#z#n@N+X@k@P#a@2#).j@S#5@$$4#5#Z#B@~#w T#E#i.&@[#f+u@U#}+V# .o#v@w@=$-$P@;$r.#@5#0.r#u#Z i#$.Y.t#.$k@f.",
"f.K@W.>$ ...`@P#k@x#L Q#R#z#n@N+X@k@P#a@2#).j@S#,$+$4#5#Z#B@'$P@T#E#i.&@[#f+u@U#}+V# .o#v@w@=$$@D )$C i+%@;.r#u#Z i#$.Y.t#.$k@f.",
"f.K@W.>$ ...`@P#k@x#L Q#R#z#n@N+X@k@P#a@2#).j@S#5@B#4#5#Z#B@~#w T#E#i.&@[#f+u@U#8#@$ .o#F@w@{#H+D )$C 3@W@;.r#u#Z i#$.Y.t#.$k@f.",
"f.K@W.*$ ...`@P#k@x#L Q#R#z#n@N+X@k@P#a@2#).j@S#5@B#4#5#Z#B@~#w T#E#i.&@[#f+u@U#8#@$ .o#F@w@{#H+P@;$C 3@W@0.r#u#Z i#$.Y.t#.$k@f.",
"f.K@W.*$ ...`@P#k@x#L Q#R#z#n@N+X@k@P#a@2#).j@S#5@B#4#5#Z#B@~#P@T#E#i.&@[#f+u@U#e#`# .o#F@w@{#H+P@ $C 3@^@0.r#u#Z i#$.Y.t#.$k@f.",
"f.K@W.>$ ...`@P#k@x#L Q#R#z#n@N+X@k@P#a@2#).j@S#5@B#4#5#Z#B@!$~$T#E#i.&@[#f+u@U#}+V# .o#v@w@=$-$P@ $r.#@^@0.r#u#Z i#$.Y.t#.$k@f.",
"f.K@W.j@ .|@`@P#k@x#L Q#R#z#n@N+X@k@P#a@2#).j@S#,$r#4#5#C#B@~#w T#E#i.&@[#f+u@U#}+V# .o#v@p#=$$@D )$C J.^@0.r#u#Z i#$.Y.t#.$k@f.",
"f.K@W.j@ .g@`@P#k@x#L Q#R#z#n@N+X@k@P#a@2#).j@S#,$r#4#5#Z#B@~#w T#E#i.&@[#f+u@U#Z@V# .o#F@w@{#H+P@;$C i+^@0.r#u#Z i#$.Y.t#.$k@f.",
"f.K@W.>$ .'@`@P#k@x#L Q#R#z#n@N+X@k@P#a@2#).j@S#5@B#4#5#C#B@~#P@T#E#i.&@[#f+u@U#8#@$ .o#U@w@-#0#P@ $C 3@W@0.r#u#Z i#$.Y.t#.$k@f.",
"f.K@W.>$ ...`@P#k@x#L Q#R#z#n@N+X@k@P#a@2#).j@S#5@B#4#5#Z#B@!$@#T#E#i.&@[#f+u@U#8#@$#$o#=#w@-#g#P@ $C 3@5#0.r#u#Z i#$.Y.t#.$k@f.",
"f.K@W.>$ ...`@P#k@x#L Q#R#z#n@N+X@k@P#a@.#{$j@S#5@B#4#5#Z#B@~#w T#E#i.&@[#f+u@U#}+V# .o#v@w@=$J#P@ $C 3@j#&$r#u#Z i#$.Y.t#.$k@f.",
"f.K@W.*$ ...`@P#k@x#L Q#R#z#n@N+X@k@P#a@.#{$j@S#5@B#4#5#C#B@~#w T#E#i.&@[#f+u@U#}+V# .o#v@w@=$J#K#W#C 3@j#&$r#u#Z i#$.Y.t#.$k@f.",
"f.K@W.j@ ...`@P#k@x#L Q#R#z#n@N+X@k@P#a@2#).j@S#5@B#4#5#C#B@~#w T#E#i.&@[#f+u@U#y@V# .o#U@w@{#$@D )$C 3@5#0.r#u#Z i#$.Y.X#Y#k@f.",
"f.K@W.j@ ...`@P#k@x#L Q#R#z#n@N+X@k@P#a@2#).j@S#5@B#4#5#Z#B@~#w T#E#i.&@[#f+u@U#8#@$].o#U@w@{#$@D )$C 3@^@0.r#u#Z i#$.Y.t#.$k@f.",
"f.K@W.j@ ...`@P#k@x#L Q#R#z#n@N+X@k@P#a@2#).j@S#5@+$4#5#Z#B@~#w T#E#i.&@[#f+u@U#8#@$ .o#=#w@-#H+P@ $C 3@W@0.r#u#Z i#$.Y.t#.$k@f.",
"f.K@W.j@ ...`@P#k@x#L Q#R#z#n@N+X@k@P#a@2#).j@S#5@$$4#5#Z#B@~#w T#E#i.&@[#f+u@U#y@V# .o#U@w@{#$@P@ $C 3@W@0.r#u#Z i#$.Y.t#.$k@f.",
"f.K@W.j@ ...`@P#k@x#L Q#R#z#n@N+X@k@P#a@2#).j@S#5@B#4#5#Z#B@~#w T#E#i.&@[#f+u@U#}+V# .o#v@w@=$g#P@ $C 3@W@0.r#u#Z i#$.Y.t#.$k@f.",
"f.K@W.]$ ...`@P#k@x#L Q#R#z#n@N+X@k@P#a@2#).j@S#5@B#4#5#Z#B@'$P@T#E#i.&@[#f+u@U#}+V##$o#F@w@-#q#P@ $C 3@%$&$^$K@Z i#$.Y.t#.$k@f.",
"f.K@W.>$ ...`@P#k@x#L Q#R#z#n@N+X@k@P#a@.#{$j@S#5@B#4#5#m#=.~#w T#E#i.&@[#f+u@U#}+V#].o#=#p#{#H+P@ $C 3@j#&$r#u#Z i#$.Y.t#.$k@f.",
"f.K@W.*$ .'@`@P#k@x#L Q#R#z#n@N+X@k@P#a@.#{$j@S#,$r#4#5#Z#B@~#w T#E#i.&@[#f+u@U#y@`# .o#=#p#=$-$K#W#C 3@j#&$r#u#Z i#$.Y.t#.$k@f.",
"f.K@W.*$ .'@`@P#k@x#L Q#R#z#n@N+X@k@P#a@2#).j@S#k@r#4#5#Z#B@~#P@T#E#i.&@[#f+u@U#e#V# .o#=#p#-#g#D )$C 3@5#0.r#u#Z i#$.Y.t#.$k@f.",
"f.K@W.>$ ...`@P#k@x#L Q#R#z#n@N+X@k@P#a@2#).j@S#J.B#4#5#Z#B@!$~$T#E#i.&@[#f+u@U#8#@$ .o#U@w@-#g#P@;$C 3@^@0.r#u#Z i#$.Y.t#.$k@f.",
"f.K@W.j@ ...`@P#k@x#L Q#R#z#n@N+X@k@P#a@2#).j@S#5@B#4#5#C#B@~#w T#E#i.&@[#f+u@U#y@@$ .o#v@w@-#q#D )$C J.8@0.r#u#Z i#$.Y.t#.$k@f.",
"f.K@W.j@ ...`@P#k@x#L Q#R#z#n@N+X@k@P#a@2#).j@S#5@B#4#5#Z#B@'$P@T#E#i.&@[#f+u@U#e#@$].o#v@w@{#J#P@;$C i+M@0.r#u#Z i#$.Y.t#.$k@f.",
"f.K@W.*$ ...G#P#k@.+L Q#R#z#n@N+X@k@P#a@.#/$j@S#5@B#4#5#Z#B@~#w T#E#i.&@[#f+*#=@e#`##$o#v@w@=$$@P@ $C 3@j#&$r#u#Z i#$.Y.t#.$k@f.",
"f.K@W.*$ ...G#P#k@x#L Q#R#z#n@N+X@k@P#a@2#).j@S#5@B#4#5#Z#B@~#w T#E#i.&@[#f+u@($}+V##$o#v@w@=$$@P@ $C 3@j#&$r#u#Z i#$.Y.t#.$k@f.",
"f.K@W.>$ ...`@P#k@x#L Q#R#z#n@N+X@k@P#a@2#).j@S#5@B#4#5#Z#B@~#w T#E#i.&@[#f+u@9 }+V# .o#=#w@{#H+D )$C 3@j#&$r#u#Z i#$.Y.t#.$k@f.",
"f.K@W.*$ .'@`@P#k@x#L Q#R#z#n@N+X@k@P#a@2#).j@S#5@B#4#5#Z#B@~#w T#E#i.&@[#f+u@9 e#`#].o#U@p#=$-$D )$C 3@j#&$r#u#Z i#$.Y.t#.$k@f.",
"f.K@W.j@ ...`@P#k@x#L Q#R#z#n@N+X@k@P#a@2#).j@S#5@B#4#5#m#B@'$P@T#E#i.&@[#f+u@U#e#`##$o#v@p#=$$@D )$C 3@M@0.r#u#Z i#$.Y.t#.$k@f.",
"f.K@W.j@ ...`@P#k@x#L Q#R#z#n@N+X@k@P#a@.#/$j@S#5@B#4#5#m#B@~#w T#E#i.&@[#f+u@U#}+V##$o#v@I.{#_$D )$C 3@8@0.r#u#Z i#$.Y.t#.$k@f.",
"f.K@W.j@ ...`@P#k@x#L Q#R#z#n@N+X@k@P#a@2#).j@S#5@B#4#5#Z#B@~#w T#E#i.&@[#f+u@U#}+V##$o#F@w@-#q#P@ $C 3@W@0.r#u#Z i#$.Y.t#.$k@f.",
"f.K@W.j@ ...`@P#k@x#L Q#R#z#n@N+X@k@P#a@2#).j@S#5@B#4#5#Z#B@'$P@T#E#i.&@[#f+u@U#}+V# .o#v@w@{#J#P@ $C 3@W@0.r#u#Z i#$.Y.t#.$k@f.",
"f.K@W.j@:$<$`@P#k@x#w Q#R#z#n@N+[$k@P#a@.#).j@S#5@B#4#5#Z#B@'$~$}$E#i.&@[#f+u@U#}+V#{@o#v@p#=$|$P@1$C 3@W@;.r#u#Z i#j.Y.t#.$k@f.",
"f.K@W.j@2$3$`@P#k@4$5$6$R#z#7$8$9$k@P#a@0$2$j@S#5@a$b$c$Z#B@d$5$e$E#i.&@f$g$u@U#)#h$i$j$v@w@k$l$m$ $C 3@n$o$r#u#g.p$q$r$t#.$s$f.",
"t$u$v$v$w$w$v$v$u$u$x$y$u$u$y$x$u$u$v$v$w$w$v$v$u$u$x$y$u$u$y$x$u$u$v$v$w$w$v$v$u$u$x$y$u$u$y$x$u$u$v$v$w$w$v$v$u$u$x$y$u$u$y$t$",
"z$A$B$B$C$C$B$B$A$A$D$E$A$A$E$D$A$A$B$B$C$C$B$B$A$A$D$E$A$A$E$D$A$A$B$B$C$C$B$B$A$A$D$E$A$A$E$D$A$A$B$B$C$C$B$B$A$A$D$E$A$A$E$z$",
"7 F$G$G$H$H$G$G$F$I$J$K$F$F$K$J$I$F$G$G$H$H$G$G$F$I$J$K$F$F$K$J$I$F$G$G$H$H$G$G$F$I$J$K$F$F$K$J$I$F$G$G$H$H$G$G$F$I$J$K$F$F$K$7 ",
"L$M$N$N$O$O$N$N$M$P$Q$R$S$S$R$Q$P$M$N$N$O$O$N$N$M$P$Q$R$S$S$R$Q$P$M$N$N$O$O$N$N$M$P$Q$R$S$S$R$Q$P$M$N$N$O$O$N$N$M$P$Q$R$S$S$R$L$"};
