/* XPM */
static char *aa70ad69d0a44e4aa4e67be2c9c35196sZ7Ilu3UPir9REAb[] = {
/* columns rows colors chars-per-pixel */
"64 96 145 2 ",
"   c None",
".  c #001A2C",
"X  c #1D1920",
"o  c #54190B",
"O  c #6F1600",
"+  c #741100",
"@  c #7D1302",
"#  c #731800",
"$  c #7A1800",
"%  c #563C10",
"&  c #5B3D11",
"*  c #6F2B0E",
"=  c #61320F",
"-  c #664514",
";  c #6D4B15",
":  c #765216",
">  c #7C5816",
",  c #734623",
"<  c #841503",
"1  c #8A1602",
"2  c #861907",
"3  c #8C1906",
"4  c #881E0D",
"5  c #931A06",
"6  c #9D1A04",
"7  c #941C08",
"8  c #9B1E09",
"9  c #A21C06",
"0  c #AC1D06",
"q  c #A21F09",
"w  c #A91F08",
"e  c #B41E05",
"r  c #B81E05",
"t  c #B11F08",
"y  c #86270B",
"u  c #88250B",
"i  c #9E200C",
"p  c #882312",
"a  c #A12006",
"s  c #A5220D",
"d  c #AB230D",
"f  c #B42007",
"g  c #B92007",
"h  c #B4230B",
"j  c #BB240B",
"k  c #BE280F",
"l  c #A52510",
"z  c #AA2611",
"x  c #AC2A14",
"c  c #AE2E19",
"v  c #B42710",
"b  c #B32A13",
"n  c #BF2D15",
"m  c #BE2C14",
"M  c #BD2E17",
"N  c #BE2E16",
"B  c #BF2E17",
"V  c #BF2F17",
"C  c #BD2D15",
"Z  c #BD2A12",
"A  c #B02D18",
"S  c #B02F1A",
"D  c #B52F19",
"F  c #B32D18",
"G  c #BC2F18",
"H  c #AF301B",
"J  c #AE301C",
"K  c #B1301B",
"L  c #BD3019",
"P  c #BF321B",
"I  c #BF331C",
"U  c #C4260E",
"Y  c #C02B13",
"T  c #C12C13",
"R  c #C02C14",
"E  c #C02D14",
"W  c #C12D15",
"Q  c #C32D14",
"!  c #C02E15",
"~  c #C02E16",
"^  c #C12F17",
"/  c #C22E16",
"(  c #C32F17",
")  c #C22D14",
"_  c #C33017",
"`  c #C53017",
"'  c #C43017",
"]  c #C13119",
"[  c #C03018",
"{  c #C23018",
"}  c #C33119",
"|  c #C3321B",
" . c #C2321A",
".. c #C53118",
"X. c #C53219",
"o. c #C4321A",
"O. c #C5331B",
"+. c #C7331A",
"@. c #C7341B",
"#. c #C4331C",
"$. c #C3341D",
"%. c #C5351D",
"&. c #C6341C",
"*. c #C7351D",
"=. c #C6351E",
"-. c #C53219",
";. c #C8361E",
":. c #CD361D",
">. c #CF371E",
",. c #CB351C",
"<. c #CE381E",
"1. c #D0371E",
"2. c #D1371D",
"3. c #D0381F",
"4. c #D5391F",
"5. c #D7391F",
"6. c #D2381F",
"7. c #CB3B23",
"8. c #CD3B23",
"9. c #CE3B22",
"0. c #CF3B23",
"q. c #C83B24",
"w. c #CD3921",
"e. c #D33A21",
"r. c #D03A22",
"t. c #D23B22",
"y. c #D53A21",
"u. c #D43B22",
"i. c #D33920",
"p. c #D83A20",
"a. c #DA3A20",
"s. c #D83A20",
"d. c #825D16",
"f. c #8A6317",
"g. c #916C15",
"h. c #916918",
"j. c #AD8516",
"k. c #B38B16",
"l. c #B0831A",
"z. c #BA8C1A",
"x. c #C2931B",
"c. c #DFAC1D",
"v. c #E3AF1D",
"b. c #F3BD1E",
"n. c #F3BD1E",
/* pixels */
"+ + @ @ @ + + + + + + @ @ + + + + + + @ @ + + + + + + @ @ + + + + + + @ @ + + + + + + @ @ + + + + + + @ @ + + + + + + @ @ @ + + ",
"+ @ l 8.l < @ < 2 2 i 8.z < 2 2 2 2 8 7.x 2 2 2 < @ 5 q.D 2 2 @ @ 2 2 D q.5 @ < 2 2 2 x 7.8 2 2 2 2 < z 8.i 2 2 < @ < l 8.l @ + ",
"< 7 L e.G a 6 9 l c G e.G 6 s c c s b e.L x S z q 6 d 8.%.x s 6 6 s x %.8.d 6 q z S x L e.b s c c s 6 G e.G c l 9 6 a G e.L 7 < ",
"< 7  .e.M a 6 9 z c L e.M 6 s c c s M e. .x K z s 6 b 8.%.x s 6 6 s x %.8.b 6 s z K x  .e.M s c c s 6 M e. .c z 9 6 a M e. .7 < ",
"< 8  .e.^ a 6 9 z c  .e. .6 s c c s M 8...z J z s 6 Z 8.%.x s 6 6 s x %.8.Z 6 s z H z ..8.M s c c s 6  .e. .c z 9 6 a ^ e. .8 < ",
"< 8  .e.^ a 6 9 z c  .e. .9 s c c s M 8...x H z s 6 Z e.%.b s 6 6 s b %.e.Z 6 s z H x ..8.M s c c s 9  .e. .c z 9 6 a ^ e. .8 < ",
"< 8  .e.^ q 6 9 z A  .e. .9 s c c d M 8...x J z a 6 Z e.%.v s 6 6 s v #.e.Z 6 a z H x ..0.M d c c s 9  .e. .A z 9 6 q ^ e. .8 < ",
"< 8  .e.^ w 6 9 z A  .e. .w s c c d M e...v J z a 9 m e.%.h s 6 6 s h %.e.m 9 a z H v ..e.M d c c s w  .e. .A z 9 6 w ^ e. .8 < ",
"< 8  .e.^ w 6 9 z b  .e...w s c c d M e. .v J z a 9 m e.%.h s 6 6 s h %.e.m 9 a z H v  .e.M d c c s w ..e. .b z 9 6 w ^ e. .8 < ",
"4 6  .e.^ w 6 9 z b  .e. .0 s c c d ^ e. .h H z a 9 m e.%.h s 6 6 s h %.e.T 9 a z H h  .e.^ d c c s 0  .e. .b z 9 6 w ^ e. .6 4 ",
"p 9  .e.^ 0 6 9 z b  .e. .0 s c c d ^ e...h H z a 9 m e.%.f s 6 6 s f %.e.T 9 a z H h  .e.^ d c c s 0  .e. .b z 9 6 0 ^ e. .9 p ",
"2 9  .e.^ 0 6 9 z b  .e. .t s c c d ^ e. .f H z q 9 M 8.%.f s 6 6 s f %.e.M 9 w z H f  .e.^ d c c s t  .e. .b z 9 6 0 ^ e. .9 2 ",
"< 9  .e.^ 0 6 q z b  .e. .t s c c d ^ e...f J z q 9 ^ 8.%.f s 6 6 s f %.8.^ 9 q z J f ..e.^ d c c s t  .e. .b z q 6 0 ^ e. .9 < ",
"< w ..e.^ t 6 q z b  .e. .t s c c d ^ e...f J z q 9 M 8.%.r s 6 6 s r %.8.M 9 q z J f ..e.^ d c c s t  .e. .b z q 6 t ^ e...w < ",
"< w  .e.^ t 6 q z h  .e._ e s c c d ^ e...r J z w 9 M 8.%.r s 6 6 s r %.8.M 9 q z J r ..e.^ d c c s e  .e. .h z q 6 t ^ e. .w < ",
"< w #.e.^ t 6 q z h  .e. .e s c c h ^ e...e J z q 9 ^ e.%.r s 6 6 s r %.8.^ 9 q z J e ..e.^ h c c s e  .e. .h z q 6 t ^ e.#.w < ",
"< w #.e.^ t 6 q z h  .e. .e s c c h ^ e. .r J z q w ^ 8.#.r s 6 6 s r #.8.^ w q z J r  .e.^ h c c s e  .e. .h z q 6 t ^ e.#.w < ",
"< 0 #.e.^ e 6 q z h  .e.^ e s c c h ^ e. .r H z q 0 ^ 8.#.r s 6 6 s r #.8.^ 0 q z H r  .e.^ h c c s e ^ e. .h z q 6 e ^ e.#.0 < ",
"< 0 #.e.^ e 6 q z h  .e.^ r s c c h ^ e. .r S z q 0 ^ e.#.r s 6 6 s r #.e.^ 0 q z S r  .e.^ h c c s r ^ e. .h z q 6 e ^ e.#.0 < ",
"< 0 #.e.^ e 6 q z f  .e.^ r s c c f ^ e. .r S z q 0 ^ e.#.r s 6 6 s r #.e.^ 0 q z S r  .e.^ f c c s r ^ e. .f z q 6 e ^ e.#.0 < ",
"< t #.e.T e 6 q z f  .e.^ r s c c h ^ y. .r c z q 0 ^ e.#.r s 6 6 s r #.e.^ 0 q z c r  .y.^ h c c s r ^ e...f z q 6 e ^ e.#.t < ",
"< t #.e.^ e 6 q z f  .e.^ r s c c f ^ e. .r c z q 0 ^ e.#.r s 6 6 s r #.e.^ 0 q z c r  .e.^ f c c s r ^ e. .f z q 6 e ^ e.#.t < ",
"< f #.e.T e 6 q z g  .e.^ r s c c f  .e. .r S z q t ^ e...r s 6 6 s r #.e.^ t q z S r  .e. .f c c s r ^ e. .g z q 6 e ^ e.#.f < ",
"@ f ..e.T e 6 q z g ..e.^ r s c c f  .e. .r S z q t ^ e...r s 6 6 s r  .e.^ t q z S r  .e. .f c c s r ^ e...g z 9 6 e ^ e.#.f @ ",
"@ f $.e.^ e 6 q z f ..e.^ r s c c f  .e. .r S z q t ^ e. .r s 6 6 s r  .e.^ t q z S r  .e. .f c c s r ^ e...f z 9 6 e ^ e.$.f @ ",
"@ g %.8.^ e 6 q z g ..e.^ r d c c f  .e. .r A z q t ^ e. .r s 6 6 s r ..e.^ t q z A r  .e. .f c c d r ^ e...g z 9 6 e ^ 8.%.g @ ",
"* j ;.y.T e * % * g @.p.^ r * % * r ..p. .r * % * r ^ p...r * % % * r ..p.^ r * % * r  .p...r * % * r ^ p.@.g * % * e T y.;.j * ",
"% * % * % * % % % * % * % * % % % * % * % * % % % * % * % * % % % % * % * % * % % % * % * % * % % % * % * % * % % % * % * % * % ",
": k.: k.: k.: % : k.: k.: k.: % : k.: k.: k.: % : k.: k.: k.: % % : k.: k.: k.: % : k.: k.: k.: % : k.: k.: k.: % : k.: k.: k.: ",
": b.: b.: b.: % : b.: b.: b.: % : b.: b.: b.: % : b.: b.: b.: % % : b.: b.: b.: % : b.: b.: b.: % : b.: b.: b.: % : b.: b.: b.: ",
": b.: b.: b.: % : b.: b.: b.: % : b.: b.: b.: % : b.: b.: b.: % % : b.: b.: b.: % : b.: b.: b.: % : b.: b.: b.: % : b.: b.: b.: ",
"# b.: b.: b.# . # b.: b.: b.# . # b.: b.: b.# . # b.: b.: b.# . . # b.: b.: b.# . # b.: b.: b.# . # b.: b.: b.# . # b.: b.: b.# ",
"1 1 5 8 z b Z ..3.` g 9 9 d f _ 5...r d c c f ^ 5...r b z q e Y Y e q z b r ..5.^ f c c d r ..5._ f d 9 9 g ` 3...Z b z 8 5 1 1 ",
"1 1 5 a b Z ^ >.>.T e 6 w z g ..1.Y e z c x g ..>.^ e c s 9 e h h e 9 s c e ^ >...g x c z e Y 1...g z q 6 e T >.>.^ Z b a 5 1 1 ",
"1 1 1 a b Z Q >.>.Z 0 6 s h Y @.>.j t x c h k >.>.Z f x s 9 j     j 9 s x f Z >.>.k h c x t j >.@.Y h s 6 0 Z >.>.Q Z b a 1 1 1 ",
"1 1 1 8 d h ..;...j 9 9 d j ` ;...r d c c g ^ ;...j b z q 0 Z     Z 0 q z b j ..;.^ g c c d r ..;.` j d 9 9 j ..;...h d 8 1 1 1 ",
"1 1 1 8 8 k %.;.^ f 9 q d j ..@.^ e z c b j ..>.^ g x s 9 e w     w e 9 s x g ^ >...j b c z e ^ @...j d q 9 f ^ ;.%.k 8 8 1 1 1 ",
"1 1 3 8 q T ;.@.Z 0 6 s h Z @.;.j t x c h k >.>.Z h z a 9 j 0     0 j 9 a z h Z >.>.k h c x t j ;.@.Z h s 6 0 Z @.;.T q 8 3 1 1 ",
"1 1 5 i h ..;.` k 9 9 s h ^ @...g d c c g ^ ;...g z s q 0 Z i     i Z 0 q s z g ..;.^ g c c d g ..@.^ h s 9 9 k ` ;...h i 5 1 1 ",
"1 3 8 s Z %.;.T f 6 w d k  .;.^ e z c b j @.@.^ e x s 9 e 0 i     i 0 e 9 s x e ^ @.@.j b c z e ^ ;. .k d w 6 f T ;.%.Z s 8 3 1 ",
"1 5 s d ^ >.>.j w 6 s h Z @.;.j h x c v Z @...Z h z a w j 0         0 j w a z h Z ..@.Z v c x h j ;.@.Z h s 6 w j >.>.^ d s 5 1 ",
"3 8 d Z ..>.Q f 9 9 s h _ @...r d c S k ^ @.@.f z l q e ^ i         i ^ e q l z f @.@.^ k S c d r ..@._ h s 9 9 f Q >...Z d 8 3 ",
"7 s d Y >.>.Z t 9 q s j ..@.^ e z c b j ..@.M t z s 9 e 0 i         i 0 e 9 s z t M @...j b c z e ^ @...j s q 9 t Z 1.>.Y d s 7 ",
"i d v Q >.@.j w 9 s d Z @.@.k h x c h Z @.@.k h z q 9 j 0 i         i 0 j 9 q z h k @.@.Z h c x h k @.@.Z d s 9 w j @.>.Q v d i ",
"s d Z ..>.Q g 9 9 s e ..@...j d c c e ^ ;. .f z s q 0 h i             i h 0 q s z f  .;.^ e c c d j ..@...e s 9 9 g Q >...Z d s ",
"d d Y >.1.Z e 6 q d g ..@.^ r z c x g ..;.M f z s 9 e h i             i h e 9 s z f M ;...g x c z r ^ @...g d q 6 e Z 3.>.Y d d ",
"d h Q e.@.k w 9 s h Y @.@.k h x c h k ;.@.k d s q 9 w 0                 0 w 9 q s d k @.>.k h c x h k @.@.Y h s 9 w k @.e.Q h d ",
"b Z ..3.^ f 9 9 s g ..;.` g d c b k _ @.` g s a 6 0 w i                 i w 0 6 a s f _ @._ k b c d g ` ;...g s 9 9 f ^ 3...Z b ",
"b T 1.>.Z d 9 9 d j ..>.Y e z c b Z ....b 0 s 8 6 e 0 i                 i w e 6 8 s 0 b ....Z b c z e Y >...j d 9 9 d Z >.1.T b ",
"Z ^ >.^ h 9 9 9 h ^ ;.>.k h x b Z ^ @.Z d q 6 6 9 h i                     i h 9 6 6 q d Z @.^ Z b x h k >.;.^ h 9 9 9 h ^ >.^ Z ",
"Z >.e.h w 9 9 s Z >.;.Z h z x b Z  .b s 6 8 8 9 h w                         w h 9 8 8 6 s b  .Z b x z h Z ;.>.Z s 9 9 w h e.>.Z ",
"e.e.k w 6 6 w h ` >.T h z x b Z >. .d 6 8 8 9 t 0 i                         i 0 t 9 8 8 6 d  .>.Z b x z h T >.` h w 9 9 w k e.e.",
">.Q t 9 6 q h Q >.;.f d x x h T >.v w 8 i 9 0 0 i                             i 0 0 9 i 8 w v >.T h x x d f ;.>.Q h q 6 9 t Q >.",
"Q h 9 6 8 d T e.;.h s z x h Z 3.` h d s q 0 0 0                                 0 0 0 q s d h ` 3.Z h x z s h ;.e.T d 8 6 9 h Q ",
"f 9 6 7 9 k e.>.h w s z d h ^ ;.k d s s w 0 0 i                                 i 0 0 w s s d k ;.^ h d z s w h >.e.k 9 7 6 9 f ",
"9 6 7 6 w Z ^ h w s s d h Z  .k d d s w f 0 0                                     0 0 f w s d d k  .Z h d s s w h ^ Z w 6 7 6 9 ",
"6 7 6 6 s Z h w q s s d h G ^ d s s q t 0 0                                         0 0 t q s s d ^ G h d s s q w h Z s 6 6 7 6 ",
"7 7 6 9 d v w 9 i s w d b C d q i 8 w 0 i                                             i 0 w 8 i q d C b d w s i 9 w v d 9 6 7 7 ",
"7 6 6 s d w 6 7 7 9 d v b w 8 8 8 9 0 i                                                 i 0 9 8 8 8 w b v d q 7 7 6 w d s 6 6 7 ",
"6 6 q s w 6 5 7 6 9 s d w 6 7 8 6 f i                                                     i f 6 8 7 6 w d s 9 6 7 5 6 w s q 6 6 ",
"9 6 8 q 6 3 3 5 6 s d s 6 7 7 6 0 i                                                         i 0 6 7 7 6 s d s 6 5 3 3 6 q 8 6 9 ",
"6 6 6 6 3 3 3 6 w z d 6 7 5 7 9 i                                                             i 9 7 5 7 6 d z w 6 3 3 3 6 6 6 6 ",
"8 q 6 5 3 3 7 9 s d 9 7 5 5 6 i                                                                 i 6 7 5 7 9 d s 9 7 3 3 5 6 q 8 ",
"q 9 6 3 3 3 6 q s q 6 7 7 6 i                                                                     i 6 7 7 6 q s q 6 3 3 3 6 9 q ",
"5 d z 5 3 5 s d 8 9 d 0 d i                                                                         i d 0 d 9 8 s s 7 3 5 z d 5 ",
"3 i 5 5 5 6 d 7 s 0 G z i                                                                             i z G 0 s 7 d 6 5 5 5 i 3 ",
"3 8 3 3 3 i d 6 d g b d                                                                                 d b g d 6 d i 5 3 3 8 3 ",
"c.h.3 3 3 8 5 6 z g d                                                                                     d g z 6 5 8 3 3 3 h.c.",
"l.c.h.c.h.c.5 6 s e i                                                                                     i e s 6 5 c.h.c.h.c.l.",
", h.b., c.l.c.h.l.c., c.                                                                                c., c.l.h.c.l.c., b.h., ",
"8 b., c.l.b., l.b., b.l.                                                                                l.b., b.l., b.l.c., b.8 ",
"7 l.c.l.3 5 l.c., c.l.                                                                                    l.c., c.l.5 3 l.c.l.7 ",
"i 7 l.b.3 3 9 b s s s                                                                                     s s d b 9 3 3 b.l.7 i ",
"i i b.c.3 3 6 M b s d s                                                                                 s d s b M 6 3 3 c.b.i i ",
"s s l.c.3 3 7 k ^ z d z l                                                                             l z d z Q k 7 3 3 c.l.s s ",
"s s l.c.3 3 5 t ;.b d d z l                                                                         l z d d b ;.t 7 3 3 c.l.s s ",
"l z b.l.3 3 3 9 @...b d x z                                                                         z x d b ....9 3 3 3 l.b.z l ",
"d x c.l.7 3 3 9 ^ ,...f s x x                                                                     x x s f ..,.T 9 3 3 7 l.c.x d ",
"d A l.g.6 3 5 8 k ,.1.k h s s                                                                     i s h k 1.,.k 8 5 3 6 g.l.A d ",
"h D g.g.9 5 5 8 t ;.,.Z e z c                                                                     c z e Z ,.;.t 8 5 5 9 g.g.D h ",
"0 G >.l.0 5 5 8 0 ..,.` r d c                                                                     c d r ` ,...0 8 5 5 0 l.>.G w ",
"6 v ;.g.f 6 5 8 w Y ,.,.j d x c                                                                 c x d j ,.,.Y w 8 5 6 f g.;.h 6 ",
"3 d L 1.j 0 7 8 a g >.5.Z e z c                                                                 c z e Z 5.>.g a 8 7 0 k 1.I d 3 ",
"3 6 A y.T e 5 7 i t @.p.^ r z c                                                                 c z r ^ p.@.t i 7 5 e T y.A 6 3 ",
"1 7 z e.` g 6 7 8 w ^ y...g d c                                                                 c d g ..y.^ w 8 7 6 g ` e.z 7 1 ",
"1 5 d 8.>.j 9 7 8 s k 3.1.j t x                                                                 x t j 1.3.k s 8 7 9 j ,.8.d 5 1 ",
"1 3 d %.e.Z e 6 q d g ;.5.Z e z c                                                             c z e Z 5.;.g d q 6 e Z e.%.d 3 1 ",
"1 1 0 ..y.^ r 9 q z g ..p.^ r d c                                                             c d r ^ p...g z 9 9 r ^ y...0 1 1 ",
"1 1 9 Q e.@.g 9 9 d f T y.@.g d c                                                             c d g @.y.T f d 9 9 g @.e.Q 9 1 1 ",
"1 1 y U 8.1.j a = & u U <.1.j a =                                                             = a j 1.<.U u & = a j 1.8.U y 1 1 ",
"% 1 % * % * % * % % % * % * % * %                                                             % * % * % * % % % * % * % * % 1 % ",
"1 h.% j.> j.> j.d.& ; j.> j.> h.d.                                                            d.h.> j.> j.; & d.j.> j.> j.% h.1 ",
": : h.z.l.z.l.z.z.& & x.l.z.l.h.:                                                             : h.l.z.l.x.& & z.z.l.z.l.z.h.: : ",
": : : h.c.f.c.f.v.- % h.c.f.c.f.:                                                             : f.c.f.c.h.% - v.f.c.f.c.h.: : : ",
"h.: h.. b.: b.: b.# . O b.: b.: h.                                                            h.: b.: b.O . # b.: b.: b.. h.: h.",
"o o . . o # # # $ X . . o # # # $                                                             $ # # # o . . X $ # # # o . . o o "
};
