/* XPM */
static char * east_xpm[] = {
"64 64 6 1",
" 	c #BF3326",
".	c #7B1A18",
"+	c #731717",
"@	c #93231D",
"#	c #B32F24",
"$	c #8E221D",
"                                                                ",
"                                                                ",
"                                                                ",
"                                                                ",
"                                                                ",
"                                                                ",
"                                                                ",
"                                                                ",
"                                                                ",
"                                                                ",
"                   .+++++++++++++++++++++++++++@                ",
"                   .+++++++++++++++++++++++++++@                ",
"                   .+++++++++++++++++++++++++++@                ",
"                   .+++++++++++++++++++++++++++@                ",
"                   .+++++++++++++++++++++++++++@                ",
"                   .+++++#                                      ",
"                   .+++++#                                      ",
"                   .+++++#                                      ",
"                   .+++++#                                      ",
"                   .+++++#                                      ",
"                   .+++++#                                      ",
"                   .+++++#                                      ",
"                   .+++++#                                      ",
"                   .+++++#                                      ",
"                   .+++++#                                      ",
"                   .+++++#                                      ",
"                   .+++++#                                      ",
"                   .+++++#                                      ",
"                   .++++++++++++++++++++++++++$                 ",
"                   .++++++++++++++++++++++++++$                 ",
"                   .++++++++++++++++++++++++++$                 ",
"                   .++++++++++++++++++++++++++$                 ",
"                   .++++++++++++++++++++++++++$                 ",
"                   .+++++#                                      ",
"                   .+++++#                                      ",
"                   .+++++#                                      ",
"                   .+++++#                                      ",
"                   .+++++#                                      ",
"                   .+++++#                                      ",
"                   .+++++#                                      ",
"                   .+++++#                                      ",
"                   .+++++#                                      ",
"                   .+++++#                                      ",
"                   .+++++#                                      ",
"                   .+++++#                                      ",
"                   .+++++#                                      ",
"                   .+++++#                                      ",
"                   .+++++#                                      ",
"                   .+++++#                                      ",
"                   .+++++#                                      ",
"                   .++++++++++++++++++++++++++++#               ",
"                   .++++++++++++++++++++++++++++#               ",
"                   .++++++++++++++++++++++++++++#               ",
"                   .++++++++++++++++++++++++++++#               ",
"                   .++++++++++++++++++++++++++++#               ",
"                                                                ",
"                                                                ",
"                                                                ",
"                                                                ",
"                                                                ",
"                                                                ",
"                                                                ",
"                                                                ",
"                                                                "};
