/* XPM */
static char * floor_xpm[] = {
"64 64 254 2",
"  	c #DEDEDE",
". 	c #505050",
"+ 	c #010101",
"@ 	c #000000",
"# 	c #020202",
"$ 	c #464646",
"% 	c #D9D9D9",
"& 	c #F1F1F1",
"* 	c #818181",
"= 	c #030303",
"- 	c #161616",
"; 	c #B7B7B7",
"> 	c #FAFAFA",
", 	c #FDFDFD",
"' 	c #E8E8E8",
") 	c #6C6C6C",
"! 	c #242424",
"~ 	c #C4C4C4",
"{ 	c #F8F8F8",
"] 	c #9F9F9F",
"^ 	c #080808",
"/ 	c #040404",
"( 	c #9D9D9D",
"_ 	c #F7F7F7",
": 	c #FCFCFC",
"< 	c #F4F4F4",
"[ 	c #939393",
"} 	c #090909",
"| 	c #A6A6A6",
"1 	c #B6B6B6",
"2 	c #191919",
"3 	c #7B7B7B",
"4 	c #EDEDED",
"5 	c #A7A7A7",
"6 	c #898989",
"7 	c #F2F2F2",
"8 	c #CECECE",
"9 	c #363636",
"0 	c #5B5B5B",
"a 	c #E2E2E2",
"b 	c #FFFFFF",
"c 	c #EAEAEA",
"d 	c #747474",
"e 	c #272727",
"f 	c #545454",
"g 	c #373737",
"h 	c #8E8E8E",
"i 	c #0D0D0D",
"j 	c #181818",
"k 	c #B9B9B9",
"l 	c #B1B1B1",
"m 	c #0F0F0F",
"n 	c #555555",
"o 	c #9A9A9A",
"p 	c #FEFEFE",
"q 	c #C2C2C2",
"r 	c #525252",
"s 	c #7D7D7D",
"t 	c #909090",
"u 	c #575757",
"v 	c #E0E0E0",
"w 	c #A9A9A9",
"x 	c #0C0C0C",
"y 	c #393939",
"z 	c #CFCFCF",
"A 	c #CACACA",
"B 	c #303030",
"C 	c #101010",
"D 	c #B5B5B5",
"E 	c #D7D7D7",
"F 	c #474747",
"G 	c #989898",
"H 	c #F6F6F6",
"I 	c #ACACAC",
"J 	c #777777",
"K 	c #ECECEC",
"L 	c #FBFBFB",
"M 	c #252525",
"N 	c #585858",
"O 	c #E1E1E1",
"P 	c #DDDDDD",
"Q 	c #515151",
"R 	c #CDCDCD",
"S 	c #E6E6E6",
"T 	c #656565",
"U 	c #171717",
"V 	c #B3B3B3",
"W 	c #F5F5F5",
"X 	c #C6C6C6",
"Y 	c #2A2A2A",
"Z 	c #050505",
"` 	c #979797",
" .	c #EBEBEB",
"..	c #DADADA",
"+.	c #6D6D6D",
"@.	c #DCDCDC",
"#.	c #707070",
"$.	c #E5E5E5",
"%.	c #717171",
"&.	c #C9C9C9",
"*.	c #858585",
"=.	c #F0F0F0",
"-.	c #BCBCBC",
";.	c #AAAAAA",
">.	c #0E0E0E",
",.	c #E9E9E9",
"'.	c #AFAFAF",
").	c #C5C5C5",
"!.	c #2C2C2C",
"~.	c #333333",
"{.	c #D6D6D6",
"].	c #434343",
"^.	c #F9F9F9",
"/.	c #B2B2B2",
"(.	c #626262",
"_.	c #535353",
":.	c #8A8A8A",
"<.	c #131313",
"[.	c #B0B0B0",
"}.	c #BFBFBF",
"|.	c #262626",
"1.	c #D5D5D5",
"2.	c #444444",
"3.	c #CBCBCB",
"4.	c #1B1B1B",
"5.	c #8B8B8B",
"6.	c #929292",
"7.	c #A3A3A3",
"8.	c #737373",
"9.	c #BEBEBE",
"0.	c #1C1C1C",
"a.	c #4E4E4E",
"b.	c #4D4D4D",
"c.	c #070707",
"d.	c #959595",
"e.	c #6E6E6E",
"f.	c #2F2F2F",
"g.	c #9C9C9C",
"h.	c #292929",
"i.	c #848484",
"j.	c #121212",
"k.	c #919191",
"l.	c #3B3B3B",
"m.	c #565656",
"n.	c #A2A2A2",
"o.	c #060606",
"p.	c #2D2D2D",
"q.	c #BBBBBB",
"r.	c #212121",
"s.	c #7A7A7A",
"t.	c #DBDBDB",
"u.	c #454545",
"v.	c #666666",
"w.	c #878787",
"x.	c #787878",
"y.	c #151515",
"z.	c #D2D2D2",
"A.	c #3E3E3E",
"B.	c #B4B4B4",
"C.	c #343434",
"D.	c #494949",
"E.	c #EEEEEE",
"F.	c #797979",
"G.	c #111111",
"H.	c #ABABAB",
"I.	c #E3E3E3",
"J.	c #5F5F5F",
"K.	c #8F8F8F",
"L.	c #F3F3F3",
"M.	c #888888",
"N.	c #6A6A6A",
"O.	c #4C4C4C",
"P.	c #2B2B2B",
"Q.	c #7F7F7F",
"R.	c #A4A4A4",
"S.	c #1F1F1F",
"T.	c #4A4A4A",
"U.	c #D8D8D8",
"V.	c #B8B8B8",
"W.	c #E7E7E7",
"X.	c #5A5A5A",
"Y.	c #D4D4D4",
"Z.	c #BDBDBD",
"`.	c #282828",
" +	c #5E5E5E",
".+	c #767676",
"++	c #676767",
"@+	c #696969",
"#+	c #BABABA",
"$+	c #4F4F4F",
"%+	c #C0C0C0",
"&+	c #CCCCCC",
"*+	c #A5A5A5",
"=+	c #DFDFDF",
"-+	c #EFEFEF",
";+	c #808080",
">+	c #0B0B0B",
",+	c #C3C3C3",
"'+	c #E4E4E4",
")+	c #A8A8A8",
"!+	c #1A1A1A",
"~+	c #D3D3D3",
"{+	c #3D3D3D",
"]+	c #606060",
"^+	c #353535",
"/+	c #949494",
"(+	c #1D1D1D",
"_+	c #7C7C7C",
":+	c #6B6B6B",
"<+	c #404040",
"[+	c #3C3C3C",
"}+	c #C1C1C1",
"|+	c #C7C7C7",
"1+	c #0A0A0A",
"2+	c #222222",
"3+	c #3A3A3A",
"4+	c #5C5C5C",
"5+	c #999999",
"6+	c #141414",
"7+	c #C8C8C8",
"8+	c #AEAEAE",
"9+	c #ADADAD",
"0+	c #4B4B4B",
"a+	c #646464",
"b+	c #727272",
"c+	c #828282",
"d+	c #686868",
"e+	c #A1A1A1",
"f+	c #595959",
"g+	c #424242",
"h+	c #383838",
"i+	c #3F3F3F",
"j+	c #8D8D8D",
"k+	c #1E1E1E",
"l+	c #757575",
"m+	c #6F6F6F",
"n+	c #9E9E9E",
"o+	c #868686",
"p+	c #484848",
"q+	c #D1D1D1",
"r+	c #8C8C8C",
"s+	c #7E7E7E",
"t+	c #616161",
"u+	c #5D5D5D",
"v+	c #232323",
"w+	c #A0A0A0",
"x+	c #313131",
"y+	c #838383",
"z+	c #202020",
"A+	c #D0D0D0",
"B+	c #323232",
"C+	c #9B9B9B",
"D+	c #969696",
"E+	c #636363",
"  . + @ # $ % & * = @ @ - ; > , ' ) # @ # ! ~ { ] ^ @ @ / ( _ : < [ = @ + } | { 1 2 + @ # 3 4 : { 5 ^ + @ / 6 7 8 9 + @ # 0 a , ",
"b c d = @ + e f # @ # g 8 b b b b < h # + @ i 0 # @ + j k , b b b : l m + @ # n / @ + = o _ b b b p q ! # @ + r 2 + + # s 4 b b ",
"b , < t # # + + + + u v , b p p b p > w x # + + + + y z , b b p b b , A B # + + + # C D > p b p p b p E F + + + + # # G H p b p ",
"b b p > I x @ @ # J K p b b , L b b p L ~ M @ @ @ N O , b b p L b b b : P Q @ @ @ 9 R : b b b L p b b , S T + @ @ U V > b b b L ",
"W p p p : X Y Z ` W p b b L ~ 3  .p b b p ..$ = J  .p b b , % +.@.: b b p K #.# f   p b b , $.%.&., b b p 7 *.= 9 R p b b p =.*.",
"d 4 p b : ,   -.L , p b L ;.>.# u v p b p , ,.'.H , p b p ).!.= ~.A p b p , W I 4 , , b p {.].# U l : p p , ^./.v , p b p S (.# ",
"@ _.  , b b b b b b , < :.Z + @ @ 9 R : p b b b b b p > ;.<.+ @ @ U [.> p b b b b b p : }.|.+ @ + / [ H p b b b b b b , 1.2.@ @ ",
"+ + ~.3., p b b p , c ) + @ + + @ + 4./.L p b b b , < 5.# + + + + + Z 6.H p b b b , ^.7.>.@ @ + @ @ + 8.4 , p b b p , 9.e @ @ + ",
"# @ # 0./.: b b p % a.+ @ @ b.t } @ @ c.d.H b b p ,.e.# @ @ f.g.h.@ @ = 8. .b b b =.i.= @ @ j.k.l.@ @ = m.P p b b { n.i + @ = *.",
"n.i # @ o.` H : X p.@ + = ) c : q.r.+ @ # s.4 : t.a.@ @ = b.P , {.u.# @ + m.  : S v.# @ # !.).: a 0 # + @ g 3.: =.w.= @ # C ;.> ",
", 9.! # # = x.5 y.# + = 5.H p p p z.A.# # + m.B.f.+ + # )  .p p , ' v.# + + C.l $ + + + D.t., b p E.F.= # + 2 5 T # # + !.X , p ",
"b , {.2.@ + # = + @ G.H.^.b b b b , I.J.+ @ # # # @ Z K.L.b b b b p & M.# @ # = # @ # N.' p b b b b H g.^ @ + = # + + O.% , b b ",
", b p $.v.+ @ @ # P.q , b p , ^., p p =.Q.# @ @ + G.;.> b p , { , p b ^.R.m @ @ @ / 5.L.b p , ^., , b L 1 S.+ @ @ # ) ' p p , ^.",
"7 p p p & * + + T.U., p p : V.N.W.p b , _ g.^ + !.~ : p p , z X.Y., b , : Z.`.+ >.5 ^., p , P  +Z.: p p p 8 y + + 6 < , p p K .+",
"++S p b , > ] @+' , b , H ] } @ F E p b p : ; . % , b p L #+S.@ M }.: b p , Y.$+%+: p b : &+9 @ C *+_ p b , v X.| ^., b p =+n @ ",
"@ u.U., b p , ^.p b : -+;+# @ @ + e ~ : p b p { b p , _ ] >+@ @ + >.| ^.p b b { p p p > D j + @ + = 6 7 , p p { , b p : R C.+ @ ",
"@ # ! ,+p b b b b b '+J.# @ @ @ @ # >.)+> b b b b b -+* / + @ @ @ + / M.L.b b b b b _ G ^ # @ + @ + = ++,.b b b b b : D !+# @ @ ",
"/ @ + m | { , b , ~+{++ @ # J.] C + @ / 6 7 , b p '+]++ @ # A.H.^++ @ + T W., p p 4 x.# @ + S.n.O.# @ + 2.{.p p p H G o.@ + c./+",
"'.y.+ + + 6 L., -.(++ + + _+E.: ).f.+ + + :+' , ~+<+# + +  +O p P m.# + + F E , O N + + # [+R p W.:+# + + `.}+: 4 J # + # 0.D , ",
": |+~.@ @ # ) g.1+# @ = G H , p : U.b.@ @ + a.;.2++ @ + s.E., b ,  .d @ @ @ e | 3++ @ @ X.v : b , & M.# @ @ >+g.4++ @ @ 3+8 L b ",
"b , @.. # + @ @ @ @ j D L b b b b , ,.:++ + @ @ @ @ o.5+H p b b b p W [ / + @ @ @ @ # F.E.b b b b b ^.5 >+@ @ @ @ @ + X.O p b b ",
"p , p K 8.# + @ @ g 8 : , p p p p , , < t # + + + - ; L p p p , p p p L V 6++ + + / 5+H p p p p p p p : ,+|.+ + + + F.E., p p p ",
": b b b L.k.= = N =+, p b , ' -.> p b b > w >.# g 8 , b b , 7 B.W p b b , 7+B = <.D L b b p ^.D  ., b b p {.$ # / G W b b b : q ",
"8+: p b b L 9+F.4 p b p , % 0+Z /+H p b b p q a+=+p b b p ,.) + b+c , b b b t.]+3.p b b , & c++ _.P p b b p S d+B.L p b p ^.e+i ",
"Z [ H b b p : L p b p , ,+p.+ @ = J K b b p , > p b b p % a.+ @ = n P p b b , { , b b p '+T = @ + g 7+p p b , { : p b p & i.= + ",
"@ = J K b b b b b b ^.;.G.@ @ @ @ + f+  p b b b b b , ~ p.+ @ @ @ + 9 A , b b b b b p 1.u.+ @ @ @ @ !+l > b b b b b p '+T # @ @ ",
"= + + m.v , p b p L.h / # + m g+# + # h+R , , p p > 9+y.+ + = O.= # # j /.L p p p : %+`.+ + # i+^ + + ^ ` H p p p p {.$ # + # {+",
"v.@ + # ^+R : b c ) # + @ h.).E.c+# @ # 4./.> , H j+Z + @ <.9+< 5 x @ = c.[ < , { R.C # @ / K.=.; k+@ # = l+K , L 9.`.# @ + m+' ",
"=.*.# @ @ 4.V % a.@ @ + O.% , b H n+} @ @ Z ` $.e.@ @ + p.X : b L %+`.@ @ @ l+a o+= @ @ j.;.{ b , 8 [++ @ @ N t.R.C @ @ / j+L.b ",
"p ^.7.i + + c.k+# @ + :+c p p p , L #+2++ + # S.# + + b.@.p p p , , {.p++ + # 4.# + + P.~ , p p p b a 0 # + + 4./ + + <.;.^., p ",
"b p : 9.! + @ @ @ + :.< , b p L b p : q+A.# @ @ @ + ) c , b p > b p , W.T = @ @ @ # D.% : b b L p b , E.s.= + @ @ # p.,+: p b L ",
"_ b b b 1.<+# + G.w L b b L &+o+=.p b b $.4+# # / r+W b b , =+x.a , b b L.i./ # = N.c b b p c _+z , b b { 5+^ = # 0+% p b p L.K.",
"s+& p b , $.t+h.,+: b b : V !+#  +$.b p , -+_+G.w ^.p b p &+^+= A.q+p b p { n.m M.7 p b p @.O.# r.k : p p > 1 (+N.,.p p p K ) = ",
"@ u+'+, b p =.@.p b p H /+} + @ + i+~+, p p H 1.: b p > V (++ @ + r.k L p b L ~+{ b p : ).B + @ + x g.H , b , {.7 p p , t.a.+ @ ",
"@ + A.~+, p b p p p 4 J + @ + # @ @ ! q.> , p p p p H ` o.@ + # + @ >+( { p p p p p > 9+U + + + + + # ;+=.p p b p p , X f.+ @ + ",
"@ @ # v+q.: b b p =+N # @ @ 9 8.+ @ @ >.w+_ b b b K F.# @ @ !+Q.y.@ @ / ;+E.b b b L.t o.@ @ = d e @ @ # t+a p b b ^.9+y.@ @ @ @+",
":./ + @ 1+e+H : 8 ^+@ + + r   ^.7.C # @ = i.-+: O N + @ # ^+3.> ~ f.# @ = (.a : c 8.# @ # j 8+> z.2.# + @ <+z.: L.K.o.@ # / 6.W ",
"L w x + + = * [.4.# # # d 4 p , : 9.|.+ # # t+Z.h+# + + f v p p p ..O.= + # {+-.$++ + + ~.A , p p $.(.# # # r.V b++ + + 2 [.L p ",
"b : q !.@ + # # + @ Z 6.< b b b b , 1.D.+ @ # = + @ = .+c b b b b , ' m++ @ # = # @ # _.t.p b b b p -+*./ @ + = = + + C.7+: b b ",
"b b p E b.+ @ @ + G.8+L b b p p b b b '+++# @ @ + Z 6.W b b p , b b b 7 r+/ @ @ @ = b+c b b b , p b b { ] >.+ @ @ # r t.b b b , ",
"p b p p ' d++ + x+|+, p b p W U., b b , & y+# + y.8+L p b p L z.: b b , ^.)+C + = j+W p b b , ~+H b b p : V.z++ + #.c p b b b @.",
"z p p b , L.M.. t.: b b b c 8.(+V.L b b p { e+^+|+: b b b W [ ^ o H b b p : q B I ^., b b ^.w m 3 4 b b p : A+g+K.W p b b , q P.",
"!+V.L p b p > -+p p p p   r # + / g._ , p b , K p p p p K l+# + # s E., p p p c , b p , L.r+= + + 4+I., , b p K L p b p ^.w G.+ ",
"@ ^ o { b b b b b b , A ~.+ + @ @ # Q.=.p b b b b b , P u # + @ + # u+O p p b b b b , ,.e.# + @ + + [+A+, b b b b b p L.r+= @ @ ",
"+ @ + s+=., b b p L [.2 @ @ # >+@ @ @ t+O , b b b : A g @ @ + j.+ @ @ A.8 L b b b L % . @ @ @ c.+ @ @ 2+; L p b b , W.e.@ @ @ i ",
"A.+ # # J.a p p H /+/ + + ^ R.t.X.+ + + i+q+, , L l !++ + # w.'+;+# + + S.1 : , , ,+B++ + # ++  d./ + + ^ C+_ , , % . + + + F 1.",
"I.0 + @ = A.q+ .J / @ + ! %+L , 4 x.# @ + r.#+L.d.} @ + >+*+{ , _ ] 1+@ + ^ ( L.I y.+ @ = w.& , ^./.- + @ = Q.4 ~ B+# @ # v.S , ",
"b E.Q.= @ + 2+p++ @ # g+{.b b b b H o c.+ @ i $+# @ + e %+, b b b : -.r.+ @ = D.Z @ + i *+{ b b b p A ~.+ @ + $ U + + / M.& b b ",
"p , { ( c.+ + + + + T W., b p p p p L D !++ + + + + u.{., p p p p p , ~+A.+ + # + + ! 9.L , p p p p , P f + + + + # i R._ p p p ",
", b , > V.0.@ @ # i.=.p b p 7 z : p p : 3.h+@ @ + v.$., b p ^.7+^.p b : a  +@ @ @ 2.~+, b p L A L., b , ,.d + @ @ M 9.L b p L z.",
")., p p , 8 [+x e+^.p p p W.v.U I > , p p   n # i.& p p , L.*.Z r+L.: p p E.3 = (.'+p b , _ g.>+e.' : p p < k.o.].~+, b p : ; v+",
"6+H.L p , , I.q : p p p 1.F + + / t < p p , 4 ; { , b p $.@+# @ = e.,.p p , _ B.& p p p -+s+/ @ + . ..p p p > k '+p , p _ g.i @ ",
"@ Z K.< b b b b b b L }.h.@ @ @ @ # #.c p b b b b b , {.p++ @ @ @ + a..., b b b b b , '+J.+ @ @ @ @ x+|+L b b b b b p E.Q.= @ @ ",
"= + # #.K p p b p > 5 j.@ + Z e + + + .   , b b b : q P.+ # # f.# + + B 7+, b b b , ~+g++ # # e = # # 2 8+> p b b p $. ++ + # ! ",
"0+@ + # a.  , b L.w.Z # @ j '.I.+++ @ + x+7+p b L | <.+ @ ^ D+c r+= @ # U H.L b , q.M # @ # d S e+>.@ + ^ K.W b p z.<+# @ + n @.",
"W.N.# @ @ B+7+$.d+# @ + ^+7+: b & *./ @ @ j [.-+:./ @ + 2 [.L b ^.;.j @ @ = t E.w+C @ @ o.t < b : q.h.+ @ + %.' q.M @ @ # b+c p ",
"p L.6 = @ + - 3++ + + r @.p b b : ^.7.m + + c.A.# + + 9 &.: p b , , ).B + + + y = @ @ !+9+> p b p , ~+g++ + + 9 i @ @ Z 6.W p b ",
"b , ^.w G.+ @ @ @ @ %. ., b b b b p : }.`.+ @ @ @ @ _.  : p b b b p , ..b.+ @ @ @ @ ~.7+: p b b b p , '+]+@ @ @ @ @ 2 '.> p b b ",
", b b p ,+h.# # / k.< p b , : W p p b p {.].# + # 8.K p b , , < p p b b ,.) # # # r @.p b p , W , , b b =.* # # + B+|+, b p p W ",
"4 p b b : E D.6+8+> p p p ^.'.J.O p b b p $.E+= 6.W p p p : |+T.R , p b p L.:./ #.c , p b , % Q D L b p p _ n+>+r @., b p p W.N.",
"4+O p b b p S &., b b p < [ = @ [+z : b b b =.}.> b b p ^.[.j @ k+D > b b b { Z.7 b b b L ,+!.@ ^ o W p b b : }+,.p b b : U.O.+ ",
"+ A.A+, b p b p p b , K J + @ @ + z+q.: b b p p p b , < D+/ + @ + Z g._ p b p p p b p { ;.C + @ + + s+E., b p p p b p : ~ !.+ @ ",
"@ # 2 q., b b b b b P N # @ @ @ @ # o.] { b b b b b K x.= @ @ + @ + + Q.-+b b b b b L.K./ + @ @ @ @ # ]+I.b b b b b > H.G.+ @ @ ",
"c.@ @ c.( H , b , &+C.+ @ # d+;.!++ @ # s+-+, p p   u + @ # D.1 <+# @ # 0 O , , , ' #.+ @ + |.8+u # @ + [+z , p , 7 K.= @ + C e+"};
