/* XPM */
static char * nord_xpm[] = {
"64 64 79 1",
" 	c #BF3326",
".	c #7B1A18",
"+	c #731717",
"@	c #99261E",
"#	c #94241D",
"$	c #AD2D22",
"%	c #751817",
"&	c #B73024",
"*	c #B42F24",
"=	c #8F221C",
"-	c #B12E23",
";	c #89201B",
">	c #7E1B19",
",	c #AC2C22",
"'	c #A62A21",
")	c #841E1A",
"!	c #BD3326",
"~	c #841D1A",
"{	c #A82B21",
"]	c #BE3326",
"^	c #7F1C19",
"/	c #891F1B",
"(	c #A42920",
"_	c #B02E23",
":	c #7C1A19",
"<	c #BC3225",
"[	c #8E221D",
"}	c #9F2820",
"|	c #B42F23",
"1	c #781918",
"2	c #BA3125",
"3	c #93231D",
"4	c #761817",
"5	c #B83125",
"6	c #99261F",
"7	c #95241E",
"8	c #741717",
"9	c #B52F24",
"0	c #9D271F",
"a	c #90221C",
"b	c #7A1A18",
"c	c #A22920",
"d	c #8A201C",
"e	c #7E1B18",
"f	c #A72A21",
"g	c #851E1A",
"h	c #831D1A",
"i	c #AB2C22",
"j	c #801C19",
"k	c #BE3226",
"l	c #871F1B",
"m	c #A52A21",
"n	c #AF2D23",
"o	c #7C1B19",
"p	c #8D211C",
"q	c #9F281F",
"r	c #791918",
"s	c #BA3225",
"t	c #92231D",
"u	c #9B261F",
"v	c #761818",
"w	c #97251E",
"x	c #96241E",
"y	c #B93125",
"z	c #771918",
"A	c #741817",
"B	c #B53024",
"C	c #9C271F",
"D	c #91221D",
"E	c #BB3225",
"F	c #B22E23",
"G	c #8C201B",
"H	c #BD3226",
"I	c #A52A20",
"J	c #821E1B",
"K	c #AA2C22",
"L	c #AF2D22",
"M	c #8C211C",
"N	c #B32F24",
"                                                                ",
"                                                                ",
"                                                                ",
"                                                                ",
"                                                                ",
"                                                                ",
"                                                                ",
"                                                                ",
"                                                                ",
"                                                                ",
"                                                                ",
"               .+++++++@                   #+++++$              ",
"               .+++++++%&                  #+++++$              ",
"               .++++++++#                  #+++++$              ",
"               .+++++++++*                 #+++++$              ",
"               .+++++++++=                 #+++++$              ",
"               .++++++++++-                #+++++$              ",
"               .++++++++++;                #+++++$              ",
"               .+++++>+++++,               #+++++$              ",
"               .+++++'+++++)               #+++++$              ",
"               .+++++!~+++++{              #+++++$              ",
"               .+++++],+++++^]             #+++++$              ",
"               .+++++] /+++++(             #+++++$              ",
"               .+++++] _+++++:<            #+++++$              ",
"               .+++++]  [+++++}            #+++++$              ",
"               .+++++]  |+++++12           #+++++$              ",
"               .+++++]   3+++++@           #+++++$              ",
"               .+++++]   &%++++45          #+++++$              ",
"               .+++++]    6+++++7          #+++++$              ",
"               .+++++]    21++++89         #+++++$              ",
"               .+++++]     0+++++a         #+++++$              ",
"               .+++++]     <b+++++-        #+++++$              ",
"               .+++++]      c+++++d        #+++++$              ",
"               .+++++]      !e+++++$       #+++++$              ",
"               .+++++]       f+++++g       #+++++$              ",
"               .+++++]       ]h+++++{      #+++++$              ",
"               .+++++]        i+++++jk     #+++++$              ",
"               .+++++]         l+++++m     #+++++$              ",
"               .+++++]         n+++++o<    #+++++$              ",
"               .+++++]          p+++++q    #+++++$              ",
"               .+++++]          *+++++rs   #+++++$              ",
"               .+++++]           t+++++u   #+++++$              ",
"               .+++++]           &%++++v5  #+++++$              ",
"               .+++++]            w+++++x  #+++++$              ",
"               .+++++]            yz++++AB #+++++$              ",
"               .+++++]             C+++++D #+++++$              ",
"               .+++++]             Eb+++++F#+++++$              ",
"               .+++++]              c+++++G#+++++$              ",
"               .+++++]              H>+++++e+++++$              ",
"               .+++++]               I+++++++++++$              ",
"               .+++++]               ]J++++++++++$              ",
"               .+++++]                K++++++++++$              ",
"               .+++++]                 l+++++++++$              ",
"               .+++++]                 L+++++++++$              ",
"               .+++++]                  M++++++++$              ",
"               .+++++]                  N++++++++$              ",
"                                                                ",
"                                                                ",
"                                                                ",
"                                                                ",
"                                                                ",
"                                                                ",
"                                                                ",
"                                                                "};
