/* XPM */
static char * red_drapes2_xpm[] = {
"64 64 312 2",
"  	c #360100",
". 	c #440200",
"+ 	c #550401",
"@ 	c #3D0100",
"# 	c #380100",
"$ 	c #3A0100",
"% 	c #520401",
"& 	c #460200",
"* 	c #390100",
"= 	c #4F0300",
"- 	c #3B0100",
"; 	c #3E0200",
"> 	c #4F0401",
", 	c #4B0300",
"' 	c #400200",
") 	c #540401",
"! 	c #410200",
"~ 	c #370100",
"{ 	c #4C0300",
"] 	c #3F0200",
"^ 	c #4F0400",
"/ 	c #450200",
"( 	c #3D0200",
"_ 	c #780702",
": 	c #A20C04",
"< 	c #690501",
"[ 	c #5B0300",
"} 	c #620401",
"| 	c #700702",
"1 	c #790601",
"2 	c #5F0400",
"3 	c #6B0702",
"4 	c #640501",
"5 	c #820702",
"6 	c #8F0A03",
"7 	c #690601",
"8 	c #680501",
"9 	c #5E0300",
"0 	c #670400",
"a 	c #9E0D05",
"b 	c #730702",
"c 	c #5B0200",
"d 	c #660501",
"e 	c #970C04",
"f 	c #8C0A03",
"g 	c #630401",
"h 	c #770802",
"i 	c #9D0D05",
"j 	c #680602",
"k 	c #670501",
"l 	c #9D0D04",
"m 	c #780802",
"n 	c #690602",
"o 	c #8E0B04",
"p 	c #8C0903",
"q 	c #630400",
"r 	c #750802",
"s 	c #950B03",
"t 	c #620501",
"u 	c #910A03",
"v 	c #7E0701",
"w 	c #5F0300",
"x 	c #9B0C04",
"y 	c #6F0702",
"z 	c #590200",
"A 	c #A30C04",
"B 	c #790701",
"C 	c #4A0200",
"D 	c #860802",
"E 	c #A60C04",
"F 	c #740501",
"G 	c #630300",
"H 	c #6F0501",
"I 	c #7C0902",
"J 	c #830702",
"K 	c #680400",
"L 	c #6D0501",
"M 	c #940903",
"N 	c #9A0B03",
"O 	c #750702",
"P 	c #740702",
"Q 	c #780601",
"R 	c #A20D05",
"S 	c #7E0802",
"T 	c #620300",
"U 	c #700501",
"V 	c #940B03",
"W 	c #640300",
"X 	c #880902",
"Y 	c #A20E05",
"Z 	c #750501",
"` 	c #710601",
" .	c #710501",
"..	c #9E0D04",
"+.	c #850802",
"@.	c #670300",
"#.	c #970B04",
"$.	c #8E0902",
"%.	c #6D0400",
"&.	c #820902",
"*.	c #950A03",
"=.	c #770400",
"-.	c #750601",
";.	c #8C0902",
">.	c #880802",
",.	c #790702",
"'.	c #740601",
").	c #A80C04",
"!.	c #7E0902",
"~.	c #890802",
"{.	c #690400",
"].	c #920A03",
"^.	c #800601",
"/.	c #A60D04",
"(.	c #730501",
"_.	c #9E0C04",
":.	c #940A03",
"<.	c #660300",
"[.	c #8F0903",
"}.	c #790501",
"|.	c #770501",
"1.	c #9A0C04",
"2.	c #680300",
"3.	c #980B04",
"4.	c #8F0902",
"5.	c #6F0500",
"6.	c #830902",
"7.	c #7B0501",
"8.	c #730601",
"9.	c #970B03",
"0.	c #8F0802",
"a.	c #7B0601",
"b.	c #A80D04",
"c.	c #8B0802",
"d.	c #4B0200",
"e.	c #800802",
"f.	c #6B0400",
"g.	c #9B0B03",
"h.	c #770702",
"i.	c #830601",
"j.	c #830701",
"k.	c #6C0501",
"l.	c #740802",
"m.	c #980C04",
"n.	c #890702",
"o.	c #910902",
"p.	c #700500",
"q.	c #830802",
"r.	c #820601",
"s.	c #7C0702",
"t.	c #7C0601",
"u.	c #780501",
"v.	c #820802",
"w.	c #8E0802",
"x.	c #6C0401",
"y.	c #950903",
"z.	c #7B0701",
"A.	c #860601",
"B.	c #AA0D04",
"C.	c #850601",
"D.	c #9D0C04",
"E.	c #920903",
"F.	c #690300",
"G.	c #7B0500",
"H.	c #8C0701",
"I.	c #920902",
"J.	c #710500",
"K.	c #920802",
"L.	c #510300",
"M.	c #9A0A03",
"N.	c #830501",
"O.	c #8F0701",
"P.	c #730400",
"Q.	c #910802",
"R.	c #8C0802",
"S.	c #6D0401",
"T.	c #7E0501",
"U.	c #A30D04",
"V.	c #A00C04",
"W.	c #6B0300",
"X.	c #850501",
"Y.	c #850500",
"Z.	c #8E0601",
"`.	c #6C0300",
" +	c #9B0B04",
".+	c #7C0501",
"++	c #4E0200",
"@+	c #6F0401",
"#+	c #9D0B03",
"$+	c #7F0501",
"%+	c #880601",
"&+	c #940902",
"*+	c #910701",
"=+	c #710300",
"-+	c #8E0701",
";+	c #6C0400",
">+	c #640200",
",+	c #4F0200",
"'+	c #700400",
")+	c #800501",
"!+	c #890501",
"~+	c #820500",
"{+	c #860701",
"]+	c #6D0300",
"^+	c #6F0400",
"/+	c #670200",
"(+	c #500200",
"_+	c #630200",
":+	c #880702",
"<+	c #A20D04",
"[+	c #790400",
"}+	c #8C0702",
"|+	c #830500",
"1+	c #820501",
"2+	c #6F0300",
"3+	c #740400",
"4+	c #8E0702",
"5+	c #8F0702",
"6+	c #710400",
"7+	c #8B0702",
"8+	c #700300",
"9+	c #7B0702",
"0+	c #940802",
"a+	c #510200",
"b+	c #860501",
"c+	c #520200",
"d+	c #830400",
"e+	c #8C0601",
"f+	c #8B0501",
"g+	c #790802",
"h+	c #890601",
"i+	c #880501",
"j+	c #820400",
"k+	c #8B0601",
"l+	c #780500",
"m+	c #770601",
"n+	c #890701",
"o+	c #950902",
"p+	c #7E0500",
"q+	c #A50C04",
"r+	c #880500",
"s+	c #560200",
"t+	c #780400",
"u+	c #750400",
"v+	c #860500",
"w+	c #570300",
"x+	c #970A03",
"y+	c #980A03",
"z+	c #AF0C04",
"A+	c #800500",
"B+	c #9E0B03",
"C+	c #AD0C04",
"D+	c #970902",
"E+	c #7E0400",
"F+	c #AF0D04",
"G+	c #B00C04",
"H+	c #800400",
"I+	c #A00B03",
"J+	c #980902",
"K+	c #7F0400",
"L+	c #B20D04",
"M+	c #B00D04",
"N+	c #770300",
"O+	c #850400",
"P+	c #7B0802",
"Q+	c #610300",
"R+	c #700401",
"S+	c #590300",
"T+	c #A50B04",
"U+	c #4D0601",
"V+	c #3A0801",
"W+	c #3D0801",
"X+	c #520601",
"Y+	c #380B01",
"Z+	c #740500",
"`+	c #750500",
" @	c #510600",
".@	c #390701",
"+@	c #520600",
"@@	c #360B01",
"#@	c #400801",
"$@	c #570601",
"%@	c #330A01",
"&@	c #370B01",
"*@	c #510801",
"=@	c #410801",
"-@	c #3E0801",
";@	c #580701",
">@	c #350A01",
",@	c #5E0400",
"'@	c #2C1301",
")@	c #3C1801",
"!@	c #221101",
"~@	c #1E0F01",
"{@	c #B85700",
"]@	c #FFC700",
"^@	c #301702",
"/@	c #231101",
"(@	c #C75A00",
"_@	c #C96200",
":@	c #FFDD00",
"<@	c #2E1202",
"[@	c #FFB200",
"}@	c #1E0E02",
"|@	c #FFB800",
"1@	c #FFDB00",
"2@	c #250D04",
"3@	c #401100",
"4@	c #582100",
"5@	c #0A0306",
"6@	c #030307",
"7@	c #502002",
"  . + @ # # $ % & # * * . = * * # - + ; # # * > , # # * ' ) * * * # + ! * # ~ { > * # # ] + - # * # ^ / * * # / + ( # ~ - + / # ",
". _ : < [ } | : 1 2 3 4 5 6 7 8 9 0 a b 2 c d e f [ g 3 h i } j k 9 l m n 9 [ o p q [ 4 r s 0 2 3 t u v 8 8 w 1 x y 2 z < A B z ",
"C D E F G H I E J K h L M N O P K Q R S K T U x V W L h X Y Z r `  ...+.r @.@.#.$.%.G H &.*.=.K h -.s ;.b b 0 >.E ,.K T '.E 5 T ",
"C D ).-.G H !.).~.{.h L ].N P b K ^./.5 K T (._.:.<.L h [.Y }.O ` |.1.;.r <.2.3.4.5.G H 6.*.7.K h 8.9.0.b b K ~.E ,.K T a.b.c.G ",
"d.D ).(.G H e.).~.f.h -.:.g.h.b {.i.).j.K T (._.:.@.k.h $.Y }.l.` }.m.n.r <.@.#.o.p.G H q.*.r.K h -.9.0.P b K ~.).s.K T t.).c.G ",
"d.D ).u.G H v.).w.x.h -.y.g.z.b f.A.B.C.K T Q D.E.F.L h o.Y G.h.` }.m.H.r @.F.3.I.J.G H J *.C.K h a.9.K.P b {.c.).B K T t.B.c.<.",
"L.>.).}.G H v.).c.x.h -.M.N t.b f.A.B.C.K T 7.D.E.F.L m I.Y N.O ` N.m.O.P W F.3.I.P.G H c.*.A.{.h a.9.Q.b b f.c.).1 K T t.B.c.<.",
"= ~.).}.G H v.).R.S.h -.M.N T.b K j.U.A.K T 7.V.M W.L m I.Y X.r '.Y.l Z.P W `. +I.P.G H c.*.A.f.h .+9.Q.'.b f.c.).t.K T r.).c.<.",
"++~.).7.G H v.).w.@+h -.M.#+$+b K J R %+K T 7.V.&+W.L m I.Y X.r '.X...*+P <.=+ +I.P.G H -+*.A.;+h .+9.K.-.b %.o.E i.K T i.).c.>+",
",+c.).$+G H i.).w.'+h -.M.#+)+b K J R !+K T }._.&+W.L m I.Y ~+r '.{+..*+b W ]+ +I.P.G U -+*.A.^+h .+9.0.a.b %.o.V.i.K T i.).R./+",
"(+w.).$+_+H i.).0.'+h .+M.#+$+b K :+<+!+K T 7.V.&+W.L ,.I.Y Y.h '.{+l Z.` W =+ +I.[+G U -+*.A.%.h T.9.w.t.b ^+Q.V.X.K T i.).}+2.",
"(+w.).|+_+H i.).w.'+h .+M.N 1+b f.c.<+!+K T 7.V.&+2+L ,.I.Y Y.h '.%+m.Z.` <.=+ +I.3+G J.-+*.A.x.h C.9.w.t.b ^+Q.V.X.K T i.).4+F.",
"(+w.).|+_+H i.).5+6+h .+M.N ~+'.f.7+).!+K T 7.V.&+8+L 9+I.Y Y.h '.%+1.Z.(.W P.D.I.[+G H 0+9.C.x.h A.9.K.$+b ^+I.V.|+K T C.).4+F.",
"a+0.).|+_+H X.).5+6+h .+M.g.1+8.f.c.).!+K T )+V.&+8+L 9+I.Y ~+h '.%+..Z.(.W P.D.I.[+G U Q.9.C.x.m A.9.K.$+b ^+I.V.|+K T b+).5+W.",
"c+Q.).|+_+H b+).5+6+h T.M.N 1+8.f.c.).!+f.T $+V.&+8+L 9+I.D.d+m '.%+..e+F W P.D.I.[+G J.0+9.A.S.m N.9.K.T.b '+&+).|+K @.b+).5+W.",
"(+Q.).|+G H f+).5+6+h T.N N ~+'.;+R.).!+'+T $+V.&+8+L 7.I.x d+g+'.{+_.e+}.W P.D.K.[+G J.*+9.h+@+m N.3.K.T.b '+&+E d+K @.!+).5+W.",
",+o.E |+G H i+).5+P.h T.N N ~+'.;+R.).X.K T $+).&+8+L 7.I.x j+m '.A...Z.}.W P.D.I.[+G J.*+9.k+'+h ~+3.Q.T.b '+&+E d+K @.f+).5+W.",
"(+&+V.|+G H !+).5+l+h T.N N ~+'.;+R.).i+%.T $+: &+8+L 7.&+i j+h m+n+..Z.}.W P.D.K.[+G J.*+9.h+@+m |+3.w.T.P '+o+E d+K @.f+).4+F.",
"(+&+V.d+G H !+).5+l+h $+N N ~+'.%.}+).!+'+<.)+V.&+8+L p+I.D.j+h -.%+..Z.}.W [+D.K.[+G J.5+s h+H m |+3.w.T.b '+&+q+r+K @.f+).5+W.",
"s+y.V.d+G H !+).5+l+h 1+g.g.~+'.%.4+).!+'+T |+E &+8+L p+I.x j+h -.%+..Z.}.W [+D.Q.t+G J.0+9.h+U m |+ +w.T.b u+&+_.v+K @.f+).5+W.",
"w+y.V.d+G H !+).5+l+h T.g.g.~+'.^+4+).!+'+T |+).&+=+L p+o+x j+h -.%+..Z.}.W [+D.I.[+G t+Q.x+h+U m |+..w.T.b =.&+_.v+K 0 k+B.5+8+",
"w+y+E |+G U f+z+5+|.h A+B+#+~+'.'+5+z+!+'+T |+C+Q.=.L p+D+g.j+h m+h+q+k+}.W [+_.I.E+G t+0+x+k+U m b+..w.T.b =.x+q+v+K @.k+F+5+`.",
"w+M.).|+G H f+G+5+|.h H+I+#+~+'.'+5+G+!+'+T |+z+Q.=.L p+J+g.j+h m+n+).!+}.W [+V.I.K+G t+0+9.k+'+m i+..K.)+b =.y+).v+K @.e+L+5+W.",
"w+M.).|+G H f+G+5+|.h H+I+#+~+'.'+5+G+!+'+T |+z+Q.=.L p+o+g.j+h m+n+).!+}.W [+V.Q.E+G t+0+9.h+@+m %+..0.T.b =.y+).v+K @.k+M+5+W.",
"w+M.).|+G H f+G+5+|.h H+I+#+~+'.'+5+G+!+'+T |+z+Q.N+L p+o+g.j+h m+n+).!+}.W [+V.Q.E+_+t+*+9.h+U m %+..w.T.b =.y+).v+K @.k+M+5+W.",
"w+M.).|+G H f+G+5+|.h H+I+#+~+'.'+5+G+!+'+T |+z+Q.=.L p+o+g.j+h m+n+).!+}.W [+V.I.K+G t+0+9.k+U m %+..w.T.8.=.y+).v+K @.k+M+5+W.",
"w+M.).Y.G H f+G+5+l+h H+I+#+~+'.'+5+G+!+'+T |+z+Q.=.L p+o+g.j+h m+n+).!+}.W [+V.I.K+G t+0+9.k+U m %+_.w.T.8.=.y+).v+K @.k+M+5+W.",
"w+M.).r+G H f+G+5+|.h H+I+#+~+'.'+5+G+!+'+T |+z+0.N+L p+o+g.d+g+m+n+).!+}.W [+V.I.K+G t+0+9.k+'+m i+..Q.)+P =.y+).v+K @.k+M+5+W.",
"w+M.).r+G H f+G+5+|.h H+I+#+~+'.'+5+G+!+'+T |+z+Q.=.L p+o+g.j+h m+n+).!+}.W [+V.Q.E+G t+Q.9.k+@+m i+..w.T.P =.y+).v+K @.k+M+5+W.",
"w+M.).Y.G H f+G+5+|.h H+I+#+~+'.'+5+G+!+'+T |+z+Q.=.L p+o+g.j+h m+n+).!+}.W [+V.Q.E+G t+Q.9.k+@+m %+..w.T.b =.y+).v+K @.k+M+5+W.",
"w+M.).Y.G H f+G+5+|.h H+I+#+~+'.'+5+G+!+'+T |+z+Q.=.L p+o+g.j+m m+n+).!+}.W [+V.Q.E+G t+Q.9.k+@+m %+..w.$+b =.y+).v+K @.k+M+5+W.",
"w+M.).r+G H f+G+5+|.h H+I+#+~+'.'+5+G+!+'+T |+z+Q.=.L p+o+g.O+P+m+n+).!+}.W [+V.I.K+G t+0+9.k+U m %+_.w.$+b =.y+).v+K @.k+M+5+W.",
"w+M.).|+G U f+G+5+|.h H+I+#+~+'.'+5+G+!+'+T |+z+0.=.L p+J+g.j+h m+n+).!+}.W [+V.I.K+G t+0+x+k+'+m i+..0.$+b =.y+).v+K @.k+M+5+W.",
"w+M.).|+G J.f+G+5+|.h H+I+#+~+'.'+5+G+!+'+T |+z+0.=.L p+o+g.j+h m+n+).!+}.W [+V.K.K+G t+Q.9.k+@+m %+..K.$+b =.y+).v+K @.k+M+5+W.",
"w+M.).r+G U f+G+5+|.h H+I+#+~+'.'+5+G+!+'+T |+z+Q.=.L p+J+g.j+m m+n+).!+}.W [+V.Q.E+G t+0+9.h+H m %+..w.T.b =.y+).v+K @.k+M+5+W.",
"w+M.).r+G H f+G+5+|.h H+I+#+~+'.'+5+G+!+'+T |+z+Q.=.L p+o+g.O+g+m+n+).!+}.W [+V.Q.E+_+t+*+9.h+U m %+..w.T.8.=.y+).v+K @.k+M+5+W.",
"w+M.).r+G H f+G+5+|.h H+I+#+~+'.'+5+G+!+'+Q+|+z+Q.=.L p+o+g.j+h m+n+).!+}.W [+V.I.K+G t+0+9.k+R+m %+..w.T.8.=.y+).v+K @.k+M+5+W.",
"w+M.).Y.G H f+G+5+|.h H+I+#+~+'.'+5+G+!+'+Q+|+z+Q.=.L p+J+g.j+h m+n+).!+}.W [+V.I.K+G t+0+9.k+R+m i+..w.T.8.=.y+).v+K @.k+M+5+W.",
"w+M.).|+G H f+G+5+|.h H+I+#+~+'.'+5+G+!+'+T |+z+Q.=.L p+J+g.j+h m+n+).!+}.W [+V.I.K+G t+0+9.k+'+m i+..w.T.8.=.y+).v+K @.e+L+5+W.",
"w+M.).|+G H f+G+5+|.h H+I+#+~+'.'+5+G+!+'+T |+z+Q.=.L p+o+g.j+h m+n+).!+}.W [+V.Q.E+G t+0+9.k+'+m i+..w.$+b =.y+).v+K @.k+M+5+W.",
"w+M.).|+G H f+G+5+|.h H+I+#+~+'.'+5+G+!+'+T |+z+Q.N+L p+o+g.j+h m+n+).!+}.W [+V.Q.E+G t+*+9.h+@+m %+..w.T.b =.y+).v+K @.k+M+5+W.",
"w+M.).|+G H f+G+5+|.h H+I+#+~+'.'+5+G+!+'+T |+z+Q.=.L p+o+g.j+h m+n+).!+}.W [+V.I.K+G t+0+9.k+'+m %+..w.T.b =.y+).v+K @.k+M+5+W.",
"w+M.).|+G H f+G+5+|.h H+I+#+~+'.'+5+G+!+'+T |+z+Q.=.L p+o+g.j+h m+n+).!+}.W [+V.I.K+G t+0+9.k+U m %+..w.T.b =.y+).v+K @.k+M+5+W.",
"S+M.).r+G H f+G+5+|.h H+I+#+~+'.'+5+G+!+'+T |+z+Q.=.L p+o+g.d+g+m+n+).!+}.W [+V.I.K+_+t+Q.9.h+U m %+..w.T.8.t+M.).v+K @.k+M+5+W.",
"S+M.).r+G H f+G+5+|.h H+I+#+~+'.'+5+G+!+'+Q+|+z+Q.=.L p+o+N j+h m+n+).!+}.W [+V.I.K+G t+*+x+k+@+m %+..w.T.8.=.y+).v+K @.k+M+5+W.",
"S+M.).Y.G U f+G+5+|.h H+I+#+~+'.'+5+G+!+'+Q+|+z+0.=.L p+o+g.j+h m+n+).!+}.W [+V.I.E+G t+*+x+k+U m i+..w.T.8.=.y+).v+K @.k+M+5+W.",
"S+M.).Y.G U f+G+5+|.h H+I+#+~+'.'+5+G+!+'+T |+z+5+=.L p+o+g.j+m m+n+).!+}.W [+V.Q.K+G t+*+x+h+U m i+..w.T.8.=.y+).v+K @.k+M+5+W.",
"S+M.).r+G H f+G+5+|.h H+I+#+~+'.'+5+G+!+'+T |+z+0.=.L p+o+g.O+P+m+n+).!+}.W [+V.Q.E+G t+0+9.h+U m %+..w.$+b =.y+).v+K @.k+M+5+W.",
"S+M.).|+G H f+G+5+|.h H+I+#+~+'.'+5+G+!+'+T |+z+Q.=.L p+J+g.j+h m+n+).!+}.W [+V.I.E+G t+0+9.h+U m i+..0.1+b =.y+).v+K @.k+M+5+W.",
"S+M.).|+G H f+G+5+|.h H+I+#+~+'.'+5+G+!+'+T |+z+Q.=.L p+o+g.d+g+m+n+).!+}.W [+V.Q.E+G t+0+9.k+U m %+..K.T.8.=.y+).v+K @.k+M+5+W.",
"S+M.).Y.G H k+G+5+l+h H+I+#+~+'.'+5+G+!+'+w |+z+Q.=.L p+o+g.j+h m+n+).!+}.W [+_.Q.E+_+t+0+9.k+'+m %+..w.T.8.=.y+).v+K @.k+M+5+W.",
"S+M.).Y.G H k+G+5+|.h H+I+#+~+'.'+5+G+!+'+T |+z+Q.=.L p+o+g.j+h m+n+).!+}.W [+T+I.K+_+t+0+9.k+'+m %+..w.T.8.=.y+).v+K @.k+M+5+W.",
"S+M.).r+G H f+G+5+|.h H+I+#+~+'.'+5+G+!+'+T |+z+Q.=.L p+o+g.j+h m+n+).!+}.W [+: I.K+G t+*+9.k+@+m i+..w.T.8.=.y+).v+K @.k+M+5+W.",
"S+M.).Y.G U f+G+5+|.h H+I+#+~+'.'+5+G+!+'+T |+z+Q.=.L p+o+g.j+h m+n+).!+}.W [+: Q.E+G t+0+x+k+U m i+..w.T.8.=.y+).v+K @.k+M+5+W.",
"S+M.).|+G H f+G+5+|.h H+I+#+~+'.'+5+G+!+'+T |+z+Q.=.L p+o+g.d+g+m+n+).!+}.W [+V.Q.E+_+t+0+x+k+'+m i+..w.T.8.=.y+).v+K @.k+M+5+W.",
"S+M.).|+G H f+G+5+|.h H+I+#+~+'.'+5+G+!+'+w |+z+Q.=.L p+o+g.j+h m+n+).!+}.W [+V.I.K+_+t+0+9.k+U m i+..w.1+b =.y+).v+K @.k+M+5+W.",
"S+M.).|+G H f+G+5+|.h H+I+#+~+'.'+5+G+!+'+T |+z+Q.=.L p+o+g.j+h m+n+).!+}.W [+V.I.K+_+t+Q.9.h+U m %+..w.T.b =.y+).v+K @.k+M+5+W.",
"S+M.).|+G H f+G+5+|.h H+I+#+~+'.'+5+G+!+'+T |+z+Q.=.L p+o+g.d+g+m+n+).!+}.W [+V.I.K+G t+0+9.k+U m %+..w.T.b =.y+).v+K @.k+M+5+W.",
"S+M.).|+G H f+G+5+|.h H+I+#+~+'.'+5+G+!+'+T |+z+Q.=.L p+o+g.d+P+m+n+).!+}.W [+V.I.K+_+t+0+x+k+U m %+..w.T.b =.y+).v+K @.k+M+5+W.",
"U+M.).|+V+W+f+G+5+X+Y+Z+I+#+`+Y+ @5+G+!+W+.@|+z+Q.+@@@J.o+g.`+Y+X+n+).!+#@V+[+V.I.$@%@5.0+9.t.&@*@%+..w.=@-@=.y+).;@>@,@k+M+e.>@",
"'@'@)@)@!@!@)@)@'@'@~@)@'@'@)@~@'@'@)@)@!@!@)@)@'@'@~@)@'@'@)@~@'@'@)@)@!@!@)@)@'@'@~@)@'@'@)@~@'@'@)@)@!@!@)@)@'@'@~@)@'@'@)@~@",
"{@{@]@]@^@^@]@]@{@{@/@]@{@{@]@/@{@{@]@]@^@^@]@]@{@{@/@]@{@{@]@/@{@{@]@]@^@^@]@]@{@{@/@]@{@{@]@/@{@{@]@]@^@^@]@]@{@{@/@]@{@{@]@/@",
"(@_@:@:@<@<@[@[@_@(@}@|@_@_@1@}@(@_@:@:@<@<@:@:@_@(@}@1@_@_@1@}@(@_@:@:@<@<@:@:@_@(@}@1@_@_@1@}@(@_@:@:@<@<@:@:@_@(@}@1@_@_@1@}@",
"2@3@4@4@5@5@4@4@3@2@6@7@3@3@7@6@2@3@4@4@5@5@4@4@3@2@6@7@3@3@7@6@2@3@4@4@5@5@4@4@3@2@6@7@3@3@7@6@2@3@4@4@5@5@4@4@3@2@6@7@3@3@7@6@"};
