/* XPM */
static char * red_drapes_xpm[] = {
"64 64 566 2",
"  	c #741000",
". 	c #841704",
"+ 	c #94200D",
"@ 	c #7C1302",
"# 	c #771101",
"$ 	c #781201",
"% 	c #7A1302",
"& 	c #92200D",
"* 	c #861805",
"= 	c #781202",
"- 	c #851806",
"; 	c #8E1E0A",
"> 	c #7B1301",
", 	c #94210E",
"' 	c #7E1504",
") 	c #781101",
"! 	c #8E1F0D",
"~ 	c #8A1C08",
"{ 	c #761100",
"] 	c #801705",
"^ 	c #92210D",
"/ 	c #811806",
"( 	c #8B1D09",
"_ 	c #8E1F0C",
": 	c #7F1604",
"< 	c #94220F",
"[ 	c #761101",
"} 	c #8F1E0B",
"| 	c #861A07",
"1 	c #851805",
"2 	c #93210D",
"3 	c #7D1403",
"4 	c #7B1302",
"5 	c #93210E",
"6 	c #851704",
"7 	c #841503",
"8 	c #AF2914",
"9 	c #CB371F",
"0 	c #A4220E",
"a 	c #981A04",
"b 	c #9E210D",
"c 	c #A92A15",
"d 	c #B02812",
"e 	c #9C1E09",
"f 	c #A52A16",
"g 	c #9F230F",
"h 	c #B72C15",
"i 	c #C0321B",
"j 	c #A42713",
"k 	c #A32511",
"l 	c #9A1C06",
"m 	c #A21F09",
"n 	c #CA3A22",
"o 	c #AC2A15",
"p 	c #9C1E0A",
"q 	c #971904",
"r 	c #A0220D",
"s 	c #C43720",
"t 	c #BD331D",
"u 	c #9F210D",
"v 	c #A42915",
"w 	c #AE2D18",
"x 	c #C93A22",
"y 	c #9E200C",
"z 	c #A32814",
"A 	c #A22511",
"B 	c #9B1B06",
"C 	c #C93921",
"D 	c #AF2C17",
"E 	c #A42814",
"F 	c #9A1C07",
"G 	c #971A05",
"H 	c #BE341D",
"I 	c #BD311A",
"J 	c #9F200A",
"K 	c #A0210D",
"L 	c #AD2D18",
"M 	c #C4351D",
"N 	c #9E220E",
"O 	c #C1331C",
"P 	c #B42A14",
"Q 	c #9B1D08",
"R 	c #C73821",
"S 	c #A82914",
"T 	c #961903",
"U 	c #A3230E",
"V 	c #CC3820",
"W 	c #B02913",
"X 	c #961803",
"Y 	c #881704",
"Z 	c #B82D16",
"` 	c #CE371F",
" .	c #AC2510",
"..	c #9F1B05",
"+.	c #A8240F",
"@.	c #B22F19",
"#.	c #CE381F",
"$.	c #B72B14",
"%.	c #A3200B",
"&.	c #AE2E19",
"*.	c #A72611",
"=.	c #C3321A",
"-.	c #C7341C",
";.	c #AD2B16",
">.	c #AC2914",
",.	c #AE2710",
"'.	c #CB3A22",
").	c #B32D17",
"!.	c #9E1A04",
"~.	c #A9250F",
"{.	c #C73820",
"].	c #C2341D",
"^.	c #9F1A04",
"/.	c #A7240F",
"(.	c #BA3019",
"_.	c #CB3B23",
":.	c #AD240D",
"<.	c #AD2C17",
"[.	c #AA2813",
"}.	c #AA230C",
"|.	c #A21D06",
"1.	c #A11C06",
"2.	c #C4361F",
"3.	c #BE2F18",
"4.	c #A7210B",
"5.	c #B62F19",
"6.	c #C3331B",
"7.	c #AE2009",
"8.	c #AD2610",
"9.	c #C3341C",
"0.	c #BD2E17",
"a.	c #AB2914",
"b.	c #A21E07",
"c.	c #BA2D16",
"d.	c #B02B16",
"e.	c #AC2611",
"f.	c #B62B15",
"g.	c #CF371F",
"h.	c #B32F19",
"i.	c #CF381F",
"j.	c #A4200B",
"k.	c #C1321B",
"l.	c #C7351D",
"m.	c #AC2B16",
"n.	c #B5270F",
"o.	c #CE3920",
"p.	c #B62C15",
"q.	c #AB250F",
"r.	c #C93820",
"s.	c #C2321B",
"t.	c #A11A04",
"u.	c #BF311A",
"v.	c #B0230C",
"w.	c #AE220C",
"x.	c #C63820",
"y.	c #BD2F18",
"z.	c #A11D08",
"A.	c #A31C05",
"B.	c #C5361F",
"C.	c #BF3018",
"D.	c #A8220B",
"E.	c #B72F18",
"F.	c #C3331C",
"G.	c #B1230C",
"H.	c #AB2813",
"I.	c #C4341C",
"J.	c #BF2D15",
"K.	c #A31E08",
"L.	c #BB2D16",
"M.	c #B02B15",
"N.	c #B12711",
"O.	c #D03920",
"P.	c #BC2E16",
"Q.	c #8A1704",
"R.	c #B92E16",
"S.	c #AB240D",
"T.	c #B52E18",
"U.	c #A5200B",
"V.	c #AE2B16",
"W.	c #B62710",
"X.	c #CF3820",
"Y.	c #B72912",
"Z.	c #A21B05",
"`.	c #A6230D",
" +	c #BE2F17",
".+	c #AC2C17",
"++	c #AF220B",
"@+	c #C53720",
"#+	c #BB2B14",
"$+	c #A21C06",
"%+	c #C03018",
"&+	c #A9220B",
"*+	c #B72D16",
"=+	c #AD2812",
"-+	c #B22B15",
";+	c #B22710",
">+	c #AF240D",
",+	c #B62D16",
"'+	c #BD2E16",
")+	c #A6210C",
"!+	c #B12A13",
"~+	c #B82810",
"{+	c #B82811",
"]+	c #AF260F",
"^+	c #C83820",
"/+	c #C2311A",
"(+	c #A41C06",
"_+	c #C03019",
":+	c #B1220A",
"<+	c #BD2911",
"[+	c #A41C05",
"}+	c #C5361E",
"|+	c #C13018",
"1+	c #AB220B",
"2+	c #B8270F",
"3+	c #B12812",
"4+	c #C12D14",
"5+	c #A41E08",
"6+	c #B12913",
"7+	c #A01B05",
"8+	c #901D0A",
"9+	c #B0240D",
"0+	c #C6321A",
"a+	c #B22611",
"b+	c #B82711",
"c+	c #B1250E",
"d+	c #C1311A",
"e+	c #A41B04",
"f+	c #B7240C",
"g+	c #B6230B",
"h+	c #BF2A12",
"i+	c #A01C06",
"j+	c #AB210B",
"k+	c #BC2D15",
"l+	c #C02D14",
"m+	c #A51F08",
"n+	c #BC2D16",
"o+	c #A11B05",
"p+	c #8E1C0A",
"q+	c #BB2E17",
"r+	c #A7210C",
"s+	c #B3250F",
"t+	c #A31E09",
"u+	c #B72913",
"v+	c #CC3921",
"w+	c #B9270F",
"x+	c #CA3820",
"y+	c #A51B04",
"z+	c #B8240D",
"A+	c #B8240B",
"B+	c #C83921",
"C+	c #BD2810",
"D+	c #A61C05",
"E+	c #C7361E",
"F+	c #AB1F08",
"G+	c #BC2C15",
"H+	c #B22510",
"I+	c #AC2712",
"J+	c #B2260F",
"K+	c #8C1704",
"L+	c #B1240D",
"M+	c #BE2E16",
"N+	c #A8210C",
"O+	c #C8341C",
"P+	c #B3250E",
"Q+	c #B72A13",
"R+	c #BA260F",
"S+	c #C23119",
"T+	c #AC2813",
"U+	c #B8250D",
"V+	c #C02B12",
"W+	c #A11E08",
"X+	c #AA1D06",
"Y+	c #BE2911",
"Z+	c #B92810",
"`+	c #A6210B",
" @	c #B22610",
".@	c #AD2711",
"+@	c #A72009",
"@@	c #C02E17",
"#@	c #CD381F",
"$@	c #B7260F",
"%@	c #B72710",
"&@	c #A01903",
"*@	c #8E1804",
"=@	c #BC2E17",
"-@	c #B4240D",
";@	c #B72811",
">@	c #BE2C14",
",@	c #A9210B",
"'@	c #B5240D",
")@	c #BB250E",
"!@	c #B0250E",
"~@	c #C93720",
"{@	c #B6220B",
"]@	c #B92911",
"^@	c #A01D07",
"/@	c #A71B04",
"(@	c #A9230C",
"_@	c #A8210B",
":@	c #B12611",
"<@	c #BD2B14",
"[@	c #A21903",
"}@	c #8F1804",
"|@	c #9F1903",
"1@	c #BF2D16",
"2@	c #B4230D",
"3@	c #BA2B14",
"4@	c #CB3922",
"5@	c #BB250D",
"6@	c #B02B14",
"7@	c #B92811",
"8@	c #BE2810",
"9@	c #B02109",
"0@	c #A9240E",
"a@	c #A6200B",
"b@	c #B3260F",
"c@	c #BE2D15",
"d@	c #A81F08",
"e@	c #C02E16",
"f@	c #B8240C",
"g@	c #A31B05",
"h@	c #B7230B",
"i@	c #B6240D",
"j@	c #A51F09",
"k@	c #CB3921",
"l@	c #BB240C",
"m@	c #C23019",
"n@	c #A81C05",
"o@	c #BA270E",
"p@	c #AA2611",
"q@	c #AC1F07",
"r@	c #AA220B",
"s@	c #B8260E",
"t@	c #BE2B13",
"u@	c #B7220B",
"v@	c #BF2B13",
"w@	c #AA210B",
"x@	c #B2250F",
"y@	c #B6230C",
"z@	c #A51E08",
"A@	c #BC2B13",
"B@	c #A91C05",
"C@	c #B12A14",
"D@	c #AB1F07",
"E@	c #C8371F",
"F@	c #B01F07",
"G@	c #C22E16",
"H@	c #C5351D",
"I@	c #B4250E",
"J@	c #C12F17",
"K@	c #B8260F",
"L@	c #901804",
"M@	c #BF2E16",
"N@	c #C7351C",
"O@	c #B5250D",
"P@	c #B62109",
"Q@	c #AE2D17",
"R@	c #C12C14",
"S@	c #C13019",
"T@	c #B9250D",
"U@	c #911804",
"V@	c #B9250E",
"W@	c #B3240D",
"X@	c #C6331B",
"Y@	c #BC2B14",
"Z@	c #B4230C",
"`@	c #C83821",
" #	c #B72109",
".#	c #AF2D18",
"+#	c #BA270F",
"@#	c #BD270F",
"##	c #AC230D",
"$#	c #B0210A",
"%#	c #C22D15",
"&#	c #B7240D",
"*#	c #B3230D",
"=#	c #A91F08",
"-#	c #B7220A",
";#	c #A51A03",
">#	c #8F1803",
",#	c #C12E16",
"'#	c #BC250E",
")#	c #A61F09",
"!#	c #A9210A",
"~#	c #B1250F",
"{#	c #B02D18",
"]#	c #C93821",
"^#	c #BD270E",
"/#	c #B0230D",
"(#	c #C12D15",
"_#	c #B02008",
":#	c #C02B14",
"<#	c #BB260D",
"[#	c #C5351E",
"}#	c #CE371E",
"|#	c #BA250E",
"1#	c #8F1703",
"2#	c #B1240E",
"3#	c #C23018",
"4#	c #C7371F",
"5#	c #B62108",
"6#	c #BC260D",
"7#	c #901703",
"8#	c #AF220A",
"9#	c #BA240C",
"0#	c #A7210A",
"a#	c #CB3820",
"b#	c #C83922",
"c#	c #AE2813",
"d#	c #BB2911",
"e#	c #B0220C",
"f#	c #AA2009",
"g#	c #C33119",
"h#	c #901803",
"i#	c #A71F08",
"j#	c #A8210A",
"k#	c #B5230C",
"l#	c #A72410",
"m#	c #B3230C",
"n#	c #AD2712",
"o#	c #BA2710",
"p#	c #C02C14",
"q#	c #C4341D",
"r#	c #A8220C",
"s#	c #CD371E",
"t#	c #BA2209",
"u#	c #941905",
"v#	c #A71E08",
"w#	c #A91B05",
"x#	c #C02D15",
"y#	c #AF2109",
"z#	c #A9230E",
"A#	c #AD1F08",
"B#	c #B92209",
"C#	c #951905",
"D#	c #B3220C",
"E#	c #A81E08",
"F#	c #AA1C05",
"G#	c #C33018",
"H#	c #BA2811",
"I#	c #AF210B",
"J#	c #C4331B",
"K#	c #A8230E",
"L#	c #AE1F07",
"M#	c #A21E08",
"N#	c #BC270F",
"O#	c #C5321B",
"P#	c #CE3820",
"Q#	c #D3381F",
"R#	c #AE240E",
"S#	c #B5220B",
"T#	c #C9341C",
"U#	c #D2371E",
"V#	c #AE1E07",
"W#	c #C53017",
"X#	c #AE2712",
"Y#	c #BB2810",
"Z#	c #CD3820",
"`#	c #BC260E",
" $	c #C9371F",
".$	c #B3210A",
"+$	c #A9210C",
"@$	c #AF2D17",
"#$	c #B9240C",
"$$	c #C4321A",
"%$	c #CD371F",
"&$	c #D33920",
"*$	c #A61B04",
"=$	c #D4381F",
"-$	c #B5210A",
";$	c #CA341C",
">$	c #D3371E",
",$	c #AE2812",
"'$	c #CA371F",
")$	c #B4210A",
"!$	c #BA250D",
"~$	c #BD2710",
"{$	c #D53920",
"]$	c #C43018",
"^$	c #B32109",
"/$	c #BA260E",
"($	c #D4391F",
"_$	c #AE1C04",
":$	c #B32009",
"<$	c #9E1903",
"[$	c #AE1E06",
"}$	c #B2220C",
"|$	c #AB2814",
"1$	c #B8230B",
"2$	c #BC250D",
"3$	c #A9220D",
"4$	c #BA260D",
"5$	c #BA230B",
"6$	c #BF2C14",
"7$	c #B72008",
"8$	c #BA250C",
"9$	c #B82008",
"0$	c #B12D18",
"a$	c #9D1B05",
"b$	c #961A05",
"c$	c #981C07",
"d$	c #B9230B",
"e$	c #AF2008",
"f$	c #9C1C06",
"g$	c #CD361E",
"h$	c #A9230D",
"i$	c #A9240F",
"j$	c #A91E08",
"k$	c #AF2812",
"l$	c #AA230E",
"m$	c #B9260E",
"n$	c #A61A04",
"o$	c #8D260C",
"p$	c #7A2C0C",
"q$	c #7D2D0F",
"r$	c #92270C",
"s$	c #783612",
"t$	c #AC2208",
"u$	c #AC2209",
"v$	c #773511",
"w$	c #91260B",
"x$	c #7E2D0D",
"y$	c #92260A",
"z$	c #753410",
"A$	c #AA230A",
"B$	c #AD2209",
"C$	c #92280E",
"D$	c #802D0E",
"E$	c #7A2C0D",
"F$	c #96280D",
"G$	c #72320D",
"H$	c #A8240B",
"I$	c #B2280E",
"J$	c #76340F",
"K$	c #912C12",
"L$	c #812D0E",
"M$	c #7E2E10",
"N$	c #97290E",
"O$	c #74330E",
"P$	c #9A1E07",
"Q$	c #B42D15",
"R$	c #75320D",
"S$	c #6B4711",
"T$	c #7B4D11",
"U$	c #5D4111",
"V$	c #583E10",
"W$	c #7C4E11",
"X$	c #9F7618",
"Y$	c #CE9F1B",
"Z$	c #6F4D15",
"`$	c #5D4012",
" %	c #D0A01B",
".%	c #A57815",
"+%	c #A57C19",
"@%	c #DBA91C",
"#%	c #6C4414",
"$%	c #553818",
"%%	c #DCA91B",
"&%	c #643B1F",
"*%	c #824507",
"=%	c #975D0A",
"-%	c #321926",
";%	c #15172A",
">%	c #8F5B14",
",%	c #824508",
"  . + @ # $ % & * $ = = - ; = = # > , ' $ ) = ! ~ { ) = ] ^ = = = # , / = $ { ( _ $ # $ : < > $ = [ } | = = # 1 2 3 $ { 4 5 6 [ ",
"7 8 9 0 a b c 9 d e f g h i j k l m n o p q r s t q u v w x y z A B C D E F G H I J a K L M m e f N O P A A Q d R S p T U V W X ",
"Y Z `  ...+.@.#.$.%.&.*.=.-.;.>.%.,.'.).%.!.~.{.].^./.w (._.:.<.[.}.C Z <.|.1.2.3.4...+.5.6.7.%.&.8.9.0.a.a.b.c.#.d.%.!.e.#.f.!.",
"Y Z g.8...+.h.i.c.j.&.*.k.l.m.a.%.n.o.p.%.!.q.r.s.t./.w u._.v.;.[.w.x.y.<.z.A.B.C.D...+.E.F.G.%.&.H.I.J.a.a.K.L.` M.%.!.N.O.P...",
"Q.R.g.S...+.T.i.L.U.&.8.s.l.V.a.%.W.X.Y.%.!.q.r.s.Z.`.w  +_.v..+[.++@+#+<.z.$+2.%+&+..+.*+6.W.%.&.=+I.J.;.a.K.L.g.-+%.!.;+X.P...",
"Q.R.g.>+^.+.,+i.'+)+&.8.=.-.!+a.j.~+O.{+%.!.]+^+/+(+/.w _+_.:+;.[.++@+<+<.|.[+}+|+1+..+.$.6.2+%.&.3+I.4+;.a.5+P.g.6+%.!.;+O.P.7+",
"8+c.g.9+^.+.p.i.P.)+&.8.0+-.a+a.j.~+O.b+%.!.c+r.d+e+/.D |+_.f+;.[.g+@+h+m.i+A.}+|+j+..+.k+6.2+%.&.3+I.l+a.a.m+P.g.3+%.!.;+O.n+o+",
"p+q+g.9+..+.p.i.'+r+&.8.0+-.s+a.t+u+v+w+%.!.c+x+/+y+/.D |+_.z+<.H.A+B+C+m.i+D+E+|+F+..+.G+F.w+j.&.H+I.l+I+a.m+P.g.J+%.!.W.X.#+o+",
"K+L.g.L+..+.p.i.M+N+&.8.0+O+P+a.K.Q+'.R+%.!.c+x+S+y+/.D |+_.z+<.T+U+C V+>.W+X+E+|+F+..+.Y+6.Z+`+&. @I.4+.@a.+@@@#@$@%.!.%@i.#+&@",
"*@=@g.-@..+.;@i.>@,@&.8.0+O+'@a.K.Q+'.)@%.!.!@~@S+y+/.D |+_.{@<.T+]@C V+a.^@/@E+|+F+..(@Y+6.~+_@&. @I.J.:@a.+@@@x+$@%.!.%@i.<@[@",
"}@M+g.-@|@+.%@i.1@,@&. @0+O+2@a.K.3@4@5@%.!.c+x+S+y+/.6@|+_.A+;.T+7@B+8@[.^@X+E+|+9@..0@Y+=.Z+a@&.b@I.c@ @a.d@e@x+f@%.!.%@i.<@g@",
"}@M+g.h@|@+.%@i.>@,@&. @0+-.i@a.j@#+k@l@%.!.c+x+m@n@/.6@|+_.A+;.T+o@@+8@p@W+X+E+|+q@..r@Y+=.~+`+L s@I.c@ @a.d@e@x+f@%.!.%@i.t@e+",
"}@M+g.u@|@+.$@i.v@w@&.x@0+-.y@T+z@A@i.l@%.!.c+x+m@B@/.C@|+_.A+;.T+o@x.8@S.^@D@E@|+F@..+.G@H@{+)+&.w+I.l+I@a.d@J@x+u@%.!.K@i.t@e+",
"L@M@g.u@|@+.U+i.v@w@&.x@0+N@y@H.j@#+i.l@%.!.O@x+m@B@/.C@|+_.P@Q@T+o@C C+S.^@D@E@|+9@..(@R@H@{+)+&.w+I.l+I@a.d@S@x+u@%.!.T@i.v@y+",
"U@e@g.u@|@+.V@i.v@w@&.W@X@-.y@H.j@Y@i.l@U.!.Z@x+m@B@/.C@|+`@ #.#T++#C @###^@D@E@J@$#..r@%#H@Z+r+&.&#I.l+*#a.=#m@` -#%.Z.V@i.v@;#",
">#,#g.u@..+.'#i.v@w@&.W@-.-.y@T+)#<@i.l@!#!.-@x+m@B@/.~#|+E@ #{#T+]@]#^#/#^@D@E@(#_#..r@:#H@<#N+&.&#[#l+*#a.=#m@}# #%.Z.|#i.v@;#",
"1#S@#@u@..+.|#i.v@j+&.W@-.-.y@T+)#<@i.f@%.!.-@g.m@B@/.2#3#4#5#.#I+7@C C+v.^@D@E@|+9@..r@:#H@6#,@L g+B.l+*#a.=#m@}# #%.Z.'#i.v@y+",
"7#S+x+u@..+.)@i.v@8#&.W@-.-.y@T+)#<@i.9#0#!.-@a#m@B@/.2#3#b#5#w c#d#C C+e#i+D@E@,#9@..r@:#H@<#N+.#h@B.c@*#>.f#g#}# #%.Z.'#i.t@e+",
"h#g#x+ #..+.)@i.v@8#&.-@-.-.y@T+i#<@i.9#j#t.k#x+m@B@l#m#|+^+5#Q@n#o#C C+e#i+F@E@(#$#..r@p#q#<#r#.#h@B.c@*#a.=#m@s#t#%.Z.'#i.v@y+",
"u#g#x+ #..+.)@i.v@8#&.k#N@N@y@T+v#t@i.9#j#!.u@#@m@w#l#m#|+4#5#Q@n#o#C C+e#i+F@E@x#y#..r@G@H@<#z#.#h@E+c@*#a.A#m@~@B#%.Z.'#i.v@y+",
"C#g#x+ #..+.)@i.v@++&.D#N@N@y@T+E#t@X.9#j#!.u@g.m@F#l#m#G#4#5#w n#H#C 8@e#i+F@E@|+$#..I#R@J#<#K#.#h@C c@*#a.L#m@~@B#%.M#N#O.v@B@",
"C#O#P#-#..(@'#Q#v@R#L S#T#O+y@T+=#v@Q#l@j#!.u@U#@@V#l#m#W#l.5#w X#Y#Z#`#e#i+F@ $|+.$..I#G@J#6#+$@$#$C c@*#a.L#$$%$B#%.Z.N#&$v@*$",
"C#X@X.u@..+.'#=$v@R#L -$;$T#y@T+=#v@=$l@j#!.u@>$e@V#l#m#W#N@5#w ,$Y#i.)@e#i+F@'$J@)$..I#%#H@6#,@@$!$C l+'@a.L#O#` B#%.Z.~${$v@y+",
"C#X@X.u@..+.'#=$v@R#L -$;$T#y@T+=#v@=$l@j#!.u@>$e@V#l#m#]$N@5#w ,$Y#i.)@e#i+F@'$x#^$..I#%#H@<#N+.#/$C J.*#a.L#O#` B#%.Z.N#($v@y+",
"C#X@X.u@..+.'#=$v@R#L -$;$T#y@T+=#v@=$l@j#!.u@>$e@_$l#m#]$N@5#w ,$Y#i.)@e#i+F@'$p#:$<$I#:#H@<#K#.#/$C c@*#a.L#O#` B#%.Z.N#($v@y+",
"C#X@X.u@..+.'#=$v@R#L -$;$T#y@T+=#v@=$l@j#!.u@>$e@[$l#m#]$N@5#w ,$Y#i.)@e#i+F@'$J@)$..I#%#H@6#+$.#/$C c@}$|$L#O#` B#%.Z.N#($v@y+",
"C#X@X.1$..+.'#=$v@++L -$;$T#y@T+=#v@=$l@j#!.u@>$e@[$l#m#]$N@5#w ,$Y#i.)@e#i+F@'$|+)$..I#G@H@2$3$.#4$r.>@m#a.L#O#` B#%.Z.N#($v@y+",
"C#X@X.5$..+.'#=$v@R#L -$;$T#y@T+=#v@=$l@j#!.u@>$6$_$l#m#]$N@7$.#,$Y#i.)@e#i+F@'$|+)$..I#G@H@2$,@D 8$C l+'@>.L#O#` B#%.Z.N#($v@y+",
"C#X@X.5$..+.'#=$v@R#L -$;$T#y@T+=#v@=$l@j#!.u@>$e@V#l#m#]$N@5#w ,$Y#i.)@e#i+F@'$p#:$..I#R@H@6#N+D 8$C c@*#>.L#O#` B#%.Z.N#($v@y+",
"C#X@X.1$..+.'#=$v@R#L -$;$T#y@T+=#v@=$l@j#!.u@>$e@V#l#m#]$N@5#w ,$Y#i.)@e#i+F@'$p#:$..I#R@H@6#N+.#4$C c@*#a.L#O#` B#%.Z.N#($v@y+",
"C#X@X.1$..+.'#=$v@R#L -$;$T#y@T+=#v@=$l@j#!.u@>$e@V#l#m#]$N@5#.#,$Y#i.)@e#i+F@'$x#^$..I#R@H@6#N+.#/$C c@2@a.L#O#` B#%.Z.N#($v@y+",
"C#X@X.5$..+.'#=$v@R#L -$;$T#y@T+=#v@=$l@j#!.u@>$e@V#l#m#]$N@9$0$,$Y#i.)@e#i+F@'$|+)$..I#G@H@2$3$.#/$r.>@2@a.L#O#` B#%.Z.N#($v@y+",
"C#X@X.u@..0@'#=$v@R#L -$;$T#y@T+=#v@=$l@j#!.u@>$6$L#l#m#W#N@5#w ,$Y#i.)@e#i+F@'$|+)$..I#G@J#2$,@D 8$C J.2@a.L#O#` B#%.Z.N#($v@y+",
"C#X@X.u@..r@'#=$v@R#L -$;$T#y@T+=#v@=$l@j#!.u@>$6$L#l#m#]$N@5#w ,$Y#i.)@e#i+F@'$,#)$..I#R@H@6#N+.#4$C l+2@a.L#O#` B#%.Z.N#($v@y+",
"C#X@X.5$..(@'#=$v@R#L -$;$T#y@T+=#v@=$l@j#!.u@>$e@V#l#m#W#N@5#.#,$Y#i.)@e#i+F@'$p#:$..I#%#H@<#r#.#/$C c@*#a.L#O#` B#%.Z.N#($v@y+",
"C#X@X.5$..+.'#=$v@R#L -$;$T#y@T+=#v@=$l@j#!.u@>$e@V#l#m#]$N@9${#,$Y#i.)@e#i+F@'$p#:$<$I#:#H@<#z#.#/$C c@m#a.L#O#` B#%.Z.N#($v@y+",
"C#X@X.5$..+.'#=$v@R#L -$;$T#y@T+=#v@=$l@!#a$u@>$e@V#l#m#]$N@5#w ,$Y#i.)@e#i+F@'$|+)$..I#G@H@2$+$.#/$C c@D#|$L#O#` B#%.Z.N#($v@y+",
"C#X@X.1$..+.'#=$v@R#L -$;$T#y@T+=#v@=$l@!#a$u@>$e@V#l#m#W#N@5#w ,$Y#i.)@e#i+F@'$|+)$..I#G@H@2$+$@$!$C c@D#|$L#O#` B#%.Z.N#($v@y+",
"C#X@X.u@..+.'#=$v@R#L -$;$T#y@T+=#v@=$l@j#!.u@>$e@V#l#m#W#N@5#w ,$Y#i.)@e#i+F@'$J@)$..I#%#H@6#,@D 8$C c@m#a.L#O#` B#%.Z.~${$v@y+",
"C#X@X.u@..+.'#=$v@R#L -$;$T#y@T+=#v@=$l@j#!.u@>$e@V#l#m#]$N@5#w ,$Y#i.)@e#i+F@'$p#:$^.I#%#H@6#,@D 8$C c@2@a.L#O#` B#%.Z.N#($v@y+",
"C#X@X.u@..+.'#=$v@R#L -$;$T#y@T+=#v@=$l@j#!.u@>$e@_$l#m#]$N@5#w ,$Y#i.)@e#i+F@'$p#:$..I#:#H@<#N+.#/$C c@*#a.L#O#` B#%.Z.N#($v@y+",
"C#X@X.u@..+.'#=$v@R#L -$;$T#y@T+=#v@=$l@j#!.u@>$e@[$l#m#]$N@5#w ,$Y#i.)@e#i+F@'$J@)$..I#%#H@6#,@.#/$C c@*#a.L#O#` B#%.Z.N#($v@y+",
"b$X@X.u@..+.'#=$v@R#L -$;$T#y@T+=#v@=$l@j#!.u@>$e@V#l#m#]$N@5#w ,$Y#i.)@e#i+F@'$|+)$..I#G@H@2$z#.#/$C c@*#a.L#O#` B#%.Z.N#($v@y+",
"c$X@X.d$..+.'#=$v@R#L -$;$T#y@T+=#v@=$l@j#!.u@>$e@V#l#m#]$N@7$.#,$Y#i.)@e#i+F@'$|+)$<$I#R@H@<#K#.#/$C c@}$|$e$X@` B#%.Z.N#($v@y+",
"c$X@X.5$..+.'#=$v@R#L -$;$T#y@T+=#v@=$l@!#a$u@>$e@V#l#m#G#-.5#w ,$Y#i.)@e#i+F@'$|+)$^.I#:#J#6#N+.#/$C c@D#|$L#O#` B#%.Z.N#($v@y+",
"c$X@X.1$..(@'#=$v@R#L -$;$T#y@T+=#v@=$l@!#a$u@>$6$L#l#m#]$N@5#w ,$Y#i.)@e#i+F@'$J@^$..I#:#J#2$3$@$!$C c@D#|$L#O#` B#%.Z.N#($v@y+",
"c$X@X.1$..(@'#=$v@R#L -$;$T#y@T+=#v@=$l@j#!.u@>$v@L#l#m#]$N@5#.#,$Y#i.)@e#i+F@'$x#)$..I#:#J#<#z#D 8$C c@m#a.L#O#` B#%.Z.N#($v@y+",
"c$X@X.5$..+.'#=$v@R#L -$;$T#y@T+=#v@=$l@j#!.u@>$J.V#l#m#]$N@9$0$,$Y#i.)@e#i+F@'$p#:$..I#%#H@<#z#.#4$C c@2@a.L#O#` B#%.Z.N#($v@y+",
"c$X@X.u@..+.'#=$v@R#L -$;$T#y@T+=#v@=$l@j#!.u@>$e@V#l#m#W#N@5#w ,$Y#i.)@e#i+F@'$J@:$..I#G@H@<#K#D 8$C J.i@a.L#O#` B#%.Z.N#($v@y+",
"c$X@X.u@..+.'#=$v@R#L -$;$T#y@T+=#v@=$l@j#!.u@>$e@V#l#m#]$N@7$.#,$Y#i.)@e#i+F@'$x#:$^.I#G@H@6#+$.#4$C l+Z@a.L#O#` B#%.Z.N#($v@y+",
"c$X@X.1$..+.`#=$v@++L -$;$T#y@T+=#v@=$l@!#f$u@>$e@V#l#m#]$N@5#w ,$Y#i.)@e#i+_#~@x#^$<$I#G@H@2$,@.#/$C c@D#|$L#O#` B#%.Z.N#($v@y+",
"c$X@X.1$..+.`#=$v@R#L -$;$T#y@T+=#v@=$l@j#!.u@>$e@V#l#m#]$N@5#w ,$Y#i.)@e#i+F@g$|+)$<$I#G@H@2$,@.#/$C c@D#|$L#O#` B#%.Z.N#($v@y+",
"c$X@X.5$..+.'#=$v@R#L -$;$T#y@T+=#v@=$l@j#!.u@>$e@V#l#m#]$N@5#w ,$Y#i.)@e#i+F@9 |+)$..I#:#H@6#N+D 8$C c@D#|$L#O#` B#%.Z.N#($v@y+",
"c$X@X.1$..(@'#=$v@R#L -$;$T#y@T+=#v@=$l@j#!.u@>$e@V#l#m#]$N@5#w ,$Y#i.)@e#i+F@9 x#^$^.I#%#J#2$3$D 8$C c@D#|$L#O#` B#%.Z.N#($v@y+",
"c$X@X.u@..+.'#=$v@R#L -$;$T#y@T+=#v@=$l@j#!.u@>$e@V#l#m#G#N@7$.#,$Y#i.)@e#i+F@'$x#^$<$I#G@J#2$,@D 8$C c@Z@a.L#O#` B#%.Z.N#($v@y+",
"c$X@X.u@..+.'#=$v@R#L -$;$T#y@T+=#v@=$l@!#f$u@>$e@V#l#m#G#N@5#w ,$Y#i.)@e#i+F@'$|+)$<$I#G@I.6#h$D 8$C c@i@a.L#O#` B#%.Z.N#($v@y+",
"c$X@X.u@..+.'#=$v@R#L -$;$T#y@T+=#v@=$l@j#!.u@>$e@V#l#m#]$N@5#w ,$Y#i.)@e#i+F@'$|+)$<$I#R@H@<#K#.#/$C c@*#a.L#O#` B#%.Z.N#($v@y+",
"c$X@X.u@..+.'#=$v@R#L -$;$T#y@T+=#v@=$l@j#!.u@>$e@V#l#m#]$N@7$.#,$Y#i.)@e#i+F@'$|+)$..I#G@H@6#+$.#/$C c@*#a.L#O#` B#%.Z.N#($v@y+",
"c$X@X.u@7+i$'#=$v@R#w -$;$T#y@T+j$v@=$l@!#!.u@>$e@V#l#m#]$N@7$0$k$Y#i.)@e#i+F@'$|+)$|@I#G@J#2$l$.#m$C c@*#>.L#O#` B#j.Z.N#($v@n$",
"o$X@X.u@p$q$'#=$v@r$s$t$;$T#u$v$w$v@=$l@x$p$u@>$e@y$z$A$]$N@B$s$C$Y#i.)@D$E$F@'$3#F$G$H$G@H@I$J$K$/$C c@L$M$L#O#g.N$O$P$N#($Q$R$",
"S$S$T$T$U$U$T$T$S$S$V$W$S$S$W$V$S$S$T$T$U$U$T$T$S$S$V$W$S$S$W$V$S$S$T$T$U$U$T$T$S$S$V$W$S$S$W$V$S$S$T$T$U$U$T$T$S$S$V$W$S$S$W$V$",
"X$X$Y$Y$Z$Z$Y$Y$X$X$`$ %X$X$ %`$X$X$Y$Y$Z$Z$Y$Y$X$X$`$ %X$X$ %`$X$X$Y$Y$Z$Z$Y$Y$X$X$`$ %X$X$ %`$X$X$Y$Y$Z$Z$Y$Y$X$X$`$ %X$X$ %`$",
".%+%@%@%#%#%@%@%+%.%$%%%+%+%%%$%.%+%@%@%#%#%@%@%+%.%$%%%+%+%%%$%.%+%@%@%#%#%@%@%+%.%$%%%+%+%%%$%.%+%@%@%#%#%@%@%+%.%$%%%+%+%%%$%",
"&%*%=%=%-%-%=%=%*%&%;%>%,%,%>%;%&%*%=%=%-%-%=%=%*%&%;%>%,%,%>%;%&%*%=%=%-%-%=%=%*%&%;%>%,%,%>%;%&%*%=%=%-%-%=%=%*%&%;%>%,%,%>%;%"};
