/* XPM */
static char *_549bb168b4e44d7cf5bb4bdc6b1c4f8kkypRD2ms7n852L3[] = {
/* columns rows colors chars-per-pixel */
"96 96 81 1 ",
"  c #001A2B",
". c #741000",
"X c #7D1402",
"o c #721800",
"O c #563C10",
"+ c #6F2B0E",
"@ c #765216",
"# c #841503",
"$ c #851807",
"% c #881906",
"& c #8B1C0A",
"* c #9D1701",
"= c #921B07",
"- c #9E1A04",
"; c #961C08",
": c #9B1D08",
"> c #A31B05",
", c #AB1C04",
"< c #A31F09",
"1 c #AA1F08",
"2 c #B41D05",
"3 c #B81E05",
"4 c #B01F08",
"5 c #9C220E",
"6 c #882312",
"7 c #A5220D",
"8 c #AC230C",
"9 c #B52007",
"0 c #B92007",
"q c #B3220B",
"w c #BC240B",
"e c #BF280F",
"r c #A62510",
"t c #AA2611",
"y c #AC2A15",
"u c #AE2E19",
"i c #B22710",
"p c #B82710",
"a c #B22B14",
"s c #B92911",
"d c #BC2810",
"f c #BD2B13",
"g c #BF2C13",
"h c #B82B14",
"j c #BC2B14",
"k c #BB2E17",
"l c #BD2E17",
"z c #B02D18",
"x c #B02F1A",
"c c #B52F19",
"v c #BC2F18",
"b c #BE2F18",
"n c #AF301B",
"m c #B1301B",
"M c #B9321B",
"N c #BD3019",
"B c #BE351E",
"V c #C02B12",
"C c #C12D15",
"Z c #C12F17",
"A c #C23018",
"S c #C2321A",
"D c #C4321A",
"F c #C5331B",
"G c #C3341D",
"H c #C5351D",
"J c #C6341C",
"K c #C9371F",
"L c #C63720",
"P c #C23922",
"I c #C63922",
"U c #C63B24",
"Y c #CB3B23",
"T c #CD3B23",
"R c #C83B24",
"E c #CC3C24",
"W c #D33A21",
"Q c #D43B22",
"! c #D93A20",
"~ c #B38B16",
"^ c #F3BD1E",
/* pixels */
"..XXX......XX......XX......XX......XX......XX......XX......XX......XX......XX......XXX.....XXX..",
".XrT7#X#$$5Tt#$$$$;Yy$$$#X=Rc$$X#$&UM#X#$$$IB$$$$$XLP&$$#XXBI&#X#$$MR=X$$$XzY5$$$#XtYr$$XXXrEr#X",
"#;NWk7-<ruvWk-7uu7iWNyzt<-8THy7--7aTY<-7yuyYY7ruy7>YSzut--7YSa<-<tuHS8-7uu7GSitut7*vTMy7--7NQv--",
"#;SWl7-<tuNWl-7uu7lWSymt7-aTHy7--7aTY>-7yuaYY8tuy78YSau8--8YSi<-<tzHSq-7uu8GSktnt<-SWNy7--7NWv--",
"#;DWZ7-<tuSWS-7uu7lTDtnt7-sTHy7--7kTK1-7yzhYYqtuy78YSkut--8YSi<-<tzHSq-7uu8HSjtnt<>SWly7--7SWS--",
"#;SWZ7-<tuSWS>7uu7lTDynt7-fWHi7--7jTK8*7yukYYqrzy7qISkut--qYSs<-<taLSp-7uutHSgtnt<>SWly7--8SQD<-",
"#:SWZ<-<tzSWS>7uu8lTDynt7-fWDi7--7fTK1-<yusYYqruy7qISsut--8YSs<-<taHSf-7uutHSfynt<>SWZy7--8SWD<-",
"#:SWZ<-<tzSWS17uu8lWDint7>gWHq7--7lTKq-7yzjYYqrzy7qISsut--qYSf<-<tiHSV-7uuqHSVtzt<>SWZy7--8SQS>-",
"#:SWZ1*<taSWD17uu8lWSint7>gWHq7--8lYHq-7yujYY9rzy7qISwu8--qYSe<-<tiHSV-7uuiHSVynt<1SWZt7--8SQS1-",
"&-SWZ1*<taSWS17uu8ZWSqnt7>gWHq7--8gYH9-7yzfYYwrzy7wISeu7--qYSe<-<tsHSV-7uuiHSVtnt<1SWZt7--8SQS1-",
"6<SWZ1-<tiSWS17uu8ZWSqnt7>gWH97--8gTL9-7yzfYYwtuy7wISwu7--qYSe<-<tsHSV>7uuqHSftnt<1SWZ87--8SQZ1-",
"$<SWZ1-<taSWS47uu8ZWS9nt<>lTH97--8gTH0-7yzfYYwtuy8wYSwu7--wYSe>-<tpLSV>7uuqHSV8nt<1SWZ87--qSWZ1-",
"#>SWZ1-<taSWS47uu8ZWD9nt<>lTH97--8gTH0-7yzfYYwtuy8wYSeyt->wYSe>-<twHSV>7uuqHSV8nt<qDWZq7--qSWZ1*",
"#<DWZ4-<tiSWS47uu8ZWD9nt<>lTH37--8fTH0-7yzfYYwtuy8fYSeyt->wYSe>-<twHSf18uuqHSV8nt<qDTZq7--qSWZ1*",
"#1SWZ4-<tqSWZ27uu8ZWD3nt<>lTH37--8fTH0-7yzfYY0tuy8fYSeyr-*wYSe>-<8wHSf,7uuqHSfqnt<qDTZq7--qDWZ4*",
"#1DWZ4*<tqSWS27uuqZWD2nt<>ZTH37--8gTH0-7yafYYw8uy8fYSwyr->wYSe1-<twHSf,7uuqHSfqnt<9DTZ97--qDWZ4-",
"#1DWZ4*<tqSWS27uuqZWS3nt<1ZTD37--8gTH0-7tafYYw8uy8eISwtt->wYSe,-<8wHZf,7uywHSfqnt<9DTZ97--qDWZ2-",
"#1DWZ2*<tqSWZ27uuqZWS3nt<1ZTD37--8gTH0>7yafYYw8uy8eISwtt->wYSe>-<8wHSf17uywHSfqnt<9DTZ97--qDWZ2-",
"#1DWZ2*<tqSWZ37uuqZWS3zt<,ZWD37--8gTH0>7yafYYw8uy8eISw8r->eYSe,-<teYSf17uuwHSV9nt<9DTZ27--qDWZ2-",
"#1DWZ2*<t9SWZ37uu9ZWS3zt<1ZWD37--8gTH0>7yifYYw8uy8eYSw8r->eYSe,-<teYSf17uzwHSV9nt<9HTZ27--9DWZ2-",
"#4DWZ2*<t9SWZ37uuqZQS3ut<1ZWD37--qgTH0>7yafYY08ny8eYSw8r->eYSe1-<8wYSf17uzwHSV9nt<9HTZ27--9DWZ3-",
"#4DWZ2*<t9SWZ37uu9ZWS3ut<1ZWD37--4gTH0>7yafYL08ny8eYSw8r->eYSe1-<8eYSf17uz0HSV2nt<0HWZ27->9DWZ3-",
"#9DWZ2*<t0SWZ37uu9SWS3zt<4ZWD38--4ZTH0>7yifYKwqmy8fYS0qr->eYZe1-<8wYSe47uz0HSV2nt<0HWg27->9SWZ3*",
"X9DWZ2-<t0DWZ37uu9SWS3zt<4ZWS38--4ZTH0>7yqfYH08my8fYZwqr->eYZe,-<8wYSe47uz0LSV2nt<0HWg27->0SWZ3-",
"X9GWZ2-<t9DWZ37uu9SWS3zt<4ZWS27--4ZWH0>7yqfYH08my1fYSwqr->eYSe1-<8wYSe27uy0LSV2nt<0HWg27->0DWZ3-",
"X0HTZ2-<t0DWZ38uu9SWS3zt<4ZWS27--4ZWH0>7yqVTL08nyqfYSwq7->eYSe,-<8wYSe47uy0LSf2ut<0HWg27->0DWZ3-",
"X0HTZ2-<t0SWZ38uu9SWS3zt<4ZWS38--4ZTH0>7yqfTI08nyqfYSwq7->eYZe1-<8wYSe47ua0LSf2mt<wHWg27->0DWZ2-",
"X0HTg2-<t0SWZ38uu9SWS3zt<4ZWS38->4ZTH0>7y9fTL08ny4fYSwq7-,eYZe1-<8wISe47ua0LSf2nt<0HWg37->0DWZ3-",
"XwHTg2-<t0SWZ38uu3SWS3zt<2ZWS38--2ZTH3>7y9fTH08uy4eYSwq7-,eYZe1-<8eYSe4rua0LSf2nt<0HTg37->0DWZ3-",
"#wHTg2-<t0SWZ38uu3SQS3zt<2ZWS38--2ZWH3>7y9fTH08ny4fYSwq7-,eYZw1-<8eYSe4rua0KSf2nt10HTf37->0DWZ3-",
"#wHTg2-<t0SWZ38uu2SQS3zt<2ZWS38--2ZWH3>7y9VTH08ny4fYSwq7-,eYSe1-<qwYZe4rua0YSf2nt10HTf37-<0HWZ3>",
"#wHTg2-<t0SWZ3tuu3SQS3zt<3ZQS38--2ZWH317y9fTH08ny4fYSwq7-,eYSe1-<qeYSe4rua0YSf2nt10HTf37-<0HWZ3>",
"#wKQZ2-<80D!Z3tuy3D!S3zt<3Z!D38--2Z!S317y9VQS08ny9fWS0q7-,eTSe4-<qeYZe27uiwYSf2nt10KQf37->0H!Z3-",
"#wKQZ2-<t0D!Z3tuy3D!S3zt<3Z!D38--2Z!S317y9VQS08ny9fWS0q7-,eTSe4-<qeYSe27uiwYSV3nt10KQf37->0K!Z3-",
"#wKQZ2-<t0D!Z3tuy3D!S3zt<3Z!D38--2Z!S317y9fQS08ny9fWS0q7-,eTZe4-<qwYSe47uawYSV2nt10KQf37->0H!Z3-",
"#wKQZ2-<t0D!Z3tuy3D!S3zt<3Z!D38--2Z!S317y9fQS08ny9fWS0q7-,eTZw4-<qeYSe47uawYSf2nt10KQf37->0H!Z3-",
"#wKQZ2-<t0D!Z3tuy3D!S3zt<3Z!D38--2Z!S3,7y9fQS08ny9fWS0q7-,eTZw4*<qwYSe4ruawYSf2nt10KQf37->0H!Z3-",
"#wKQZ2-<t0D!Z3tuy3D!S3zt<3Z!D38--2Z!S3,7y9fQS08ny9fWS0q7-,eTZw4*<qwYSe4ruawYSf2ut10KQf37->0H!Z3-",
"#wKQZ2-<t0D!Z3tuy3D!S3zt<3Z!D38--2Z!S317y9fQS08ny9fWS0q7-,eTSe4-<qeYSe27uawYSf2ut10KQf37->0H!Z3-",
"#wKQZ2-<t0D!Z38uy3D!S3zt<3Z!D38--2Z!S317y9fQS08ny9fWS0q7-,eTSe4-<qeYSe2ruawYZf2ut10KQf37->0H!Z3-",
"#wKQZ3-<t0D!Z3tuy3D!S3zt<3Z!D38--2Z!S3,7y9fQS08ny9fWS0q7-,eTSe4-<qeYSe27uiwYSf2nt10KQf37->0H!Z3-",
"#wKQZ3-<t0D!Z3tuy3D!S3zt<3Z!D38--2Z!Z3,7y9fQS0qny9fWS0q7-,eTSe4-<qeYSe27uiwYSV3mt10KQf37->0H!Z3-",
"#wKQZ3-<t0D!Z3tuy3D!S3zt<3Z!D38--2Z!S317y9fQS08ny9fWS0q7-,eTZw4-<qwYSe47uiwYSf2mt10KQf37->0H!Z3-",
"#wKQZ3-<t0D!Z3tuy3D!S3zt<3Z!D38--2Z!S317y9fQS08ny9fWS0q7-,eTZw4*<qeYSe27uiwYSf2nt10KQf37->0H!Z3-",
"#wKQZ2-<t0D!Z3tuy3D!S3zt<3Z!D38--2Z!S317y9fQS08ny9fWS0q7-,eTZw4-<qwYSe47uawYSf2nt10KQf37->0H!Z3-",
"#wKQZ2-<t0D!Z3tuy3D!S3zt<3Z!D38--2Z!S317y9fQS08ny9fWS0q7-,eTZw4-<qwYSe47uawYSf2nt10KQf37->0H!Z3-",
"#wKQZ3-<t0D!Z3tuy3D!S3zt<3Z!D38--2Z!S317y9fQS0qny9fWS0q7-,eTSe4-<qeYSe27uawYSf3nt10KQf37->0H!Z3-",
"#wKQZ3-<t0D!Z3tuy3D!S3zt<3Z!D38--2Z!S317y9fQS0qmy9fWS0q7-,eTSe4-<qeYSe2ruawYZf2nt10KQf37->0H!Z3-",
"#wKQZ2-<t0D!Z3tuy3D!S3zt<3Z!D38--2Z!Z317y9VQS08ny9fWS0q7-,eTSe4-<qeYZe27uiwYSf2nt10KQf37->0H!Z3-",
"#wKQZ2-<80D!Z3tuy3D!S3zt<3Z!D38--2Z!S317y9fQS08ny9fWS0q7-,eTSe4-<qeYSe27uiwYSV3nt10KQf37->0H!Z3-",
"#wKQZ2-<80D!Z3tuy3D!S3zt<3Z!D38--2Z!Z317y9fQS08ny9fWS0q7-,eTZe4-<qwYSe47uawYSV2nt10KQf37->0H!Z3-",
"#wKQZ3-<80D!Z3tuy3D!S3zt<3Z!D38--2Z!S317y9VQS08ny9fWS0q7-,eTZw4-<qeYSe47uawYSf2nt10KQf37->0H!Z3-",
"#wKQZ3-<t0D!Z3tuy3D!S3zt<3Z!D38--2Z!S317y9fQS0qny9fWS0q7-,eTZw4*<qwYSe4ruawYSf2nt10KQf37->0H!Z3-",
"#wKQZ3-<t0D!Z3tuy3D!S3zt<3Z!D38--2Z!S317y9fQS0qny9fWS0q7-,eTZw4*<qwYSe4ruawYSf2ut10KQf37->0H!Z3-",
"#wKQZ3-<t0D!Z3tuy3D!S3zt<3Z!D38--2Z!S317y9fQS08ny9fWS0q7-,eTSe4-<qeYSe27uawYSf2ut10KQf37->0H!Z3-",
"#wKQZ3-<t0D!Z3tuy3D!S3zt<3Z!D38-:2Z!S317y9fQS08ny9fWS0q7-,eTSe4-<qeYSe2ruawYZf2ut10KQf37->0H!Z3-",
"#wKQZ2-<t0D!Z3tuy3D!S3zt<3Z!D38--2Z!S317y9VQS08ny9fWS0q7-,eTSe4-<qeYSe27uiwYSf2ut10KQf37->0H!Z3-",
"#wKQZ2-<t0D!Z3tuy3D!S3zt<3Z!D38--2Z!S317y9VQS08ny9fWS0q7-,eTSe4-<qeYSe27uiwYSf2ut10KQf37->0K!Z3-",
"#wKQZ2-<t0D!Z3tuy3D!S3zt<3Z!D38--2Z!S317y9fQS08ny9fWS0q7-,eTZw4-<qwYSe47uiwYSf3nt10KQf37->0H!Z3-",
"#wKQZ2-<t0D!Z3tuy3D!S3zt<3Z!D38--2Z!S317y9fQS08ny9fWS0q7-,eTZw4*<qeYSe27uiwYSf2nt10KQf37->0H!Z3-",
"#wKQZ2-<t0D!Z3tuy3D!S3zt<3Z!D38--2Z!S3,7y9fQS08ny9fWS0q7-,eTZw4-<qwYSe47uawYSf2nt10KQf37->0H!Z3-",
"#wKQZ2-<t0D!Z3tuy3D!S3zt<3Z!D38--2Z!S3,7y9fQS08ny9fWS0q7-,eTZw4-<qwYSe47uawYSf2nt10KQf37->0H!Z3-",
"#wKQZ2-<t0D!Z3tuy3D!S3zt<3Z!D38--2Z!S317y9fQS08ny9fWS0q7-,eTSe4-<qeYSe27uawYSf2nt10KQf37->0H!Z3-",
"#wKQZ2-<t0D!Z3tuy3D!S3zt<3Z!D38--2Z!S317y9fQS08ny9fWS0q7-,eTSe4-<qeYSe2ruawYSf2nt10KQf37->0H!Z3-",
"%wKQZ2-<t0D!Z3tuy3D!S3zt<3Z!D38--2Z!S317y9fQS08ny9fWS0q7-,eTSe4*<qeYSe4ruawYZf2ut10KQf37->0H!Z3-",
"%wKQZ3-<t0D!Z3tuy3D!S3zt<3Z!D38--2Z!S317y9fQS0qny9fWS0q7-,eTSe4*<qwYSe4ruawYSf2ut1wKQf37->0H!Z3-",
"%wKQZ3-<t0D!Z3tuy3D!S3zt<3Z!D38--2Z!S317y9fWS08ny9fWS0q7-,eTSe4*<qwYZe47uawYSf2ut10KQf37->0H!Z3-",
"%wKQZ3-<t0D!Z3tuy3D!S3zt<3Z!D38-:2Z!S317y9fQS08ny9fWS0q7-,eTSe4-<qwYZe27uawYSf2ut10KQf37->0H!Z3-",
"%wKQZ2-<80D!Z3tuy3D!S3zt<3Z!D38--2Z!Z317y9fQS08ny9fWS0q7-,eTSw4-<qwYZe2ruiwYSf2ut10KQf37->0H!Z3-",
"%wKQZ2-<80D!Z3tuy3D!S3zt<3Z!D38--2Z!Z317y9fQS08ny9fWS0q7-,eTZe4-<qwYZe4ruiwYSf2ut10KQf37->0H!Z3-",
"%wKQZ3-<t0D!Z3tuy3D!S3zt<3Z!D38--2Z!Z317y9fQS0qny9fWS0q7-,eTZw4-<qwYSe4ruiwYSf3nt10KQf37->0H!Z3-",
"%wKQZ3-<t0D!Z3tuy3D!S3zt<3Z!D38--2Z!S317y9fQS0qmy9fWS0q7-,eTZw4-<qeYSe4ruawYSf2nt10KQf37->0H!Z3-",
"%wKQZ2-<t0D!Z3tuy3D!S3zt<3Z!D38--2Z!S317y9VQS08ny9fWS0q7-,eTSw4-<qeYSe4ruiwYSf3nt10KQf37->0H!Z3-",
"%wKQZ2-<t0D!Z3tuy3D!S3zt<3Z!D38--2Z!S317y9fQS08ny9fWS0q7-,eTSw4-<qeYSe4ruiwYSV3mt10KQf37->0H!Z3-",
"%wKQZ2-<t0D!Z3tuy3D!S3zt<3Z!D38--2Z!S317y9fQS0qny9fWS0q7-,eTZw4*<qeYSe27uawYSV2ut10KQf37->0H!Z3-",
"%wKQZ2-<t0D!Z38uy3D!S3zt<3Z!D38-:2Z!S317y9fQS08ny9fWS0q7-,fTZw4*<qeYSe27uawYSf2ut10KQf37->0H!Z3-",
"%wKQZ3-<t0H!Z3tuy3D!S3zt<3Z!D38--2Z!S317y9fQS08ny9fWS0q7-,eTSe4*<qeYSe27uawYSf2ut10KQf37->0H!Z3-",
"%wKQZ2-<t0D!Z3tuy3D!S3zt<3Z!D38--2Z!S317y9fQS08ny9fWS0q7-,eWSe4*<qeYSe27uawYSf2ut10KQf37->0H!Z3-",
"%wKQZ3-<t0D!Z3tuy3D!S3zt<3Z!D38--2Z!S317y9fQS08ny9fWS0q7-,eTSe4-<qwYSe47uiwYSf2ut10KQf37->0H!Z3-",
"%wKQZ3-<t0D!Z3tuy3D!S3zt<3Z!D38--2Z!S317y9fQS08ny9fWS0q7-,eWSe4-<qwYSe27uiwYSf2ut10KQf37->0H!Z3-",
"%wKQZ2-<80D!Z3tuy3D!S3zt<3Z!D38--2Z!S317y9fQS08ny9fWS0q7-,eTZw4*<qeYZe2ruiwYSf2ut10KQf37->0H!Z3-",
"%wKQZ2-<t0D!Z3tuy3D!S3zt<3Z!D38--2Z!S317y9fQS0qny9fWS0q7-,eTZw4*<qeYZe27uiwYSf2ut10KQf37->0H!Z3-",
"%wKQZ2-<t0D!Z3tuy3D!S3zt<3Z!D38--2Z!S317y9fWS08ny9fWS0q7-,eTSe4*<qeYZe27uiwYSf3mt10KQf37->0H!Z3-",
"%wKQZ2-<t0D!Z3tuy3D!S3zt<3Z!D38-:2Z!S317y9fQS08ny9fWS0q7-,eTSe4*<qeYSe4ruiwYSf3nt10KQf37->0H!Z3-",
"%wKQZ2-<t0D!Z3tuy3D!S3zt<3Z!D38--2Z!S317y9fQS08ny9fWS0q7-,eTSe4*<qwYSe4ruawYSf2nt10KQf37->0H!Z3-",
"%wKQZ2-<t0D!Z3tuy3D!S3zt<3Z!D38--2Z!S317y9fQS08ny9fWS0q7-,eTSe4*<qeYSe4ruawYSf2nt10KQf37->0H!Z3-",
"%wKQZ2-<t0D!Z3tuy3D!S3zt<3Z!D38--2Z!S317y9fQS0qny9fWS0q7-,eTSe4-<qeYSe27uawYSf2nt10KQf37->0H!Z3-",
"%wKQZ2-<t0D!Z3tuy3D!S3zt<3Z!D38--2Z!S317y9fQS0qmy9fWS0q7-,eTSe4*<qeYZe2ruawYSf2nt10KQf37->0H!Z3-",
"%wKQZ2-<t0D!Z3tuy3D!S3zt<3Z!D38--2Z!S317y9fQS08ny9fWS0q7-,eTSe4*<qeYSe4ruawYSf2ut10KQf37->0H!Z3-",
"+wKQZ2+O+0D!Z3+O+3D!S3+O+3Z!D3+O+2Z!S3+O+9fQS0+O+9fWS0+O+,eTSe+O+qeYSe+O+awYSf+O+10KQf+O+>0H!Z+O",
"O+O+O+OOO+O+O+OOO+O+O+OOO+O+O+OOO+O+O+OOO+O+O+OOO+O+O+OOO+O+O+OOO+O+O+OOO+O+O+OOO+O+O+OOO+O+O+OO",
"@~@~@~@O@~@~@~@O@~@~@~@O@~@~@~@O@~@~@~@O@~@~@~@O@~@~@~@O@~@~@~@O@~@~@~@O@~@~@~@O@~@~@~@O@~@~@~@O",
"@^@^@^@O@^@^@^@O@^@^@^@O@^@^@^@O@^@^@^@O@^@^@^@O@^@^@^@O@^@^@^@O@^@^@^@O@^@^@^@O@^@^@^@O@^@^@^@O",
"@^@^@^@O@^@^@^@O@^@^@^@O@^@^@^@O@^@^@^@O@^@^@^@O@^@^@^@O@^@^@^@O@^@^@^@O@^@^@^@O@^@^@^@O@^@^@^@O",
"o^@^@^o o^@^@^o o^@^@^o o^@^@^o o^@^@^o o^@^@^o o^@^@^o o^@^@^o o^@^@^o o^@^@^o o^@^@^o o^@^@^o ",
" ooooo   ooooo   ooooo   ooooo   ooooo   ooooo   ooooo   ooooo   ooooo   ooooo   ooooo   ooooo  "
};
