/* XPM */
static char * south_xpm[] = {
"64 64 102 2",
"  	c #BF3326",
". 	c #B63024",
"+ 	c #A82B21",
"@ 	c #99251E",
"# 	c #89201B",
"$ 	c #821C19",
"% 	c #7C1B19",
"& 	c #761818",
"* 	c #751817",
"= 	c #791918",
"- 	c #7D1B19",
"; 	c #841D1A",
"> 	c #8E221D",
", 	c #97251E",
"' 	c #A02820",
") 	c #AD2C22",
"! 	c #B83125",
"~ 	c #BC3225",
"{ 	c #A62A21",
"] 	c #881F1B",
"^ 	c #731717",
"/ 	c #7B1A18",
"( 	c #90221C",
"_ 	c #A42920",
": 	c #B52F24",
"< 	c #AC2C22",
"[ 	c #B42F23",
"} 	c #BD3326",
"| 	c #95241D",
"1 	c #8C201C",
"2 	c #96241D",
"3 	c #8D211C",
"4 	c #AF2D23",
"5 	c #BE3326",
"6 	c #B32F23",
"7 	c #9B271F",
"8 	c #8C211C",
"9 	c #AD2D23",
"0 	c #741717",
"a 	c #96251E",
"b 	c #B93125",
"c 	c #BD3226",
"d 	c #98251E",
"e 	c #861F1B",
"f 	c #AB2C22",
"g 	c #AA2B22",
"h 	c #B42F24",
"i 	c #B32F24",
"j 	c #A52A20",
"k 	c #9F2820",
"l 	c #841E1A",
"m 	c #8F221C",
"n 	c #7E1B18",
"o 	c #AF2E23",
"p 	c #811C19",
"q 	c #9C261E",
"r 	c #92231D",
"s 	c #BD3225",
"t 	c #A52A21",
"u 	c #93231D",
"v 	c #B73024",
"w 	c #B12E23",
"x 	c #861E1A",
"y 	c #A12820",
"z 	c #781918",
"A 	c #9D271F",
"B 	c #B93124",
"C 	c #7E1B19",
"D 	c #B53024",
"E 	c #851E1A",
"F 	c #A22920",
"G 	c #BA3125",
"H 	c #771918",
"I 	c #9E271F",
"J 	c #B22E23",
"K 	c #91231D",
"L 	c #BB3225",
"M 	c #90221D",
"N 	c #761817",
"O 	c #A72A21",
"P 	c #99261F",
"Q 	c #741817",
"R 	c #B22F23",
"S 	c #8A201C",
"T 	c #761918",
"U 	c #BB3226",
"V 	c #7E1C19",
"W 	c #7F1C19",
"X 	c #9C271F",
"Y 	c #95241E",
"Z 	c #93241D",
"` 	c #821D1A",
" .	c #BA3225",
"..	c #891F1B",
"+.	c #BE3226",
"@.	c #A72B21",
"#.	c #7A1A18",
"$.	c #9A261E",
"%.	c #AF2D22",
"&.	c #871F1B",
"*.	c #9F271F",
"=.	c #AE2D22",
"                                                                                                                                ",
"                                                                                                                                ",
"                                                                                                                                ",
"                                                                                                                                ",
"                                                                                                                                ",
"                                                                                                                                ",
"                                                                                                                                ",
"                                                                                                                                ",
"                                                  . + @ # $ % & * = - ; > , ' ) !                                               ",
"                                            ~ { ] ^ ^ ^ ^ ^ ^ ^ ^ ^ ^ ^ ^ ^ ^ ^ ^ / ( _ :                                       ",
"                                          < - ^ ^ ^ ^ ^ ^ ^ ^ ^ ^ ^ ^ ^ ^ ^ ^ ^ ^ ^ ^ ^ ^ [                                     ",
"                                      } | ^ ^ ^ ^ ^ ^ ^ ^ ^ ^ ^ ^ ^ ^ ^ ^ ^ ^ ^ ^ ^ ^ ^ ^ [                                     ",
"                                    } 1 ^ ^ ^ ^ ^ ^ ^ ^ ^ ^ ^ ^ ^ ^ ^ ^ ^ ^ ^ ^ ^ ^ ^ ^ ^ [                                     ",
"                                    2 ^ ^ ^ ^ ^ ^ ^ * 3 _ 4 ! ~ 5 ~ ! 6 + 7 8 & ^ ^ ^ ^ ^ [                                     ",
"                                  9 ^ ^ ^ ^ ^ ^ 0 a b                         c ) d / ^ ^ [                                     ",
"                                  e ^ ^ ^ ^ ^ & f                                   } g 8 h                                     ",
"                                i ^ ^ ^ ^ ^ ^ j                                                                                 ",
"                                k ^ ^ ^ ^ ^ l                                                                                   ",
"                                m ^ ^ ^ ^ ^ '                                                                                   ",
"                                ; ^ ^ ^ ^ ^ f                                                                                   ",
"                                n ^ ^ ^ ^ ^ o                                                                                   ",
"                                p ^ ^ ^ ^ ^ f                                                                                   ",
"                                ] ^ ^ ^ ^ ^ q                                                                                   ",
"                                r ^ ^ ^ ^ ^ - s                                                                                 ",
"                                t ^ ^ ^ ^ ^ ^ u 5                                                                               ",
"                                v ^ ^ ^ ^ ^ ^ ^ ] w                                                                             ",
"                                  u ^ ^ ^ ^ ^ ^ ^ ^ x y h                                                                       ",
"                                  . z ^ ^ ^ ^ ^ ^ ^ ^ ^ ^ = 3 A < B                                                             ",
"                                    < ^ ^ ^ ^ ^ ^ ^ ^ ^ ^ ^ ^ ^ ^ ^ C u j D                                                     ",
"                                      < = ^ ^ ^ ^ ^ ^ ^ ^ ^ ^ ^ ^ ^ ^ ^ ^ ^ E F G                                               ",
"                                        v m ^ ^ ^ ^ ^ ^ ^ ^ ^ ^ ^ ^ ^ ^ ^ ^ ^ ^ H I ~                                           ",
"                                            J K & ^ ^ ^ ^ ^ ^ ^ ^ ^ ^ ^ ^ ^ ^ ^ ^ ^ - w                                         ",
"                                                L { M / ^ ^ ^ ^ ^ ^ ^ ^ ^ ^ ^ ^ ^ ^ ^ N +                                       ",
"                                                        D O P ] H ^ ^ ^ ^ ^ ^ ^ ^ ^ ^ ^ Q 4                                     ",
"                                                                5 R F S ^ ^ ^ ^ ^ ^ ^ ^ ^ / G                                   ",
"                                                                        ! @ N ^ ^ ^ ^ ^ ^ ^ 7                                   ",
"                                                                            h $ ^ ^ ^ ^ ^ ^ T U                                 ",
"                                                                              G V ^ ^ ^ ^ ^ ^ f                                 ",
"                                                                                < ^ ^ ^ ^ ^ ^ @                                 ",
"                                                                                  W ^ ^ ^ ^ ^ 1                                 ",
"                                                                                  | ^ ^ ^ ^ ^ E                                 ",
"                                                                                  X ^ ^ ^ ^ ^ n                                 ",
"                                                                                  A ^ ^ ^ ^ ^ p                                 ",
"                                                                                  Y ^ ^ ^ ^ ^ ]                                 ",
"                                                                                  W ^ ^ ^ ^ ^ Z                                 ",
"                                                                                4 ^ ^ ^ ^ ^ ^ t                                 ",
"                                , t }                                         s ` ^ ^ ^ ^ ^ ^ v                                 ",
"                                8 ^ % F  .                                  L ..^ ^ ^ ^ ^ ^ 3                                   ",
"                                8 ^ ^ ^ * > + ~                         +.O % ^ ^ ^ ^ ^ ^ 0 J                                   ",
"                                8 ^ ^ ^ ^ ^ ^ * x d @.J . L 5 s b i @.a #.^ ^ ^ ^ ^ ^ ^ ^ q                                     ",
"                                8 ^ ^ ^ ^ ^ ^ ^ ^ ^ ^ ^ ^ ^ ^ ^ ^ ^ ^ ^ ^ ^ ^ ^ ^ ^ ^ ^ K 5                                     ",
"                                8 ^ ^ ^ ^ ^ ^ ^ ^ ^ ^ ^ ^ ^ ^ ^ ^ ^ ^ ^ ^ ^ ^ ^ ^ ^ ^ $.5                                       ",
"                                G _ # ^ ^ ^ ^ ^ ^ ^ ^ ^ ^ ^ ^ ^ ^ ^ ^ ^ ^ ^ ^ ^ ^ l %.                                          ",
"                                      ! t r / ^ ^ ^ ^ ^ ^ ^ ^ ^ ^ ^ ^ ^ ^ ^ & m <                                               ",
"                                              h + X ( E W = 0 * z V &.u *.=.s                                                   ",
"                                                                                                                                ",
"                                                                                                                                ",
"                                                                                                                                ",
"                                                                                                                                ",
"                                                                                                                                ",
"                                                                                                                                ",
"                                                                                                                                ",
"                                                                                                                                ",
"                                                                                                                                "};
