/* XPM */
static char * texture_wall2_xpm[] = {
"64 64 153 2",
"  	c #7B0000",
". 	c #7E0000",
"+ 	c #770000",
"@ 	c #960000",
"# 	c #970000",
"$ 	c #850000",
"% 	c #7C0000",
"& 	c #7A0000",
"* 	c #7F0000",
"= 	c #6E0000",
"- 	c #950000",
"; 	c #860000",
"> 	c #730000",
", 	c #6F0000",
"' 	c #8F0000",
") 	c #610000",
"! 	c #900000",
"~ 	c #5D0000",
"{ 	c #8A0000",
"] 	c #910000",
"^ 	c #6C0000",
"/ 	c #600000",
"( 	c #920000",
"_ 	c #840000",
": 	c #4C0000",
"< 	c #870000",
"[ 	c #710000",
"} 	c #750000",
"| 	c #560000",
"1 	c #490000",
"2 	c #4F0000",
"3 	c #8B0000",
"4 	c #930000",
"5 	c #280000",
"6 	c #4B0000",
"7 	c #660000",
"8 	c #270000",
"9 	c #740000",
"0 	c #940000",
"a 	c #4D0000",
"b 	c #440000",
"c 	c #550000",
"d 	c #410000",
"e 	c #760000",
"f 	c #800000",
"g 	c #400000",
"h 	c #650000",
"i 	c #7D0000",
"j 	c #3E0000",
"k 	c #670000",
"l 	c #700000",
"m 	c #3D0000",
"n 	c #8D0000",
"o 	c #820000",
"p 	c #5E0000",
"q 	c #990000",
"r 	c #790000",
"s 	c #830000",
"t 	c #640000",
"u 	c #680000",
"v 	c #9A0000",
"w 	c #8C0000",
"x 	c #530000",
"y 	c #780000",
"z 	c #A50000",
"A 	c #A90000",
"B 	c #980000",
"C 	c #A80000",
"D 	c #A20000",
"E 	c #A70000",
"F 	c #880000",
"G 	c #9C0000",
"H 	c #A30000",
"I 	c #810000",
"J 	c #B30000",
"K 	c #B40000",
"L 	c #AC0000",
"M 	c #890000",
"N 	c #8E0000",
"O 	c #B00000",
"P 	c #B60000",
"Q 	c #B10000",
"R 	c #AF0000",
"S 	c #B80000",
"T 	c #B70000",
"U 	c #AA0000",
"V 	c #A10000",
"W 	c #B90000",
"X 	c #BA0000",
"Y 	c #B20000",
"Z 	c #9E0000",
"` 	c #690000",
" .	c #B50000",
"..	c #9B0000",
"+.	c #A60000",
"@.	c #AE0000",
"#.	c #A40000",
"$.	c #620000",
"%.	c #AB0000",
"&.	c #3B0000",
"*.	c #420000",
"=.	c #5B0000",
"-.	c #720000",
";.	c #340000",
">.	c #AD0000",
",.	c #390000",
"'.	c #A00000",
").	c #580000",
"!.	c #430000",
"~.	c #220000",
"{.	c #2D0000",
"].	c #3C0000",
"^.	c #4A0000",
"/.	c #380000",
"(.	c #9F0000",
"_.	c #3F0000",
":.	c #470000",
"<.	c #5C0000",
"[.	c #210000",
"}.	c #6A0000",
"|.	c #9D0000",
"1.	c #590000",
"2.	c #310000",
"3.	c #630000",
"4.	c #6D0000",
"5.	c #6B0000",
"6.	c #570000",
"7.	c #300000",
"8.	c #2F0000",
"9.	c #5F0000",
"0.	c #260000",
"a.	c #540000",
"b.	c #5A0000",
"c.	c #520000",
"d.	c #460000",
"e.	c #4E0000",
"f.	c #500000",
"g.	c #450000",
"h.	c #2B0000",
"i.	c #360000",
"j.	c #320000",
"k.	c #370000",
"l.	c #2A0000",
"m.	c #510000",
"n.	c #190000",
"o.	c #290000",
"p.	c #480000",
"q.	c #350000",
"r.	c #2E0000",
"s.	c #1F0000",
"t.	c #250000",
"u.	c #2C0000",
"v.	c #200000",
"  . + @ # # # # # # # # # # # # # # # # # @ $ + % & * = - # # # # # # # # # # # # # # # # # # @ ; > % & * , # # # # # # # # # # ",
"' ) * @ # # # # # # # # # # # # # # # # # # ! ~ { ] ^ / ( # # # # # # # # # # # # # # # # # # @ _ : < ( [ } @ # # # # # # # # # ",
"| 1 2 3 @ # # # # # # # # # # # # # # # # 4 > 5 ) 6 7 8 9 0 # # # # # # # # # # # # # # # # @ { a b / c 6 d 3 # # # # # # # # # ",
"e f g h ' # # # # # # # # # # # # # # # 0 i j k < l _ k m f - # # # # # # # # # # # # # # @ n ) m o   e f d p ' # # # # # # # # ",
"n q r ~ + ] # # # # # # # # # # # # # - s h t ( - { - ' / u < - # # # # # # # # # # # # # ' , ~ % v w n q r x y ] # # # # # # # ",
"z A B e r i ( # # # # # # # # # # # - < } 9 3 C D E z z F = % { @ # # # # # # # # # # # ] e } & G A H z A B [ 9 I ( # # # # # # ",
"J K L 4 * ' f 4 # # # # # # # # # - M % N $ z K O P Q J D o M $ w @ # # # # # # # # # ]   ; $ @ R J J J K L 4 [ ( _ 4 # # # # # ",
"S S T U ! @ ( _ 4 # # # @ # # # - 3 } z $ V J W T X T W Y Z f z I N @ # # @ # # # # ( * I Z ( L T S S W S T A ! f D _ 4 # # # @ ",
"W X X P C n 0 y < 0 # # 0 # # - n > 3 < Z Q W X W S X X W O G o ]   ' @ # - @ # # ( s ` 0 ' A P X X W W X X  .C w ; ; < 0 # # 0 ",
"T X X W  .C { % , M - @ ! # @ N y ^ i q O T X X W P W X X T O ..i e i ] # ( 4 # 4 ; t + M E  .W X X S S X X W  .C < r } M - @ ! ",
"K S X S S K +.o ~ l n 0 F - ! i c ^ 4 @.P S X X T J P X W S P R # , / o 4 n ' 0 M ` c * #.K S S X S K K S X S S K +.f $.l n 0 F ",
"%.K S S T P Q D [ &.y 3 i N o c *.3 U K T S S P Y U O P S S P K %.] 6 =.< _ ; 3 -.;.k Z Q P T S T  .>.L K S S T P Q D > ,.e 3 i ",
"'.%.Y  . .J R U v ).!.+ ^ . ) ~.% H >.Q K  .K O C Z z R K  . .Y >.z $ {.7 -.} y ].^.@ U O J  . .J L H '.%.Y  . .J R U v / /.e ^ ",
"B (.+.U A +.E z '.' _.:.=.<.[.}.q H z D #.A A z |.# v H A %.C +.+.H ..9 {.<.1.:.2.M '.#.#.D +.U C V q B Z +.U U +.E z '.' 6 ].1.",
"# # q v B B q G ..# , 0 >.Z / N v G q # # B q q # # # B v q B B ..G v * w L H 3.e # G v B # # q q B # # # q q B B q G ..# > ; L ",
"# # # # # # # # # ! k % f % 4.$ - # # # # # # # # # # # # # # # # B 0 =   f i } > ( # # # # # # # # # # # # # # # # # # ! ^ & f ",
"# # # # # # # # # - = _ f _ 4.' # # # # # # # # # # # # # # # # # # @ 9 s f _ } I @ # # # # # # # # # # # # # # # # # # - > o f ",
"# # # # # # # # # 0 5.k M > 2 w @ # # # # # # # # # # # # # # # # # # _ ) <   m e 0 # # # # # # # # # # # # # # # # # # 0 [ 6.; ",
"# # # # # # # # - . 7.<.).k 8.t ' # # # # # # # # # # # # # # # # # N 9.0.u a./ 7.I - # # # # # # # # # # # # # # # # - . 7.<.b.",
"# # # # # # # @ $ b 2 M } f } 5 [ ( # # # # # # # # # # # # # # # ] ^ [.e s -.; c.d.< @ # # # # # # # # # # # # # # @ $ b 2 F } ",
"# # # # # # @ M b.:.{ v w ( # ` d   4 # # # # # # # # # # # # # ( e m ` v ] n q < ^.9.3 @ # # # # # # # # # # # # @ M b.:.{ v n ",
"# # # # # @ 3 ` h o #.+.+.z A ( ^ 7 I 0 # # # # # # # # # # # ( i <.4.@ %.H C C V * t > N @ # # # # # # # # # # @ 3 }.h o #.+.E ",
"# # # # @ n l   * (.J Y  .Y  .C n   9 $ 0 # # # # # # # # # 4 I 7 . ! %. .Q P J Q G % . r ' @ # # # # # # # # @ n l % * (.J Y  .",
"# # # @ ' } N ; ..Q W T W S W  .+.{ 0 y F - # # # @ # # # 4 $ ` @ n C P W S W S S R q o - % ] @ # # @ # # # @ ' 9 N ; ..Q W T W ",
"# # @ ' & _ G # R S X X S W X X J #.n #.-.3 - # @ 0 # # 0 < 7 Z ( z K X X W S X X T >.# 0 0 * ] # # 0 # # @ ' & _ ..# @.S X W S ",
"@ @ ] . u ' 4 >.P X X X P S X X S J H n $ -.n @ 0 ] # 0 { 5.r ! H J S X X W P X X W P >.0 ' + o 4 # ! - @ ! . u ! 4 >.P W X X P ",
"( ] o p } n %.P S W X T J  .W X S T J '.s 7 y ' ] { - w -.).I Z Y T S X W  .J T X W S P L ' r ` < 0 M ( ( o p } n %.P S W X T J ",
"{ ; 3.e.o +.J P S S T J %.>. .S S T  .R G = f.* F * n r g.7 B @. .T S T  .R U Y T S T P J C F ).}.M . { ; 3.2 s +.J P S S T J %.",
"r ^ h.^ Z L O J  .K Q U '.V L J  . .Y @.C 4 b | 9 4.% a i.w E @.Y K  .J @.z |.E O K  .K O L V + j.l ^ r ^ h.^ (.L O J  .K Q U '.",
"u k.x 0 D #.D V +.C +.(.B B '.E A C z +.#.Z s l.p 7 m.n.& |.H H V #.C C D ..# ..#.C A z z z V # 9.8.b.5.d c.0 D #.D V +.C z (.B ",
"C I   q ..q # # # B q # # # # q q B B v G ..' } z U 3 ) 0 ..v B # # B q B # # # B q B # B ..G q < ` #.%.' 9 q ..q # # # B q # # ",
"& e -.4 # # # # # # # # # # # # # # # # # -   } &   + }.' - # # # # # # # # # # # # # # # # # ( y -.&   y 5.4 # # # # # # # # # ",
"$ f & # # # # # # # # # # # # # # # # # # # { } ; _ _ , - # # # # # # # # # # # # # # # # # # @ { [ ; _ $ -.# # # # # # # # # # ",
"  :.f @ # # # # # # # # # # # # # # # # # # ' | } . a.b.! # # # # # # # # # # # # # # # # # # - f ,.> * a.y @ # # # # # # # # # ",
"/ x g.F @ # # # # # # # # # # # # # # # # ( 4.o., x = h.= ( # # # # # # # # # # # # # # # # @ ; b e.}.9.| k.< @ # # # # # # # # ",
"r _ p.9.w @ # # # # # # # # # # # # # # 4 y m , M > < 4.&.% 0 # # # # # # # # # # # # # # @ 3 =.d.; i r _ ^.).w # # # # # # # # ",
"! ... ) 9 ' # # # # # # # # # # # # # 0 f 7 5.- @ N # ( 7 u s - # # # # # # # # # # # # @ n ^ $.I G ' ! ... | e ' # # # # # # # ",
"E U ..& %   ] # # # # # # # # # # # 0 _ y } ' U #.A +.C w l . < - # # # # # # # # # # @ ' > & i (.U z E %...+ 9 I ! # # # # # # ",
" . .@.# * 0 . ] # # # # # # # # # 0 ; * N F E  .Y T Y K #.; < { { - # # # # # # # # # ! + n $ v Q K K  .K @.# 9 4 $ ] # # # # # ",
"W W T L 4 ( # I ( # # # - # # # - { e z ; H K W T X S W J V s H s w @ # # @ # # # # ] % < ..- @.S S W W W T L 0 i #.s 4 # # # - ",
"W X X P U ! ' r _ 4 # # 4 # # - 3 [ 3 ; V Y W X X S X X W Q '.o ! & N @ # - - # # ] f 5.] ] %.P X X W W X X P U ! f F _ 4 # # 0 ",
"T X X W  .U n   5.< 0 @ ' # - n 9 ^ i |.Q T X X W P W X X T Q (.i } & ! @ ( 4 # ( s ) + w U  .W X X T T X X W  .U w } > F 0 @ ' ",
"J S X S S  .C ; <.5.3 4 < 0 N & m.4.# O T S W W P Y P W W S P Q v l b.* ] w N 0 < t x o +. .S S X S K J S X S S  .C $ p 5.3 4 < ",
"U J T S T  .Q #.y q.> M % n * e.:.' %.K P S S P O A R  .S S P K >.- m.x _ o _ { 4.r.= V Q P T S T K L U J T S T  .Y #.& q.[ M % ",
"Z A Q K  .Y R U G $.,.> `   b.o.o #.>.O J  .J R E |.H @.J  .K Q >.+.{ ;./ , -.} ;.a.B U @.Y K K Y %.V Z A Q K  .Y R U G ` 7.-.u ",
"# |.z C E #.z #.'.] 1 &.2 x s.[ v D H '.V +.E H G # q V E C z #.z D ..  8 m.e._.&.n '.H D '.#.E +.'.B # |.z C E #.z #.'.] a.2.: ",
"# # B B # # q ....# [ ] >...9.! v ..B # # # B B # # # # B B # B v ..q I < %.V p % # ..v # # # B B # # # # B B # # B ....# + I %.",
"# # # # # # # # @ ' k f _ f = $ - # # # # # # # # # # # # # # # # # 0 = . _ I e 9 ] # # # # # # # # # # # # # # # # # @ ! ^ i _ ",
"# # # # # # # # # @ 4.o i I = ' # # # # # # # # # # # # # # # # # # # > I i f e * # # # # # # # # # # # # # # # # # # # @ > I . ",
"# # # # # # # # # ( t l N & ^.M @ # # # # # # # # # # # # # # # # # @ * 7 n I g., 4 # # # # # # # # # # # # # # # # # # ( ` ) 3 ",
"# # # # # # # # 0 & 5 $.1.}.k.=.n # # # # # # # # # # # # # # # # @ w 6.j.}.| k h.% 0 # # # # # # # # # # # # # # # # 0 r 5 t b.",
"# # # # # # # - I ].1.3 y o % h.}.! # # # # # # # # # # # # # # # ' 7 0.% $ e M <.m _ - # # # # # # # # # # # # # # - I &.1.3 y ",
"# # # # # # - ; 6.f.' G ! 0 v [ !.+ ( # # # # # # # # # # # # # ] [ _.[ G 4 ! ..3 c.=.M @ # # # # # # # # # # # # - ; 6.f.' G ! ",
"# # # # # - M u ` < E C A E L @ [ ` i ( # # # # # # # # # # # ] r 9.-.q L z %.U H _ u [ 3 @ # # # # # # # # # # - M ` ` < E C A ",
"# # # # - 3 , * o D K J P K P U ] i + o 4 # # # # # # # # # ( . }.f 4 >. .J T K J (.f f r N @ # # # # # # # # - 3 , f o D K J P ",
"# # # - w -.- < Z Y W S W W W P C N - i ; 0 # # # @ # # # ( o 4.q ! U P W S W S W O G o v   ' @ # # - # # # - w [ - < Z Y W S W ",
"@ # @ N e { # ..O S X X S X X X  .E N #.-.M - # @ 0 # # 4 $ h '.( C  .X X W S X X S O v ] B % ] # # 4 @ # @ N e { # ..O S X X S ",
"- @ '   }.w @ R T X X X P S X X S K +.n ; , 3 - 0 ! # 4 < k % N z K S X X S P X X W T R B 3 r f ( # ' - @ '   }.w @ R T X X X P ",
"( ] f =.e ! >.P S W X T Y K W X S T K #._ 7 } N ! M 0 { = =.o V J T S X W  .Y T X W S P @.4 y k _ 4 F ( ] * <.} ] >.P S W X T J ",
"M _ ~ e.< C J P S S P Y A L K T S T  .O (.[ 6 % ; i w } _.` ..R  .T S T  .>.C Q P S T P J U n 6.t < % M _ ~ 2 < C J P S S P Y A ",
"e k t.> '.%.R Q K K O C Z '.%.Y K K Q >.C @ : e.[ ` r g.j ! C >.O J K Y L H G +.R J K J R %.D i 7.5.` e k t.9 '.%.R Y K K O C Z ",
"9.u.<.@ V D '.(.H +.H |.# B Z z E z H #.H Z M {.c.b.1 v.I Z D V (.V z +.V v # v D E +.H #.#.V B ` 8 : $.;.<.@ V D (.(.H +.#.|.B ",
"A i * q v B # # # B B # # # # B B # # q ..v ] > +.%.F t - v v # # # # B # # # # # B # # B v ..B F k #.L n + q v B # # # B B # # ",
"i y -.4 # # # # # # # # # # # # # # # # # - % e . . r }.' @ # # # # # # # # # # # # # # # # # ( y > i . & 5.4 # # # # # # # # # "};
