/* XPM */
static char * west_xpm[] = {
"64 64 105 2",
"  	c #BF3326",
". 	c #A02820",
"+ 	c #871F1B",
"@ 	c #90221C",
"# 	c #B73024",
"$ 	c #BA3125",
"% 	c #8A201B",
"& 	c #881F1B",
"* 	c #B63024",
"= 	c #BD3226",
"- 	c #8B201B",
"; 	c #A12820",
"> 	c #BE3326",
", 	c #A62A21",
"' 	c #751817",
") 	c #731717",
"! 	c #7A1A18",
"~ 	c #AC2C22",
"{ 	c #AD2D23",
"] 	c #741717",
"^ 	c #A52A21",
"/ 	c #B02E23",
"( 	c #761818",
"_ 	c #A32920",
": 	c #9A261E",
"< 	c #91221D",
"[ 	c #9F281F",
"} 	c #7B1A18",
"| 	c #AF2D23",
"1 	c #841E1A",
"2 	c #93231D",
"3 	c #BC3225",
"4 	c #831D1A",
"5 	c #BB3125",
"6 	c #8F221C",
"7 	c #811C19",
"8 	c #B93125",
"9 	c #781918",
"0 	c #7C1B19",
"a 	c #B12E23",
"b 	c #B83024",
"c 	c #851E1A",
"d 	c #AD2D22",
"e 	c #741817",
"f 	c #B32F23",
"g 	c #A72A21",
"h 	c #761817",
"i 	c #99251E",
"j 	c #AF2E23",
"k 	c #A42920",
"l 	c #7C1A19",
"m 	c #96241E",
"n 	c #B22E23",
"o 	c #821D1A",
"p 	c #B53024",
"q 	c #BB3225",
"r 	c #8C211C",
"s 	c #891F1B",
"t 	c #861E1A",
"u 	c #92231D",
"v 	c #9B261F",
"w 	c #7F1C19",
"x 	c #791918",
"y 	c #98251E",
"z 	c #A82B21",
"A 	c #771918",
"B 	c #AF2D22",
"C 	c #AA2C22",
"D 	c #AB2C22",
"E 	c #A92B22",
"F 	c #B32F24",
"G 	c #7E1B19",
"H 	c #9D271F",
"I 	c #9E271F",
"J 	c #B42F24",
"K 	c #B52F24",
"L 	c #95241D",
"M 	c #99261F",
"N 	c #BD3225",
"O 	c #A42A21",
"P 	c #A22920",
"Q 	c #99261E",
"R 	c #91231D",
"S 	c #BC3226",
"T 	c #801C19",
"U 	c #9D261F",
"V 	c #9F271F",
"W 	c #7D1B19",
"X 	c #861E1B",
"Y 	c #AE2D22",
"Z 	c #B42F23",
"` 	c #A72B21",
" .	c #97251E",
"..	c #8D211C",
"+.	c #89201B",
"@.	c #841D1A",
"#.	c #9A261F",
"$.	c #9C271F",
"%.	c #B83124",
"&.	c #94241D",
"*.	c #AE2D23",
"=.	c #8A211C",
"-.	c #8E221D",
";.	c #8E211C",
">.	c #811D1A",
"                                                                                                                                ",
"                                                                                                                                ",
"                                                                                                                                ",
"                                                                                                                                ",
"                                                                                                                                ",
"                                                                                                                                ",
"                                                                                                                                ",
"                                                                                                                                ",
"                                                                                                                                ",
"                                                                                                                                ",
"                                                                                                                                ",
"                                                                                                                                ",
"                                                                                                                                ",
"                                                                                                                                ",
"                                                                                                                                ",
"                    . + + + @ #                         $ % + + + & *                         = - + + + ; >                     ",
"                    , ' ) ) ! ~                         { ) ) ) ) ] ^                         / ( ) ) ' _                       ",
"                    # ( ) ) ] .                         : ) ) ) ) ) <                         [ ' ) ) } |                       ",
"                    > 1 ) ) ) 2 3                       4 ) ) ) ) ) 4 5                       6 ) ) ) 7 $                       ",
"                      : ) ) ) 4 8                     * 9 ) ) 9 ) ) 0 a                     b c ) ) ) 6                         ",
"                      d ) ) ) e f                     g h ) ) i e ) h ,                     j } ) ) ) k                         ",
"                      # l ) ) ) k                     m ] ) e n o ) ) i =                   , ) ) ) ] p                         ",
"                      q r ) ) ) 6                   q s ) ) t $ u ) ) % $                 = m ) ) ) o =                         ",
"                      > v ) ) ) ! 3                 f w ) ) : > . ) ) x #                 q 1 ) ) ) y >                         ",
"                        z A ) ) ' B                 C h ) ) ~   D x ) ) D                 * ) ) ) ) E                           ",
"                        F G ) ) ] H               > I ) ) 0 J   K w ) ) y                 ^ ) ) ) ! J                           ",
"                        3 c ) ) ) - >             3 r ) ) % 8   > + ) ) 7 >               @ ) ) ) s 8                           ",
"                          L ) ) ) o *             $ x ) ) m >     M ) ) ( K             N 0 ) ) ) m >                           ",
"                          z e ) ) ! d             d ) ) ( _       D e ) e O             j 9 ) ) ( _                             ",
"                          8 h ) ) ) P             Q ) ) ! /       q A ) ) R             . ' ) ) ! a                             ",
"                          > + ) ) ) 2 3           4 ) ) w S       > % ) ) c $         > < ) ) ) T 3                             ",
"                            U ) ) ) o $         * x ) ) <           V ) ) W a         b X ) ) ) u                               ",
"                            Y ) ) ) ) Z         g ( ) ) ^           | ) ) ' g         a } ) ) ) `                               ",
"                            * G ) ) ) _          .] ) ] *           * G ) ) : =       ` ) ) ) e #                               ",
"                            5 ..) ) ) ..      q - ) ) 4 =           $ ..) ) +.5     =  .) ) ) X =                               ",
"                            > v ) ) ) ! 3     J T ) ) y >           > : ) ) A #     3 @.) ) ) #.>                               ",
"                              z 9 ) ) ( Y     ~ ' ) ) z               g A ) ) C     * ) ) ) ) D                                 ",
"                              F W ) ) e $.  > I ) ) ! n               F W ) ) m     ^ ) ) ) W F                                 ",
"                              > 1 ) ) ) ..> N r ) ) + %.              = o ) ) w >   @ ) ) ) % $                                 ",
"                                 .) ) ) 4 * $ 9 ) ) u >                 &.) ) A J 3 W ) ) ) m >                                 ",
"                                D ) ) ) x *.d ) ) ' .                   ` ) ) ' k / x ) ) ( ^                                   ",
"                                $ ( ) ) ) k y ) ) 9 j                   b e ) ) 2 P h ) ) ! f                                   ",
"                                > =.) ) ) 2 w ) ) W q                   > c ) ) c - ) ) ) 7 >                                   ",
"                                > I ) ) ) x ] ) ) -.                    > : ) ) ( A ) ) ) m                                     ",
"                                  | ) ) ) ) ) ) ) k                       D ) ) ) ) ) ) ) C                                     ",
"                                  * T ) ) ) ) ) ) K                       J } ) ) ) ) ) A 8                                     ",
"                                  q ;.) ) ) ) ) >.3                       8 s ) ) ) ) ) % N                                     ",
"                                    : ) ) ) ) ) L =                       > L ) ) ) ) ) H >                                     ",
"                                    |  .m m m L {                           ~ m m m m L a                                       ",
"                                                                                                                                ",
"                                                                                                                                ",
"                                                                                                                                ",
"                                                                                                                                ",
"                                                                                                                                ",
"                                                                                                                                ",
"                                                                                                                                ",
"                                                                                                                                ",
"                                                                                                                                ",
"                                                                                                                                ",
"                                                                                                                                ",
"                                                                                                                                ",
"                                                                                                                                ",
"                                                                                                                                ",
"                                                                                                                                "};
